%TF.GenerationSoftware,KiCad,Pcbnew,9.0.3*%
%TF.CreationDate,2025-08-22T06:12:51+02:00*%
%TF.ProjectId,PCB_MF_PicoMicro,5043425f-4d46-45f5-9069-636f4d696372,rev?*%
%TF.SameCoordinates,Original*%
%TF.FileFunction,Copper,L1,Top*%
%TF.FilePolarity,Positive*%
%FSLAX46Y46*%
G04 Gerber Fmt 4.6, Leading zero omitted, Abs format (unit mm)*
G04 Created by KiCad (PCBNEW 9.0.3) date 2025-08-22 06:12:51*
%MOMM*%
%LPD*%
G01*
G04 APERTURE LIST*
G04 Aperture macros list*
%AMRoundRect*
0 Rectangle with rounded corners*
0 $1 Rounding radius*
0 $2 $3 $4 $5 $6 $7 $8 $9 X,Y pos of 4 corners*
0 Add a 4 corners polygon primitive as box body*
4,1,4,$2,$3,$4,$5,$6,$7,$8,$9,$2,$3,0*
0 Add four circle primitives for the rounded corners*
1,1,$1+$1,$2,$3*
1,1,$1+$1,$4,$5*
1,1,$1+$1,$6,$7*
1,1,$1+$1,$8,$9*
0 Add four rect primitives between the rounded corners*
20,1,$1+$1,$2,$3,$4,$5,0*
20,1,$1+$1,$4,$5,$6,$7,0*
20,1,$1+$1,$6,$7,$8,$9,0*
20,1,$1+$1,$8,$9,$2,$3,0*%
%AMFreePoly0*
4,1,9,3.862500,-0.866500,0.737500,-0.866500,0.737500,-0.450000,-0.737500,-0.450000,-0.737500,0.450000,0.737500,0.450000,0.737500,0.866500,3.862500,0.866500,3.862500,-0.866500,3.862500,-0.866500,$1*%
G04 Aperture macros list end*
%TA.AperFunction,SMDPad,CuDef*%
%ADD10RoundRect,0.140000X-0.170000X0.140000X-0.170000X-0.140000X0.170000X-0.140000X0.170000X0.140000X0*%
%TD*%
%TA.AperFunction,SMDPad,CuDef*%
%ADD11RoundRect,0.135000X0.135000X0.185000X-0.135000X0.185000X-0.135000X-0.185000X0.135000X-0.185000X0*%
%TD*%
%TA.AperFunction,SMDPad,CuDef*%
%ADD12RoundRect,0.140000X0.140000X0.170000X-0.140000X0.170000X-0.140000X-0.170000X0.140000X-0.170000X0*%
%TD*%
%TA.AperFunction,SMDPad,CuDef*%
%ADD13RoundRect,0.225000X-0.225000X-0.375000X0.225000X-0.375000X0.225000X0.375000X-0.225000X0.375000X0*%
%TD*%
%TA.AperFunction,SMDPad,CuDef*%
%ADD14RoundRect,0.140000X-0.140000X-0.170000X0.140000X-0.170000X0.140000X0.170000X-0.140000X0.170000X0*%
%TD*%
%TA.AperFunction,SMDPad,CuDef*%
%ADD15RoundRect,0.147500X-0.147500X-0.172500X0.147500X-0.172500X0.147500X0.172500X-0.147500X0.172500X0*%
%TD*%
%TA.AperFunction,SMDPad,CuDef*%
%ADD16RoundRect,0.135000X-0.135000X-0.185000X0.135000X-0.185000X0.135000X0.185000X-0.135000X0.185000X0*%
%TD*%
%TA.AperFunction,ComponentPad*%
%ADD17RoundRect,0.250000X0.265000X0.615000X-0.265000X0.615000X-0.265000X-0.615000X0.265000X-0.615000X0*%
%TD*%
%TA.AperFunction,ComponentPad*%
%ADD18O,1.030000X1.730000*%
%TD*%
%TA.AperFunction,SMDPad,CuDef*%
%ADD19RoundRect,0.140000X0.170000X-0.140000X0.170000X0.140000X-0.170000X0.140000X-0.170000X-0.140000X0*%
%TD*%
%TA.AperFunction,SMDPad,CuDef*%
%ADD20RoundRect,0.250000X-0.450000X-0.350000X0.450000X-0.350000X0.450000X0.350000X-0.450000X0.350000X0*%
%TD*%
%TA.AperFunction,SMDPad,CuDef*%
%ADD21RoundRect,0.225000X0.425000X0.225000X-0.425000X0.225000X-0.425000X-0.225000X0.425000X-0.225000X0*%
%TD*%
%TA.AperFunction,SMDPad,CuDef*%
%ADD22FreePoly0,180.000000*%
%TD*%
%TA.AperFunction,SMDPad,CuDef*%
%ADD23RoundRect,0.135000X0.185000X-0.135000X0.185000X0.135000X-0.185000X0.135000X-0.185000X-0.135000X0*%
%TD*%
%TA.AperFunction,SMDPad,CuDef*%
%ADD24R,0.530000X0.470000*%
%TD*%
%TA.AperFunction,SMDPad,CuDef*%
%ADD25R,0.200000X0.875000*%
%TD*%
%TA.AperFunction,SMDPad,CuDef*%
%ADD26R,0.875000X0.200000*%
%TD*%
%TA.AperFunction,HeatsinkPad*%
%ADD27C,0.425000*%
%TD*%
%TA.AperFunction,SMDPad,CuDef*%
%ADD28R,3.400000X3.400000*%
%TD*%
%TA.AperFunction,SMDPad,CuDef*%
%ADD29RoundRect,0.062500X-0.387500X-0.062500X0.387500X-0.062500X0.387500X0.062500X-0.387500X0.062500X0*%
%TD*%
%TA.AperFunction,HeatsinkPad*%
%ADD30R,0.200000X1.600000*%
%TD*%
%TA.AperFunction,SMDPad,CuDef*%
%ADD31R,1.050000X0.650000*%
%TD*%
%TA.AperFunction,SMDPad,CuDef*%
%ADD32R,1.700000X0.700000*%
%TD*%
%TA.AperFunction,SMDPad,CuDef*%
%ADD33RoundRect,0.135000X-0.185000X0.135000X-0.185000X-0.135000X0.185000X-0.135000X0.185000X0.135000X0*%
%TD*%
%TA.AperFunction,SMDPad,CuDef*%
%ADD34RoundRect,0.150000X0.500000X-0.150000X0.500000X0.150000X-0.500000X0.150000X-0.500000X-0.150000X0*%
%TD*%
%TA.AperFunction,SMDPad,CuDef*%
%ADD35RoundRect,0.075000X0.575000X-0.075000X0.575000X0.075000X-0.575000X0.075000X-0.575000X-0.075000X0*%
%TD*%
%TA.AperFunction,HeatsinkPad*%
%ADD36O,2.100000X1.000000*%
%TD*%
%TA.AperFunction,HeatsinkPad*%
%ADD37O,1.600000X1.000000*%
%TD*%
%TA.AperFunction,ComponentPad*%
%ADD38R,1.700000X1.700000*%
%TD*%
%TA.AperFunction,ComponentPad*%
%ADD39C,1.700000*%
%TD*%
%TA.AperFunction,ViaPad*%
%ADD40C,0.650000*%
%TD*%
%TA.AperFunction,ViaPad*%
%ADD41C,0.600000*%
%TD*%
%TA.AperFunction,ViaPad*%
%ADD42C,0.450000*%
%TD*%
%TA.AperFunction,Conductor*%
%ADD43C,0.500000*%
%TD*%
%TA.AperFunction,Conductor*%
%ADD44C,0.150000*%
%TD*%
%TA.AperFunction,Conductor*%
%ADD45C,0.200000*%
%TD*%
%TA.AperFunction,Conductor*%
%ADD46C,0.400000*%
%TD*%
%TA.AperFunction,Conductor*%
%ADD47C,0.300000*%
%TD*%
G04 APERTURE END LIST*
D10*
%TO.P,C19,1*%
%TO.N,3.3V*%
X120180000Y-95580000D03*
%TO.P,C19,2*%
%TO.N,GND*%
X120180000Y-96540000D03*
%TD*%
%TO.P,C11,1*%
%TO.N,3.3V*%
X116960000Y-95590000D03*
%TO.P,C11,2*%
%TO.N,GND*%
X116960000Y-96550000D03*
%TD*%
D11*
%TO.P,R2,1*%
%TO.N,/RP2350A/XOUT_R*%
X112380000Y-90170000D03*
%TO.P,R2,2*%
%TO.N,Net-(C5-Pad1)*%
X111360000Y-90170000D03*
%TD*%
D12*
%TO.P,C12,1*%
%TO.N,3.3V*%
X112340000Y-93590000D03*
%TO.P,C12,2*%
%TO.N,GND*%
X111380000Y-93590000D03*
%TD*%
D11*
%TO.P,R4,1*%
%TO.N,/RP2350A/USB_D-*%
X123570000Y-91440000D03*
%TO.P,R4,2*%
%TO.N,/RP2350A/USB_D_R-*%
X122550000Y-91440000D03*
%TD*%
D13*
%TO.P,D1,1,K*%
%TO.N,VIN*%
X128560000Y-87060000D03*
%TO.P,D1,2,A*%
%TO.N,/RP2350A/RAW*%
X131860000Y-87060000D03*
%TD*%
D14*
%TO.P,C14,1*%
%TO.N,3.3V*%
X122560000Y-86270000D03*
%TO.P,C14,2*%
%TO.N,GND*%
X123520000Y-86270000D03*
%TD*%
D15*
%TO.P,D3,1,K*%
%TO.N,GND*%
X111405000Y-87180000D03*
%TO.P,D3,2,A*%
%TO.N,Net-(D3-A)*%
X112375000Y-87180000D03*
%TD*%
D16*
%TO.P,R9,1*%
%TO.N,Net-(D3-A)*%
X111380000Y-86190000D03*
%TO.P,R9,2*%
%TO.N,/RP2350A/GPIO11*%
X112400000Y-86190000D03*
%TD*%
D12*
%TO.P,C9,1*%
%TO.N,3.3V*%
X112350000Y-88170000D03*
%TO.P,C9,2*%
%TO.N,GND*%
X111390000Y-88170000D03*
%TD*%
D16*
%TO.P,R10,1*%
%TO.N,Net-(D2-A)*%
X111380000Y-95570000D03*
%TO.P,R10,2*%
%TO.N,/RP2350A/GPIO19*%
X112400000Y-95570000D03*
%TD*%
D17*
%TO.P,J7,1,Pin_1*%
%TO.N,RX1*%
X108900000Y-87175000D03*
D18*
%TO.P,J7,2,Pin_2*%
%TO.N,TX1*%
X107400000Y-87175000D03*
%TD*%
D19*
%TO.P,C6,1*%
%TO.N,+1V1*%
X118340000Y-85510000D03*
%TO.P,C6,2*%
%TO.N,GND*%
X118340000Y-84550000D03*
%TD*%
D20*
%TO.P,Y1,1,1*%
%TO.N,Net-(C5-Pad1)*%
X107675000Y-91600000D03*
%TO.P,Y1,2,2*%
%TO.N,GND*%
X109875000Y-91600000D03*
%TO.P,Y1,3,3*%
%TO.N,/RP2350A/XIN*%
X109875000Y-89900000D03*
%TO.P,Y1,4,4*%
%TO.N,GND*%
X107675000Y-89900000D03*
%TD*%
D19*
%TO.P,C13,1*%
%TO.N,3.3V*%
X116010000Y-85510000D03*
%TO.P,C13,2*%
%TO.N,GND*%
X116010000Y-84550000D03*
%TD*%
D21*
%TO.P,U2,1,GND*%
%TO.N,GND*%
X131650000Y-92410000D03*
D22*
%TO.P,U2,2,VO*%
%TO.N,3.3V*%
X131562500Y-90910000D03*
D21*
%TO.P,U2,3,VI*%
%TO.N,VIN*%
X131650000Y-89410000D03*
%TD*%
D23*
%TO.P,R7,1*%
%TO.N,GND*%
X133340000Y-96390000D03*
%TO.P,R7,2*%
%TO.N,Net-(J3-CC1)*%
X133340000Y-95370000D03*
%TD*%
D19*
%TO.P,C2,1*%
%TO.N,3.3V*%
X126920000Y-86270000D03*
%TO.P,C2,2*%
%TO.N,GND*%
X126920000Y-85310000D03*
%TD*%
D24*
%TO.P,C16,1*%
%TO.N,3.3V*%
X122590000Y-92360000D03*
%TO.P,C16,2*%
%TO.N,GND*%
X122590000Y-93390000D03*
%TD*%
D25*
%TO.P,U1,1,IOVDD*%
%TO.N,3.3V*%
X120300000Y-87110000D03*
%TO.P,U1,2,GPIO0*%
%TO.N,D0*%
X119900000Y-87110000D03*
%TO.P,U1,3,GPIO1*%
%TO.N,D1*%
X119500000Y-87110000D03*
%TO.P,U1,4,GPIO2*%
%TO.N,D2*%
X119100000Y-87110000D03*
%TO.P,U1,5,GPIO3*%
%TO.N,D3*%
X118700000Y-87110000D03*
%TO.P,U1,6,DVDD*%
%TO.N,+1V1*%
X118300000Y-87110000D03*
%TO.P,U1,7,GPIO4*%
%TO.N,D4*%
X117900000Y-87110000D03*
%TO.P,U1,8,GPIO5*%
%TO.N,D5*%
X117500000Y-87110000D03*
%TO.P,U1,9,GPIO6*%
%TO.N,D6*%
X117100000Y-87110000D03*
%TO.P,U1,10,GPIO7*%
%TO.N,D7*%
X116700000Y-87110000D03*
%TO.P,U1,11,IOVDD*%
%TO.N,3.3V*%
X116300000Y-87110000D03*
%TO.P,U1,12,GPIO8*%
%TO.N,D8*%
X115900000Y-87110000D03*
%TO.P,U1,13,GPIO9*%
%TO.N,D9*%
X115500000Y-87110000D03*
%TO.P,U1,14,GPIO10*%
%TO.N,D10*%
X115100000Y-87110000D03*
%TO.P,U1,15,GPIO11*%
%TO.N,/RP2350A/GPIO11*%
X114700000Y-87110000D03*
D26*
%TO.P,U1,16,GPIO12*%
%TO.N,/RP2350A/GPIO12*%
X114062500Y-87747500D03*
%TO.P,U1,17,GPIO13*%
%TO.N,D13*%
X114062500Y-88147500D03*
%TO.P,U1,18,GPIO14*%
%TO.N,D14*%
X114062500Y-88547500D03*
%TO.P,U1,19,GPIO15*%
%TO.N,D15*%
X114062500Y-88947500D03*
%TO.P,U1,20,IOVDD*%
%TO.N,3.3V*%
X114062500Y-89347500D03*
%TO.P,U1,21,XIN*%
%TO.N,/RP2350A/XIN*%
X114062500Y-89747500D03*
%TO.P,U1,22,XOUT*%
%TO.N,/RP2350A/XOUT_R*%
X114062500Y-90147500D03*
%TO.P,U1,23,DVDD*%
%TO.N,+1V1*%
X114062500Y-90547500D03*
%TO.P,U1,24,SWCLK*%
%TO.N,/RP2350A/SWD*%
X114062500Y-90947500D03*
%TO.P,U1,25,SWDIO*%
%TO.N,/RP2350A/SWCLK*%
X114062500Y-91347500D03*
%TO.P,U1,26,RUN*%
%TO.N,RST*%
X114062500Y-91747500D03*
%TO.P,U1,27,GPIO16*%
%TO.N,TX1*%
X114062500Y-92147500D03*
%TO.P,U1,28,GPIO17*%
%TO.N,RX1*%
X114062500Y-92547500D03*
%TO.P,U1,29,GPIO18*%
%TO.N,/RP2350A/GPIO18*%
X114062500Y-92947500D03*
%TO.P,U1,30,IOVDD*%
%TO.N,3.3V*%
X114062500Y-93347500D03*
D25*
%TO.P,U1,31,GPIO19*%
%TO.N,/RP2350A/GPIO19*%
X114700000Y-93985000D03*
%TO.P,U1,32,GPIO20*%
%TO.N,/RP2350A/GPIO20*%
X115100000Y-93985000D03*
%TO.P,U1,33,GPIO21*%
%TO.N,/RP2350A/GPIO21*%
X115500000Y-93985000D03*
%TO.P,U1,34,GPIO22*%
%TO.N,/RP2350A/GPIO22*%
X115900000Y-93985000D03*
%TO.P,U1,35,GPIO23*%
%TO.N,/RP2350A/GPIO23*%
X116300000Y-93985000D03*
%TO.P,U1,36,GPIO24*%
%TO.N,TX2*%
X116700000Y-93985000D03*
%TO.P,U1,37,GPIO25*%
%TO.N,RX2*%
X117100000Y-93985000D03*
%TO.P,U1,38,IOVDD*%
%TO.N,3.3V*%
X117500000Y-93985000D03*
%TO.P,U1,39,DVDD*%
%TO.N,+1V1*%
X117900000Y-93985000D03*
%TO.P,U1,40,GPIO26_ADC0*%
%TO.N,A0*%
X118300000Y-93985000D03*
%TO.P,U1,41,GPIO27_ADC1*%
%TO.N,A1*%
X118700000Y-93985000D03*
%TO.P,U1,42,GPIO28_ADC2*%
%TO.N,A2*%
X119100000Y-93985000D03*
%TO.P,U1,43,GPIO29_ADC3*%
%TO.N,A3*%
X119500000Y-93985000D03*
%TO.P,U1,44,ADC_AVDD*%
%TO.N,3.3V*%
X119900000Y-93985000D03*
%TO.P,U1,45,IOVDD*%
X120300000Y-93985000D03*
D26*
%TO.P,U1,46,VREG_AVDD*%
%TO.N,Net-(U1-VREG_AVDD)*%
X120937500Y-93347500D03*
%TO.P,U1,47,VREG_PGND*%
%TO.N,GND*%
X120937500Y-92947500D03*
%TO.P,U1,48,VREG_LX*%
%TO.N,/RP2350A/VREG_LX*%
X120937500Y-92547500D03*
%TO.P,U1,49,VREG_VIN*%
%TO.N,3.3V*%
X120937500Y-92147500D03*
%TO.P,U1,50,VREG_FB*%
%TO.N,+1V1*%
X120937500Y-91747500D03*
%TO.P,U1,51,USB_DM*%
%TO.N,/RP2350A/USB_D_R-*%
X120937500Y-91347500D03*
%TO.P,U1,52,USB_DP*%
%TO.N,/RP2350A/USB_D_R+*%
X120937500Y-90947500D03*
%TO.P,U1,53,USB_OTP_VDD*%
%TO.N,3.3V*%
X120937500Y-90547500D03*
%TO.P,U1,54,QSPI_IOVDD*%
X120937500Y-90147500D03*
%TO.P,U1,55,QSPI_SD3*%
%TO.N,/RP2350A/QSPI_SD3*%
X120937500Y-89747500D03*
%TO.P,U1,56,QSPI_SCLK*%
%TO.N,/RP2350A/QSPI_SCLK*%
X120937500Y-89347500D03*
%TO.P,U1,57,QSPI_SD0*%
%TO.N,/RP2350A/QSPI_SD0*%
X120937500Y-88947500D03*
%TO.P,U1,58,QSPI_SD2*%
%TO.N,/RP2350A/QSPI_SD2*%
X120937500Y-88547500D03*
%TO.P,U1,59,QSPI_SD1*%
%TO.N,/RP2350A/QSPI_SD1*%
X120937500Y-88147500D03*
%TO.P,U1,60,QSPI_SS*%
%TO.N,/RP2350A/QSPI_SS*%
X120937500Y-87747500D03*
D27*
%TO.P,U1,61,GND*%
%TO.N,GND*%
X118350000Y-89697500D03*
X117500000Y-89697500D03*
X116650000Y-89697500D03*
X118350000Y-90547500D03*
X117500000Y-90547500D03*
D28*
X117500000Y-90547500D03*
D27*
X116650000Y-90547500D03*
X118350000Y-91397500D03*
X117500000Y-91397500D03*
X116650000Y-91397500D03*
%TD*%
D17*
%TO.P,J8,1,Pin_1*%
%TO.N,TX2*%
X108900000Y-95225000D03*
D18*
%TO.P,J8,2,Pin_2*%
%TO.N,RX2*%
X107400000Y-95225000D03*
%TD*%
D19*
%TO.P,C5,1*%
%TO.N,Net-(C5-Pad1)*%
X106150000Y-91510000D03*
%TO.P,C5,2*%
%TO.N,GND*%
X106150000Y-90550000D03*
%TD*%
D10*
%TO.P,C8,1*%
%TO.N,+1V1*%
X117950000Y-95590000D03*
%TO.P,C8,2*%
%TO.N,GND*%
X117950000Y-96550000D03*
%TD*%
D15*
%TO.P,D2,1,K*%
%TO.N,GND*%
X111400000Y-94580000D03*
%TO.P,D2,2,A*%
%TO.N,Net-(D2-A)*%
X112370000Y-94580000D03*
%TD*%
D12*
%TO.P,C4,1*%
%TO.N,/RP2350A/XIN*%
X112350000Y-89140000D03*
%TO.P,C4,2*%
%TO.N,GND*%
X111390000Y-89140000D03*
%TD*%
D11*
%TO.P,R5,1*%
%TO.N,3.3V*%
X125560000Y-94800000D03*
%TO.P,R5,2*%
%TO.N,Net-(U1-VREG_AVDD)*%
X124540000Y-94800000D03*
%TD*%
D12*
%TO.P,C18,1*%
%TO.N,Net-(U1-VREG_AVDD)*%
X123550000Y-94800000D03*
%TO.P,C18,2*%
%TO.N,GND*%
X122590000Y-94800000D03*
%TD*%
D11*
%TO.P,R6,1*%
%TO.N,3.3V*%
X112390000Y-92160000D03*
%TO.P,R6,2*%
%TO.N,RST*%
X111370000Y-92160000D03*
%TD*%
%TO.P,R3,1*%
%TO.N,/RP2350A/USB_D+*%
X123570000Y-90440000D03*
%TO.P,R3,2*%
%TO.N,/RP2350A/USB_D_R+*%
X122550000Y-90440000D03*
%TD*%
D29*
%TO.P,U4,1,~{CS}*%
%TO.N,/RP2350A/QSPI_SS*%
X123560000Y-87340000D03*
%TO.P,U4,2,DO(IO1)*%
%TO.N,/RP2350A/QSPI_SD1*%
X123560000Y-87840000D03*
%TO.P,U4,3,IO2*%
%TO.N,/RP2350A/QSPI_SD2*%
X123560000Y-88340000D03*
%TO.P,U4,4,GND*%
%TO.N,GND*%
X123560000Y-88840000D03*
%TO.P,U4,5,DI(IO0)*%
%TO.N,/RP2350A/QSPI_SD0*%
X126410000Y-88840000D03*
%TO.P,U4,6,CLK*%
%TO.N,/RP2350A/QSPI_SCLK*%
X126410000Y-88340000D03*
%TO.P,U4,7,IO3*%
%TO.N,/RP2350A/QSPI_SD3*%
X126410000Y-87840000D03*
%TO.P,U4,8,VCC*%
%TO.N,3.3V*%
X126410000Y-87340000D03*
D30*
%TO.P,U4,9*%
%TO.N,N/C*%
X124985000Y-88090000D03*
%TD*%
D14*
%TO.P,C15,1*%
%TO.N,3.3V*%
X124480000Y-89850000D03*
%TO.P,C15,2*%
%TO.N,GND*%
X125440000Y-89850000D03*
%TD*%
D23*
%TO.P,R1,1*%
%TO.N,/RP2350A/QSPI_SS*%
X124870000Y-86350000D03*
%TO.P,R1,2*%
%TO.N,/RP2350A/~{USB_BOOT}*%
X124870000Y-85330000D03*
%TD*%
D31*
%TO.P,SW1,1,1*%
%TO.N,GND*%
X131805000Y-96460000D03*
X127655000Y-96460000D03*
%TO.P,SW1,2,2*%
%TO.N,/RP2350A/~{USB_BOOT}*%
X131805000Y-94310000D03*
X127680000Y-94310000D03*
%TD*%
D12*
%TO.P,C7,1*%
%TO.N,+1V1*%
X112340000Y-91160000D03*
%TO.P,C7,2*%
%TO.N,GND*%
X111380000Y-91160000D03*
%TD*%
D32*
%TO.P,L1,1,1*%
%TO.N,+1V1*%
X125170000Y-92250000D03*
%TO.P,L1,2,2*%
%TO.N,/RP2350A/VREG_LX*%
X125170000Y-93650000D03*
%TD*%
D19*
%TO.P,C3,1*%
%TO.N,3.3V*%
X125900000Y-86280000D03*
%TO.P,C3,2*%
%TO.N,GND*%
X125900000Y-85320000D03*
%TD*%
D33*
%TO.P,R8,1*%
%TO.N,GND*%
X133280000Y-85900000D03*
%TO.P,R8,2*%
%TO.N,Net-(J3-CC2)*%
X133280000Y-86920000D03*
%TD*%
D34*
%TO.P,J3,A1,GND*%
%TO.N,GND*%
X135120000Y-93800000D03*
%TO.P,J3,A4,VBUS*%
%TO.N,/RP2350A/RAW*%
X135120000Y-93000000D03*
D35*
%TO.P,J3,A5,CC1*%
%TO.N,Net-(J3-CC1)*%
X135120000Y-91850000D03*
%TO.P,J3,A6,D+*%
%TO.N,/RP2350A/USB_D+*%
X135120000Y-90850000D03*
%TO.P,J3,A7,D-*%
%TO.N,/RP2350A/USB_D-*%
X135120000Y-90350000D03*
%TO.P,J3,A8,SBU1*%
%TO.N,unconnected-(J3-SBU1-PadA8)*%
X135120000Y-89350000D03*
D34*
%TO.P,J3,A9,VBUS*%
%TO.N,/RP2350A/RAW*%
X135120000Y-88200000D03*
%TO.P,J3,A12,GND*%
%TO.N,GND*%
X135120000Y-87400000D03*
%TO.P,J3,B1,GND*%
X135120000Y-87400000D03*
%TO.P,J3,B4,VBUS*%
%TO.N,/RP2350A/RAW*%
X135120000Y-88200000D03*
D35*
%TO.P,J3,B5,CC2*%
%TO.N,Net-(J3-CC2)*%
X135120000Y-88850000D03*
%TO.P,J3,B6,D+*%
%TO.N,/RP2350A/USB_D+*%
X135120000Y-89850000D03*
%TO.P,J3,B7,D-*%
%TO.N,/RP2350A/USB_D-*%
X135120000Y-91350000D03*
%TO.P,J3,B8,SBU2*%
%TO.N,unconnected-(J3-SBU2-PadB8)*%
X135120000Y-92350000D03*
D34*
%TO.P,J3,B9,VBUS*%
%TO.N,/RP2350A/RAW*%
X135120000Y-93000000D03*
%TO.P,J3,B12,GND*%
%TO.N,GND*%
X135120000Y-93800000D03*
D36*
%TO.P,J3,S1,SHIELD*%
X135760000Y-94920000D03*
D37*
X139940000Y-94920000D03*
D36*
X135760000Y-86280000D03*
D37*
X139940000Y-86280000D03*
%TD*%
D14*
%TO.P,C1,1*%
%TO.N,VIN*%
X130060000Y-85300000D03*
%TO.P,C1,2*%
%TO.N,GND*%
X131020000Y-85300000D03*
%TD*%
D24*
%TO.P,C17,1*%
%TO.N,+1V1*%
X123600000Y-92360000D03*
%TO.P,C17,2*%
%TO.N,GND*%
X123600000Y-93390000D03*
%TD*%
D38*
%TO.P,J2,1,Pin_1*%
%TO.N,VIN*%
X134690000Y-98340000D03*
D39*
%TO.P,J2,2,Pin_2*%
%TO.N,GND*%
X132150000Y-98340000D03*
%TO.P,J2,3,Pin_3*%
%TO.N,RST*%
X129610000Y-98340000D03*
%TO.P,J2,4,Pin_4*%
%TO.N,3.3V*%
X127070000Y-98340000D03*
%TO.P,J2,5,Pin_5*%
%TO.N,A3*%
X124530000Y-98340000D03*
%TO.P,J2,6,Pin_6*%
%TO.N,A2*%
X121990000Y-98340000D03*
%TO.P,J2,7,Pin_7*%
%TO.N,A1*%
X119450000Y-98340000D03*
%TO.P,J2,8,Pin_8*%
%TO.N,A0*%
X116910000Y-98340000D03*
%TO.P,J2,9,Pin_9*%
%TO.N,D15*%
X114370000Y-98340000D03*
%TO.P,J2,10,Pin_10*%
%TO.N,D14*%
X111830000Y-98340000D03*
%TO.P,J2,11,Pin_11*%
%TO.N,D13*%
X109290000Y-98340000D03*
%TO.P,J2,12,Pin_12*%
%TO.N,D10*%
X106750000Y-98340000D03*
%TD*%
D38*
%TO.P,J1,1,Pin_1*%
%TO.N,D1*%
X134690000Y-83110000D03*
D39*
%TO.P,J1,2,Pin_2*%
%TO.N,D0*%
X132150000Y-83110000D03*
%TO.P,J1,3,Pin_3*%
%TO.N,GND*%
X129610000Y-83110000D03*
%TO.P,J1,4,Pin_4*%
X127070000Y-83110000D03*
%TO.P,J1,5,Pin_5*%
%TO.N,D4*%
X124530000Y-83110000D03*
%TO.P,J1,6,Pin_6*%
%TO.N,D5*%
X121990000Y-83110000D03*
%TO.P,J1,7,Pin_7*%
%TO.N,D2*%
X119450000Y-83110000D03*
%TO.P,J1,8,Pin_8*%
%TO.N,D3*%
X116910000Y-83110000D03*
%TO.P,J1,9,Pin_9*%
%TO.N,D6*%
X114370000Y-83110000D03*
%TO.P,J1,10,Pin_10*%
%TO.N,D7*%
X111830000Y-83110000D03*
%TO.P,J1,11,Pin_11*%
%TO.N,D8*%
X109290000Y-83110000D03*
%TO.P,J1,12,Pin_12*%
%TO.N,D9*%
X106750000Y-83110000D03*
%TD*%
D10*
%TO.P,C10,1*%
%TO.N,3.3V*%
X121160000Y-95580000D03*
%TO.P,C10,2*%
%TO.N,GND*%
X121160000Y-96540000D03*
%TD*%
D40*
%TO.N,GND*%
X109290000Y-92880000D03*
X111390000Y-89140000D03*
X113040000Y-96350000D03*
X123160000Y-85430000D03*
X123040000Y-95620000D03*
X126910000Y-85320000D03*
X124030000Y-95620000D03*
X118340000Y-84550000D03*
X111380000Y-91160000D03*
X126760000Y-92470000D03*
X116010000Y-84550000D03*
X129730000Y-92760000D03*
X129670000Y-95480000D03*
X120830000Y-97320000D03*
X107930000Y-92900000D03*
X106783554Y-88813554D03*
X126430000Y-89630000D03*
X123648732Y-94046268D03*
X115720000Y-97320000D03*
X106020000Y-86280000D03*
X108723994Y-88863994D03*
X129530000Y-89260000D03*
X139870000Y-97870000D03*
D41*
%TO.N,3.3V*%
X126920000Y-86270000D03*
X127425000Y-86750000D03*
X119970000Y-92920000D03*
D42*
X116960000Y-95590000D03*
D41*
X122560000Y-86270000D03*
D42*
X112340000Y-93590000D03*
X112390000Y-92160000D03*
D41*
X121880000Y-95600000D03*
D42*
X112350000Y-88170000D03*
X116010000Y-85510000D03*
D41*
X127460000Y-88910000D03*
X124480000Y-89850000D03*
D42*
%TO.N,+1V1*%
X124590000Y-92240000D03*
X119910000Y-90060000D03*
X125730000Y-92260000D03*
X119910000Y-89500000D03*
X125170000Y-92250000D03*
%TO.N,/RP2350A/USB_D-*%
X133275000Y-91440000D03*
D41*
X123570000Y-91440000D03*
%TO.N,/RP2350A/USB_D+*%
X123570000Y-90440000D03*
D42*
X133275000Y-90540000D03*
%TO.N,/RP2350A/~{USB_BOOT}*%
X128540000Y-94310000D03*
X124351000Y-84890000D03*
X130790000Y-94310000D03*
%TO.N,D4*%
X117875000Y-86050000D03*
%TO.N,D0*%
X133282843Y-84242843D03*
%TO.N,D10*%
X113360000Y-84890000D03*
%TO.N,D5*%
X117705000Y-85480000D03*
%TO.N,D13*%
X110010000Y-85837843D03*
%TO.N,/RP2350A/GPIO11*%
X112400000Y-86190000D03*
X114130000Y-86229343D03*
%TO.N,/RP2350A/QSPI_SD0*%
X122060000Y-88750000D03*
X124500000Y-88850000D03*
%TO.N,D15*%
X110610449Y-87580449D03*
%TO.N,D14*%
X110260999Y-87036685D03*
%TO.N,TX1*%
X107020000Y-93540000D03*
%TO.N,RX1*%
X107730001Y-93900000D03*
%TO.N,RST*%
X111370000Y-92160000D03*
%TO.N,/RP2350A/QSPI_SCLK*%
X122410000Y-89223090D03*
X125570000Y-88460000D03*
%TO.N,/RP2350A/QSPI_SD3*%
X125580000Y-87840000D03*
X122774315Y-88749999D03*
%TO.N,VIN*%
X129510000Y-88170000D03*
X130740000Y-88180000D03*
X130140000Y-88170000D03*
%TO.N,Net-(J3-CC1)*%
X133343678Y-92061216D03*
X133340000Y-95370000D03*
%TD*%
D43*
%TO.N,GND*%
X116490000Y-96550000D02*
X115720000Y-97320000D01*
X116960000Y-96550000D02*
X116490000Y-96550000D01*
X117950000Y-96550000D02*
X116960000Y-96550000D01*
D44*
%TO.N,A2*%
X121120000Y-98350000D02*
X121990000Y-98350000D01*
X119100000Y-96330000D02*
X121120000Y-98350000D01*
X119100000Y-93985000D02*
X119100000Y-96330000D01*
%TO.N,A0*%
X117370000Y-98350000D02*
X116910000Y-98350000D01*
X118449000Y-97271000D02*
X117370000Y-98350000D01*
X118300000Y-94870000D02*
X118449000Y-95019000D01*
X118300000Y-93985000D02*
X118300000Y-94870000D01*
X118449000Y-95019000D02*
X118449000Y-97271000D01*
D43*
%TO.N,GND*%
X120830000Y-96560000D02*
X120850000Y-96540000D01*
X120850000Y-96540000D02*
X120180000Y-96540000D01*
X120830000Y-97320000D02*
X120830000Y-96560000D01*
X121160000Y-96540000D02*
X120850000Y-96540000D01*
D45*
%TO.N,3.3V*%
X119900000Y-93985000D02*
X119900000Y-95390000D01*
X119900000Y-95390000D02*
X120090000Y-95580000D01*
D43*
X120110000Y-95600000D02*
X120090000Y-95580000D01*
X121100000Y-95600000D02*
X120110000Y-95600000D01*
D45*
X121070000Y-95260000D02*
X121070000Y-95580000D01*
X120300000Y-94490000D02*
X121070000Y-95260000D01*
X120300000Y-93985000D02*
X120300000Y-94490000D01*
X121060000Y-95560000D02*
X121100000Y-95600000D01*
D44*
%TO.N,A3*%
X121634000Y-96064000D02*
X123920000Y-98350000D01*
X119784000Y-96064000D02*
X121634000Y-96064000D01*
X119500000Y-95780000D02*
X119784000Y-96064000D01*
X123920000Y-98350000D02*
X124530000Y-98350000D01*
X119500000Y-93985000D02*
X119500000Y-95780000D01*
%TO.N,/RP2350A/XIN*%
X112480000Y-89170000D02*
X112380000Y-89170000D01*
X112350000Y-89140000D02*
X112350000Y-89280000D01*
X113057500Y-89747500D02*
X112480000Y-89170000D01*
X112350000Y-89280000D02*
X111960000Y-89670000D01*
X114062500Y-89747500D02*
X113057500Y-89747500D01*
X111960000Y-89670000D02*
X109945000Y-89670000D01*
X112380000Y-89170000D02*
X112350000Y-89140000D01*
X109945000Y-89670000D02*
X109900000Y-89625000D01*
%TO.N,GND*%
X109900000Y-91325000D02*
X110375000Y-91800000D01*
D46*
X111390000Y-87195000D02*
X111390000Y-88170000D01*
X111410000Y-89120000D02*
X111410000Y-89060000D01*
D43*
X134120000Y-87400000D02*
X135200000Y-87400000D01*
D44*
X126910000Y-85320000D02*
X126920000Y-85310000D01*
X123560000Y-88840000D02*
X124040000Y-89320000D01*
D45*
X123600000Y-93997536D02*
X123648732Y-94046268D01*
D46*
X111390000Y-89140000D02*
X111410000Y-89120000D01*
D43*
X134110000Y-87410000D02*
X134120000Y-87400000D01*
X135120000Y-93800000D02*
X134210000Y-93800000D01*
D46*
X111405000Y-87180000D02*
X111390000Y-87195000D01*
X111410000Y-89060000D02*
X111390000Y-89040000D01*
D43*
X125900000Y-85320000D02*
X126910000Y-85320000D01*
D45*
X122590000Y-93390000D02*
X122020000Y-93390000D01*
X122020000Y-93390000D02*
X121577500Y-92947500D01*
X121577500Y-92947500D02*
X120937500Y-92947500D01*
D47*
X123600000Y-93390000D02*
X123600000Y-93997536D01*
D46*
X111390000Y-89040000D02*
X111390000Y-88170000D01*
D44*
X124910000Y-89320000D02*
X125440000Y-89850000D01*
X124040000Y-89320000D02*
X124910000Y-89320000D01*
%TO.N,Net-(C5-Pad1)*%
X110600000Y-90775000D02*
X111205000Y-90170000D01*
X106165000Y-91525000D02*
X107500000Y-91525000D01*
X106150000Y-91510000D02*
X106165000Y-91525000D01*
X108250000Y-90775000D02*
X110600000Y-90775000D01*
X107500000Y-91525000D02*
X108250000Y-90775000D01*
X111205000Y-90170000D02*
X111450000Y-90170000D01*
%TO.N,3.3V*%
X119960000Y-92910000D02*
X119970000Y-92920000D01*
D45*
X122172000Y-92212000D02*
X122320000Y-92360000D01*
X119960000Y-92497500D02*
X119960000Y-92910000D01*
D43*
X125630000Y-94870000D02*
X125560000Y-94800000D01*
X129370000Y-91150000D02*
X129370000Y-91270000D01*
X127450000Y-88900000D02*
X127460000Y-88910000D01*
X127450000Y-87345000D02*
X127450000Y-88900000D01*
D45*
X120937500Y-92147500D02*
X122103616Y-92147500D01*
X120310000Y-92147500D02*
X119960000Y-92497500D01*
D43*
X127490000Y-88910000D02*
X128350000Y-89770000D01*
D45*
X124414000Y-89916000D02*
X122084000Y-89916000D01*
D43*
X121880000Y-95600000D02*
X121100000Y-95600000D01*
D45*
X113487500Y-89347500D02*
X114062500Y-89347500D01*
X120300000Y-86460000D02*
X120300000Y-87110000D01*
D43*
X129000000Y-90910000D02*
X131562500Y-90910000D01*
X128370000Y-92190000D02*
X128370000Y-91540000D01*
X125560000Y-95540000D02*
X125560000Y-94800000D01*
X127425000Y-86750000D02*
X126955000Y-86280000D01*
D44*
X126420000Y-87350000D02*
X126410000Y-87340000D01*
D45*
X113512500Y-93347500D02*
X114062500Y-93347500D01*
D43*
X128350000Y-90560000D02*
X128700000Y-90910000D01*
D44*
X112390000Y-92160000D02*
X112470000Y-92160000D01*
D45*
X122560000Y-86270000D02*
X122500000Y-86330000D01*
D43*
X125770000Y-94870000D02*
X125630000Y-94870000D01*
D45*
X117500000Y-95050000D02*
X116960000Y-95590000D01*
D43*
X121880000Y-95600000D02*
X121840000Y-95560000D01*
X126955000Y-86280000D02*
X125900000Y-86280000D01*
D45*
X122168115Y-92212000D02*
X122172000Y-92212000D01*
X120430000Y-86330000D02*
X120300000Y-86460000D01*
X120937500Y-90547500D02*
X121452500Y-90547500D01*
D43*
X127425000Y-87320000D02*
X127425000Y-86750000D01*
D45*
X112350000Y-88210000D02*
X113487500Y-89347500D01*
X117500000Y-93985000D02*
X117500000Y-95050000D01*
X122103616Y-92147500D02*
X122168115Y-92212000D01*
D43*
X125560000Y-94800000D02*
X125760000Y-94800000D01*
D45*
X127425000Y-87320000D02*
X127405000Y-87340000D01*
X112340000Y-93590000D02*
X113270000Y-93590000D01*
D43*
X128370000Y-91540000D02*
X129000000Y-90910000D01*
D45*
X122500000Y-86330000D02*
X120430000Y-86330000D01*
D43*
X125480000Y-96320000D02*
X125560000Y-96240000D01*
D45*
X116300000Y-87110000D02*
X116300000Y-85800000D01*
D43*
X127425000Y-87320000D02*
X127450000Y-87345000D01*
D45*
X113270000Y-93590000D02*
X113512500Y-93347500D01*
X122084000Y-89916000D02*
X121852500Y-90147500D01*
D43*
X128350000Y-89770000D02*
X128350000Y-90560000D01*
X121880000Y-95600000D02*
X122600000Y-96320000D01*
D44*
X112470000Y-92160000D02*
X112490000Y-92140000D01*
D45*
X116300000Y-85800000D02*
X116010000Y-85510000D01*
X121452500Y-90547500D02*
X121852500Y-90147500D01*
X124480000Y-89850000D02*
X124414000Y-89916000D01*
X127405000Y-87340000D02*
X126410000Y-87340000D01*
D43*
X125760000Y-94800000D02*
X128370000Y-92190000D01*
D45*
X121852500Y-90147500D02*
X120937500Y-90147500D01*
D43*
X122600000Y-96320000D02*
X125480000Y-96320000D01*
D45*
X120937500Y-92147500D02*
X120310000Y-92147500D01*
X122320000Y-92360000D02*
X122590000Y-92360000D01*
D43*
X127070000Y-97750000D02*
X125560000Y-96240000D01*
X127070000Y-98350000D02*
X127070000Y-97750000D01*
X125560000Y-96240000D02*
X125560000Y-95540000D01*
X127460000Y-88910000D02*
X127490000Y-88910000D01*
X127400000Y-98020000D02*
X127070000Y-98350000D01*
D44*
%TO.N,+1V1*%
X122097500Y-91747500D02*
X122104000Y-91754000D01*
D45*
X113102500Y-90547500D02*
X114062500Y-90547500D01*
X117900000Y-93985000D02*
X117900000Y-95540000D01*
X112340000Y-91160000D02*
X112490000Y-91160000D01*
X114957500Y-90547500D02*
X114960000Y-90550000D01*
X118300000Y-85550000D02*
X118340000Y-85510000D01*
X117930000Y-93955000D02*
X117930000Y-93070000D01*
X112460000Y-91160000D02*
X112340000Y-91160000D01*
X119910000Y-91380000D02*
X120277500Y-91747500D01*
X112490000Y-91160000D02*
X113102500Y-90547500D01*
X118300000Y-87110000D02*
X118300000Y-85550000D01*
D44*
X122104000Y-91754000D02*
X122104000Y-91757562D01*
D45*
X117900000Y-93985000D02*
X117930000Y-93955000D01*
D44*
X122282438Y-91936000D02*
X123176000Y-91936000D01*
X120937500Y-91747500D02*
X122097500Y-91747500D01*
D46*
X125060000Y-92360000D02*
X123600000Y-92360000D01*
D45*
X119910000Y-90060000D02*
X119910000Y-91380000D01*
X118300000Y-87110000D02*
X118300000Y-88180000D01*
D44*
X122104000Y-91757562D02*
X122282438Y-91936000D01*
X123176000Y-91936000D02*
X123600000Y-92360000D01*
D45*
X125680000Y-92260000D02*
X125160000Y-92260000D01*
X117900000Y-95540000D02*
X117950000Y-95590000D01*
X125160000Y-92260000D02*
X125060000Y-92360000D01*
X114062500Y-90547500D02*
X114957500Y-90547500D01*
X120277500Y-91747500D02*
X120937500Y-91747500D01*
D46*
%TO.N,/RP2350A/RAW*%
X135820000Y-93000000D02*
X136560000Y-92260000D01*
X136560000Y-88940000D02*
X135820000Y-88200000D01*
X136560000Y-92260000D02*
X136560000Y-88940000D01*
X135820000Y-88200000D02*
X135120000Y-88200000D01*
X132750000Y-92210000D02*
X132750000Y-87950000D01*
X132750000Y-87950000D02*
X131860000Y-87060000D01*
X133540000Y-93000000D02*
X132750000Y-92210000D01*
X135730000Y-93000000D02*
X133540000Y-93000000D01*
X135730000Y-93000000D02*
X135820000Y-93000000D01*
D45*
%TO.N,/RP2350A/USB_D-*%
X136120000Y-91150000D02*
X135920000Y-91350000D01*
X133365000Y-91350000D02*
X133275000Y-91440000D01*
X135900000Y-90350000D02*
X136120000Y-90570000D01*
X135920000Y-91350000D02*
X135120000Y-91350000D01*
X136120000Y-90570000D02*
X136120000Y-91150000D01*
X135120000Y-90350000D02*
X135900000Y-90350000D01*
X135120000Y-91350000D02*
X133365000Y-91350000D01*
%TO.N,/RP2350A/USB_D+*%
X133275000Y-90540000D02*
X133275000Y-90225000D01*
X133275000Y-90540000D02*
X133290000Y-90540000D01*
X133275000Y-90225000D02*
X133650000Y-89850000D01*
X123681000Y-90551000D02*
X123570000Y-90440000D01*
X133290000Y-90540000D02*
X133600000Y-90850000D01*
X133650000Y-89850000D02*
X135120000Y-89850000D01*
X133600000Y-90850000D02*
X135120000Y-90850000D01*
D44*
%TO.N,/RP2350A/QSPI_SS*%
X121642500Y-87747500D02*
X122050000Y-87340000D01*
X123220000Y-87330000D02*
X123200000Y-87350000D01*
X122050000Y-87340000D02*
X123560000Y-87340000D01*
X124870000Y-86350000D02*
X124870000Y-86640000D01*
X120937500Y-87747500D02*
X121642500Y-87747500D01*
X124880000Y-86240000D02*
X124840000Y-86280000D01*
X124870000Y-86640000D02*
X124180000Y-87330000D01*
X124180000Y-87330000D02*
X123220000Y-87330000D01*
%TO.N,/RP2350A/XOUT_R*%
X112402500Y-90147500D02*
X112380000Y-90170000D01*
X112380000Y-90170000D02*
X112470000Y-90170000D01*
X114062500Y-90147500D02*
X112402500Y-90147500D01*
D45*
%TO.N,/RP2350A/USB_D_R+*%
X121990000Y-90440000D02*
X122550000Y-90440000D01*
X120937500Y-90947500D02*
X121482500Y-90947500D01*
X121482500Y-90947500D02*
X121990000Y-90440000D01*
%TO.N,/RP2350A/USB_D_R-*%
X122360000Y-91440000D02*
X122550000Y-91440000D01*
X121928582Y-91347500D02*
X121931082Y-91350000D01*
X121931082Y-91350000D02*
X122270000Y-91350000D01*
X122270000Y-91350000D02*
X122360000Y-91440000D01*
X120937500Y-91347500D02*
X121928582Y-91347500D01*
D44*
%TO.N,/RP2350A/~{USB_BOOT}*%
X128540000Y-94310000D02*
X127680000Y-94310000D01*
X124791000Y-85330000D02*
X124351000Y-84890000D01*
X130790000Y-94310000D02*
X131805000Y-94310000D01*
X124870000Y-85330000D02*
X124791000Y-85330000D01*
%TO.N,D9*%
X113581064Y-84481000D02*
X115500000Y-86399936D01*
X106750000Y-83110000D02*
X108121000Y-84481000D01*
X108121000Y-84481000D02*
X113581064Y-84481000D01*
X115500000Y-86399936D02*
X115500000Y-87110000D01*
%TO.N,D4*%
X117875000Y-86050000D02*
X117900000Y-86075000D01*
X117900000Y-86075000D02*
X117900000Y-87110000D01*
%TO.N,D3*%
X117820386Y-83110000D02*
X116910000Y-83110000D01*
X118700000Y-87110000D02*
X118700000Y-86430000D01*
X118890000Y-86240000D02*
X118890000Y-84179614D01*
X118700000Y-86430000D02*
X118890000Y-86240000D01*
X118890000Y-84179614D02*
X117820386Y-83110000D01*
%TO.N,D1*%
X119500000Y-86380000D02*
X121640000Y-84240000D01*
X119500000Y-87110000D02*
X119500000Y-86380000D01*
X133850000Y-83110000D02*
X134690000Y-83110000D01*
X132720000Y-84240000D02*
X133850000Y-83110000D01*
X121640000Y-84240000D02*
X132720000Y-84240000D01*
%TO.N,D7*%
X116700000Y-85300000D02*
X116450000Y-85050000D01*
X116450000Y-85050000D02*
X114860000Y-85050000D01*
X111750000Y-83050000D02*
X111760000Y-83060000D01*
X114860000Y-85050000D02*
X112920000Y-83110000D01*
X112920000Y-83110000D02*
X111830000Y-83110000D01*
X116700000Y-87110000D02*
X116700000Y-85300000D01*
%TO.N,D0*%
X119900000Y-86350000D02*
X119900000Y-87110000D01*
X133282843Y-84350125D02*
X133142968Y-84490000D01*
X133282843Y-84242843D02*
X133282843Y-84350125D01*
X133142968Y-84490000D02*
X121760000Y-84490000D01*
X121760000Y-84490000D02*
X119900000Y-86350000D01*
%TO.N,D2*%
X119165032Y-86360000D02*
X119220000Y-86305032D01*
X119100000Y-87110000D02*
X119100000Y-86420000D01*
X119220000Y-86305032D02*
X119220000Y-83340000D01*
X119220000Y-83340000D02*
X119450000Y-83110000D01*
X119100000Y-86420000D02*
X119160000Y-86360000D01*
X119160000Y-86360000D02*
X119165032Y-86360000D01*
%TO.N,D10*%
X113635096Y-84890000D02*
X115100000Y-86354904D01*
X115100000Y-86354904D02*
X115100000Y-87110000D01*
X113360000Y-84890000D02*
X113635096Y-84890000D01*
%TO.N,D8*%
X113685032Y-84230000D02*
X110410000Y-84230000D01*
X115900000Y-87110000D02*
X115900000Y-86444968D01*
X115900000Y-86444968D02*
X113685032Y-84230000D01*
X110410000Y-84230000D02*
X109290000Y-83110000D01*
%TO.N,D5*%
X117500000Y-86360000D02*
X117500000Y-87110000D01*
X117430000Y-86290000D02*
X117500000Y-86360000D01*
X117705000Y-85480000D02*
X117430000Y-85755000D01*
X121990000Y-83110000D02*
X121696446Y-83110000D01*
X117430000Y-85755000D02*
X117430000Y-86290000D01*
%TO.N,D6*%
X117100000Y-84879228D02*
X115330772Y-83110000D01*
X115330772Y-83110000D02*
X114370000Y-83110000D01*
X117100000Y-87110000D02*
X117100000Y-84879228D01*
%TO.N,D13*%
X110010000Y-85837843D02*
X110655843Y-85192000D01*
X113430000Y-87970000D02*
X113607500Y-88147500D01*
X112875498Y-85192000D02*
X113430000Y-85746502D01*
X113430000Y-85746502D02*
X113430000Y-87970000D01*
X113607500Y-88147500D02*
X114062500Y-88147500D01*
X110655843Y-85192000D02*
X112875498Y-85192000D01*
%TO.N,/RP2350A/GPIO11*%
X114130000Y-86229343D02*
X114549343Y-86229343D01*
X114700000Y-86380000D02*
X114700000Y-87110000D01*
X114549343Y-86229343D02*
X114700000Y-86380000D01*
%TO.N,/RP2350A/QSPI_SD0*%
X124500000Y-88850000D02*
X124720000Y-89070000D01*
X121862500Y-88947500D02*
X122060000Y-88750000D01*
X125480000Y-89070000D02*
X125700000Y-88850000D01*
X124720000Y-89070000D02*
X125480000Y-89070000D01*
X125700000Y-88850000D02*
X126050000Y-88850000D01*
X120937500Y-88947500D02*
X121862500Y-88947500D01*
%TO.N,/RP2350A/GPIO19*%
X114440000Y-94770000D02*
X114700000Y-94510000D01*
X113320000Y-94770000D02*
X114440000Y-94770000D01*
X114700000Y-94510000D02*
X114700000Y-93985000D01*
X112470000Y-95620000D02*
X113320000Y-94770000D01*
%TO.N,A1*%
X118700000Y-93985000D02*
X118700000Y-97600000D01*
X118700000Y-97600000D02*
X119450000Y-98350000D01*
%TO.N,D15*%
X111112438Y-85694000D02*
X112667562Y-85694000D01*
X112667562Y-85694000D02*
X112850000Y-85876438D01*
X112850000Y-88320000D02*
X113477500Y-88947500D01*
X110661999Y-87528900D02*
X110661999Y-86144439D01*
X113477500Y-88947500D02*
X114062500Y-88947500D01*
X112850000Y-85876438D02*
X112850000Y-88320000D01*
X110661999Y-86144439D02*
X111112438Y-85694000D01*
X110610449Y-87580449D02*
X110661999Y-87528900D01*
%TO.N,D14*%
X111008470Y-85443000D02*
X110410999Y-86040471D01*
X113160000Y-88100000D02*
X113160000Y-85831470D01*
X113607500Y-88547500D02*
X113160000Y-88100000D01*
X110410999Y-86886685D02*
X110260999Y-87036685D01*
X114062500Y-88547500D02*
X113607500Y-88547500D01*
X112771530Y-85443000D02*
X111008470Y-85443000D01*
X110410999Y-86040471D02*
X110410999Y-86886685D01*
X113160000Y-85831470D02*
X112771530Y-85443000D01*
%TO.N,TX1*%
X110710000Y-92740000D02*
X112980000Y-92740000D01*
X109951000Y-93499000D02*
X110710000Y-92740000D01*
X113572500Y-92147500D02*
X114062500Y-92147500D01*
X107061000Y-93499000D02*
X109951000Y-93499000D01*
X112980000Y-92740000D02*
X113572500Y-92147500D01*
X107020000Y-93540000D02*
X107061000Y-93499000D01*
%TO.N,RX1*%
X109910000Y-93900000D02*
X110720000Y-93090000D01*
X113542500Y-92547500D02*
X114062500Y-92547500D01*
X113000000Y-93090000D02*
X113542500Y-92547500D01*
X110720000Y-93090000D02*
X113000000Y-93090000D01*
X107730001Y-93900000D02*
X109910000Y-93900000D01*
%TO.N,RX2*%
X117100000Y-94690000D02*
X114590000Y-97200000D01*
X117100000Y-93985000D02*
X117100000Y-94690000D01*
X109375000Y-97200000D02*
X107425000Y-95250000D01*
X114590000Y-97200000D02*
X109375000Y-97200000D01*
X107425000Y-95250000D02*
X107425000Y-94950000D01*
%TO.N,TX2*%
X116700000Y-94735032D02*
X114485032Y-96950000D01*
X116700000Y-93985000D02*
X116700000Y-94735032D01*
X110625000Y-96950000D02*
X108900000Y-95225000D01*
X114485032Y-96950000D02*
X110625000Y-96950000D01*
X108900000Y-95225000D02*
X108900000Y-95050000D01*
X108900000Y-95050000D02*
X108920000Y-95030000D01*
%TO.N,RST*%
X113680000Y-91740000D02*
X113687500Y-91747500D01*
X111370000Y-92160000D02*
X111450000Y-92160000D01*
X113490000Y-91660000D02*
X113570000Y-91740000D01*
X113570000Y-91740000D02*
X113680000Y-91740000D01*
X113687500Y-91747500D02*
X114062500Y-91747500D01*
X111450000Y-92160000D02*
X111950000Y-91660000D01*
X111950000Y-91660000D02*
X113490000Y-91660000D01*
X129130000Y-98350000D02*
X129610000Y-98350000D01*
%TO.N,/RP2350A/QSPI_SCLK*%
X122234689Y-89347500D02*
X120937500Y-89347500D01*
X125570000Y-88460000D02*
X125680000Y-88350000D01*
X122410000Y-89223090D02*
X122359099Y-89223090D01*
X125680000Y-88350000D02*
X126050000Y-88350000D01*
X122359099Y-89223090D02*
X122234689Y-89347500D01*
%TO.N,/RP2350A/QSPI_SD3*%
X122774315Y-88749999D02*
X122810000Y-88785684D01*
X126040000Y-87840000D02*
X126050000Y-87850000D01*
X121634228Y-89640000D02*
X121526728Y-89747500D01*
X122810000Y-88785684D02*
X122810000Y-89419678D01*
X125580000Y-87840000D02*
X126040000Y-87840000D01*
X122810000Y-89419678D02*
X122589678Y-89640000D01*
X122589678Y-89640000D02*
X121634228Y-89640000D01*
X121526728Y-89747500D02*
X120937500Y-89747500D01*
D43*
%TO.N,VIN*%
X131650000Y-89090000D02*
X130740000Y-88180000D01*
X130060000Y-85560000D02*
X128560000Y-87060000D01*
X129510000Y-88170000D02*
X129410000Y-88170000D01*
X130140000Y-88170000D02*
X130730000Y-88170000D01*
X129510000Y-88170000D02*
X130140000Y-88170000D01*
X130730000Y-88170000D02*
X130740000Y-88180000D01*
X131650000Y-89410000D02*
X131650000Y-89090000D01*
X128560000Y-87320000D02*
X128560000Y-87060000D01*
X129410000Y-88170000D02*
X128560000Y-87320000D01*
X130060000Y-85300000D02*
X130060000Y-85560000D01*
D44*
%TO.N,/RP2350A/QSPI_SD2*%
X120937500Y-88547500D02*
X121662500Y-88547500D01*
X121662500Y-88547500D02*
X121860000Y-88350000D01*
X121860000Y-88350000D02*
X123200000Y-88350000D01*
%TO.N,Net-(J3-CC2)*%
X133280000Y-86920000D02*
X133280000Y-88570000D01*
X133570000Y-88860000D02*
X135110000Y-88860000D01*
X133280000Y-88570000D02*
X133570000Y-88860000D01*
X135110000Y-88860000D02*
X135120000Y-88850000D01*
%TO.N,Net-(J3-CC1)*%
X133554894Y-91850000D02*
X135120000Y-91850000D01*
X133343678Y-92061216D02*
X133554894Y-91850000D01*
D45*
%TO.N,Net-(U1-VREG_AVDD)*%
X123550000Y-94800000D02*
X124540000Y-94800000D01*
X122360000Y-94290000D02*
X123150000Y-94290000D01*
X120937500Y-93347500D02*
X121417500Y-93347500D01*
X123550000Y-94690000D02*
X123550000Y-94800000D01*
X121417500Y-93347500D02*
X122360000Y-94290000D01*
X123150000Y-94290000D02*
X123550000Y-94690000D01*
D44*
%TO.N,/RP2350A/QSPI_SD1*%
X120937500Y-88147500D02*
X121707532Y-88147500D01*
X121707532Y-88147500D02*
X122015032Y-87840000D01*
X122015032Y-87840000D02*
X123560000Y-87840000D01*
%TO.N,Net-(D2-A)*%
X111450000Y-95620000D02*
X111430000Y-95620000D01*
X111430000Y-95620000D02*
X111380000Y-95570000D01*
X111490000Y-95570000D02*
X112370000Y-94690000D01*
X112370000Y-94690000D02*
X112370000Y-94580000D01*
X111380000Y-95570000D02*
X111490000Y-95570000D01*
%TO.N,Net-(D3-A)*%
X112055000Y-86865000D02*
X112060000Y-86865000D01*
X112060000Y-86865000D02*
X112375000Y-87180000D01*
X111380000Y-86190000D02*
X112055000Y-86865000D01*
%TD*%
%TA.AperFunction,Conductor*%
%TO.N,GND*%
G36*
X121962267Y-93150000D02*
G01*
X123870000Y-93150000D01*
X123870000Y-94110000D01*
X123324261Y-94110000D01*
X123291897Y-94077636D01*
X123291896Y-94077635D01*
X123291894Y-94077634D01*
X123199828Y-94039500D01*
X122494413Y-94039500D01*
X122442087Y-94017826D01*
X121559398Y-93135137D01*
X121559394Y-93135134D01*
X121467328Y-93097000D01*
X121460151Y-93097000D01*
X121430000Y-93050000D01*
X121050000Y-93050000D01*
X121050000Y-92840000D01*
X121640000Y-92840000D01*
X121962267Y-93150000D01*
G37*
%TD.AperFunction*%
%TD*%
%TA.AperFunction,Conductor*%
%TO.N,/RP2350A/VREG_LX*%
G36*
X121992244Y-92407544D02*
G01*
X122016115Y-92414771D01*
X122018944Y-92417090D01*
X122026218Y-92424364D01*
X122029451Y-92425703D01*
X122037666Y-92432437D01*
X122043078Y-92437340D01*
X122103414Y-92497675D01*
X122103417Y-92497679D01*
X122103418Y-92497679D01*
X122152826Y-92547087D01*
X122174500Y-92599413D01*
X122174500Y-92609820D01*
X122183233Y-92653722D01*
X122216496Y-92703504D01*
X122266278Y-92736767D01*
X122310180Y-92745500D01*
X122310181Y-92745500D01*
X122869819Y-92745500D01*
X122869820Y-92745500D01*
X122913722Y-92736767D01*
X122920150Y-92732472D01*
X122961263Y-92720000D01*
X123228737Y-92720000D01*
X123269850Y-92732472D01*
X123276278Y-92736767D01*
X123320180Y-92745500D01*
X123320181Y-92745500D01*
X123879819Y-92745500D01*
X123879820Y-92745500D01*
X123923722Y-92736767D01*
X123930150Y-92732471D01*
X123971263Y-92720000D01*
X124206253Y-92720000D01*
X124247363Y-92732469D01*
X124261278Y-92741767D01*
X124305180Y-92750500D01*
X124305181Y-92750500D01*
X126016000Y-92750500D01*
X126068326Y-92772174D01*
X126090000Y-92824500D01*
X126090000Y-93872954D01*
X126068326Y-93925280D01*
X126068325Y-93925281D01*
X126024616Y-93968989D01*
X125972709Y-93990661D01*
X124372424Y-93999703D01*
X124319977Y-93978325D01*
X124302334Y-93950639D01*
X124029828Y-93189224D01*
X124025500Y-93164289D01*
X124025500Y-93149998D01*
X124025499Y-93149997D01*
X124004667Y-93072250D01*
X123947749Y-93015332D01*
X123870002Y-92994500D01*
X123870000Y-92994500D01*
X122054731Y-92994500D01*
X122003430Y-92973831D01*
X121747809Y-92727939D01*
X121747805Y-92727936D01*
X121747802Y-92727933D01*
X121717750Y-92705333D01*
X121717749Y-92705332D01*
X121717746Y-92705331D01*
X121640002Y-92684500D01*
X121640000Y-92684500D01*
X121084000Y-92684500D01*
X121031674Y-92662826D01*
X121010000Y-92610500D01*
X121010000Y-92472000D01*
X121031674Y-92419674D01*
X121084000Y-92398000D01*
X121969202Y-92398000D01*
X121992244Y-92407544D01*
G37*
%TD.AperFunction*%
%TD*%
%TA.AperFunction,Conductor*%
%TO.N,+1V1*%
G36*
X120178563Y-87769747D02*
G01*
X120208914Y-87778718D01*
X120239701Y-87785993D01*
X120242163Y-87788545D01*
X120245567Y-87789551D01*
X120266246Y-87813502D01*
X120288217Y-87836272D01*
X120289814Y-87840801D01*
X120291227Y-87842437D01*
X120299958Y-87869556D01*
X120310650Y-87923309D01*
X120310651Y-87971690D01*
X120299500Y-88027752D01*
X120299500Y-88267247D01*
X120310651Y-88323310D01*
X120310651Y-88371690D01*
X120299500Y-88427752D01*
X120299500Y-88667247D01*
X120310651Y-88723310D01*
X120310651Y-88771690D01*
X120299500Y-88827752D01*
X120299500Y-89067247D01*
X120310651Y-89123310D01*
X120310651Y-89171690D01*
X120299500Y-89227752D01*
X120299500Y-89467247D01*
X120310651Y-89523310D01*
X120310651Y-89571690D01*
X120299500Y-89627752D01*
X120299500Y-89867247D01*
X120310651Y-89923310D01*
X120310651Y-89971690D01*
X120299500Y-90027752D01*
X120299500Y-90267247D01*
X120310651Y-90323310D01*
X120310651Y-90371690D01*
X120299500Y-90427752D01*
X120299500Y-90667247D01*
X120310651Y-90723310D01*
X120310651Y-90771690D01*
X120299500Y-90827752D01*
X120299500Y-91067247D01*
X120310651Y-91123310D01*
X120310651Y-91171690D01*
X120299500Y-91227752D01*
X120299500Y-91467252D01*
X120311132Y-91525730D01*
X120315806Y-91537014D01*
X120313020Y-91538167D01*
X120321753Y-91551703D01*
X120326310Y-91583001D01*
X120326819Y-91584624D01*
X120326839Y-91586629D01*
X120327107Y-91736445D01*
X120307542Y-91803520D01*
X120254820Y-91849369D01*
X120235205Y-91856440D01*
X120194012Y-91867478D01*
X120194010Y-91867478D01*
X120194010Y-91867479D01*
X120125489Y-91907040D01*
X120125486Y-91907042D01*
X119719541Y-92312987D01*
X119719535Y-92312995D01*
X119679982Y-92381504D01*
X119679979Y-92381509D01*
X119659500Y-92457939D01*
X119659500Y-92471324D01*
X119639815Y-92538363D01*
X119623181Y-92559005D01*
X119569502Y-92612683D01*
X119569500Y-92612686D01*
X119503608Y-92726812D01*
X119469500Y-92854108D01*
X119469500Y-92985891D01*
X119503609Y-93113188D01*
X119503609Y-93113189D01*
X119530137Y-93159137D01*
X119546610Y-93227038D01*
X119523757Y-93293064D01*
X119468836Y-93336255D01*
X119422086Y-93345135D01*
X114853498Y-93320659D01*
X114786565Y-93300616D01*
X114741093Y-93247567D01*
X114730162Y-93196897D01*
X114721995Y-88827747D01*
X115599500Y-88827747D01*
X115599500Y-92267252D01*
X115611131Y-92325729D01*
X115611132Y-92325730D01*
X115655447Y-92392052D01*
X115721769Y-92436367D01*
X115721770Y-92436368D01*
X115780247Y-92447999D01*
X115780250Y-92448000D01*
X115780252Y-92448000D01*
X119219750Y-92448000D01*
X119219751Y-92447999D01*
X119234568Y-92445052D01*
X119278229Y-92436368D01*
X119278229Y-92436367D01*
X119278231Y-92436367D01*
X119344552Y-92392052D01*
X119388867Y-92325731D01*
X119388867Y-92325729D01*
X119388868Y-92325729D01*
X119400499Y-92267252D01*
X119400500Y-92267250D01*
X119400500Y-88827749D01*
X119400499Y-88827747D01*
X119388868Y-88769270D01*
X119388867Y-88769269D01*
X119344552Y-88702947D01*
X119278230Y-88658632D01*
X119278229Y-88658631D01*
X119219752Y-88647000D01*
X119219748Y-88647000D01*
X115780252Y-88647000D01*
X115780247Y-88647000D01*
X115721770Y-88658631D01*
X115721769Y-88658632D01*
X115655447Y-88702947D01*
X115611132Y-88769269D01*
X115611131Y-88769270D01*
X115599500Y-88827747D01*
X114721995Y-88827747D01*
X114720232Y-87884451D01*
X114739791Y-87817378D01*
X114792510Y-87771524D01*
X114844451Y-87760222D01*
X120178563Y-87769747D01*
G37*
%TD.AperFunction*%
%TD*%
%TA.AperFunction,Conductor*%
%TO.N,GND*%
G36*
X121119191Y-96458907D02*
G01*
X121155155Y-96508407D01*
X121160000Y-96539000D01*
X121160000Y-96540000D01*
X121161000Y-96540000D01*
X121219191Y-96558907D01*
X121255155Y-96608407D01*
X121260000Y-96639000D01*
X121260000Y-97019999D01*
X121260001Y-97020000D01*
X121369838Y-97020000D01*
X121419354Y-97013480D01*
X121419361Y-97013478D01*
X121528021Y-96962809D01*
X121612809Y-96878021D01*
X121663478Y-96769361D01*
X121663480Y-96769354D01*
X121670423Y-96716626D01*
X121671863Y-96716815D01*
X121692541Y-96664980D01*
X121744287Y-96632329D01*
X121805341Y-96636329D01*
X121838663Y-96658278D01*
X122332579Y-97152194D01*
X122360356Y-97206711D01*
X122350785Y-97267143D01*
X122307520Y-97310408D01*
X122247088Y-97319979D01*
X122243261Y-97319296D01*
X122093467Y-97289500D01*
X122093465Y-97289500D01*
X121886535Y-97289500D01*
X121886532Y-97289500D01*
X121683581Y-97329869D01*
X121492402Y-97409058D01*
X121320348Y-97524020D01*
X121174020Y-97670348D01*
X121103231Y-97776293D01*
X121055181Y-97814173D01*
X120994043Y-97816575D01*
X120950911Y-97791296D01*
X120346025Y-97186410D01*
X120318248Y-97131893D01*
X120327819Y-97071461D01*
X120371084Y-97028196D01*
X120403107Y-97018253D01*
X120439353Y-97013481D01*
X120439361Y-97013478D01*
X120548021Y-96962809D01*
X120599996Y-96910835D01*
X120654513Y-96883058D01*
X120714945Y-96892629D01*
X120740004Y-96910835D01*
X120791978Y-96962809D01*
X120900638Y-97013478D01*
X120900645Y-97013480D01*
X120950161Y-97020000D01*
X121059999Y-97020000D01*
X121060000Y-97019999D01*
X121060000Y-96640000D01*
X120279000Y-96640000D01*
X120264088Y-96635155D01*
X120248407Y-96635155D01*
X120235721Y-96625938D01*
X120220809Y-96621093D01*
X120211592Y-96608407D01*
X120198907Y-96599191D01*
X120194061Y-96584278D01*
X120184845Y-96571593D01*
X120180000Y-96541000D01*
X120180000Y-96539000D01*
X120198907Y-96480809D01*
X120248407Y-96444845D01*
X120279000Y-96440000D01*
X121061000Y-96440000D01*
X121119191Y-96458907D01*
G37*
%TD.AperFunction*%
%TA.AperFunction,Conductor*%
G36*
X110849753Y-93446605D02*
G01*
X110874812Y-93464811D01*
X110900001Y-93490000D01*
X111281000Y-93490000D01*
X111295912Y-93494845D01*
X111311593Y-93494845D01*
X111324278Y-93504061D01*
X111339191Y-93508907D01*
X111348407Y-93521592D01*
X111361093Y-93530809D01*
X111365938Y-93545721D01*
X111375155Y-93558407D01*
X111380000Y-93589000D01*
X111380000Y-93590000D01*
X111381000Y-93590000D01*
X111439191Y-93608907D01*
X111475155Y-93658407D01*
X111480000Y-93689000D01*
X111480000Y-93963659D01*
X111498781Y-94000520D01*
X111500000Y-94016007D01*
X111500000Y-94481000D01*
X111495155Y-94495911D01*
X111495155Y-94511593D01*
X111485938Y-94524278D01*
X111481093Y-94539191D01*
X111468407Y-94548407D01*
X111459191Y-94561093D01*
X111444278Y-94565938D01*
X111431593Y-94575155D01*
X111401000Y-94580000D01*
X111400000Y-94580000D01*
X111400000Y-94581000D01*
X111381093Y-94639191D01*
X111331593Y-94675155D01*
X111301000Y-94680000D01*
X110905001Y-94680000D01*
X110905000Y-94680001D01*
X110905000Y-94793225D01*
X110911661Y-94843827D01*
X110963451Y-94954890D01*
X111012042Y-95003481D01*
X111039819Y-95057998D01*
X111030248Y-95118430D01*
X111012042Y-95143488D01*
X110965935Y-95189595D01*
X110965933Y-95189598D01*
X110915932Y-95296824D01*
X110915932Y-95296825D01*
X110909500Y-95345685D01*
X110909500Y-95794314D01*
X110915932Y-95843174D01*
X110915932Y-95843175D01*
X110965933Y-95950401D01*
X110965934Y-95950402D01*
X110965935Y-95950404D01*
X111049596Y-96034065D01*
X111049597Y-96034065D01*
X111049598Y-96034066D01*
X111156824Y-96084067D01*
X111156825Y-96084067D01*
X111156827Y-96084068D01*
X111205684Y-96090500D01*
X111205685Y-96090500D01*
X111554314Y-96090500D01*
X111554316Y-96090500D01*
X111603173Y-96084068D01*
X111710404Y-96034065D01*
X111794065Y-95950404D01*
X111800275Y-95937085D01*
X111842003Y-95892337D01*
X111902064Y-95880662D01*
X111957517Y-95906519D01*
X111979724Y-95937084D01*
X111985935Y-95950404D01*
X112069596Y-96034065D01*
X112069597Y-96034065D01*
X112069598Y-96034066D01*
X112176824Y-96084067D01*
X112176825Y-96084067D01*
X112176827Y-96084068D01*
X112225684Y-96090500D01*
X112225685Y-96090500D01*
X112574314Y-96090500D01*
X112574316Y-96090500D01*
X112623173Y-96084068D01*
X112730404Y-96034065D01*
X112814065Y-95950404D01*
X112864068Y-95843173D01*
X112870500Y-95794316D01*
X112870500Y-95650123D01*
X112889407Y-95591932D01*
X112899496Y-95580119D01*
X113405120Y-95074496D01*
X113459637Y-95046719D01*
X113475124Y-95045500D01*
X114494799Y-95045500D01*
X114494800Y-95045500D01*
X114596058Y-95003557D01*
X114673557Y-94926058D01*
X114673556Y-94926058D01*
X114850090Y-94749524D01*
X114940454Y-94659163D01*
X114941519Y-94660228D01*
X114980972Y-94629122D01*
X115015245Y-94623000D01*
X115219747Y-94623000D01*
X115219748Y-94623000D01*
X115246413Y-94617696D01*
X115280685Y-94610879D01*
X115319315Y-94610879D01*
X115380241Y-94622998D01*
X115380246Y-94622998D01*
X115380252Y-94623000D01*
X115380253Y-94623000D01*
X115619747Y-94623000D01*
X115619748Y-94623000D01*
X115646413Y-94617696D01*
X115680685Y-94610879D01*
X115719315Y-94610879D01*
X115780241Y-94622998D01*
X115780246Y-94622998D01*
X115780252Y-94623000D01*
X115780253Y-94623000D01*
X116019747Y-94623000D01*
X116019748Y-94623000D01*
X116046413Y-94617696D01*
X116080685Y-94610879D01*
X116116415Y-94610346D01*
X116121527Y-94611205D01*
X116121769Y-94611367D01*
X116180252Y-94623000D01*
X116191674Y-94623000D01*
X116199822Y-94624370D01*
X116219977Y-94634882D01*
X116241598Y-94641907D01*
X116246571Y-94648752D01*
X116254073Y-94652665D01*
X116264199Y-94673014D01*
X116277562Y-94691407D01*
X116277562Y-94699868D01*
X116281331Y-94707443D01*
X116277562Y-94729859D01*
X116277562Y-94752593D01*
X116272294Y-94761189D01*
X116271186Y-94767781D01*
X116263834Y-94774993D01*
X116253411Y-94792004D01*
X114399913Y-96645504D01*
X114345396Y-96673281D01*
X114329909Y-96674500D01*
X110780124Y-96674500D01*
X110721933Y-96655593D01*
X110710120Y-96645504D01*
X109644496Y-95579880D01*
X109616719Y-95525363D01*
X109615500Y-95509876D01*
X109615500Y-94555727D01*
X109615499Y-94555725D01*
X109614813Y-94548407D01*
X109612646Y-94525301D01*
X109567793Y-94397118D01*
X109566496Y-94395361D01*
X109520685Y-94333288D01*
X109501343Y-94275241D01*
X109519814Y-94216910D01*
X109569044Y-94180577D01*
X109600340Y-94175500D01*
X109964799Y-94175500D01*
X109964800Y-94175500D01*
X110066058Y-94133557D01*
X110143557Y-94056058D01*
X110509614Y-93690001D01*
X110900000Y-93690001D01*
X110900000Y-93799838D01*
X110906519Y-93849354D01*
X110906521Y-93849361D01*
X110957190Y-93958021D01*
X111013861Y-94014692D01*
X111041638Y-94069209D01*
X111032067Y-94129641D01*
X111013861Y-94154700D01*
X110963451Y-94205109D01*
X110911661Y-94316172D01*
X110905000Y-94366774D01*
X110905000Y-94479999D01*
X110905001Y-94480000D01*
X111300000Y-94480000D01*
X111300000Y-94196340D01*
X111281219Y-94159480D01*
X111280000Y-94143993D01*
X111280000Y-93690000D01*
X110900001Y-93690000D01*
X110900000Y-93690001D01*
X110509614Y-93690001D01*
X110734804Y-93464811D01*
X110789321Y-93437034D01*
X110849753Y-93446605D01*
G37*
%TD.AperFunction*%
%TA.AperFunction,Conductor*%
G36*
X121310212Y-93666907D02*
G01*
X121322025Y-93676996D01*
X122090685Y-94445656D01*
X122118462Y-94500173D01*
X122116385Y-94532987D01*
X122117508Y-94533135D01*
X122110000Y-94590161D01*
X122110000Y-94699999D01*
X122110001Y-94700000D01*
X122491000Y-94700000D01*
X122505912Y-94704845D01*
X122521593Y-94704845D01*
X122534278Y-94714061D01*
X122549191Y-94718907D01*
X122558407Y-94731592D01*
X122571093Y-94740809D01*
X122575938Y-94755721D01*
X122585155Y-94768407D01*
X122590000Y-94799000D01*
X122590000Y-94800000D01*
X122591000Y-94800000D01*
X122649191Y-94818907D01*
X122685155Y-94868407D01*
X122690000Y-94899000D01*
X122690000Y-95309999D01*
X122690001Y-95310000D01*
X122769838Y-95310000D01*
X122819354Y-95303480D01*
X122819361Y-95303478D01*
X122928021Y-95252809D01*
X122999642Y-95181189D01*
X123054159Y-95153412D01*
X123114591Y-95162983D01*
X123139646Y-95181186D01*
X123211684Y-95253224D01*
X123320513Y-95303972D01*
X123370099Y-95310500D01*
X123729900Y-95310499D01*
X123779487Y-95303972D01*
X123779488Y-95303972D01*
X123865258Y-95263976D01*
X123888316Y-95253224D01*
X123973224Y-95168316D01*
X123973224Y-95168314D01*
X123974637Y-95166902D01*
X124029153Y-95139124D01*
X124089586Y-95148695D01*
X124119441Y-95174648D01*
X124119811Y-95174279D01*
X124125095Y-95179563D01*
X124125738Y-95180122D01*
X124125934Y-95180402D01*
X124125935Y-95180404D01*
X124209596Y-95264065D01*
X124209597Y-95264065D01*
X124209598Y-95264066D01*
X124316824Y-95314067D01*
X124316825Y-95314067D01*
X124316827Y-95314068D01*
X124365684Y-95320500D01*
X124365685Y-95320500D01*
X124714314Y-95320500D01*
X124714316Y-95320500D01*
X124763173Y-95314068D01*
X124870404Y-95264065D01*
X124940498Y-95193970D01*
X124995013Y-95166195D01*
X125055445Y-95175766D01*
X125098710Y-95219031D01*
X125109500Y-95263976D01*
X125109500Y-95770500D01*
X125090593Y-95828691D01*
X125041093Y-95864655D01*
X125010500Y-95869500D01*
X122827612Y-95869500D01*
X122769421Y-95850593D01*
X122757608Y-95840504D01*
X122396108Y-95479004D01*
X122368331Y-95424487D01*
X122377902Y-95364055D01*
X122421167Y-95320790D01*
X122466112Y-95310000D01*
X122489999Y-95310000D01*
X122490000Y-95309999D01*
X122490000Y-94900000D01*
X122110001Y-94900000D01*
X122110000Y-94900001D01*
X122110000Y-95013081D01*
X122108598Y-95013081D01*
X122094799Y-95067335D01*
X122047743Y-95106442D01*
X121986688Y-95110422D01*
X121985470Y-95110104D01*
X121945894Y-95099500D01*
X121945892Y-95099500D01*
X121814108Y-95099500D01*
X121743460Y-95118430D01*
X121686809Y-95133609D01*
X121685645Y-95134092D01*
X121678877Y-95136609D01*
X121676152Y-95137510D01*
X121666113Y-95140201D01*
X121663546Y-95141682D01*
X121655077Y-95144486D01*
X121649009Y-95144519D01*
X121623971Y-95149500D01*
X121534660Y-95149500D01*
X121492821Y-95140224D01*
X121419489Y-95106028D01*
X121369895Y-95099499D01*
X121369144Y-95099450D01*
X121368958Y-95099376D01*
X121366687Y-95099077D01*
X121366763Y-95098499D01*
X121312320Y-95076764D01*
X121305638Y-95070667D01*
X120629496Y-94394525D01*
X120601719Y-94340008D01*
X120600500Y-94324521D01*
X120600500Y-93747000D01*
X120619407Y-93688809D01*
X120668907Y-93652845D01*
X120699500Y-93648000D01*
X120897938Y-93648000D01*
X121252021Y-93648000D01*
X121310212Y-93666907D01*
G37*
%TD.AperFunction*%
%TA.AperFunction,Conductor*%
G36*
X123982370Y-93817399D02*
G01*
X124005852Y-93820179D01*
X124011356Y-93825267D01*
X124018594Y-93827232D01*
X124032330Y-93844655D01*
X124050782Y-93861711D01*
X124056944Y-93874907D01*
X124057306Y-93875860D01*
X124108852Y-94019885D01*
X124123157Y-94049086D01*
X124124782Y-94053361D01*
X124124918Y-94056139D01*
X124129340Y-94069219D01*
X124131133Y-94078230D01*
X124131133Y-94078232D01*
X124168101Y-94133557D01*
X124175448Y-94144552D01*
X124175451Y-94144554D01*
X124212451Y-94169277D01*
X124250330Y-94217327D01*
X124252732Y-94278465D01*
X124227044Y-94322002D01*
X124215941Y-94332976D01*
X124209596Y-94335935D01*
X124125935Y-94419596D01*
X124123907Y-94423944D01*
X124114236Y-94433504D01*
X124094501Y-94443415D01*
X124076867Y-94456702D01*
X124067727Y-94456861D01*
X124059558Y-94460964D01*
X124037769Y-94457382D01*
X124015691Y-94457767D01*
X124006496Y-94452242D01*
X123999183Y-94451040D01*
X123991411Y-94443177D01*
X123974637Y-94433098D01*
X123973224Y-94431685D01*
X123973224Y-94431684D01*
X123888316Y-94346776D01*
X123888314Y-94346775D01*
X123888313Y-94346774D01*
X123779489Y-94296029D01*
X123779488Y-94296028D01*
X123754694Y-94292764D01*
X123729901Y-94289500D01*
X123729900Y-94289500D01*
X123615479Y-94289500D01*
X123557288Y-94270593D01*
X123545476Y-94260504D01*
X123394971Y-94110000D01*
X123870000Y-94110000D01*
X123870000Y-93825000D01*
X123884697Y-93825000D01*
X123884700Y-93824999D01*
X123945091Y-93812987D01*
X123952536Y-93813868D01*
X123959545Y-93811204D01*
X123982370Y-93817399D01*
G37*
%TD.AperFunction*%
%TA.AperFunction,Conductor*%
G36*
X125899147Y-89137210D02*
G01*
X125909203Y-89143104D01*
X125919883Y-89150240D01*
X125978207Y-89161841D01*
X125996588Y-89165498D01*
X125996589Y-89165498D01*
X125996599Y-89165500D01*
X126823400Y-89165499D01*
X126900117Y-89150240D01*
X126900118Y-89150238D01*
X126909127Y-89146508D01*
X126909686Y-89147858D01*
X126958181Y-89134178D01*
X127015586Y-89155352D01*
X127040037Y-89183603D01*
X127052857Y-89205809D01*
X127059500Y-89217314D01*
X127152686Y-89310500D01*
X127266814Y-89376392D01*
X127287815Y-89382019D01*
X127312870Y-89388732D01*
X127357253Y-89414356D01*
X127644555Y-89701659D01*
X127672332Y-89756175D01*
X127662761Y-89816607D01*
X127619496Y-89859872D01*
X127617506Y-89860858D01*
X127571872Y-89882834D01*
X127514850Y-89954337D01*
X127494500Y-90043500D01*
X127494500Y-91776501D01*
X127499651Y-91822227D01*
X127523189Y-91871102D01*
X127539334Y-91904627D01*
X127610837Y-91961649D01*
X127700000Y-91982000D01*
X127701889Y-91982000D01*
X127702894Y-91982326D01*
X127705525Y-91982623D01*
X127705464Y-91983161D01*
X127760080Y-92000907D01*
X127796044Y-92050407D01*
X127796044Y-92111593D01*
X127771893Y-92151004D01*
X126464504Y-93458393D01*
X126409987Y-93486170D01*
X126349555Y-93476599D01*
X126306290Y-93433334D01*
X126295500Y-93388389D01*
X126295500Y-92824501D01*
X126295500Y-92824500D01*
X126279857Y-92745859D01*
X126258183Y-92693533D01*
X126251694Y-92683206D01*
X126235674Y-92657709D01*
X126220500Y-92605039D01*
X126220500Y-91880253D01*
X126220498Y-91880241D01*
X126217598Y-91865663D01*
X126208867Y-91821769D01*
X126164552Y-91755448D01*
X126164548Y-91755445D01*
X126098233Y-91711134D01*
X126098231Y-91711133D01*
X126098228Y-91711132D01*
X126098227Y-91711132D01*
X126039758Y-91699501D01*
X126039748Y-91699500D01*
X124300252Y-91699500D01*
X124300251Y-91699500D01*
X124300241Y-91699501D01*
X124241772Y-91711132D01*
X124241766Y-91711134D01*
X124194502Y-91742716D01*
X124181241Y-91746456D01*
X124170093Y-91754556D01*
X124152523Y-91754556D01*
X124135614Y-91759325D01*
X124122687Y-91754556D01*
X124108907Y-91754556D01*
X124094692Y-91744228D01*
X124078210Y-91738148D01*
X124070555Y-91726691D01*
X124059407Y-91718592D01*
X124053977Y-91701881D01*
X124044217Y-91687274D01*
X124040500Y-91660401D01*
X124040500Y-91630888D01*
X124043873Y-91605265D01*
X124054528Y-91565500D01*
X124070500Y-91505892D01*
X124070500Y-91374108D01*
X124051035Y-91301463D01*
X124043873Y-91274732D01*
X124040500Y-91249110D01*
X124040500Y-91215685D01*
X124038326Y-91199174D01*
X124034068Y-91166827D01*
X124033356Y-91165301D01*
X123984066Y-91059598D01*
X123984065Y-91059597D01*
X123984065Y-91059596D01*
X123934470Y-91010001D01*
X123906695Y-90955487D01*
X123916266Y-90895055D01*
X123934469Y-90869999D01*
X123984065Y-90820404D01*
X124034068Y-90713173D01*
X124040500Y-90664316D01*
X124040500Y-90630888D01*
X124043873Y-90605265D01*
X124052842Y-90571792D01*
X124070500Y-90505892D01*
X124070500Y-90425429D01*
X124089407Y-90367238D01*
X124138907Y-90331274D01*
X124200093Y-90331274D01*
X124211339Y-90335705D01*
X124250510Y-90353971D01*
X124250511Y-90353971D01*
X124250513Y-90353972D01*
X124300099Y-90360500D01*
X124659900Y-90360499D01*
X124709487Y-90353972D01*
X124709488Y-90353972D01*
X124768137Y-90326622D01*
X124818316Y-90303224D01*
X124890352Y-90231187D01*
X124944867Y-90203412D01*
X125005299Y-90212983D01*
X125030358Y-90231189D01*
X125101978Y-90302809D01*
X125210638Y-90353478D01*
X125210645Y-90353480D01*
X125260161Y-90360000D01*
X125339999Y-90360000D01*
X125340000Y-90359999D01*
X125540000Y-90359999D01*
X125540001Y-90360000D01*
X125619838Y-90360000D01*
X125669354Y-90353480D01*
X125669361Y-90353478D01*
X125778021Y-90302809D01*
X125862809Y-90218021D01*
X125913478Y-90109361D01*
X125913480Y-90109354D01*
X125920000Y-90059838D01*
X125920000Y-89950001D01*
X125919999Y-89950000D01*
X125540000Y-89950000D01*
X125540000Y-90359999D01*
X125340000Y-90359999D01*
X125340000Y-89949000D01*
X125344845Y-89934088D01*
X125344845Y-89918407D01*
X125354061Y-89905721D01*
X125358907Y-89890809D01*
X125371592Y-89881592D01*
X125380809Y-89868907D01*
X125395721Y-89864061D01*
X125408407Y-89854845D01*
X125439000Y-89850000D01*
X125440000Y-89850000D01*
X125440000Y-89849000D01*
X125458907Y-89790809D01*
X125508407Y-89754845D01*
X125539000Y-89750000D01*
X125919999Y-89750000D01*
X125920000Y-89749999D01*
X125920000Y-89640161D01*
X125913480Y-89590645D01*
X125913478Y-89590638D01*
X125862809Y-89481978D01*
X125778021Y-89397190D01*
X125745487Y-89382019D01*
X125744166Y-89380787D01*
X125742382Y-89380505D01*
X125721904Y-89360027D01*
X125700739Y-89340290D01*
X125700394Y-89338517D01*
X125699117Y-89337240D01*
X125694588Y-89308646D01*
X125689065Y-89280229D01*
X125689828Y-89278591D01*
X125689546Y-89276808D01*
X125702691Y-89251007D01*
X125714924Y-89224776D01*
X125717295Y-89222319D01*
X125784200Y-89155414D01*
X125838715Y-89127639D01*
X125899147Y-89137210D01*
G37*
%TD.AperFunction*%
%TA.AperFunction,Conductor*%
G36*
X128069501Y-87771249D02*
G01*
X128081780Y-87783528D01*
X128081782Y-87783529D01*
X128201867Y-87844716D01*
X128201869Y-87844716D01*
X128201874Y-87844719D01*
X128277541Y-87856703D01*
X128301510Y-87860500D01*
X128301512Y-87860500D01*
X128422389Y-87860500D01*
X128480580Y-87879407D01*
X128492393Y-87889496D01*
X129133387Y-88530490D01*
X129133389Y-88530491D01*
X129232798Y-88587885D01*
X129232799Y-88587885D01*
X129232804Y-88587888D01*
X129236114Y-88589799D01*
X129350691Y-88620500D01*
X129450691Y-88620500D01*
X130080691Y-88620500D01*
X130502389Y-88620500D01*
X130560580Y-88639407D01*
X130572393Y-88649496D01*
X130818254Y-88895357D01*
X130846031Y-88949874D01*
X130836460Y-89010305D01*
X130815282Y-89051869D01*
X130815281Y-89051874D01*
X130799500Y-89151510D01*
X130799500Y-89668489D01*
X130802198Y-89685521D01*
X130807442Y-89718635D01*
X130808215Y-89723512D01*
X130798644Y-89783944D01*
X130755380Y-89827209D01*
X130710434Y-89838000D01*
X128899500Y-89838000D01*
X128841309Y-89819093D01*
X128805345Y-89769593D01*
X128800500Y-89739000D01*
X128800500Y-89710692D01*
X128800500Y-89710691D01*
X128776049Y-89619438D01*
X128776049Y-89619437D01*
X128776049Y-89619436D01*
X128771668Y-89603087D01*
X128769799Y-89596113D01*
X128710490Y-89493386D01*
X127929495Y-88712392D01*
X127901719Y-88657876D01*
X127900500Y-88642389D01*
X127900500Y-87841255D01*
X127919407Y-87783064D01*
X127968907Y-87747100D01*
X128030093Y-87747100D01*
X128069501Y-87771249D01*
G37*
%TD.AperFunction*%
%TA.AperFunction,Conductor*%
G36*
X123619191Y-88858907D02*
G01*
X123655155Y-88908407D01*
X123660000Y-88939000D01*
X123660000Y-89164999D01*
X123660001Y-89165000D01*
X123973355Y-89165000D01*
X123973356Y-89164999D01*
X124049921Y-89149769D01*
X124071145Y-89135588D01*
X124076274Y-89134141D01*
X124079990Y-89130322D01*
X124105305Y-89125953D01*
X124130033Y-89118979D01*
X124135032Y-89120823D01*
X124140284Y-89119917D01*
X124161835Y-89130711D01*
X124187437Y-89140156D01*
X124195179Y-89146940D01*
X124195656Y-89147404D01*
X124238737Y-89190485D01*
X124241704Y-89192198D01*
X124248604Y-89198910D01*
X124260292Y-89221088D01*
X124274495Y-89241750D01*
X124274338Y-89247739D01*
X124277131Y-89253038D01*
X124273551Y-89277853D01*
X124272896Y-89302915D01*
X124269250Y-89307666D01*
X124268395Y-89313596D01*
X124250912Y-89331567D01*
X124235652Y-89351458D01*
X124226443Y-89356721D01*
X124225731Y-89357454D01*
X124224916Y-89357594D01*
X124221413Y-89359597D01*
X124141686Y-89396774D01*
X124141684Y-89396776D01*
X124056776Y-89481684D01*
X124021030Y-89558341D01*
X123979303Y-89603087D01*
X123931307Y-89615500D01*
X123175251Y-89615500D01*
X123117060Y-89596593D01*
X123081096Y-89547093D01*
X123081096Y-89485907D01*
X123083786Y-89478617D01*
X123085500Y-89474478D01*
X123085500Y-89264000D01*
X123104407Y-89205809D01*
X123153907Y-89169845D01*
X123184500Y-89165000D01*
X123459999Y-89165000D01*
X123460000Y-89164999D01*
X123460000Y-88939000D01*
X123464845Y-88924088D01*
X123464845Y-88908407D01*
X123474061Y-88895721D01*
X123478907Y-88880809D01*
X123491592Y-88871592D01*
X123500809Y-88858907D01*
X123515721Y-88854061D01*
X123528407Y-88844845D01*
X123559000Y-88840000D01*
X123561000Y-88840000D01*
X123619191Y-88858907D01*
G37*
%TD.AperFunction*%
%TA.AperFunction,Conductor*%
G36*
X123884691Y-84784407D02*
G01*
X123920655Y-84833907D01*
X123925500Y-84864500D01*
X123925500Y-84946018D01*
X123944066Y-85015309D01*
X123954498Y-85054241D01*
X124003732Y-85139515D01*
X124010515Y-85151263D01*
X124089737Y-85230485D01*
X124089739Y-85230486D01*
X124186759Y-85286501D01*
X124186757Y-85286501D01*
X124186761Y-85286502D01*
X124186763Y-85286503D01*
X124276125Y-85310447D01*
X124327437Y-85343770D01*
X124349364Y-85400891D01*
X124349500Y-85406073D01*
X124349500Y-85504314D01*
X124355932Y-85553174D01*
X124355932Y-85553175D01*
X124405933Y-85660401D01*
X124405934Y-85660402D01*
X124405935Y-85660404D01*
X124489596Y-85744065D01*
X124489597Y-85744065D01*
X124489598Y-85744066D01*
X124502915Y-85750276D01*
X124547663Y-85792005D01*
X124559337Y-85852066D01*
X124533478Y-85907518D01*
X124502915Y-85929724D01*
X124489598Y-85935933D01*
X124405933Y-86019598D01*
X124355932Y-86126824D01*
X124355932Y-86126825D01*
X124351932Y-86157207D01*
X124350249Y-86169999D01*
X124349500Y-86175685D01*
X124349500Y-86524314D01*
X124355932Y-86573174D01*
X124355932Y-86573175D01*
X124387465Y-86640796D01*
X124394922Y-86701525D01*
X124367745Y-86752637D01*
X124247941Y-86872443D01*
X124121321Y-86999063D01*
X124066804Y-87026840D01*
X124032003Y-87026157D01*
X123973401Y-87014500D01*
X123973400Y-87014500D01*
X123146602Y-87014500D01*
X123146595Y-87014501D01*
X123069883Y-87029759D01*
X123069881Y-87029760D01*
X123042862Y-87047815D01*
X122987860Y-87064500D01*
X121995200Y-87064500D01*
X121893942Y-87106443D01*
X121893940Y-87106444D01*
X121893938Y-87106446D01*
X121562598Y-87437785D01*
X121508082Y-87465562D01*
X121462857Y-87460211D01*
X121462793Y-87460535D01*
X121458682Y-87459717D01*
X121454716Y-87459248D01*
X121453230Y-87458632D01*
X121394758Y-87447001D01*
X121394748Y-87447000D01*
X121394747Y-87447000D01*
X120699500Y-87447000D01*
X120641309Y-87428093D01*
X120605345Y-87378593D01*
X120600500Y-87348000D01*
X120600500Y-86729500D01*
X120619407Y-86671309D01*
X120668907Y-86635345D01*
X120699500Y-86630500D01*
X122087953Y-86630500D01*
X122146144Y-86649407D01*
X122157950Y-86659490D01*
X122221684Y-86723224D01*
X122330513Y-86773972D01*
X122380099Y-86780500D01*
X122739900Y-86780499D01*
X122789487Y-86773972D01*
X122789488Y-86773972D01*
X122880508Y-86731528D01*
X122898316Y-86723224D01*
X122970352Y-86651187D01*
X123024867Y-86623412D01*
X123085299Y-86632983D01*
X123110358Y-86651189D01*
X123181978Y-86722809D01*
X123290638Y-86773478D01*
X123290645Y-86773480D01*
X123340161Y-86780000D01*
X123419999Y-86780000D01*
X123420000Y-86779999D01*
X123420000Y-86370001D01*
X123620000Y-86370001D01*
X123620000Y-86779999D01*
X123620001Y-86780000D01*
X123699838Y-86780000D01*
X123749354Y-86773480D01*
X123749361Y-86773478D01*
X123858021Y-86722809D01*
X123942809Y-86638021D01*
X123993478Y-86529361D01*
X123993480Y-86529354D01*
X124000000Y-86479838D01*
X124000000Y-86370001D01*
X123999999Y-86370000D01*
X123620001Y-86370000D01*
X123620000Y-86370001D01*
X123420000Y-86370001D01*
X123420000Y-85760001D01*
X123620000Y-85760001D01*
X123620000Y-86169999D01*
X123620001Y-86170000D01*
X123999999Y-86170000D01*
X124000000Y-86169999D01*
X124000000Y-86060161D01*
X123993480Y-86010645D01*
X123993478Y-86010638D01*
X123942809Y-85901978D01*
X123858021Y-85817190D01*
X123749361Y-85766521D01*
X123749354Y-85766519D01*
X123699839Y-85760000D01*
X123620001Y-85760000D01*
X123620000Y-85760001D01*
X123420000Y-85760001D01*
X123419999Y-85760000D01*
X123340161Y-85760000D01*
X123290645Y-85766519D01*
X123290638Y-85766521D01*
X123181978Y-85817190D01*
X123110358Y-85888811D01*
X123055841Y-85916588D01*
X122995409Y-85907017D01*
X122970353Y-85888813D01*
X122898316Y-85816776D01*
X122898314Y-85816775D01*
X122898313Y-85816774D01*
X122789489Y-85766029D01*
X122789488Y-85766028D01*
X122772958Y-85763852D01*
X122739901Y-85759500D01*
X122739899Y-85759500D01*
X122380104Y-85759500D01*
X122380092Y-85759501D01*
X122330513Y-85766027D01*
X122330511Y-85766027D01*
X122221686Y-85816774D01*
X122221684Y-85816776D01*
X122136776Y-85901684D01*
X122103827Y-85972341D01*
X122062102Y-86017087D01*
X122014105Y-86029500D01*
X120849123Y-86029500D01*
X120790932Y-86010593D01*
X120754968Y-85961093D01*
X120754968Y-85899907D01*
X120779119Y-85860496D01*
X121251089Y-85388527D01*
X121845120Y-84794496D01*
X121899637Y-84766719D01*
X121915124Y-84765500D01*
X123826500Y-84765500D01*
X123884691Y-84784407D01*
G37*
%TD.AperFunction*%
%TA.AperFunction,Conductor*%
G36*
X129586000Y-84772663D02*
G01*
X129608898Y-84776290D01*
X129614546Y-84781938D01*
X129622144Y-84784407D01*
X129635771Y-84803163D01*
X129652163Y-84819555D01*
X129653412Y-84827444D01*
X129658108Y-84833907D01*
X129658108Y-84857092D01*
X129661734Y-84879987D01*
X129658108Y-84887103D01*
X129658108Y-84895093D01*
X129640546Y-84923750D01*
X129641744Y-84924589D01*
X129636774Y-84931686D01*
X129586029Y-85040510D01*
X129586028Y-85040511D01*
X129583650Y-85058574D01*
X129579938Y-85086776D01*
X129579500Y-85090100D01*
X129579500Y-85362388D01*
X129560593Y-85420579D01*
X129550504Y-85432392D01*
X128752393Y-86230504D01*
X128697876Y-86258281D01*
X128682389Y-86259500D01*
X128301510Y-86259500D01*
X128201874Y-86275281D01*
X128201867Y-86275283D01*
X128081782Y-86336470D01*
X127986470Y-86431782D01*
X127982038Y-86437883D01*
X127932536Y-86473845D01*
X127871351Y-86473842D01*
X127831610Y-86445752D01*
X127830088Y-86447275D01*
X127825501Y-86442688D01*
X127825500Y-86442686D01*
X127732314Y-86349500D01*
X127732311Y-86349498D01*
X127732309Y-86349496D01*
X127618189Y-86283609D01*
X127618182Y-86283606D01*
X127613103Y-86282245D01*
X127568727Y-86256624D01*
X127458551Y-86146448D01*
X127430774Y-86091931D01*
X127430411Y-86089435D01*
X127423972Y-86040513D01*
X127423971Y-86040511D01*
X127423971Y-86040509D01*
X127373225Y-85931686D01*
X127373224Y-85931685D01*
X127373224Y-85931684D01*
X127301187Y-85859647D01*
X127273412Y-85805133D01*
X127282983Y-85744701D01*
X127301189Y-85719642D01*
X127372809Y-85648021D01*
X127423478Y-85539361D01*
X127423480Y-85539354D01*
X127430000Y-85489838D01*
X127430000Y-85410001D01*
X127429999Y-85410000D01*
X126496714Y-85410000D01*
X126479480Y-85418781D01*
X126463993Y-85420000D01*
X125999000Y-85420000D01*
X125984088Y-85415155D01*
X125968407Y-85415155D01*
X125955721Y-85405938D01*
X125940809Y-85401093D01*
X125931592Y-85388407D01*
X125918907Y-85379191D01*
X125914061Y-85364278D01*
X125904845Y-85351593D01*
X125900000Y-85321000D01*
X125900000Y-85319000D01*
X125918907Y-85260809D01*
X125968407Y-85224845D01*
X125999000Y-85220000D01*
X126323286Y-85220000D01*
X126340520Y-85211219D01*
X126356007Y-85210000D01*
X127429999Y-85210000D01*
X127430000Y-85209999D01*
X127430000Y-85130161D01*
X127423480Y-85080645D01*
X127423478Y-85080638D01*
X127372809Y-84971978D01*
X127335335Y-84934504D01*
X127307558Y-84879987D01*
X127317129Y-84819555D01*
X127360394Y-84776290D01*
X127405339Y-84765500D01*
X129563953Y-84765500D01*
X129586000Y-84772663D01*
G37*
%TD.AperFunction*%
%TA.AperFunction,Conductor*%
G36*
X117961259Y-83640488D02*
G01*
X118221767Y-83900996D01*
X118249544Y-83955513D01*
X118239973Y-84015945D01*
X118196708Y-84059210D01*
X118151763Y-84070000D01*
X118130161Y-84070000D01*
X118080645Y-84076519D01*
X118080638Y-84076521D01*
X117971978Y-84127190D01*
X117887190Y-84211978D01*
X117836521Y-84320638D01*
X117836519Y-84320645D01*
X117830000Y-84370161D01*
X117830000Y-84449999D01*
X117830001Y-84450000D01*
X118241000Y-84450000D01*
X118255912Y-84454845D01*
X118271593Y-84454845D01*
X118284278Y-84464061D01*
X118299191Y-84468907D01*
X118308407Y-84481592D01*
X118321093Y-84490809D01*
X118325938Y-84505721D01*
X118335155Y-84518407D01*
X118340000Y-84549000D01*
X118340000Y-84551000D01*
X118321093Y-84609191D01*
X118271593Y-84645155D01*
X118241000Y-84650000D01*
X117830001Y-84650000D01*
X117830000Y-84650001D01*
X117830000Y-84729838D01*
X117836519Y-84779354D01*
X117836521Y-84779361D01*
X117887190Y-84888021D01*
X117899529Y-84900360D01*
X117927306Y-84954877D01*
X117917735Y-85015309D01*
X117874470Y-85058574D01*
X117814038Y-85068145D01*
X117803908Y-85065992D01*
X117761018Y-85054500D01*
X117648982Y-85054500D01*
X117553544Y-85080072D01*
X117540759Y-85083498D01*
X117523999Y-85093175D01*
X117464151Y-85105896D01*
X117408255Y-85081009D01*
X117377663Y-85028020D01*
X117375500Y-85007438D01*
X117375500Y-84824428D01*
X117334631Y-84725763D01*
X117334627Y-84725752D01*
X117333559Y-84723173D01*
X117333558Y-84723171D01*
X117333557Y-84723169D01*
X117159388Y-84549000D01*
X116939892Y-84329503D01*
X116912115Y-84274987D01*
X116921686Y-84214555D01*
X116964951Y-84171290D01*
X117009896Y-84160500D01*
X117013464Y-84160500D01*
X117013465Y-84160500D01*
X117216420Y-84120130D01*
X117407598Y-84040941D01*
X117579655Y-83925977D01*
X117725977Y-83779655D01*
X117808941Y-83655489D01*
X117856988Y-83617611D01*
X117918127Y-83615209D01*
X117961259Y-83640488D01*
G37*
%TD.AperFunction*%
%TA.AperFunction,Conductor*%
G36*
X115441440Y-83610284D02*
G01*
X115757761Y-83926605D01*
X115785538Y-83981122D01*
X115775967Y-84041554D01*
X115732702Y-84084819D01*
X115729597Y-84086333D01*
X115641978Y-84127190D01*
X115557190Y-84211978D01*
X115506521Y-84320638D01*
X115506519Y-84320645D01*
X115500000Y-84370161D01*
X115500000Y-84449999D01*
X115500001Y-84450000D01*
X115911000Y-84450000D01*
X115925912Y-84454845D01*
X115941593Y-84454845D01*
X115954278Y-84464061D01*
X115969191Y-84468907D01*
X115978407Y-84481592D01*
X115991093Y-84490809D01*
X115995938Y-84505721D01*
X116005155Y-84518407D01*
X116010000Y-84549000D01*
X116010000Y-84551000D01*
X115991093Y-84609191D01*
X115941593Y-84645155D01*
X115911000Y-84650000D01*
X115500001Y-84650000D01*
X115500000Y-84650001D01*
X115500000Y-84675500D01*
X115481093Y-84733691D01*
X115431593Y-84769655D01*
X115401000Y-84774500D01*
X115015124Y-84774500D01*
X114956933Y-84755593D01*
X114945120Y-84745504D01*
X114509889Y-84310273D01*
X114482112Y-84255756D01*
X114491683Y-84195324D01*
X114534948Y-84152059D01*
X114560574Y-84143173D01*
X114676420Y-84120130D01*
X114867598Y-84040941D01*
X115039655Y-83925977D01*
X115185977Y-83779655D01*
X115289123Y-83625284D01*
X115337169Y-83587407D01*
X115398308Y-83585005D01*
X115441440Y-83610284D01*
G37*
%TD.AperFunction*%
%TA.AperFunction,Conductor*%
G36*
X141490691Y-81639407D02*
G01*
X141526655Y-81688907D01*
X141531500Y-81719500D01*
X141531500Y-99620500D01*
X141512593Y-99678691D01*
X141463093Y-99714655D01*
X141432500Y-99719500D01*
X105531500Y-99719500D01*
X105473309Y-99700593D01*
X105437345Y-99651093D01*
X105432500Y-99620500D01*
X105432500Y-98236532D01*
X105699500Y-98236532D01*
X105699500Y-98443467D01*
X105739869Y-98646418D01*
X105819058Y-98837597D01*
X105819059Y-98837598D01*
X105934023Y-99009655D01*
X106080345Y-99155977D01*
X106252402Y-99270941D01*
X106443580Y-99350130D01*
X106646535Y-99390500D01*
X106646536Y-99390500D01*
X106853464Y-99390500D01*
X106853465Y-99390500D01*
X107056420Y-99350130D01*
X107247598Y-99270941D01*
X107419655Y-99155977D01*
X107565977Y-99009655D01*
X107680941Y-98837598D01*
X107760130Y-98646420D01*
X107800500Y-98443465D01*
X107800500Y-98236535D01*
X107760130Y-98033580D01*
X107680941Y-97842402D01*
X107565977Y-97670345D01*
X107419655Y-97524023D01*
X107419651Y-97524020D01*
X107247597Y-97409058D01*
X107056418Y-97329869D01*
X106853467Y-97289500D01*
X106853465Y-97289500D01*
X106646535Y-97289500D01*
X106646532Y-97289500D01*
X106443581Y-97329869D01*
X106252402Y-97409058D01*
X106080348Y-97524020D01*
X105934020Y-97670348D01*
X105819058Y-97842402D01*
X105739869Y-98033581D01*
X105699500Y-98236532D01*
X105432500Y-98236532D01*
X105432500Y-91330100D01*
X105639500Y-91330100D01*
X105639500Y-91689895D01*
X105639501Y-91689907D01*
X105646027Y-91739486D01*
X105646027Y-91739488D01*
X105696774Y-91848313D01*
X105696775Y-91848314D01*
X105696776Y-91848316D01*
X105781684Y-91933224D01*
X105890513Y-91983972D01*
X105940099Y-91990500D01*
X106359900Y-91990499D01*
X106409487Y-91983972D01*
X106409488Y-91983972D01*
X106477766Y-91952133D01*
X106518316Y-91933224D01*
X106603224Y-91848316D01*
X106603224Y-91848314D01*
X106605496Y-91846043D01*
X106660013Y-91818266D01*
X106720445Y-91827837D01*
X106763710Y-91871102D01*
X106774500Y-91916047D01*
X106774500Y-92004274D01*
X106777353Y-92034694D01*
X106777355Y-92034703D01*
X106822207Y-92162883D01*
X106902845Y-92272144D01*
X106902847Y-92272146D01*
X106902850Y-92272150D01*
X106902853Y-92272152D01*
X106902855Y-92272154D01*
X107012116Y-92352792D01*
X107012117Y-92352792D01*
X107012118Y-92352793D01*
X107140301Y-92397646D01*
X107170725Y-92400499D01*
X107170727Y-92400500D01*
X107170734Y-92400500D01*
X108179273Y-92400500D01*
X108179273Y-92400499D01*
X108209699Y-92397646D01*
X108337882Y-92352793D01*
X108447150Y-92272150D01*
X108527793Y-92162882D01*
X108572646Y-92034699D01*
X108575499Y-92004273D01*
X108575500Y-92004273D01*
X108575500Y-91700001D01*
X108975001Y-91700001D01*
X108975001Y-92004203D01*
X108977850Y-92034600D01*
X108977850Y-92034602D01*
X109022654Y-92162647D01*
X109103207Y-92271790D01*
X109103209Y-92271792D01*
X109212352Y-92352345D01*
X109340398Y-92397149D01*
X109370789Y-92399999D01*
X109774998Y-92399999D01*
X109775000Y-92399998D01*
X109775000Y-91700001D01*
X109774999Y-91700000D01*
X108975002Y-91700000D01*
X108975001Y-91700001D01*
X108575500Y-91700001D01*
X108575500Y-91195727D01*
X108575499Y-91195725D01*
X108572084Y-91159305D01*
X108574951Y-91159036D01*
X108579885Y-91109692D01*
X108620595Y-91064015D01*
X108670529Y-91050500D01*
X108879989Y-91050500D01*
X108938180Y-91069407D01*
X108974144Y-91118907D01*
X108976136Y-91159185D01*
X108978413Y-91159399D01*
X108975000Y-91195788D01*
X108975000Y-91499999D01*
X108975001Y-91500000D01*
X110774998Y-91500000D01*
X110790363Y-91484635D01*
X110844879Y-91456857D01*
X110905311Y-91466428D01*
X110936476Y-91491325D01*
X111018451Y-91589868D01*
X111028191Y-91614276D01*
X111040123Y-91637694D01*
X111039388Y-91642333D01*
X111041129Y-91646696D01*
X111034663Y-91672167D01*
X111030552Y-91698126D01*
X111026742Y-91703368D01*
X111026075Y-91706000D01*
X111022930Y-91708615D01*
X111012346Y-91723184D01*
X110955933Y-91779597D01*
X110955095Y-91780795D01*
X110953638Y-91781892D01*
X110949811Y-91785720D01*
X110949273Y-91785182D01*
X110906230Y-91817617D01*
X110845054Y-91818684D01*
X110794934Y-91783589D01*
X110775015Y-91725736D01*
X110775000Y-91724010D01*
X110775000Y-91700001D01*
X110774999Y-91700000D01*
X109975001Y-91700000D01*
X109975000Y-91700001D01*
X109975000Y-92399998D01*
X109975001Y-92399999D01*
X110379203Y-92399999D01*
X110415604Y-92396587D01*
X110415877Y-92399500D01*
X110465036Y-92404361D01*
X110510757Y-92445021D01*
X110523847Y-92504790D01*
X110499305Y-92560838D01*
X110495331Y-92565053D01*
X109865881Y-93194504D01*
X109811364Y-93222281D01*
X109795877Y-93223500D01*
X107346127Y-93223500D01*
X107287936Y-93204593D01*
X107285863Y-93203044D01*
X107281264Y-93199515D01*
X107184240Y-93143498D01*
X107184242Y-93143498D01*
X107142251Y-93132247D01*
X107076018Y-93114500D01*
X106963982Y-93114500D01*
X106897748Y-93132247D01*
X106855758Y-93143498D01*
X106758739Y-93199513D01*
X106679513Y-93278739D01*
X106623498Y-93375758D01*
X106614616Y-93408907D01*
X106594500Y-93483982D01*
X106594500Y-93596018D01*
X106608755Y-93649219D01*
X106623498Y-93704241D01*
X106678208Y-93799000D01*
X106679515Y-93801263D01*
X106758737Y-93880485D01*
X106777925Y-93891563D01*
X106855759Y-93936501D01*
X106855757Y-93936501D01*
X106855761Y-93936502D01*
X106855763Y-93936503D01*
X106963982Y-93965500D01*
X106963984Y-93965500D01*
X107076016Y-93965500D01*
X107076018Y-93965500D01*
X107184237Y-93936503D01*
X107184238Y-93936502D01*
X107190505Y-93934823D01*
X107190883Y-93936234D01*
X107205353Y-93935093D01*
X107226550Y-93929414D01*
X107235215Y-93932740D01*
X107244470Y-93932011D01*
X107263183Y-93943475D01*
X107283672Y-93951340D01*
X107288727Y-93959124D01*
X107296643Y-93963974D01*
X107316996Y-94002654D01*
X107330173Y-94051829D01*
X107326972Y-94112930D01*
X107288467Y-94160481D01*
X107253861Y-94174551D01*
X107191297Y-94186995D01*
X107061085Y-94240931D01*
X107061076Y-94240935D01*
X106943896Y-94319234D01*
X106844234Y-94418896D01*
X106765935Y-94536076D01*
X106765931Y-94536085D01*
X106711995Y-94666297D01*
X106684500Y-94804526D01*
X106684500Y-95645473D01*
X106711995Y-95783702D01*
X106765929Y-95913910D01*
X106765935Y-95913923D01*
X106829967Y-96009752D01*
X106844235Y-96031105D01*
X106943895Y-96130765D01*
X106982292Y-96156421D01*
X107061076Y-96209064D01*
X107061082Y-96209066D01*
X107061084Y-96209068D01*
X107191296Y-96263004D01*
X107329529Y-96290500D01*
X107329530Y-96290500D01*
X107470470Y-96290500D01*
X107470471Y-96290500D01*
X107608704Y-96263004D01*
X107738916Y-96209068D01*
X107824546Y-96151851D01*
X107883430Y-96135244D01*
X107940834Y-96156421D01*
X107949549Y-96164164D01*
X108971920Y-97186535D01*
X108999697Y-97241052D01*
X108990126Y-97301484D01*
X108946861Y-97344749D01*
X108939802Y-97348003D01*
X108792402Y-97409058D01*
X108620348Y-97524020D01*
X108474020Y-97670348D01*
X108359058Y-97842402D01*
X108279869Y-98033581D01*
X108239500Y-98236532D01*
X108239500Y-98443467D01*
X108279869Y-98646418D01*
X108359058Y-98837597D01*
X108359059Y-98837598D01*
X108474023Y-99009655D01*
X108620345Y-99155977D01*
X108792402Y-99270941D01*
X108983580Y-99350130D01*
X109186535Y-99390500D01*
X109186536Y-99390500D01*
X109393464Y-99390500D01*
X109393465Y-99390500D01*
X109596420Y-99350130D01*
X109787598Y-99270941D01*
X109959655Y-99155977D01*
X110105977Y-99009655D01*
X110220941Y-98837598D01*
X110300130Y-98646420D01*
X110340500Y-98443465D01*
X110340500Y-98236535D01*
X110300130Y-98033580D01*
X110220941Y-97842402D01*
X110105977Y-97670345D01*
X110080133Y-97644501D01*
X110052358Y-97589987D01*
X110061929Y-97529555D01*
X110105194Y-97486290D01*
X110150139Y-97475500D01*
X110969861Y-97475500D01*
X111028052Y-97494407D01*
X111064016Y-97543907D01*
X111064016Y-97605093D01*
X111039866Y-97644501D01*
X111023791Y-97660577D01*
X111014020Y-97670348D01*
X110899058Y-97842402D01*
X110819869Y-98033581D01*
X110779500Y-98236532D01*
X110779500Y-98443467D01*
X110819869Y-98646418D01*
X110899058Y-98837597D01*
X110899059Y-98837598D01*
X111014023Y-99009655D01*
X111160345Y-99155977D01*
X111332402Y-99270941D01*
X111523580Y-99350130D01*
X111726535Y-99390500D01*
X111726536Y-99390500D01*
X111933464Y-99390500D01*
X111933465Y-99390500D01*
X112136420Y-99350130D01*
X112327598Y-99270941D01*
X112499655Y-99155977D01*
X112645977Y-99009655D01*
X112760941Y-98837598D01*
X112840130Y-98646420D01*
X112880500Y-98443465D01*
X112880500Y-98236535D01*
X112840130Y-98033580D01*
X112760941Y-97842402D01*
X112645977Y-97670345D01*
X112620133Y-97644501D01*
X112592358Y-97589987D01*
X112601929Y-97529555D01*
X112645194Y-97486290D01*
X112690139Y-97475500D01*
X113509861Y-97475500D01*
X113568052Y-97494407D01*
X113604016Y-97543907D01*
X113604016Y-97605093D01*
X113579866Y-97644501D01*
X113563791Y-97660577D01*
X113554020Y-97670348D01*
X113439058Y-97842402D01*
X113359869Y-98033581D01*
X113319500Y-98236532D01*
X113319500Y-98443467D01*
X113359869Y-98646418D01*
X113439058Y-98837597D01*
X113439059Y-98837598D01*
X113554023Y-99009655D01*
X113700345Y-99155977D01*
X113872402Y-99270941D01*
X114063580Y-99350130D01*
X114266535Y-99390500D01*
X114266536Y-99390500D01*
X114473464Y-99390500D01*
X114473465Y-99390500D01*
X114676420Y-99350130D01*
X114867598Y-99270941D01*
X115039655Y-99155977D01*
X115185977Y-99009655D01*
X115300941Y-98837598D01*
X115380130Y-98646420D01*
X115420500Y-98443465D01*
X115420500Y-98236535D01*
X115380130Y-98033580D01*
X115300941Y-97842402D01*
X115185977Y-97670345D01*
X115039655Y-97524023D01*
X114909726Y-97437207D01*
X114871847Y-97389159D01*
X114869445Y-97328021D01*
X114894721Y-97284893D01*
X115529613Y-96650001D01*
X116450000Y-96650001D01*
X116450000Y-96729838D01*
X116456519Y-96779354D01*
X116456521Y-96779361D01*
X116507190Y-96888021D01*
X116591978Y-96972809D01*
X116700638Y-97023478D01*
X116700645Y-97023480D01*
X116750161Y-97030000D01*
X116859999Y-97030000D01*
X116860000Y-97029999D01*
X116860000Y-96650001D01*
X117060000Y-96650001D01*
X117060000Y-97029999D01*
X117060001Y-97030000D01*
X117169838Y-97030000D01*
X117219354Y-97023480D01*
X117219361Y-97023478D01*
X117328021Y-96972809D01*
X117384996Y-96915835D01*
X117439513Y-96888058D01*
X117499945Y-96897629D01*
X117525004Y-96915835D01*
X117581978Y-96972809D01*
X117690638Y-97023478D01*
X117690645Y-97023480D01*
X117740161Y-97030000D01*
X117849999Y-97030000D01*
X117850000Y-97029999D01*
X117850000Y-96650000D01*
X117060001Y-96650000D01*
X117060000Y-96650001D01*
X116860000Y-96650001D01*
X116859999Y-96650000D01*
X116450001Y-96650000D01*
X116450000Y-96650001D01*
X115529613Y-96650001D01*
X116325556Y-95854057D01*
X116380071Y-95826282D01*
X116440503Y-95835853D01*
X116473842Y-95863461D01*
X116480610Y-95872204D01*
X116506776Y-95928316D01*
X116583248Y-96004788D01*
X116587091Y-96009752D01*
X116595408Y-96032925D01*
X116606588Y-96054867D01*
X116605576Y-96061253D01*
X116607761Y-96067340D01*
X116600869Y-96090976D01*
X116597017Y-96115299D01*
X116591605Y-96122747D01*
X116590634Y-96126079D01*
X116587322Y-96128642D01*
X116578811Y-96140358D01*
X116507190Y-96211978D01*
X116456521Y-96320638D01*
X116456519Y-96320645D01*
X116450000Y-96370161D01*
X116450000Y-96449999D01*
X116450001Y-96450000D01*
X117851000Y-96450000D01*
X117865912Y-96454845D01*
X117881593Y-96454845D01*
X117894278Y-96464061D01*
X117909191Y-96468907D01*
X117918407Y-96481592D01*
X117931093Y-96490809D01*
X117935938Y-96505721D01*
X117945155Y-96518407D01*
X117950000Y-96549000D01*
X117950000Y-96550000D01*
X117951000Y-96550000D01*
X118009191Y-96568907D01*
X118045155Y-96618407D01*
X118050000Y-96649000D01*
X118050000Y-97029999D01*
X118050001Y-97030000D01*
X118061376Y-97030000D01*
X118119567Y-97048907D01*
X118155531Y-97098407D01*
X118155531Y-97159593D01*
X118131379Y-97199004D01*
X117763010Y-97567372D01*
X117708494Y-97595149D01*
X117648062Y-97585578D01*
X117623006Y-97567374D01*
X117579655Y-97524023D01*
X117579651Y-97524020D01*
X117407597Y-97409058D01*
X117216418Y-97329869D01*
X117013467Y-97289500D01*
X117013465Y-97289500D01*
X116806535Y-97289500D01*
X116806532Y-97289500D01*
X116603581Y-97329869D01*
X116412402Y-97409058D01*
X116240348Y-97524020D01*
X116094020Y-97670348D01*
X115979058Y-97842402D01*
X115899869Y-98033581D01*
X115859500Y-98236532D01*
X115859500Y-98443467D01*
X115899869Y-98646418D01*
X115979058Y-98837597D01*
X115979059Y-98837598D01*
X116094023Y-99009655D01*
X116240345Y-99155977D01*
X116412402Y-99270941D01*
X116603580Y-99350130D01*
X116806535Y-99390500D01*
X116806536Y-99390500D01*
X117013464Y-99390500D01*
X117013465Y-99390500D01*
X117216420Y-99350130D01*
X117407598Y-99270941D01*
X117579655Y-99155977D01*
X117725977Y-99009655D01*
X117840941Y-98837598D01*
X117920130Y-98646420D01*
X117960500Y-98443465D01*
X117960500Y-98236535D01*
X117956320Y-98215521D01*
X117963510Y-98154761D01*
X117983410Y-98126204D01*
X118339998Y-97769616D01*
X118353967Y-97762499D01*
X118365055Y-97751412D01*
X118380542Y-97748959D01*
X118394513Y-97741841D01*
X118410000Y-97744293D01*
X118425487Y-97741841D01*
X118439457Y-97748959D01*
X118454945Y-97751412D01*
X118480000Y-97769615D01*
X118482164Y-97771779D01*
X118509940Y-97826294D01*
X118503623Y-97879666D01*
X118439870Y-98033578D01*
X118439870Y-98033580D01*
X118399500Y-98236532D01*
X118399500Y-98443467D01*
X118439869Y-98646418D01*
X118519058Y-98837597D01*
X118519059Y-98837598D01*
X118634023Y-99009655D01*
X118780345Y-99155977D01*
X118952402Y-99270941D01*
X119143580Y-99350130D01*
X119346535Y-99390500D01*
X119346536Y-99390500D01*
X119553464Y-99390500D01*
X119553465Y-99390500D01*
X119756420Y-99350130D01*
X119947598Y-99270941D01*
X120119655Y-99155977D01*
X120265977Y-99009655D01*
X120380941Y-98837598D01*
X120460130Y-98646420D01*
X120500500Y-98443465D01*
X120500500Y-98359123D01*
X120519407Y-98300932D01*
X120568907Y-98264968D01*
X120630093Y-98264968D01*
X120669502Y-98289118D01*
X120946981Y-98566597D01*
X120974073Y-98617283D01*
X120979867Y-98646410D01*
X120979871Y-98646423D01*
X121059058Y-98837597D01*
X121059059Y-98837598D01*
X121174023Y-99009655D01*
X121320345Y-99155977D01*
X121492402Y-99270941D01*
X121683580Y-99350130D01*
X121886535Y-99390500D01*
X121886536Y-99390500D01*
X122093464Y-99390500D01*
X122093465Y-99390500D01*
X122296420Y-99350130D01*
X122487598Y-99270941D01*
X122659655Y-99155977D01*
X122805977Y-99009655D01*
X122920941Y-98837598D01*
X123000130Y-98646420D01*
X123040500Y-98443465D01*
X123040500Y-98236535D01*
X123010703Y-98086735D01*
X123017895Y-98025977D01*
X123059427Y-97981047D01*
X123119437Y-97969110D01*
X123175002Y-97994726D01*
X123177805Y-97997420D01*
X123450504Y-98270119D01*
X123478281Y-98324636D01*
X123479500Y-98340123D01*
X123479500Y-98443467D01*
X123519869Y-98646418D01*
X123599058Y-98837597D01*
X123599059Y-98837598D01*
X123714023Y-99009655D01*
X123860345Y-99155977D01*
X124032402Y-99270941D01*
X124223580Y-99350130D01*
X124426535Y-99390500D01*
X124426536Y-99390500D01*
X124633464Y-99390500D01*
X124633465Y-99390500D01*
X124836420Y-99350130D01*
X125027598Y-99270941D01*
X125199655Y-99155977D01*
X125345977Y-99009655D01*
X125460941Y-98837598D01*
X125540130Y-98646420D01*
X125580500Y-98443465D01*
X125580500Y-98236535D01*
X125540130Y-98033580D01*
X125460941Y-97842402D01*
X125345977Y-97670345D01*
X125199655Y-97524023D01*
X125199651Y-97524020D01*
X125027597Y-97409058D01*
X124836418Y-97329869D01*
X124633467Y-97289500D01*
X124633465Y-97289500D01*
X124426535Y-97289500D01*
X124426532Y-97289500D01*
X124223581Y-97329869D01*
X124032402Y-97409058D01*
X123860345Y-97524022D01*
X123741995Y-97642372D01*
X123687479Y-97670149D01*
X123627047Y-97660577D01*
X123601988Y-97642372D01*
X123260748Y-97301132D01*
X122899118Y-96939503D01*
X122871342Y-96884987D01*
X122880913Y-96824555D01*
X122924178Y-96781290D01*
X122969123Y-96770500D01*
X125412389Y-96770500D01*
X125470580Y-96789407D01*
X125482393Y-96799496D01*
X126236314Y-97553417D01*
X126264091Y-97607934D01*
X126254520Y-97668366D01*
X126248626Y-97678422D01*
X126139058Y-97842402D01*
X126059869Y-98033581D01*
X126019500Y-98236532D01*
X126019500Y-98443467D01*
X126059869Y-98646418D01*
X126139058Y-98837597D01*
X126139059Y-98837598D01*
X126254023Y-99009655D01*
X126400345Y-99155977D01*
X126572402Y-99270941D01*
X126763580Y-99350130D01*
X126966535Y-99390500D01*
X126966536Y-99390500D01*
X127173464Y-99390500D01*
X127173465Y-99390500D01*
X127376420Y-99350130D01*
X127567598Y-99270941D01*
X127739655Y-99155977D01*
X127885977Y-99009655D01*
X128000941Y-98837598D01*
X128080130Y-98646420D01*
X128120500Y-98443465D01*
X128120500Y-98236535D01*
X128120499Y-98236532D01*
X128559500Y-98236532D01*
X128559500Y-98443467D01*
X128599869Y-98646418D01*
X128679058Y-98837597D01*
X128679059Y-98837598D01*
X128794023Y-99009655D01*
X128940345Y-99155977D01*
X129112402Y-99270941D01*
X129303580Y-99350130D01*
X129506535Y-99390500D01*
X129506536Y-99390500D01*
X129713464Y-99390500D01*
X129713465Y-99390500D01*
X129916420Y-99350130D01*
X130107598Y-99270941D01*
X130279655Y-99155977D01*
X130425977Y-99009655D01*
X130540941Y-98837598D01*
X130620130Y-98646420D01*
X130660500Y-98443465D01*
X130660500Y-98236581D01*
X131100000Y-98236581D01*
X131100000Y-98443418D01*
X131140349Y-98646272D01*
X131219501Y-98837360D01*
X131219508Y-98837374D01*
X131334405Y-99009329D01*
X131336826Y-99011750D01*
X131732210Y-98616365D01*
X131749901Y-98647007D01*
X131842993Y-98740099D01*
X131873632Y-98757788D01*
X131478249Y-99153173D01*
X131480670Y-99155594D01*
X131652625Y-99270491D01*
X131652639Y-99270498D01*
X131843727Y-99349650D01*
X132046581Y-99389999D01*
X132046586Y-99390000D01*
X132253414Y-99390000D01*
X132253418Y-99389999D01*
X132456272Y-99349650D01*
X132647360Y-99270498D01*
X132647366Y-99270495D01*
X132819333Y-99155591D01*
X132821750Y-99153173D01*
X132426366Y-98757789D01*
X132457007Y-98740099D01*
X132550099Y-98647007D01*
X132567789Y-98616366D01*
X132963173Y-99011750D01*
X132965591Y-99009333D01*
X133080495Y-98837366D01*
X133080498Y-98837360D01*
X133159650Y-98646272D01*
X133199999Y-98443418D01*
X133200000Y-98443413D01*
X133200000Y-98236586D01*
X133199999Y-98236581D01*
X133159650Y-98033727D01*
X133080498Y-97842639D01*
X133080491Y-97842625D01*
X132965594Y-97670670D01*
X132963173Y-97668249D01*
X132567788Y-98063632D01*
X132550099Y-98032993D01*
X132457007Y-97939901D01*
X132426365Y-97922210D01*
X132821750Y-97526826D01*
X132819329Y-97524405D01*
X132738285Y-97470253D01*
X133639500Y-97470253D01*
X133639500Y-99209746D01*
X133639501Y-99209758D01*
X133651132Y-99268227D01*
X133651134Y-99268233D01*
X133695445Y-99334548D01*
X133695448Y-99334552D01*
X133761769Y-99378867D01*
X133806231Y-99387711D01*
X133820241Y-99390498D01*
X133820246Y-99390498D01*
X133820252Y-99390500D01*
X133820253Y-99390500D01*
X135559747Y-99390500D01*
X135559748Y-99390500D01*
X135618231Y-99378867D01*
X135684552Y-99334552D01*
X135728867Y-99268231D01*
X135740500Y-99209748D01*
X135740500Y-97470252D01*
X135728867Y-97411769D01*
X135684552Y-97345448D01*
X135680576Y-97342791D01*
X135618233Y-97301134D01*
X135618231Y-97301133D01*
X135618228Y-97301132D01*
X135618227Y-97301132D01*
X135559758Y-97289501D01*
X135559748Y-97289500D01*
X133820252Y-97289500D01*
X133820251Y-97289500D01*
X133820241Y-97289501D01*
X133761772Y-97301132D01*
X133761766Y-97301134D01*
X133695451Y-97345445D01*
X133695445Y-97345451D01*
X133651134Y-97411766D01*
X133651132Y-97411772D01*
X133639501Y-97470241D01*
X133639500Y-97470253D01*
X132738285Y-97470253D01*
X132647374Y-97409508D01*
X132647360Y-97409501D01*
X132456272Y-97330349D01*
X132253418Y-97290000D01*
X132046581Y-97290000D01*
X131843727Y-97330349D01*
X131652639Y-97409501D01*
X131652630Y-97409505D01*
X131480665Y-97524410D01*
X131478248Y-97526825D01*
X131873633Y-97922210D01*
X131842993Y-97939901D01*
X131749901Y-98032993D01*
X131732210Y-98063633D01*
X131336825Y-97668248D01*
X131334410Y-97670665D01*
X131219505Y-97842630D01*
X131219501Y-97842639D01*
X131140349Y-98033727D01*
X131100000Y-98236581D01*
X130660500Y-98236581D01*
X130660500Y-98236535D01*
X130620130Y-98033580D01*
X130540941Y-97842402D01*
X130425977Y-97670345D01*
X130279655Y-97524023D01*
X130279651Y-97524020D01*
X130107597Y-97409058D01*
X129916418Y-97329869D01*
X129713467Y-97289500D01*
X129713465Y-97289500D01*
X129506535Y-97289500D01*
X129506532Y-97289500D01*
X129303581Y-97329869D01*
X129112402Y-97409058D01*
X128940348Y-97524020D01*
X128794020Y-97670348D01*
X128679058Y-97842402D01*
X128599869Y-98033581D01*
X128559500Y-98236532D01*
X128120499Y-98236532D01*
X128080130Y-98033580D01*
X128000941Y-97842402D01*
X127885977Y-97670345D01*
X127739655Y-97524023D01*
X127739651Y-97524020D01*
X127567597Y-97409058D01*
X127376418Y-97329869D01*
X127294218Y-97313519D01*
X127243528Y-97286425D01*
X127111107Y-97154004D01*
X127083330Y-97099487D01*
X127092901Y-97039055D01*
X127136166Y-96995790D01*
X127181111Y-96985000D01*
X127554999Y-96985000D01*
X127555000Y-96984999D01*
X127555000Y-96560001D01*
X127755000Y-96560001D01*
X127755000Y-96984999D01*
X127755001Y-96985000D01*
X128199697Y-96985000D01*
X128199700Y-96984999D01*
X128258036Y-96973396D01*
X128324189Y-96929193D01*
X128324193Y-96929189D01*
X128368396Y-96863036D01*
X128379999Y-96804700D01*
X128380000Y-96804697D01*
X128380000Y-96560001D01*
X131080000Y-96560001D01*
X131080000Y-96804700D01*
X131091603Y-96863036D01*
X131135806Y-96929189D01*
X131135810Y-96929193D01*
X131201963Y-96973396D01*
X131260299Y-96984999D01*
X131260303Y-96985000D01*
X131704999Y-96985000D01*
X131705000Y-96984999D01*
X131705000Y-96560001D01*
X131905000Y-96560001D01*
X131905000Y-96984999D01*
X131905001Y-96985000D01*
X132349697Y-96985000D01*
X132349700Y-96984999D01*
X132408036Y-96973396D01*
X132474189Y-96929193D01*
X132474193Y-96929189D01*
X132518396Y-96863036D01*
X132529999Y-96804700D01*
X132530000Y-96804697D01*
X132530000Y-96560001D01*
X132529999Y-96560000D01*
X131905001Y-96560000D01*
X131905000Y-96560001D01*
X131705000Y-96560001D01*
X131704999Y-96560000D01*
X131080001Y-96560000D01*
X131080000Y-96560001D01*
X128380000Y-96560001D01*
X128379999Y-96560000D01*
X127755001Y-96560000D01*
X127755000Y-96560001D01*
X127555000Y-96560001D01*
X127554999Y-96560000D01*
X126930001Y-96560000D01*
X126930000Y-96560001D01*
X126930000Y-96733889D01*
X126911093Y-96792080D01*
X126861593Y-96828044D01*
X126800407Y-96828044D01*
X126760996Y-96803893D01*
X126447104Y-96490001D01*
X132820001Y-96490001D01*
X132820001Y-96564260D01*
X132826422Y-96613041D01*
X132876349Y-96720109D01*
X132959890Y-96803650D01*
X133066952Y-96853574D01*
X133066959Y-96853576D01*
X133115745Y-96859999D01*
X133240000Y-96859999D01*
X133240000Y-96490001D01*
X133440000Y-96490001D01*
X133440000Y-96859998D01*
X133440001Y-96859999D01*
X133564251Y-96859999D01*
X133564260Y-96859998D01*
X133613041Y-96853577D01*
X133720109Y-96803650D01*
X133803650Y-96720109D01*
X133853574Y-96613047D01*
X133853576Y-96613040D01*
X133860000Y-96564253D01*
X133860000Y-96490001D01*
X133859999Y-96490000D01*
X133440001Y-96490000D01*
X133440000Y-96490001D01*
X133240000Y-96490001D01*
X133239999Y-96490000D01*
X132820002Y-96490000D01*
X132820001Y-96490001D01*
X126447104Y-96490001D01*
X126072402Y-96115299D01*
X126930000Y-96115299D01*
X126930000Y-96359999D01*
X126930001Y-96360000D01*
X127554999Y-96360000D01*
X127555000Y-96359999D01*
X127555000Y-95935001D01*
X127755000Y-95935001D01*
X127755000Y-96359999D01*
X127755001Y-96360000D01*
X128379999Y-96360000D01*
X128380000Y-96359999D01*
X128380000Y-96115299D01*
X131080000Y-96115299D01*
X131080000Y-96359999D01*
X131080001Y-96360000D01*
X131704999Y-96360000D01*
X131705000Y-96359999D01*
X131705000Y-95935001D01*
X131905000Y-95935001D01*
X131905000Y-96359999D01*
X131905001Y-96360000D01*
X132529999Y-96360000D01*
X132530000Y-96359999D01*
X132530000Y-96115299D01*
X132518396Y-96056963D01*
X132474193Y-95990810D01*
X132474189Y-95990806D01*
X132408036Y-95946603D01*
X132349700Y-95935000D01*
X131905001Y-95935000D01*
X131905000Y-95935001D01*
X131705000Y-95935001D01*
X131704999Y-95935000D01*
X131260299Y-95935000D01*
X131201963Y-95946603D01*
X131135810Y-95990806D01*
X131135806Y-95990810D01*
X131091603Y-96056963D01*
X131080000Y-96115299D01*
X128380000Y-96115299D01*
X128368396Y-96056963D01*
X128324193Y-95990810D01*
X128324189Y-95990806D01*
X128258036Y-95946603D01*
X128199700Y-95935000D01*
X127755001Y-95935000D01*
X127755000Y-95935001D01*
X127555000Y-95935001D01*
X127554999Y-95935000D01*
X127110299Y-95935000D01*
X127051963Y-95946603D01*
X126985810Y-95990806D01*
X126985806Y-95990810D01*
X126941603Y-96056963D01*
X126930000Y-96115299D01*
X126072402Y-96115299D01*
X126039496Y-96082393D01*
X126011719Y-96027876D01*
X126010500Y-96012389D01*
X126010500Y-95307020D01*
X126029407Y-95248829D01*
X126042420Y-95235473D01*
X126042024Y-95235077D01*
X126046610Y-95230490D01*
X126046613Y-95230489D01*
X126081417Y-95195685D01*
X132819500Y-95195685D01*
X132819500Y-95544314D01*
X132825932Y-95593174D01*
X132825932Y-95593175D01*
X132875933Y-95700401D01*
X132875934Y-95700402D01*
X132875935Y-95700404D01*
X132959596Y-95784065D01*
X132959597Y-95784065D01*
X132959598Y-95784066D01*
X132973507Y-95790552D01*
X133018255Y-95832280D01*
X133029929Y-95892342D01*
X133004071Y-95947794D01*
X132973507Y-95970000D01*
X132959890Y-95976349D01*
X132876349Y-96059890D01*
X132826425Y-96166952D01*
X132826423Y-96166959D01*
X132820000Y-96215746D01*
X132820000Y-96289999D01*
X132820001Y-96290000D01*
X133859998Y-96290000D01*
X133859999Y-96289999D01*
X133859999Y-96215749D01*
X133859998Y-96215739D01*
X133853577Y-96166958D01*
X133803650Y-96059890D01*
X133720111Y-95976351D01*
X133706493Y-95970001D01*
X133661745Y-95928273D01*
X133650070Y-95868212D01*
X133675928Y-95812759D01*
X133706492Y-95790552D01*
X133720404Y-95784065D01*
X133804065Y-95700404D01*
X133854068Y-95593173D01*
X133860500Y-95544316D01*
X133860500Y-95195684D01*
X133854068Y-95146827D01*
X133853968Y-95146613D01*
X133804066Y-95039598D01*
X133804065Y-95039597D01*
X133804065Y-95039596D01*
X133720404Y-94955935D01*
X133720402Y-94955934D01*
X133720401Y-94955933D01*
X133613175Y-94905932D01*
X133580601Y-94901644D01*
X133564316Y-94899500D01*
X133115684Y-94899500D01*
X133099398Y-94901644D01*
X133066825Y-94905932D01*
X133066824Y-94905932D01*
X132959598Y-94955933D01*
X132875933Y-95039598D01*
X132825932Y-95146824D01*
X132825932Y-95146825D01*
X132825932Y-95146827D01*
X132819726Y-95193972D01*
X132819500Y-95195685D01*
X126081417Y-95195685D01*
X126130489Y-95146613D01*
X126154974Y-95104205D01*
X126174337Y-95070667D01*
X126189799Y-95043886D01*
X126196323Y-95019536D01*
X126221943Y-94975158D01*
X126785497Y-94411605D01*
X126840013Y-94383829D01*
X126900445Y-94393400D01*
X126943710Y-94436665D01*
X126954500Y-94481610D01*
X126954500Y-94654746D01*
X126954501Y-94654758D01*
X126966132Y-94713227D01*
X126966134Y-94713233D01*
X127010445Y-94779548D01*
X127010448Y-94779552D01*
X127076769Y-94823867D01*
X127121231Y-94832711D01*
X127135241Y-94835498D01*
X127135246Y-94835498D01*
X127135252Y-94835500D01*
X127135253Y-94835500D01*
X128224747Y-94835500D01*
X128224748Y-94835500D01*
X128283231Y-94823867D01*
X128349552Y-94779552D01*
X128355516Y-94770625D01*
X128403565Y-94732746D01*
X128463456Y-94730000D01*
X128483982Y-94735500D01*
X128596016Y-94735500D01*
X128596018Y-94735500D01*
X128704237Y-94706503D01*
X128704239Y-94706501D01*
X128704241Y-94706501D01*
X128743066Y-94684085D01*
X128801263Y-94650485D01*
X128880485Y-94571263D01*
X128932246Y-94481610D01*
X128936501Y-94474241D01*
X128936501Y-94474239D01*
X128936503Y-94474237D01*
X128965500Y-94366018D01*
X128965500Y-94253982D01*
X130364500Y-94253982D01*
X130364500Y-94366018D01*
X130388799Y-94456702D01*
X130393498Y-94474241D01*
X130448798Y-94570021D01*
X130449515Y-94571263D01*
X130528737Y-94650485D01*
X130528739Y-94650486D01*
X130625759Y-94706501D01*
X130625757Y-94706501D01*
X130625761Y-94706502D01*
X130625763Y-94706503D01*
X130733982Y-94735500D01*
X130733984Y-94735500D01*
X130846016Y-94735500D01*
X130846018Y-94735500D01*
X130954237Y-94706503D01*
X130969477Y-94697704D01*
X131029321Y-94684981D01*
X131085218Y-94709864D01*
X131101292Y-94728435D01*
X131135448Y-94779552D01*
X131201769Y-94823867D01*
X131246231Y-94832711D01*
X131260241Y-94835498D01*
X131260246Y-94835498D01*
X131260252Y-94835500D01*
X131260253Y-94835500D01*
X132349747Y-94835500D01*
X132349748Y-94835500D01*
X132408231Y-94823867D01*
X132474552Y-94779552D01*
X132518867Y-94713231D01*
X132530500Y-94654748D01*
X132530500Y-93965252D01*
X132518867Y-93906769D01*
X132474552Y-93840448D01*
X132474548Y-93840445D01*
X132408233Y-93796134D01*
X132408231Y-93796133D01*
X132408228Y-93796132D01*
X132408227Y-93796132D01*
X132349758Y-93784501D01*
X132349748Y-93784500D01*
X131260252Y-93784500D01*
X131260251Y-93784500D01*
X131260241Y-93784501D01*
X131201772Y-93796132D01*
X131201766Y-93796134D01*
X131135451Y-93840445D01*
X131135444Y-93840452D01*
X131101292Y-93891563D01*
X131053242Y-93929442D01*
X130992103Y-93931843D01*
X130969477Y-93922296D01*
X130954239Y-93913498D01*
X130954238Y-93913497D01*
X130954237Y-93913497D01*
X130846018Y-93884500D01*
X130733982Y-93884500D01*
X130678419Y-93899388D01*
X130625758Y-93913498D01*
X130528739Y-93969513D01*
X130449513Y-94048739D01*
X130393498Y-94145758D01*
X130389816Y-94159500D01*
X130364500Y-94253982D01*
X128965500Y-94253982D01*
X128936503Y-94145763D01*
X128936501Y-94145760D01*
X128936501Y-94145758D01*
X128885010Y-94056574D01*
X128880485Y-94048737D01*
X128801263Y-93969515D01*
X128794309Y-93965500D01*
X128704240Y-93913498D01*
X128704242Y-93913498D01*
X128651581Y-93899388D01*
X128596018Y-93884500D01*
X128483982Y-93884500D01*
X128483979Y-93884500D01*
X128463453Y-93890000D01*
X128402351Y-93886797D01*
X128355517Y-93849375D01*
X128349554Y-93840451D01*
X128349552Y-93840448D01*
X128349548Y-93840445D01*
X128283233Y-93796134D01*
X128283231Y-93796133D01*
X128283228Y-93796132D01*
X128283227Y-93796132D01*
X128224758Y-93784501D01*
X128224748Y-93784500D01*
X128224747Y-93784500D01*
X127651611Y-93784500D01*
X127593420Y-93765593D01*
X127557456Y-93716093D01*
X127557456Y-93654907D01*
X127581607Y-93615496D01*
X127850103Y-93347000D01*
X128528650Y-92668453D01*
X130800000Y-92668453D01*
X130815760Y-92767965D01*
X130815762Y-92767969D01*
X130876881Y-92887921D01*
X130972078Y-92983118D01*
X131092030Y-93044237D01*
X131092029Y-93044237D01*
X131191545Y-93059999D01*
X131549998Y-93059999D01*
X131550000Y-93059998D01*
X131550000Y-92510000D01*
X130800002Y-92510000D01*
X130800001Y-92510001D01*
X130800001Y-92668453D01*
X130800000Y-92668453D01*
X128528650Y-92668453D01*
X128730489Y-92466614D01*
X128765959Y-92405178D01*
X128772632Y-92393620D01*
X128772640Y-92393605D01*
X128772668Y-92393557D01*
X128789799Y-92363886D01*
X128820500Y-92249309D01*
X128820500Y-92081000D01*
X128839407Y-92022809D01*
X128888907Y-91986845D01*
X128919500Y-91982000D01*
X130710940Y-91982000D01*
X130769131Y-92000907D01*
X130805095Y-92050407D01*
X130808721Y-92096488D01*
X130800000Y-92151547D01*
X130800000Y-92309999D01*
X130800001Y-92310000D01*
X131551000Y-92310000D01*
X131565912Y-92314845D01*
X131581593Y-92314845D01*
X131594278Y-92324061D01*
X131609191Y-92328907D01*
X131618407Y-92341592D01*
X131631093Y-92350809D01*
X131635938Y-92365721D01*
X131645155Y-92378407D01*
X131650000Y-92409000D01*
X131650000Y-92410000D01*
X131651000Y-92410000D01*
X131709191Y-92428907D01*
X131745155Y-92478407D01*
X131750000Y-92509000D01*
X131750000Y-93059998D01*
X131750001Y-93059999D01*
X132108453Y-93059999D01*
X132207965Y-93044239D01*
X132207969Y-93044237D01*
X132327921Y-92983118D01*
X132423118Y-92887921D01*
X132484237Y-92767969D01*
X132489028Y-92737724D01*
X132516805Y-92683207D01*
X132571321Y-92655429D01*
X132631753Y-92665000D01*
X132656813Y-92683206D01*
X132956726Y-92983118D01*
X133219518Y-93245910D01*
X133219520Y-93245913D01*
X133294087Y-93320480D01*
X133330091Y-93341266D01*
X133356447Y-93356484D01*
X133356446Y-93356484D01*
X133382461Y-93371502D01*
X133385413Y-93373207D01*
X133385415Y-93373207D01*
X133385416Y-93373208D01*
X133436343Y-93386854D01*
X133487270Y-93400500D01*
X133487272Y-93400501D01*
X133487273Y-93400501D01*
X133598790Y-93400501D01*
X133598806Y-93400500D01*
X134193793Y-93400500D01*
X134251984Y-93419407D01*
X134287948Y-93468907D01*
X134287948Y-93530093D01*
X134282733Y-93542981D01*
X134279912Y-93548750D01*
X134270000Y-93616784D01*
X134270000Y-93699999D01*
X134270001Y-93700000D01*
X135021000Y-93700000D01*
X135035912Y-93704845D01*
X135051593Y-93704845D01*
X135064278Y-93714061D01*
X135079191Y-93718907D01*
X135088407Y-93731592D01*
X135101093Y-93740809D01*
X135105938Y-93755721D01*
X135115155Y-93768407D01*
X135120000Y-93799000D01*
X135120000Y-93800000D01*
X135121000Y-93800000D01*
X135179191Y-93818907D01*
X135215155Y-93868407D01*
X135220000Y-93899000D01*
X135220000Y-94306000D01*
X135201093Y-94364191D01*
X135151593Y-94400155D01*
X135121000Y-94405000D01*
X135119000Y-94405000D01*
X135060809Y-94386093D01*
X135024845Y-94336593D01*
X135020000Y-94306000D01*
X135020000Y-93900000D01*
X134270002Y-93900000D01*
X134270001Y-93900001D01*
X134270001Y-93983216D01*
X134279912Y-94051250D01*
X134331214Y-94156188D01*
X134413812Y-94238786D01*
X134518751Y-94290087D01*
X134586783Y-94299999D01*
X134601036Y-94299999D01*
X134659228Y-94318903D01*
X134695195Y-94368401D01*
X134695198Y-94429586D01*
X134671054Y-94468994D01*
X134666275Y-94473773D01*
X134589666Y-94588428D01*
X134536901Y-94715816D01*
X134536901Y-94715818D01*
X134516177Y-94820000D01*
X134926212Y-94820000D01*
X134910000Y-94880504D01*
X134910000Y-94959496D01*
X134926212Y-95020000D01*
X134516178Y-95020000D01*
X134536901Y-95124181D01*
X134536901Y-95124183D01*
X134589666Y-95251571D01*
X134666271Y-95366220D01*
X134763779Y-95463728D01*
X134878428Y-95540333D01*
X135005816Y-95593098D01*
X135141055Y-95619999D01*
X135141057Y-95620000D01*
X135659999Y-95620000D01*
X135660000Y-95619999D01*
X135660000Y-95220000D01*
X135860000Y-95220000D01*
X135860000Y-95619999D01*
X135860001Y-95620000D01*
X136378943Y-95620000D01*
X136378944Y-95619999D01*
X136514183Y-95593098D01*
X136641571Y-95540333D01*
X136756220Y-95463728D01*
X136853728Y-95366220D01*
X136930333Y-95251571D01*
X136983098Y-95124183D01*
X136983098Y-95124181D01*
X137003822Y-95020000D01*
X136593788Y-95020000D01*
X136610000Y-94959496D01*
X136610000Y-94880504D01*
X136593788Y-94820000D01*
X137003822Y-94820000D01*
X138946177Y-94820000D01*
X139356212Y-94820000D01*
X139340000Y-94880504D01*
X139340000Y-94959496D01*
X139356212Y-95020000D01*
X138946178Y-95020000D01*
X138966901Y-95124181D01*
X138966901Y-95124183D01*
X139019666Y-95251571D01*
X139096271Y-95366220D01*
X139193779Y-95463728D01*
X139308428Y-95540333D01*
X139435816Y-95593098D01*
X139571055Y-95619999D01*
X139571057Y-95620000D01*
X139839999Y-95620000D01*
X139840000Y-95619999D01*
X139840000Y-95220000D01*
X140040000Y-95220000D01*
X140040000Y-95619999D01*
X140040001Y-95620000D01*
X140308943Y-95620000D01*
X140308944Y-95619999D01*
X140444183Y-95593098D01*
X140571571Y-95540333D01*
X140686220Y-95463728D01*
X140783728Y-95366220D01*
X140860333Y-95251571D01*
X140913098Y-95124183D01*
X140913098Y-95124181D01*
X140933822Y-95020000D01*
X140523788Y-95020000D01*
X140540000Y-94959496D01*
X140540000Y-94880504D01*
X140523788Y-94820000D01*
X140933822Y-94820000D01*
X140913098Y-94715818D01*
X140913098Y-94715816D01*
X140860333Y-94588428D01*
X140783728Y-94473779D01*
X140686220Y-94376271D01*
X140571571Y-94299666D01*
X140444183Y-94246901D01*
X140308944Y-94220000D01*
X140040001Y-94220000D01*
X140040000Y-94220001D01*
X140040000Y-94620000D01*
X139840000Y-94620000D01*
X139840000Y-94220001D01*
X139839999Y-94220000D01*
X139571055Y-94220000D01*
X139435816Y-94246901D01*
X139308428Y-94299666D01*
X139193779Y-94376271D01*
X139096271Y-94473779D01*
X139019666Y-94588428D01*
X138966901Y-94715816D01*
X138966901Y-94715818D01*
X138946177Y-94820000D01*
X137003822Y-94820000D01*
X136983098Y-94715818D01*
X136983098Y-94715816D01*
X136930333Y-94588428D01*
X136853728Y-94473779D01*
X136756220Y-94376271D01*
X136641571Y-94299666D01*
X136514183Y-94246901D01*
X136378944Y-94220000D01*
X136036185Y-94220000D01*
X135977994Y-94201093D01*
X135942030Y-94151593D01*
X135939827Y-94098281D01*
X135972641Y-93959105D01*
X135982832Y-93942321D01*
X135988895Y-93923649D01*
X135998337Y-93916786D01*
X136004397Y-93906806D01*
X136022507Y-93899218D01*
X136038387Y-93887676D01*
X136050836Y-93887348D01*
X136060829Y-93883162D01*
X136075801Y-93886691D01*
X136094622Y-93886197D01*
X136095762Y-93886502D01*
X136095763Y-93886503D01*
X136203982Y-93915500D01*
X136203984Y-93915500D01*
X136316016Y-93915500D01*
X136316018Y-93915500D01*
X136424237Y-93886503D01*
X136424239Y-93886501D01*
X136424241Y-93886501D01*
X136467178Y-93861711D01*
X136521263Y-93830485D01*
X136600485Y-93751263D01*
X136649188Y-93666907D01*
X136656501Y-93654241D01*
X136656501Y-93654239D01*
X136656503Y-93654237D01*
X136685500Y-93546018D01*
X136685500Y-93433982D01*
X136656503Y-93325763D01*
X136656501Y-93325760D01*
X136656501Y-93325758D01*
X136600486Y-93228739D01*
X136600485Y-93228737D01*
X136521263Y-93149515D01*
X136510772Y-93143458D01*
X136452703Y-93109931D01*
X136411762Y-93064461D01*
X136405368Y-93003610D01*
X136432201Y-92954191D01*
X136561893Y-92824499D01*
X136880480Y-92505913D01*
X136881128Y-92504790D01*
X136933205Y-92414592D01*
X136933205Y-92414590D01*
X136933207Y-92414588D01*
X136960500Y-92312727D01*
X136960500Y-92207273D01*
X136960500Y-88887273D01*
X136947834Y-88840000D01*
X136944552Y-88827751D01*
X136944552Y-88827750D01*
X136933207Y-88785412D01*
X136933205Y-88785408D01*
X136880483Y-88694091D01*
X136880479Y-88694086D01*
X136432200Y-88245806D01*
X136404423Y-88191290D01*
X136413994Y-88130858D01*
X136452702Y-88090068D01*
X136521263Y-88050485D01*
X136600485Y-87971263D01*
X136656234Y-87874703D01*
X136656501Y-87874241D01*
X136656501Y-87874239D01*
X136656503Y-87874237D01*
X136685500Y-87766018D01*
X136685500Y-87653982D01*
X136656503Y-87545763D01*
X136656501Y-87545760D01*
X136656501Y-87545758D01*
X136607297Y-87460535D01*
X136600485Y-87448737D01*
X136521263Y-87369515D01*
X136519344Y-87368407D01*
X136424240Y-87313498D01*
X136424242Y-87313498D01*
X136373861Y-87299999D01*
X136316018Y-87284500D01*
X136203982Y-87284500D01*
X136095763Y-87313497D01*
X136095762Y-87313497D01*
X136094622Y-87313803D01*
X136033520Y-87310600D01*
X135985970Y-87272095D01*
X135972641Y-87240894D01*
X135939828Y-87101718D01*
X135941481Y-87081743D01*
X135938674Y-87061899D01*
X135943948Y-87051957D01*
X135944877Y-87040741D01*
X135957956Y-87025553D01*
X135967349Y-87007849D01*
X135977459Y-87002905D01*
X135984804Y-86994378D01*
X136004310Y-86989779D01*
X136022317Y-86980976D01*
X136036186Y-86980000D01*
X136378943Y-86980000D01*
X136378944Y-86979999D01*
X136514183Y-86953098D01*
X136641571Y-86900333D01*
X136756220Y-86823728D01*
X136853728Y-86726220D01*
X136930333Y-86611571D01*
X136983098Y-86484183D01*
X136983098Y-86484181D01*
X137003822Y-86380000D01*
X136593788Y-86380000D01*
X136610000Y-86319496D01*
X136610000Y-86240504D01*
X136593788Y-86180000D01*
X137003822Y-86180000D01*
X138946177Y-86180000D01*
X139356212Y-86180000D01*
X139340000Y-86240504D01*
X139340000Y-86319496D01*
X139356212Y-86380000D01*
X138946178Y-86380000D01*
X138966901Y-86484181D01*
X138966901Y-86484183D01*
X139019666Y-86611571D01*
X139096271Y-86726220D01*
X139193779Y-86823728D01*
X139308428Y-86900333D01*
X139435816Y-86953098D01*
X139571055Y-86979999D01*
X139571057Y-86980000D01*
X139839999Y-86980000D01*
X139840000Y-86979999D01*
X139840000Y-86580000D01*
X140040000Y-86580000D01*
X140040000Y-86979999D01*
X140040001Y-86980000D01*
X140308943Y-86980000D01*
X140308944Y-86979999D01*
X140444183Y-86953098D01*
X140571571Y-86900333D01*
X140686220Y-86823728D01*
X140783728Y-86726220D01*
X140860333Y-86611571D01*
X140913098Y-86484183D01*
X140913098Y-86484181D01*
X140933822Y-86380000D01*
X140523788Y-86380000D01*
X140540000Y-86319496D01*
X140540000Y-86240504D01*
X140523788Y-86180000D01*
X140933822Y-86180000D01*
X140913098Y-86075818D01*
X140913098Y-86075816D01*
X140860333Y-85948428D01*
X140783728Y-85833779D01*
X140686220Y-85736271D01*
X140571571Y-85659666D01*
X140444183Y-85606901D01*
X140308944Y-85580000D01*
X140040001Y-85580000D01*
X140040000Y-85580001D01*
X140040000Y-85980000D01*
X139840000Y-85980000D01*
X139840000Y-85580001D01*
X139839999Y-85580000D01*
X139571055Y-85580000D01*
X139435816Y-85606901D01*
X139308428Y-85659666D01*
X139193779Y-85736271D01*
X139096271Y-85833779D01*
X139019666Y-85948428D01*
X138966901Y-86075816D01*
X138966901Y-86075818D01*
X138946177Y-86180000D01*
X137003822Y-86180000D01*
X136983098Y-86075818D01*
X136983098Y-86075816D01*
X136930333Y-85948428D01*
X136853728Y-85833779D01*
X136756220Y-85736271D01*
X136641571Y-85659666D01*
X136514183Y-85606901D01*
X136378944Y-85580000D01*
X135860001Y-85580000D01*
X135860000Y-85580001D01*
X135860000Y-85980000D01*
X135660000Y-85980000D01*
X135660000Y-85580001D01*
X135659999Y-85580000D01*
X135141055Y-85580000D01*
X135005816Y-85606901D01*
X134878428Y-85659666D01*
X134763779Y-85736271D01*
X134666271Y-85833779D01*
X134589666Y-85948428D01*
X134536901Y-86075816D01*
X134536901Y-86075818D01*
X134516177Y-86180000D01*
X134926212Y-86180000D01*
X134910000Y-86240504D01*
X134910000Y-86319496D01*
X134926212Y-86380000D01*
X134516178Y-86380000D01*
X134536901Y-86484181D01*
X134536901Y-86484183D01*
X134589666Y-86611571D01*
X134666271Y-86726220D01*
X134671047Y-86730996D01*
X134698824Y-86785513D01*
X134689253Y-86845945D01*
X134645988Y-86889210D01*
X134601049Y-86900000D01*
X134586789Y-86900000D01*
X134586783Y-86900001D01*
X134518749Y-86909912D01*
X134413811Y-86961214D01*
X134331213Y-87043812D01*
X134279912Y-87148751D01*
X134270000Y-87216784D01*
X134270000Y-87299999D01*
X134270001Y-87300000D01*
X135021000Y-87300000D01*
X135035912Y-87304845D01*
X135051593Y-87304845D01*
X135064278Y-87314061D01*
X135079191Y-87318907D01*
X135088407Y-87331592D01*
X135101093Y-87340809D01*
X135105938Y-87355721D01*
X135115155Y-87368407D01*
X135120000Y-87399000D01*
X135120000Y-87401000D01*
X135101093Y-87459191D01*
X135051593Y-87495155D01*
X135021000Y-87500000D01*
X134270002Y-87500000D01*
X134270001Y-87500001D01*
X134270001Y-87583216D01*
X134279912Y-87651250D01*
X134279913Y-87651252D01*
X134331097Y-87755951D01*
X134339668Y-87816533D01*
X134331097Y-87842911D01*
X134279427Y-87948604D01*
X134275297Y-87976950D01*
X134269500Y-88016740D01*
X134269500Y-88383260D01*
X134276077Y-88428401D01*
X134279428Y-88451400D01*
X134280935Y-88456276D01*
X134280048Y-88517455D01*
X134243370Y-88566428D01*
X134186347Y-88584500D01*
X133725123Y-88584500D01*
X133717525Y-88582031D01*
X133709636Y-88583281D01*
X133688980Y-88572756D01*
X133666932Y-88565593D01*
X133655119Y-88555504D01*
X133584496Y-88484881D01*
X133556719Y-88430364D01*
X133555500Y-88414877D01*
X133555500Y-87446052D01*
X133574407Y-87387861D01*
X133612659Y-87356328D01*
X133660404Y-87334065D01*
X133744065Y-87250404D01*
X133794068Y-87143173D01*
X133800500Y-87094316D01*
X133800500Y-86745684D01*
X133794068Y-86696827D01*
X133793775Y-86696199D01*
X133744066Y-86589598D01*
X133744065Y-86589597D01*
X133744065Y-86589596D01*
X133660404Y-86505935D01*
X133660402Y-86505934D01*
X133660401Y-86505933D01*
X133646490Y-86499446D01*
X133601743Y-86457717D01*
X133590070Y-86397655D01*
X133615930Y-86342203D01*
X133646497Y-86319997D01*
X133660110Y-86313649D01*
X133743650Y-86230109D01*
X133774115Y-86164778D01*
X133774118Y-86164771D01*
X133793576Y-86123041D01*
X133793576Y-86123040D01*
X133800000Y-86074253D01*
X133800000Y-86000001D01*
X133799999Y-86000000D01*
X132760002Y-86000000D01*
X132760001Y-86000001D01*
X132760001Y-86074260D01*
X132766422Y-86123041D01*
X132816349Y-86230109D01*
X132899888Y-86313648D01*
X132913504Y-86319997D01*
X132958253Y-86361725D01*
X132969929Y-86421785D01*
X132944073Y-86477239D01*
X132913510Y-86499446D01*
X132899597Y-86505934D01*
X132815933Y-86589598D01*
X132765932Y-86696824D01*
X132765932Y-86696825D01*
X132764979Y-86704068D01*
X132759726Y-86743972D01*
X132759500Y-86745685D01*
X132759500Y-87094317D01*
X132766733Y-87149257D01*
X132755583Y-87209418D01*
X132711200Y-87251535D01*
X132650538Y-87259521D01*
X132598576Y-87232183D01*
X132539496Y-87173103D01*
X132511719Y-87118586D01*
X132510500Y-87103099D01*
X132510500Y-86651510D01*
X132505242Y-86618316D01*
X132494719Y-86551874D01*
X132494716Y-86551869D01*
X132494716Y-86551867D01*
X132433529Y-86431782D01*
X132433528Y-86431780D01*
X132338220Y-86336472D01*
X132338217Y-86336470D01*
X132218132Y-86275283D01*
X132218127Y-86275281D01*
X132218126Y-86275281D01*
X132179953Y-86269235D01*
X132118490Y-86259500D01*
X132118488Y-86259500D01*
X131601512Y-86259500D01*
X131601510Y-86259500D01*
X131501874Y-86275281D01*
X131501867Y-86275283D01*
X131381782Y-86336470D01*
X131286470Y-86431782D01*
X131225283Y-86551867D01*
X131225281Y-86551874D01*
X131209500Y-86651510D01*
X131209500Y-87468489D01*
X131225281Y-87568125D01*
X131225283Y-87568132D01*
X131286470Y-87688217D01*
X131286472Y-87688220D01*
X131381780Y-87783528D01*
X131381782Y-87783529D01*
X131501867Y-87844716D01*
X131501869Y-87844716D01*
X131501874Y-87844719D01*
X131577541Y-87856703D01*
X131601510Y-87860500D01*
X131601512Y-87860500D01*
X132053099Y-87860500D01*
X132111290Y-87879407D01*
X132123103Y-87889496D01*
X132320504Y-88086897D01*
X132348281Y-88141414D01*
X132349500Y-88156901D01*
X132349500Y-88685761D01*
X132330593Y-88743952D01*
X132281093Y-88779916D01*
X132219907Y-88779916D01*
X132210871Y-88776173D01*
X132208127Y-88775281D01*
X132208126Y-88775281D01*
X132174913Y-88770020D01*
X132108490Y-88759500D01*
X132108488Y-88759500D01*
X131997611Y-88759500D01*
X131939420Y-88740593D01*
X131927607Y-88730504D01*
X131016614Y-87819511D01*
X131016614Y-87819510D01*
X131006616Y-87809512D01*
X131006609Y-87809507D01*
X130903890Y-87750202D01*
X130903886Y-87750200D01*
X130879673Y-87743712D01*
X130879673Y-87743713D01*
X130789309Y-87719500D01*
X130789307Y-87719500D01*
X129637611Y-87719500D01*
X129579420Y-87700593D01*
X129567607Y-87690504D01*
X129239496Y-87362393D01*
X129211719Y-87307876D01*
X129210500Y-87292389D01*
X129210500Y-87087610D01*
X129229407Y-87029419D01*
X129239490Y-87017612D01*
X130420489Y-85836614D01*
X130465010Y-85759501D01*
X130479799Y-85733886D01*
X130479799Y-85733885D01*
X130482367Y-85729438D01*
X130527838Y-85688499D01*
X130588689Y-85682105D01*
X130638106Y-85708937D01*
X130681978Y-85752809D01*
X130790638Y-85803478D01*
X130790645Y-85803480D01*
X130840161Y-85810000D01*
X130919999Y-85810000D01*
X130920000Y-85809999D01*
X131120000Y-85809999D01*
X131120001Y-85810000D01*
X131199838Y-85810000D01*
X131249354Y-85803480D01*
X131249361Y-85803478D01*
X131358021Y-85752809D01*
X131385084Y-85725746D01*
X132760000Y-85725746D01*
X132760000Y-85799999D01*
X132760001Y-85800000D01*
X133179999Y-85800000D01*
X133180000Y-85799999D01*
X133180000Y-85430001D01*
X133380000Y-85430001D01*
X133380000Y-85799999D01*
X133380001Y-85800000D01*
X133799998Y-85800000D01*
X133799999Y-85799999D01*
X133799999Y-85725749D01*
X133799998Y-85725739D01*
X133793577Y-85676958D01*
X133743650Y-85569890D01*
X133660109Y-85486349D01*
X133553047Y-85436425D01*
X133553040Y-85436423D01*
X133504254Y-85430000D01*
X133380001Y-85430000D01*
X133380000Y-85430001D01*
X133180000Y-85430001D01*
X133179999Y-85430000D01*
X133055748Y-85430000D01*
X133055738Y-85430001D01*
X133006959Y-85436422D01*
X132899890Y-85486349D01*
X132816349Y-85569890D01*
X132766425Y-85676952D01*
X132766423Y-85676959D01*
X132760000Y-85725746D01*
X131385084Y-85725746D01*
X131442808Y-85668022D01*
X131442810Y-85668019D01*
X131493478Y-85559361D01*
X131493480Y-85559354D01*
X131500000Y-85509838D01*
X131500000Y-85400001D01*
X131499999Y-85400000D01*
X131120000Y-85400000D01*
X131120000Y-85809999D01*
X130920000Y-85809999D01*
X130920000Y-85399000D01*
X130924845Y-85384088D01*
X130924845Y-85368407D01*
X130934061Y-85355721D01*
X130938907Y-85340809D01*
X130951592Y-85331592D01*
X130960809Y-85318907D01*
X130975721Y-85314061D01*
X130988407Y-85304845D01*
X131019000Y-85300000D01*
X131020000Y-85300000D01*
X131020000Y-85299000D01*
X131038907Y-85240809D01*
X131088407Y-85204845D01*
X131119000Y-85200000D01*
X131499999Y-85200000D01*
X131500000Y-85199999D01*
X131500000Y-85090161D01*
X131493480Y-85040645D01*
X131493478Y-85040638D01*
X131442809Y-84931978D01*
X131437840Y-84924881D01*
X131439750Y-84923543D01*
X131417558Y-84879987D01*
X131427129Y-84819555D01*
X131470394Y-84776290D01*
X131515339Y-84765500D01*
X133197767Y-84765500D01*
X133197768Y-84765500D01*
X133299026Y-84723557D01*
X133341112Y-84681470D01*
X133385491Y-84655847D01*
X133447080Y-84639346D01*
X133544106Y-84583328D01*
X133623328Y-84504106D01*
X133679346Y-84407080D01*
X133708343Y-84298861D01*
X133708343Y-84258707D01*
X133727250Y-84200516D01*
X133776750Y-84164552D01*
X133817054Y-84160184D01*
X133820244Y-84160498D01*
X133820252Y-84160500D01*
X133820260Y-84160500D01*
X135559747Y-84160500D01*
X135559748Y-84160500D01*
X135618231Y-84148867D01*
X135684552Y-84104552D01*
X135728867Y-84038231D01*
X135740500Y-83979748D01*
X135740500Y-82240252D01*
X135728867Y-82181769D01*
X135684552Y-82115448D01*
X135684548Y-82115445D01*
X135618233Y-82071134D01*
X135618231Y-82071133D01*
X135618228Y-82071132D01*
X135618227Y-82071132D01*
X135559758Y-82059501D01*
X135559748Y-82059500D01*
X133820252Y-82059500D01*
X133820251Y-82059500D01*
X133820241Y-82059501D01*
X133761772Y-82071132D01*
X133761766Y-82071134D01*
X133695451Y-82115445D01*
X133695445Y-82115451D01*
X133651134Y-82181766D01*
X133651132Y-82181772D01*
X133639501Y-82240241D01*
X133639500Y-82240253D01*
X133639500Y-82889876D01*
X133620593Y-82948067D01*
X133610504Y-82959879D01*
X133369502Y-83200880D01*
X133314987Y-83228657D01*
X133254555Y-83219086D01*
X133211290Y-83175821D01*
X133200500Y-83130876D01*
X133200500Y-83006536D01*
X133200499Y-83006532D01*
X133196511Y-82986484D01*
X133160130Y-82803580D01*
X133080941Y-82612402D01*
X132965977Y-82440345D01*
X132819655Y-82294023D01*
X132739182Y-82240253D01*
X132647597Y-82179058D01*
X132456418Y-82099869D01*
X132253467Y-82059500D01*
X132253465Y-82059500D01*
X132046535Y-82059500D01*
X132046532Y-82059500D01*
X131843581Y-82099869D01*
X131652402Y-82179058D01*
X131480348Y-82294020D01*
X131334020Y-82440348D01*
X131219058Y-82612402D01*
X131139869Y-82803581D01*
X131099500Y-83006532D01*
X131099500Y-83213467D01*
X131139869Y-83416418D01*
X131219058Y-83607597D01*
X131224144Y-83615209D01*
X131334023Y-83779655D01*
X131349866Y-83795498D01*
X131377642Y-83850013D01*
X131368071Y-83910445D01*
X131324806Y-83953710D01*
X131279861Y-83964500D01*
X130364085Y-83964500D01*
X130305894Y-83945593D01*
X130294081Y-83935504D01*
X129886366Y-83527789D01*
X129917007Y-83510099D01*
X130010099Y-83417007D01*
X130027789Y-83386366D01*
X130407923Y-83766500D01*
X130434166Y-83766500D01*
X130540495Y-83607366D01*
X130540498Y-83607360D01*
X130619650Y-83416272D01*
X130659999Y-83213418D01*
X130660000Y-83213413D01*
X130660000Y-83006586D01*
X130659999Y-83006581D01*
X130619650Y-82803727D01*
X130540498Y-82612639D01*
X130540491Y-82612625D01*
X130425594Y-82440670D01*
X130423173Y-82438249D01*
X130027788Y-82833632D01*
X130010099Y-82802993D01*
X129917007Y-82709901D01*
X129886365Y-82692210D01*
X130281750Y-82296826D01*
X130279329Y-82294405D01*
X130107374Y-82179508D01*
X130107360Y-82179501D01*
X129916272Y-82100349D01*
X129713418Y-82060000D01*
X129506581Y-82060000D01*
X129303727Y-82100349D01*
X129112639Y-82179501D01*
X129112630Y-82179505D01*
X128940665Y-82294410D01*
X128938248Y-82296825D01*
X129333633Y-82692210D01*
X129302993Y-82709901D01*
X129209901Y-82802993D01*
X129192210Y-82833633D01*
X128796825Y-82438248D01*
X128794410Y-82440665D01*
X128679505Y-82612630D01*
X128679501Y-82612639D01*
X128600349Y-82803727D01*
X128560000Y-83006581D01*
X128560000Y-83213418D01*
X128600349Y-83416272D01*
X128679501Y-83607360D01*
X128679508Y-83607374D01*
X128794405Y-83779329D01*
X128796826Y-83781750D01*
X129192210Y-83386365D01*
X129209901Y-83417007D01*
X129302993Y-83510099D01*
X129333632Y-83527788D01*
X128925918Y-83935504D01*
X128918800Y-83939130D01*
X128914105Y-83945593D01*
X128892056Y-83952756D01*
X128871401Y-83963281D01*
X128855914Y-83964500D01*
X128853084Y-83964500D01*
X128794893Y-83945593D01*
X128794361Y-83944861D01*
X128785513Y-83953710D01*
X128740568Y-83964500D01*
X127824085Y-83964500D01*
X127765894Y-83945593D01*
X127754081Y-83935504D01*
X127346366Y-83527789D01*
X127377007Y-83510099D01*
X127470099Y-83417007D01*
X127487789Y-83386366D01*
X127867923Y-83766500D01*
X127894166Y-83766500D01*
X128000495Y-83607366D01*
X128000498Y-83607360D01*
X128079650Y-83416272D01*
X128119999Y-83213418D01*
X128120000Y-83213413D01*
X128120000Y-83006586D01*
X128119999Y-83006581D01*
X128079650Y-82803727D01*
X128000498Y-82612639D01*
X128000491Y-82612625D01*
X127885594Y-82440670D01*
X127883173Y-82438249D01*
X127487788Y-82833632D01*
X127470099Y-82802993D01*
X127377007Y-82709901D01*
X127346365Y-82692210D01*
X127741750Y-82296826D01*
X127739329Y-82294405D01*
X127567374Y-82179508D01*
X127567360Y-82179501D01*
X127376272Y-82100349D01*
X127173418Y-82060000D01*
X126966581Y-82060000D01*
X126763727Y-82100349D01*
X126572639Y-82179501D01*
X126572630Y-82179505D01*
X126400665Y-82294410D01*
X126398248Y-82296825D01*
X126793633Y-82692210D01*
X126762993Y-82709901D01*
X126669901Y-82802993D01*
X126652210Y-82833633D01*
X126256825Y-82438248D01*
X126254410Y-82440665D01*
X126139505Y-82612630D01*
X126139501Y-82612639D01*
X126060349Y-82803727D01*
X126020000Y-83006581D01*
X126020000Y-83213418D01*
X126060349Y-83416272D01*
X126139501Y-83607360D01*
X126139508Y-83607374D01*
X126254405Y-83779329D01*
X126256826Y-83781750D01*
X126652210Y-83386365D01*
X126669901Y-83417007D01*
X126762993Y-83510099D01*
X126793632Y-83527788D01*
X126385918Y-83935504D01*
X126378800Y-83939130D01*
X126374105Y-83945593D01*
X126352056Y-83952756D01*
X126331401Y-83963281D01*
X126315914Y-83964500D01*
X126313084Y-83964500D01*
X126254893Y-83945593D01*
X126254361Y-83944861D01*
X126245513Y-83953710D01*
X126200568Y-83964500D01*
X125400139Y-83964500D01*
X125341948Y-83945593D01*
X125305984Y-83896093D01*
X125305984Y-83834907D01*
X125330133Y-83795498D01*
X125345977Y-83779655D01*
X125460941Y-83607598D01*
X125540130Y-83416420D01*
X125580500Y-83213465D01*
X125580500Y-83006535D01*
X125540130Y-82803580D01*
X125460941Y-82612402D01*
X125345977Y-82440345D01*
X125199655Y-82294023D01*
X125119182Y-82240253D01*
X125027597Y-82179058D01*
X124836418Y-82099869D01*
X124633467Y-82059500D01*
X124633465Y-82059500D01*
X124426535Y-82059500D01*
X124426532Y-82059500D01*
X124223581Y-82099869D01*
X124032402Y-82179058D01*
X123860348Y-82294020D01*
X123714020Y-82440348D01*
X123599058Y-82612402D01*
X123519869Y-82803581D01*
X123479500Y-83006532D01*
X123479500Y-83213467D01*
X123519869Y-83416418D01*
X123599058Y-83607597D01*
X123604144Y-83615209D01*
X123714023Y-83779655D01*
X123729866Y-83795498D01*
X123757642Y-83850013D01*
X123748071Y-83910445D01*
X123704806Y-83953710D01*
X123659861Y-83964500D01*
X122860139Y-83964500D01*
X122801948Y-83945593D01*
X122765984Y-83896093D01*
X122765984Y-83834907D01*
X122790133Y-83795498D01*
X122805977Y-83779655D01*
X122920941Y-83607598D01*
X123000130Y-83416420D01*
X123040500Y-83213465D01*
X123040500Y-83006535D01*
X123000130Y-82803580D01*
X122920941Y-82612402D01*
X122805977Y-82440345D01*
X122659655Y-82294023D01*
X122579182Y-82240253D01*
X122487597Y-82179058D01*
X122296418Y-82099869D01*
X122093467Y-82059500D01*
X122093465Y-82059500D01*
X121886535Y-82059500D01*
X121886532Y-82059500D01*
X121683581Y-82099869D01*
X121492402Y-82179058D01*
X121320348Y-82294020D01*
X121174020Y-82440348D01*
X121059058Y-82612402D01*
X120979869Y-82803581D01*
X120939500Y-83006532D01*
X120939500Y-83213467D01*
X120979869Y-83416418D01*
X121059058Y-83607597D01*
X121064144Y-83615209D01*
X121174023Y-83779655D01*
X121320345Y-83925977D01*
X121320348Y-83925979D01*
X121320351Y-83925982D01*
X121366346Y-83956715D01*
X121404226Y-84004764D01*
X121406628Y-84065903D01*
X121381349Y-84109034D01*
X119664504Y-85825880D01*
X119609987Y-85853657D01*
X119549555Y-85844086D01*
X119506290Y-85800821D01*
X119495500Y-85755876D01*
X119495500Y-84253277D01*
X119514407Y-84195086D01*
X119563907Y-84159122D01*
X119575178Y-84156180D01*
X119756420Y-84120130D01*
X119947598Y-84040941D01*
X120119655Y-83925977D01*
X120265977Y-83779655D01*
X120380941Y-83607598D01*
X120460130Y-83416420D01*
X120500500Y-83213465D01*
X120500500Y-83006535D01*
X120460130Y-82803580D01*
X120380941Y-82612402D01*
X120265977Y-82440345D01*
X120119655Y-82294023D01*
X120039182Y-82240253D01*
X119947597Y-82179058D01*
X119756418Y-82099869D01*
X119553467Y-82059500D01*
X119553465Y-82059500D01*
X119346535Y-82059500D01*
X119346532Y-82059500D01*
X119143581Y-82099869D01*
X118952402Y-82179058D01*
X118780348Y-82294020D01*
X118634020Y-82440348D01*
X118519058Y-82612402D01*
X118439869Y-82803581D01*
X118399500Y-83006532D01*
X118399500Y-83060491D01*
X118380593Y-83118682D01*
X118331093Y-83154646D01*
X118269907Y-83154646D01*
X118230497Y-83130495D01*
X117976444Y-82876443D01*
X117968337Y-82871026D01*
X117969597Y-82869139D01*
X117933229Y-82838076D01*
X117921551Y-82808235D01*
X117921543Y-82808238D01*
X117921509Y-82808128D01*
X117920543Y-82805658D01*
X117920130Y-82803581D01*
X117919886Y-82802993D01*
X117840941Y-82612402D01*
X117725977Y-82440345D01*
X117579655Y-82294023D01*
X117499182Y-82240253D01*
X117407597Y-82179058D01*
X117216418Y-82099869D01*
X117013467Y-82059500D01*
X117013465Y-82059500D01*
X116806535Y-82059500D01*
X116806532Y-82059500D01*
X116603581Y-82099869D01*
X116412402Y-82179058D01*
X116240348Y-82294020D01*
X116094020Y-82440348D01*
X115979058Y-82612402D01*
X115899869Y-82803581D01*
X115859500Y-83006532D01*
X115859500Y-83010105D01*
X115840593Y-83068296D01*
X115791093Y-83104260D01*
X115729907Y-83104260D01*
X115690497Y-83080109D01*
X115486831Y-82876444D01*
X115486830Y-82876443D01*
X115432344Y-82853874D01*
X115385821Y-82814138D01*
X115378772Y-82800303D01*
X115301039Y-82612639D01*
X115300942Y-82612404D01*
X115185979Y-82440348D01*
X115185977Y-82440345D01*
X115039655Y-82294023D01*
X114959182Y-82240253D01*
X114867597Y-82179058D01*
X114676418Y-82099869D01*
X114473467Y-82059500D01*
X114473465Y-82059500D01*
X114266535Y-82059500D01*
X114266532Y-82059500D01*
X114063581Y-82099869D01*
X113872402Y-82179058D01*
X113700348Y-82294020D01*
X113554020Y-82440348D01*
X113439058Y-82612402D01*
X113359870Y-82803580D01*
X113336827Y-82919422D01*
X113306930Y-82972805D01*
X113251364Y-82998421D01*
X113191355Y-82986484D01*
X113169730Y-82970115D01*
X113076058Y-82876443D01*
X113076056Y-82876442D01*
X113076055Y-82876441D01*
X113010599Y-82849328D01*
X112974800Y-82834500D01*
X112974799Y-82834500D01*
X112919087Y-82834500D01*
X112860896Y-82815593D01*
X112827623Y-82773386D01*
X112760941Y-82612402D01*
X112645979Y-82440348D01*
X112645977Y-82440345D01*
X112499655Y-82294023D01*
X112419182Y-82240253D01*
X112327597Y-82179058D01*
X112136418Y-82099869D01*
X111933467Y-82059500D01*
X111933465Y-82059500D01*
X111726535Y-82059500D01*
X111726532Y-82059500D01*
X111523581Y-82099869D01*
X111332402Y-82179058D01*
X111160348Y-82294020D01*
X111014020Y-82440348D01*
X110899058Y-82612402D01*
X110819869Y-82803581D01*
X110779500Y-83006532D01*
X110779500Y-83213467D01*
X110819869Y-83416418D01*
X110899058Y-83607597D01*
X110904144Y-83615209D01*
X111014023Y-83779655D01*
X111019866Y-83785498D01*
X111047642Y-83840013D01*
X111038071Y-83900445D01*
X110994806Y-83943710D01*
X110949861Y-83954500D01*
X110565124Y-83954500D01*
X110506933Y-83935593D01*
X110495120Y-83925504D01*
X110254908Y-83685292D01*
X110227131Y-83630775D01*
X110233447Y-83577404D01*
X110300130Y-83416420D01*
X110340500Y-83213465D01*
X110340500Y-83006535D01*
X110300130Y-82803580D01*
X110220941Y-82612402D01*
X110105977Y-82440345D01*
X109959655Y-82294023D01*
X109879182Y-82240253D01*
X109787597Y-82179058D01*
X109596418Y-82099869D01*
X109393467Y-82059500D01*
X109393465Y-82059500D01*
X109186535Y-82059500D01*
X109186532Y-82059500D01*
X108983581Y-82099869D01*
X108792402Y-82179058D01*
X108620348Y-82294020D01*
X108474020Y-82440348D01*
X108359058Y-82612402D01*
X108279869Y-82803581D01*
X108239500Y-83006532D01*
X108239500Y-83213467D01*
X108279869Y-83416418D01*
X108359058Y-83607597D01*
X108364144Y-83615209D01*
X108474023Y-83779655D01*
X108620345Y-83925977D01*
X108620348Y-83925979D01*
X108767323Y-84024184D01*
X108805203Y-84072234D01*
X108807605Y-84133372D01*
X108773613Y-84184246D01*
X108716209Y-84205424D01*
X108712322Y-84205500D01*
X108276124Y-84205500D01*
X108217933Y-84186593D01*
X108206120Y-84176504D01*
X107714908Y-83685292D01*
X107687131Y-83630775D01*
X107693447Y-83577404D01*
X107760130Y-83416420D01*
X107800500Y-83213465D01*
X107800500Y-83006535D01*
X107760130Y-82803580D01*
X107680941Y-82612402D01*
X107565977Y-82440345D01*
X107419655Y-82294023D01*
X107339182Y-82240253D01*
X107247597Y-82179058D01*
X107056418Y-82099869D01*
X106853467Y-82059500D01*
X106853465Y-82059500D01*
X106646535Y-82059500D01*
X106646532Y-82059500D01*
X106443581Y-82099869D01*
X106252402Y-82179058D01*
X106080348Y-82294020D01*
X105934020Y-82440348D01*
X105819058Y-82612402D01*
X105739869Y-82803581D01*
X105699500Y-83006532D01*
X105699500Y-83213467D01*
X105739869Y-83416418D01*
X105819058Y-83607597D01*
X105824144Y-83615209D01*
X105934023Y-83779655D01*
X106080345Y-83925977D01*
X106252402Y-84040941D01*
X106443580Y-84120130D01*
X106646535Y-84160500D01*
X106646536Y-84160500D01*
X106853464Y-84160500D01*
X106853465Y-84160500D01*
X107056420Y-84120130D01*
X107217403Y-84053447D01*
X107278399Y-84048647D01*
X107325292Y-84074908D01*
X107964942Y-84714558D01*
X107964943Y-84714558D01*
X107964944Y-84714559D01*
X108066198Y-84756500D01*
X108066200Y-84756500D01*
X110489613Y-84756500D01*
X110547804Y-84775407D01*
X110583768Y-84824907D01*
X110583768Y-84886093D01*
X110547804Y-84935593D01*
X110527503Y-84946961D01*
X110499785Y-84958443D01*
X110499783Y-84958444D01*
X110499781Y-84958446D01*
X110074880Y-85383347D01*
X110020364Y-85411124D01*
X110004877Y-85412343D01*
X109953982Y-85412343D01*
X109888085Y-85430000D01*
X109845758Y-85441341D01*
X109748739Y-85497356D01*
X109669513Y-85576582D01*
X109613498Y-85673601D01*
X109609506Y-85688499D01*
X109584500Y-85781825D01*
X109584500Y-85893861D01*
X109594635Y-85931684D01*
X109613498Y-86002084D01*
X109667603Y-86095795D01*
X109669515Y-86099106D01*
X109748737Y-86178328D01*
X109751633Y-86180000D01*
X109845759Y-86234344D01*
X109845757Y-86234344D01*
X109845761Y-86234345D01*
X109845763Y-86234346D01*
X109953982Y-86263343D01*
X109953984Y-86263343D01*
X110036499Y-86263343D01*
X110051411Y-86268188D01*
X110067092Y-86268188D01*
X110079777Y-86277404D01*
X110094690Y-86282250D01*
X110103906Y-86294935D01*
X110116592Y-86304152D01*
X110121437Y-86319064D01*
X110130654Y-86331750D01*
X110135499Y-86362343D01*
X110135499Y-86560659D01*
X110116592Y-86618850D01*
X110086000Y-86646395D01*
X109999737Y-86696199D01*
X109920512Y-86775424D01*
X109864497Y-86872443D01*
X109853768Y-86912484D01*
X109835499Y-86980667D01*
X109835499Y-87092703D01*
X109857042Y-87173103D01*
X109864497Y-87200926D01*
X109920512Y-87297945D01*
X109920514Y-87297948D01*
X109999736Y-87377170D01*
X110096762Y-87433188D01*
X110111571Y-87437156D01*
X110162885Y-87470477D01*
X110184813Y-87527598D01*
X110184949Y-87532782D01*
X110184949Y-87636467D01*
X110210521Y-87731904D01*
X110213947Y-87744690D01*
X110257146Y-87819511D01*
X110269964Y-87841712D01*
X110349186Y-87920934D01*
X110362119Y-87928401D01*
X110446208Y-87976950D01*
X110446206Y-87976950D01*
X110446210Y-87976951D01*
X110446212Y-87976952D01*
X110554431Y-88005949D01*
X110554433Y-88005949D01*
X110666465Y-88005949D01*
X110666467Y-88005949D01*
X110774686Y-87976952D01*
X110774687Y-87976951D01*
X110780954Y-87975272D01*
X110781403Y-87976949D01*
X110834112Y-87972803D01*
X110886281Y-88004773D01*
X110909695Y-88061301D01*
X110910000Y-88069067D01*
X110910000Y-88069999D01*
X110910001Y-88070000D01*
X111289999Y-88070000D01*
X111290000Y-88069999D01*
X111290000Y-87611007D01*
X111305000Y-87564840D01*
X111305000Y-87279000D01*
X111309845Y-87264088D01*
X111309845Y-87248407D01*
X111319061Y-87235721D01*
X111323907Y-87220809D01*
X111336592Y-87211592D01*
X111345809Y-87198907D01*
X111360721Y-87194061D01*
X111373407Y-87184845D01*
X111404000Y-87180000D01*
X111406000Y-87180000D01*
X111464191Y-87198907D01*
X111500155Y-87248407D01*
X111505000Y-87279000D01*
X111505000Y-87748993D01*
X111490000Y-87795159D01*
X111490000Y-89041000D01*
X111485155Y-89055911D01*
X111485155Y-89071593D01*
X111475938Y-89084278D01*
X111471093Y-89099191D01*
X111458407Y-89108407D01*
X111449191Y-89121093D01*
X111434278Y-89125938D01*
X111421593Y-89135155D01*
X111391000Y-89140000D01*
X111390000Y-89140000D01*
X111390000Y-89141000D01*
X111371093Y-89199191D01*
X111321593Y-89235155D01*
X111291000Y-89240000D01*
X110910001Y-89240000D01*
X110910000Y-89240001D01*
X110910000Y-89283141D01*
X110891093Y-89341332D01*
X110841593Y-89377296D01*
X110780407Y-89377296D01*
X110731345Y-89341929D01*
X110647154Y-89227855D01*
X110647152Y-89227853D01*
X110647150Y-89227850D01*
X110647146Y-89227847D01*
X110647144Y-89227845D01*
X110537883Y-89147207D01*
X110409703Y-89102355D01*
X110409694Y-89102353D01*
X110379274Y-89099500D01*
X110379266Y-89099500D01*
X109370734Y-89099500D01*
X109370725Y-89099500D01*
X109340305Y-89102353D01*
X109340296Y-89102355D01*
X109212116Y-89147207D01*
X109102855Y-89227845D01*
X109102845Y-89227855D01*
X109022207Y-89337116D01*
X108977355Y-89465296D01*
X108977353Y-89465305D01*
X108974500Y-89495725D01*
X108974500Y-90304274D01*
X108977353Y-90334694D01*
X108977355Y-90334703D01*
X108988937Y-90367802D01*
X108990310Y-90428972D01*
X108955466Y-90479267D01*
X108897715Y-90499475D01*
X108895493Y-90499500D01*
X108653977Y-90499500D01*
X108595786Y-90480593D01*
X108559822Y-90431093D01*
X108559822Y-90369907D01*
X108560532Y-90367803D01*
X108572149Y-90334601D01*
X108574999Y-90304211D01*
X108575000Y-90304210D01*
X108575000Y-90000001D01*
X108574999Y-90000000D01*
X106775002Y-90000000D01*
X106775001Y-90000001D01*
X106775001Y-90145162D01*
X106756094Y-90203353D01*
X106706594Y-90239317D01*
X106645408Y-90239317D01*
X106605997Y-90215166D01*
X106518021Y-90127190D01*
X106409361Y-90076521D01*
X106409354Y-90076519D01*
X106359839Y-90070000D01*
X106250001Y-90070000D01*
X106250000Y-90070001D01*
X106250000Y-90449999D01*
X106250001Y-90450000D01*
X106659998Y-90450000D01*
X106667187Y-90442811D01*
X106721704Y-90415033D01*
X106782136Y-90424604D01*
X106816214Y-90458176D01*
X106818248Y-90456676D01*
X106903207Y-90571790D01*
X106903209Y-90571792D01*
X107012352Y-90652345D01*
X107023627Y-90656290D01*
X107072308Y-90693356D01*
X107089905Y-90751956D01*
X107069697Y-90809708D01*
X107023629Y-90843179D01*
X107012115Y-90847207D01*
X106902855Y-90927845D01*
X106902845Y-90927855D01*
X106822207Y-91037116D01*
X106781620Y-91153106D01*
X106744554Y-91201787D01*
X106685954Y-91219383D01*
X106628202Y-91199174D01*
X106616700Y-91188908D01*
X106606096Y-91177843D01*
X106603224Y-91171684D01*
X106530430Y-91098890D01*
X106529717Y-91098146D01*
X106516849Y-91071506D01*
X106503412Y-91045133D01*
X106503584Y-91044043D01*
X106503105Y-91043051D01*
X106508351Y-91013946D01*
X106512983Y-90984701D01*
X106513833Y-90983529D01*
X106513959Y-90982836D01*
X106515206Y-90981640D01*
X106531189Y-90959642D01*
X106602809Y-90888021D01*
X106653478Y-90779361D01*
X106653480Y-90779354D01*
X106660000Y-90729838D01*
X106660000Y-90650001D01*
X106659999Y-90650000D01*
X105640001Y-90650000D01*
X105640000Y-90650001D01*
X105640000Y-90729838D01*
X105646519Y-90779354D01*
X105646521Y-90779361D01*
X105697190Y-90888021D01*
X105768811Y-90959642D01*
X105796588Y-91014159D01*
X105787017Y-91074591D01*
X105768813Y-91099646D01*
X105720960Y-91147500D01*
X105696774Y-91171686D01*
X105646029Y-91280510D01*
X105646028Y-91280511D01*
X105639500Y-91330100D01*
X105432500Y-91330100D01*
X105432500Y-90370161D01*
X105640000Y-90370161D01*
X105640000Y-90449999D01*
X105640001Y-90450000D01*
X106049999Y-90450000D01*
X106050000Y-90449999D01*
X106050000Y-90070001D01*
X106049999Y-90070000D01*
X105940161Y-90070000D01*
X105890645Y-90076519D01*
X105890638Y-90076521D01*
X105781978Y-90127190D01*
X105697190Y-90211978D01*
X105646521Y-90320638D01*
X105646519Y-90320645D01*
X105640000Y-90370161D01*
X105432500Y-90370161D01*
X105432500Y-89495788D01*
X106775000Y-89495788D01*
X106775000Y-89799999D01*
X106775001Y-89800000D01*
X107574999Y-89800000D01*
X107575000Y-89799999D01*
X107575000Y-89100001D01*
X107775000Y-89100001D01*
X107775000Y-89799999D01*
X107775001Y-89800000D01*
X108574998Y-89800000D01*
X108574999Y-89799999D01*
X108574999Y-89495796D01*
X108572149Y-89465399D01*
X108572149Y-89465397D01*
X108527345Y-89337352D01*
X108446792Y-89228209D01*
X108446790Y-89228207D01*
X108337647Y-89147654D01*
X108209601Y-89102850D01*
X108179211Y-89100000D01*
X107775001Y-89100000D01*
X107775000Y-89100001D01*
X107575000Y-89100001D01*
X107574999Y-89100000D01*
X107170796Y-89100000D01*
X107140399Y-89102850D01*
X107140397Y-89102850D01*
X107012352Y-89147654D01*
X106903209Y-89228207D01*
X106903207Y-89228209D01*
X106822654Y-89337352D01*
X106777850Y-89465398D01*
X106775000Y-89495788D01*
X105432500Y-89495788D01*
X105432500Y-88270001D01*
X110910000Y-88270001D01*
X110910000Y-88379838D01*
X110916519Y-88429354D01*
X110916521Y-88429361D01*
X110967190Y-88538021D01*
X111014165Y-88584996D01*
X111041942Y-88639513D01*
X111032371Y-88699945D01*
X111014165Y-88725004D01*
X110967190Y-88771978D01*
X110916521Y-88880638D01*
X110916519Y-88880645D01*
X110910000Y-88930161D01*
X110910000Y-89039999D01*
X110910001Y-89040000D01*
X111290000Y-89040000D01*
X111290000Y-88270001D01*
X111289999Y-88270000D01*
X110910001Y-88270000D01*
X110910000Y-88270001D01*
X105432500Y-88270001D01*
X105432500Y-86754526D01*
X106684500Y-86754526D01*
X106684500Y-87595473D01*
X106711995Y-87733702D01*
X106765931Y-87863914D01*
X106765935Y-87863923D01*
X106830199Y-87960099D01*
X106844235Y-87981105D01*
X106943895Y-88080765D01*
X106982302Y-88106428D01*
X107061076Y-88159064D01*
X107061082Y-88159066D01*
X107061084Y-88159068D01*
X107191296Y-88213004D01*
X107329529Y-88240500D01*
X107329530Y-88240500D01*
X107470470Y-88240500D01*
X107470471Y-88240500D01*
X107608704Y-88213004D01*
X107738916Y-88159068D01*
X107738919Y-88159065D01*
X107738923Y-88159064D01*
X107781135Y-88130858D01*
X107856105Y-88080765D01*
X107955765Y-87981105D01*
X108021965Y-87882029D01*
X108070013Y-87844151D01*
X108131151Y-87841749D01*
X108182025Y-87875742D01*
X108197723Y-87904334D01*
X108232207Y-88002883D01*
X108312845Y-88112144D01*
X108312847Y-88112146D01*
X108312850Y-88112150D01*
X108312853Y-88112152D01*
X108312855Y-88112154D01*
X108422116Y-88192792D01*
X108422117Y-88192792D01*
X108422118Y-88192793D01*
X108550301Y-88237646D01*
X108580725Y-88240499D01*
X108580727Y-88240500D01*
X108580734Y-88240500D01*
X109219273Y-88240500D01*
X109219273Y-88240499D01*
X109249699Y-88237646D01*
X109377882Y-88192793D01*
X109487150Y-88112150D01*
X109567793Y-88002882D01*
X109612646Y-87874699D01*
X109615499Y-87844273D01*
X109615500Y-87844273D01*
X109615500Y-86505727D01*
X109615499Y-86505725D01*
X109613479Y-86484183D01*
X109612646Y-86475301D01*
X109567793Y-86347118D01*
X109559934Y-86336470D01*
X109487154Y-86237855D01*
X109487152Y-86237853D01*
X109487150Y-86237850D01*
X109487146Y-86237847D01*
X109487144Y-86237845D01*
X109377883Y-86157207D01*
X109249703Y-86112355D01*
X109249694Y-86112353D01*
X109219274Y-86109500D01*
X109219266Y-86109500D01*
X108580734Y-86109500D01*
X108580725Y-86109500D01*
X108550305Y-86112353D01*
X108550296Y-86112355D01*
X108422116Y-86157207D01*
X108312855Y-86237845D01*
X108312845Y-86237855D01*
X108232207Y-86347116D01*
X108197723Y-86445665D01*
X108160657Y-86494346D01*
X108102057Y-86511942D01*
X108044305Y-86491733D01*
X108021964Y-86467969D01*
X108001861Y-86437883D01*
X107955765Y-86368895D01*
X107856105Y-86269235D01*
X107836529Y-86256154D01*
X107738923Y-86190935D01*
X107738914Y-86190931D01*
X107608702Y-86136995D01*
X107470473Y-86109500D01*
X107470471Y-86109500D01*
X107329529Y-86109500D01*
X107329526Y-86109500D01*
X107191297Y-86136995D01*
X107061085Y-86190931D01*
X107061076Y-86190935D01*
X106943896Y-86269234D01*
X106844234Y-86368896D01*
X106765935Y-86486076D01*
X106765931Y-86486085D01*
X106711995Y-86616297D01*
X106684500Y-86754526D01*
X105432500Y-86754526D01*
X105432500Y-81719500D01*
X105451407Y-81661309D01*
X105500907Y-81625345D01*
X105531500Y-81620500D01*
X141432500Y-81620500D01*
X141490691Y-81639407D01*
G37*
%TD.AperFunction*%
%TD*%
M02*
