%TF.GenerationSoftware,KiCad,Pcbnew,9.0.3*%
%TF.CreationDate,2025-08-14T14:16:02+02:00*%
%TF.ProjectId,PCB_MF_PicoMicro,5043425f-4d46-45f5-9069-636f4d696372,rev?*%
%TF.SameCoordinates,Original*%
%TF.FileFunction,Legend,Bot*%
%TF.FilePolarity,Positive*%
%FSLAX46Y46*%
G04 Gerber Fmt 4.6, Leading zero omitted, Abs format (unit mm)*
G04 Created by KiCad (PCBNEW 9.0.3) date 2025-08-14 14:16:02*
%MOMM*%
%LPD*%
G01*
G04 APERTURE LIST*
G04 Aperture macros list*
%AMRoundRect*
0 Rectangle with rounded corners*
0 $1 Rounding radius*
0 $2 $3 $4 $5 $6 $7 $8 $9 X,Y pos of 4 corners*
0 Add a 4 corners polygon primitive as box body*
4,1,4,$2,$3,$4,$5,$6,$7,$8,$9,$2,$3,0*
0 Add four circle primitives for the rounded corners*
1,1,$1+$1,$2,$3*
1,1,$1+$1,$4,$5*
1,1,$1+$1,$6,$7*
1,1,$1+$1,$8,$9*
0 Add four rect primitives between the rounded corners*
20,1,$1+$1,$2,$3,$4,$5,0*
20,1,$1+$1,$4,$5,$6,$7,0*
20,1,$1+$1,$6,$7,$8,$9,0*
20,1,$1+$1,$8,$9,$2,$3,0*%
G04 Aperture macros list end*
%ADD10C,0.153000*%
%ADD11RoundRect,0.250000X0.265000X0.615000X-0.265000X0.615000X-0.265000X-0.615000X0.265000X-0.615000X0*%
%ADD12O,1.030000X1.730000*%
%ADD13C,0.425000*%
%ADD14RoundRect,0.102000X-0.787400X0.787400X-0.787400X-0.787400X0.787400X-0.787400X0.787400X0.787400X0*%
%ADD15C,1.778800*%
%ADD16C,0.650000*%
%ADD17O,2.100000X1.000000*%
%ADD18O,1.600000X1.000000*%
G04 APERTURE END LIST*
D10*
X124418851Y-96686066D02*
X124418851Y-96209876D01*
X124133136Y-96781304D02*
X125133136Y-96447971D01*
X125133136Y-96447971D02*
X124133136Y-96114638D01*
X125133136Y-95876542D02*
X125133136Y-95257495D01*
X125133136Y-95257495D02*
X124752184Y-95590828D01*
X124752184Y-95590828D02*
X124752184Y-95447971D01*
X124752184Y-95447971D02*
X124704565Y-95352733D01*
X124704565Y-95352733D02*
X124656946Y-95305114D01*
X124656946Y-95305114D02*
X124561708Y-95257495D01*
X124561708Y-95257495D02*
X124323613Y-95257495D01*
X124323613Y-95257495D02*
X124228375Y-95305114D01*
X124228375Y-95305114D02*
X124180756Y-95352733D01*
X124180756Y-95352733D02*
X124133136Y-95447971D01*
X124133136Y-95447971D02*
X124133136Y-95733685D01*
X124133136Y-95733685D02*
X124180756Y-95828923D01*
X124180756Y-95828923D02*
X124228375Y-95876542D01*
X132725517Y-96024638D02*
X132773136Y-96119876D01*
X132773136Y-96119876D02*
X132773136Y-96262733D01*
X132773136Y-96262733D02*
X132725517Y-96405590D01*
X132725517Y-96405590D02*
X132630279Y-96500828D01*
X132630279Y-96500828D02*
X132535041Y-96548447D01*
X132535041Y-96548447D02*
X132344565Y-96596066D01*
X132344565Y-96596066D02*
X132201708Y-96596066D01*
X132201708Y-96596066D02*
X132011232Y-96548447D01*
X132011232Y-96548447D02*
X131915994Y-96500828D01*
X131915994Y-96500828D02*
X131820756Y-96405590D01*
X131820756Y-96405590D02*
X131773136Y-96262733D01*
X131773136Y-96262733D02*
X131773136Y-96167495D01*
X131773136Y-96167495D02*
X131820756Y-96024638D01*
X131820756Y-96024638D02*
X131868375Y-95977019D01*
X131868375Y-95977019D02*
X132201708Y-95977019D01*
X132201708Y-95977019D02*
X132201708Y-96167495D01*
X131773136Y-95548447D02*
X132773136Y-95548447D01*
X132773136Y-95548447D02*
X131773136Y-94977019D01*
X131773136Y-94977019D02*
X132773136Y-94977019D01*
X131773136Y-94500828D02*
X132773136Y-94500828D01*
X132773136Y-94500828D02*
X132773136Y-94262733D01*
X132773136Y-94262733D02*
X132725517Y-94119876D01*
X132725517Y-94119876D02*
X132630279Y-94024638D01*
X132630279Y-94024638D02*
X132535041Y-93977019D01*
X132535041Y-93977019D02*
X132344565Y-93929400D01*
X132344565Y-93929400D02*
X132201708Y-93929400D01*
X132201708Y-93929400D02*
X132011232Y-93977019D01*
X132011232Y-93977019D02*
X131915994Y-94024638D01*
X131915994Y-94024638D02*
X131820756Y-94119876D01*
X131820756Y-94119876D02*
X131773136Y-94262733D01*
X131773136Y-94262733D02*
X131773136Y-94500828D01*
X108782336Y-86142847D02*
X109782336Y-86142847D01*
X109782336Y-86142847D02*
X109782336Y-85904752D01*
X109782336Y-85904752D02*
X109734717Y-85761895D01*
X109734717Y-85761895D02*
X109639479Y-85666657D01*
X109639479Y-85666657D02*
X109544241Y-85619038D01*
X109544241Y-85619038D02*
X109353765Y-85571419D01*
X109353765Y-85571419D02*
X109210908Y-85571419D01*
X109210908Y-85571419D02*
X109020432Y-85619038D01*
X109020432Y-85619038D02*
X108925194Y-85666657D01*
X108925194Y-85666657D02*
X108829956Y-85761895D01*
X108829956Y-85761895D02*
X108782336Y-85904752D01*
X108782336Y-85904752D02*
X108782336Y-86142847D01*
X109353765Y-84999990D02*
X109401384Y-85095228D01*
X109401384Y-85095228D02*
X109449003Y-85142847D01*
X109449003Y-85142847D02*
X109544241Y-85190466D01*
X109544241Y-85190466D02*
X109591860Y-85190466D01*
X109591860Y-85190466D02*
X109687098Y-85142847D01*
X109687098Y-85142847D02*
X109734717Y-85095228D01*
X109734717Y-85095228D02*
X109782336Y-84999990D01*
X109782336Y-84999990D02*
X109782336Y-84809514D01*
X109782336Y-84809514D02*
X109734717Y-84714276D01*
X109734717Y-84714276D02*
X109687098Y-84666657D01*
X109687098Y-84666657D02*
X109591860Y-84619038D01*
X109591860Y-84619038D02*
X109544241Y-84619038D01*
X109544241Y-84619038D02*
X109449003Y-84666657D01*
X109449003Y-84666657D02*
X109401384Y-84714276D01*
X109401384Y-84714276D02*
X109353765Y-84809514D01*
X109353765Y-84809514D02*
X109353765Y-84999990D01*
X109353765Y-84999990D02*
X109306146Y-85095228D01*
X109306146Y-85095228D02*
X109258527Y-85142847D01*
X109258527Y-85142847D02*
X109163289Y-85190466D01*
X109163289Y-85190466D02*
X108972813Y-85190466D01*
X108972813Y-85190466D02*
X108877575Y-85142847D01*
X108877575Y-85142847D02*
X108829956Y-85095228D01*
X108829956Y-85095228D02*
X108782336Y-84999990D01*
X108782336Y-84999990D02*
X108782336Y-84809514D01*
X108782336Y-84809514D02*
X108829956Y-84714276D01*
X108829956Y-84714276D02*
X108877575Y-84666657D01*
X108877575Y-84666657D02*
X108972813Y-84619038D01*
X108972813Y-84619038D02*
X109163289Y-84619038D01*
X109163289Y-84619038D02*
X109258527Y-84666657D01*
X109258527Y-84666657D02*
X109306146Y-84714276D01*
X109306146Y-84714276D02*
X109353765Y-84809514D01*
X130074717Y-86709038D02*
X130122336Y-86804276D01*
X130122336Y-86804276D02*
X130122336Y-86947133D01*
X130122336Y-86947133D02*
X130074717Y-87089990D01*
X130074717Y-87089990D02*
X129979479Y-87185228D01*
X129979479Y-87185228D02*
X129884241Y-87232847D01*
X129884241Y-87232847D02*
X129693765Y-87280466D01*
X129693765Y-87280466D02*
X129550908Y-87280466D01*
X129550908Y-87280466D02*
X129360432Y-87232847D01*
X129360432Y-87232847D02*
X129265194Y-87185228D01*
X129265194Y-87185228D02*
X129169956Y-87089990D01*
X129169956Y-87089990D02*
X129122336Y-86947133D01*
X129122336Y-86947133D02*
X129122336Y-86851895D01*
X129122336Y-86851895D02*
X129169956Y-86709038D01*
X129169956Y-86709038D02*
X129217575Y-86661419D01*
X129217575Y-86661419D02*
X129550908Y-86661419D01*
X129550908Y-86661419D02*
X129550908Y-86851895D01*
X129122336Y-86232847D02*
X130122336Y-86232847D01*
X130122336Y-86232847D02*
X129122336Y-85661419D01*
X129122336Y-85661419D02*
X130122336Y-85661419D01*
X129122336Y-85185228D02*
X130122336Y-85185228D01*
X130122336Y-85185228D02*
X130122336Y-84947133D01*
X130122336Y-84947133D02*
X130074717Y-84804276D01*
X130074717Y-84804276D02*
X129979479Y-84709038D01*
X129979479Y-84709038D02*
X129884241Y-84661419D01*
X129884241Y-84661419D02*
X129693765Y-84613800D01*
X129693765Y-84613800D02*
X129550908Y-84613800D01*
X129550908Y-84613800D02*
X129360432Y-84661419D01*
X129360432Y-84661419D02*
X129265194Y-84709038D01*
X129265194Y-84709038D02*
X129169956Y-84804276D01*
X129169956Y-84804276D02*
X129122336Y-84947133D01*
X129122336Y-84947133D02*
X129122336Y-85185228D01*
X106182336Y-86162847D02*
X107182336Y-86162847D01*
X107182336Y-86162847D02*
X107182336Y-85924752D01*
X107182336Y-85924752D02*
X107134717Y-85781895D01*
X107134717Y-85781895D02*
X107039479Y-85686657D01*
X107039479Y-85686657D02*
X106944241Y-85639038D01*
X106944241Y-85639038D02*
X106753765Y-85591419D01*
X106753765Y-85591419D02*
X106610908Y-85591419D01*
X106610908Y-85591419D02*
X106420432Y-85639038D01*
X106420432Y-85639038D02*
X106325194Y-85686657D01*
X106325194Y-85686657D02*
X106229956Y-85781895D01*
X106229956Y-85781895D02*
X106182336Y-85924752D01*
X106182336Y-85924752D02*
X106182336Y-86162847D01*
X106182336Y-85115228D02*
X106182336Y-84924752D01*
X106182336Y-84924752D02*
X106229956Y-84829514D01*
X106229956Y-84829514D02*
X106277575Y-84781895D01*
X106277575Y-84781895D02*
X106420432Y-84686657D01*
X106420432Y-84686657D02*
X106610908Y-84639038D01*
X106610908Y-84639038D02*
X106991860Y-84639038D01*
X106991860Y-84639038D02*
X107087098Y-84686657D01*
X107087098Y-84686657D02*
X107134717Y-84734276D01*
X107134717Y-84734276D02*
X107182336Y-84829514D01*
X107182336Y-84829514D02*
X107182336Y-85019990D01*
X107182336Y-85019990D02*
X107134717Y-85115228D01*
X107134717Y-85115228D02*
X107087098Y-85162847D01*
X107087098Y-85162847D02*
X106991860Y-85210466D01*
X106991860Y-85210466D02*
X106753765Y-85210466D01*
X106753765Y-85210466D02*
X106658527Y-85162847D01*
X106658527Y-85162847D02*
X106610908Y-85115228D01*
X106610908Y-85115228D02*
X106563289Y-85019990D01*
X106563289Y-85019990D02*
X106563289Y-84829514D01*
X106563289Y-84829514D02*
X106610908Y-84734276D01*
X106610908Y-84734276D02*
X106658527Y-84686657D01*
X106658527Y-84686657D02*
X106753765Y-84639038D01*
X109980336Y-96631247D02*
X110980336Y-96631247D01*
X110980336Y-96631247D02*
X110980336Y-96393152D01*
X110980336Y-96393152D02*
X110932717Y-96250295D01*
X110932717Y-96250295D02*
X110837479Y-96155057D01*
X110837479Y-96155057D02*
X110742241Y-96107438D01*
X110742241Y-96107438D02*
X110551765Y-96059819D01*
X110551765Y-96059819D02*
X110408908Y-96059819D01*
X110408908Y-96059819D02*
X110218432Y-96107438D01*
X110218432Y-96107438D02*
X110123194Y-96155057D01*
X110123194Y-96155057D02*
X110027956Y-96250295D01*
X110027956Y-96250295D02*
X109980336Y-96393152D01*
X109980336Y-96393152D02*
X109980336Y-96631247D01*
X109980336Y-95107438D02*
X109980336Y-95678866D01*
X109980336Y-95393152D02*
X110980336Y-95393152D01*
X110980336Y-95393152D02*
X110837479Y-95488390D01*
X110837479Y-95488390D02*
X110742241Y-95583628D01*
X110742241Y-95583628D02*
X110694622Y-95678866D01*
X110980336Y-94250295D02*
X110980336Y-94440771D01*
X110980336Y-94440771D02*
X110932717Y-94536009D01*
X110932717Y-94536009D02*
X110885098Y-94583628D01*
X110885098Y-94583628D02*
X110742241Y-94678866D01*
X110742241Y-94678866D02*
X110551765Y-94726485D01*
X110551765Y-94726485D02*
X110170813Y-94726485D01*
X110170813Y-94726485D02*
X110075575Y-94678866D01*
X110075575Y-94678866D02*
X110027956Y-94631247D01*
X110027956Y-94631247D02*
X109980336Y-94536009D01*
X109980336Y-94536009D02*
X109980336Y-94345533D01*
X109980336Y-94345533D02*
X110027956Y-94250295D01*
X110027956Y-94250295D02*
X110075575Y-94202676D01*
X110075575Y-94202676D02*
X110170813Y-94155057D01*
X110170813Y-94155057D02*
X110408908Y-94155057D01*
X110408908Y-94155057D02*
X110504146Y-94202676D01*
X110504146Y-94202676D02*
X110551765Y-94250295D01*
X110551765Y-94250295D02*
X110599384Y-94345533D01*
X110599384Y-94345533D02*
X110599384Y-94536009D01*
X110599384Y-94536009D02*
X110551765Y-94631247D01*
X110551765Y-94631247D02*
X110504146Y-94678866D01*
X110504146Y-94678866D02*
X110408908Y-94726485D01*
X105641936Y-96587647D02*
X106641936Y-96587647D01*
X106641936Y-96587647D02*
X106641936Y-96349552D01*
X106641936Y-96349552D02*
X106594317Y-96206695D01*
X106594317Y-96206695D02*
X106499079Y-96111457D01*
X106499079Y-96111457D02*
X106403841Y-96063838D01*
X106403841Y-96063838D02*
X106213365Y-96016219D01*
X106213365Y-96016219D02*
X106070508Y-96016219D01*
X106070508Y-96016219D02*
X105880032Y-96063838D01*
X105880032Y-96063838D02*
X105784794Y-96111457D01*
X105784794Y-96111457D02*
X105689556Y-96206695D01*
X105689556Y-96206695D02*
X105641936Y-96349552D01*
X105641936Y-96349552D02*
X105641936Y-96587647D01*
X105641936Y-95063838D02*
X105641936Y-95635266D01*
X105641936Y-95349552D02*
X106641936Y-95349552D01*
X106641936Y-95349552D02*
X106499079Y-95444790D01*
X106499079Y-95444790D02*
X106403841Y-95540028D01*
X106403841Y-95540028D02*
X106356222Y-95635266D01*
X106641936Y-94444790D02*
X106641936Y-94349552D01*
X106641936Y-94349552D02*
X106594317Y-94254314D01*
X106594317Y-94254314D02*
X106546698Y-94206695D01*
X106546698Y-94206695D02*
X106451460Y-94159076D01*
X106451460Y-94159076D02*
X106260984Y-94111457D01*
X106260984Y-94111457D02*
X106022889Y-94111457D01*
X106022889Y-94111457D02*
X105832413Y-94159076D01*
X105832413Y-94159076D02*
X105737175Y-94206695D01*
X105737175Y-94206695D02*
X105689556Y-94254314D01*
X105689556Y-94254314D02*
X105641936Y-94349552D01*
X105641936Y-94349552D02*
X105641936Y-94444790D01*
X105641936Y-94444790D02*
X105689556Y-94540028D01*
X105689556Y-94540028D02*
X105737175Y-94587647D01*
X105737175Y-94587647D02*
X105832413Y-94635266D01*
X105832413Y-94635266D02*
X106022889Y-94682885D01*
X106022889Y-94682885D02*
X106260984Y-94682885D01*
X106260984Y-94682885D02*
X106451460Y-94635266D01*
X106451460Y-94635266D02*
X106546698Y-94587647D01*
X106546698Y-94587647D02*
X106594317Y-94540028D01*
X106594317Y-94540028D02*
X106641936Y-94444790D01*
X114023136Y-96628447D02*
X115023136Y-96628447D01*
X115023136Y-96628447D02*
X115023136Y-96390352D01*
X115023136Y-96390352D02*
X114975517Y-96247495D01*
X114975517Y-96247495D02*
X114880279Y-96152257D01*
X114880279Y-96152257D02*
X114785041Y-96104638D01*
X114785041Y-96104638D02*
X114594565Y-96057019D01*
X114594565Y-96057019D02*
X114451708Y-96057019D01*
X114451708Y-96057019D02*
X114261232Y-96104638D01*
X114261232Y-96104638D02*
X114165994Y-96152257D01*
X114165994Y-96152257D02*
X114070756Y-96247495D01*
X114070756Y-96247495D02*
X114023136Y-96390352D01*
X114023136Y-96390352D02*
X114023136Y-96628447D01*
X114023136Y-95104638D02*
X114023136Y-95676066D01*
X114023136Y-95390352D02*
X115023136Y-95390352D01*
X115023136Y-95390352D02*
X114880279Y-95485590D01*
X114880279Y-95485590D02*
X114785041Y-95580828D01*
X114785041Y-95580828D02*
X114737422Y-95676066D01*
X115023136Y-94199876D02*
X115023136Y-94676066D01*
X115023136Y-94676066D02*
X114546946Y-94723685D01*
X114546946Y-94723685D02*
X114594565Y-94676066D01*
X114594565Y-94676066D02*
X114642184Y-94580828D01*
X114642184Y-94580828D02*
X114642184Y-94342733D01*
X114642184Y-94342733D02*
X114594565Y-94247495D01*
X114594565Y-94247495D02*
X114546946Y-94199876D01*
X114546946Y-94199876D02*
X114451708Y-94152257D01*
X114451708Y-94152257D02*
X114213613Y-94152257D01*
X114213613Y-94152257D02*
X114118375Y-94199876D01*
X114118375Y-94199876D02*
X114070756Y-94247495D01*
X114070756Y-94247495D02*
X114023136Y-94342733D01*
X114023136Y-94342733D02*
X114023136Y-94580828D01*
X114023136Y-94580828D02*
X114070756Y-94676066D01*
X114070756Y-94676066D02*
X114118375Y-94723685D01*
X116888851Y-96636066D02*
X116888851Y-96159876D01*
X116603136Y-96731304D02*
X117603136Y-96397971D01*
X117603136Y-96397971D02*
X116603136Y-96064638D01*
X117603136Y-95540828D02*
X117603136Y-95445590D01*
X117603136Y-95445590D02*
X117555517Y-95350352D01*
X117555517Y-95350352D02*
X117507898Y-95302733D01*
X117507898Y-95302733D02*
X117412660Y-95255114D01*
X117412660Y-95255114D02*
X117222184Y-95207495D01*
X117222184Y-95207495D02*
X116984089Y-95207495D01*
X116984089Y-95207495D02*
X116793613Y-95255114D01*
X116793613Y-95255114D02*
X116698375Y-95302733D01*
X116698375Y-95302733D02*
X116650756Y-95350352D01*
X116650756Y-95350352D02*
X116603136Y-95445590D01*
X116603136Y-95445590D02*
X116603136Y-95540828D01*
X116603136Y-95540828D02*
X116650756Y-95636066D01*
X116650756Y-95636066D02*
X116698375Y-95683685D01*
X116698375Y-95683685D02*
X116793613Y-95731304D01*
X116793613Y-95731304D02*
X116984089Y-95778923D01*
X116984089Y-95778923D02*
X117222184Y-95778923D01*
X117222184Y-95778923D02*
X117412660Y-95731304D01*
X117412660Y-95731304D02*
X117507898Y-95683685D01*
X117507898Y-95683685D02*
X117555517Y-95636066D01*
X117555517Y-95636066D02*
X117603136Y-95540828D01*
X111222336Y-86182847D02*
X112222336Y-86182847D01*
X112222336Y-86182847D02*
X112222336Y-85944752D01*
X112222336Y-85944752D02*
X112174717Y-85801895D01*
X112174717Y-85801895D02*
X112079479Y-85706657D01*
X112079479Y-85706657D02*
X111984241Y-85659038D01*
X111984241Y-85659038D02*
X111793765Y-85611419D01*
X111793765Y-85611419D02*
X111650908Y-85611419D01*
X111650908Y-85611419D02*
X111460432Y-85659038D01*
X111460432Y-85659038D02*
X111365194Y-85706657D01*
X111365194Y-85706657D02*
X111269956Y-85801895D01*
X111269956Y-85801895D02*
X111222336Y-85944752D01*
X111222336Y-85944752D02*
X111222336Y-86182847D01*
X112222336Y-85278085D02*
X112222336Y-84611419D01*
X112222336Y-84611419D02*
X111222336Y-85039990D01*
X119328851Y-96666066D02*
X119328851Y-96189876D01*
X119043136Y-96761304D02*
X120043136Y-96427971D01*
X120043136Y-96427971D02*
X119043136Y-96094638D01*
X119043136Y-95237495D02*
X119043136Y-95808923D01*
X119043136Y-95523209D02*
X120043136Y-95523209D01*
X120043136Y-95523209D02*
X119900279Y-95618447D01*
X119900279Y-95618447D02*
X119805041Y-95713685D01*
X119805041Y-95713685D02*
X119757422Y-95808923D01*
X116482336Y-86122847D02*
X117482336Y-86122847D01*
X117482336Y-86122847D02*
X117482336Y-85884752D01*
X117482336Y-85884752D02*
X117434717Y-85741895D01*
X117434717Y-85741895D02*
X117339479Y-85646657D01*
X117339479Y-85646657D02*
X117244241Y-85599038D01*
X117244241Y-85599038D02*
X117053765Y-85551419D01*
X117053765Y-85551419D02*
X116910908Y-85551419D01*
X116910908Y-85551419D02*
X116720432Y-85599038D01*
X116720432Y-85599038D02*
X116625194Y-85646657D01*
X116625194Y-85646657D02*
X116529956Y-85741895D01*
X116529956Y-85741895D02*
X116482336Y-85884752D01*
X116482336Y-85884752D02*
X116482336Y-86122847D01*
X117482336Y-84646657D02*
X117482336Y-85122847D01*
X117482336Y-85122847D02*
X117006146Y-85170466D01*
X117006146Y-85170466D02*
X117053765Y-85122847D01*
X117053765Y-85122847D02*
X117101384Y-85027609D01*
X117101384Y-85027609D02*
X117101384Y-84789514D01*
X117101384Y-84789514D02*
X117053765Y-84694276D01*
X117053765Y-84694276D02*
X117006146Y-84646657D01*
X117006146Y-84646657D02*
X116910908Y-84599038D01*
X116910908Y-84599038D02*
X116672813Y-84599038D01*
X116672813Y-84599038D02*
X116577575Y-84646657D01*
X116577575Y-84646657D02*
X116529956Y-84694276D01*
X116529956Y-84694276D02*
X116482336Y-84789514D01*
X116482336Y-84789514D02*
X116482336Y-85027609D01*
X116482336Y-85027609D02*
X116529956Y-85122847D01*
X116529956Y-85122847D02*
X116577575Y-85170466D01*
X111493136Y-96678447D02*
X112493136Y-96678447D01*
X112493136Y-96678447D02*
X112493136Y-96440352D01*
X112493136Y-96440352D02*
X112445517Y-96297495D01*
X112445517Y-96297495D02*
X112350279Y-96202257D01*
X112350279Y-96202257D02*
X112255041Y-96154638D01*
X112255041Y-96154638D02*
X112064565Y-96107019D01*
X112064565Y-96107019D02*
X111921708Y-96107019D01*
X111921708Y-96107019D02*
X111731232Y-96154638D01*
X111731232Y-96154638D02*
X111635994Y-96202257D01*
X111635994Y-96202257D02*
X111540756Y-96297495D01*
X111540756Y-96297495D02*
X111493136Y-96440352D01*
X111493136Y-96440352D02*
X111493136Y-96678447D01*
X111493136Y-95154638D02*
X111493136Y-95726066D01*
X111493136Y-95440352D02*
X112493136Y-95440352D01*
X112493136Y-95440352D02*
X112350279Y-95535590D01*
X112350279Y-95535590D02*
X112255041Y-95630828D01*
X112255041Y-95630828D02*
X112207422Y-95726066D01*
X112159803Y-94297495D02*
X111493136Y-94297495D01*
X112540756Y-94535590D02*
X111826470Y-94773685D01*
X111826470Y-94773685D02*
X111826470Y-94154638D01*
X127524717Y-86659038D02*
X127572336Y-86754276D01*
X127572336Y-86754276D02*
X127572336Y-86897133D01*
X127572336Y-86897133D02*
X127524717Y-87039990D01*
X127524717Y-87039990D02*
X127429479Y-87135228D01*
X127429479Y-87135228D02*
X127334241Y-87182847D01*
X127334241Y-87182847D02*
X127143765Y-87230466D01*
X127143765Y-87230466D02*
X127000908Y-87230466D01*
X127000908Y-87230466D02*
X126810432Y-87182847D01*
X126810432Y-87182847D02*
X126715194Y-87135228D01*
X126715194Y-87135228D02*
X126619956Y-87039990D01*
X126619956Y-87039990D02*
X126572336Y-86897133D01*
X126572336Y-86897133D02*
X126572336Y-86801895D01*
X126572336Y-86801895D02*
X126619956Y-86659038D01*
X126619956Y-86659038D02*
X126667575Y-86611419D01*
X126667575Y-86611419D02*
X127000908Y-86611419D01*
X127000908Y-86611419D02*
X127000908Y-86801895D01*
X126572336Y-86182847D02*
X127572336Y-86182847D01*
X127572336Y-86182847D02*
X126572336Y-85611419D01*
X126572336Y-85611419D02*
X127572336Y-85611419D01*
X126572336Y-85135228D02*
X127572336Y-85135228D01*
X127572336Y-85135228D02*
X127572336Y-84897133D01*
X127572336Y-84897133D02*
X127524717Y-84754276D01*
X127524717Y-84754276D02*
X127429479Y-84659038D01*
X127429479Y-84659038D02*
X127334241Y-84611419D01*
X127334241Y-84611419D02*
X127143765Y-84563800D01*
X127143765Y-84563800D02*
X127000908Y-84563800D01*
X127000908Y-84563800D02*
X126810432Y-84611419D01*
X126810432Y-84611419D02*
X126715194Y-84659038D01*
X126715194Y-84659038D02*
X126619956Y-84754276D01*
X126619956Y-84754276D02*
X126572336Y-84897133D01*
X126572336Y-84897133D02*
X126572336Y-85135228D01*
X123962336Y-86162847D02*
X124962336Y-86162847D01*
X124962336Y-86162847D02*
X124962336Y-85924752D01*
X124962336Y-85924752D02*
X124914717Y-85781895D01*
X124914717Y-85781895D02*
X124819479Y-85686657D01*
X124819479Y-85686657D02*
X124724241Y-85639038D01*
X124724241Y-85639038D02*
X124533765Y-85591419D01*
X124533765Y-85591419D02*
X124390908Y-85591419D01*
X124390908Y-85591419D02*
X124200432Y-85639038D01*
X124200432Y-85639038D02*
X124105194Y-85686657D01*
X124105194Y-85686657D02*
X124009956Y-85781895D01*
X124009956Y-85781895D02*
X123962336Y-85924752D01*
X123962336Y-85924752D02*
X123962336Y-86162847D01*
X124867098Y-85210466D02*
X124914717Y-85162847D01*
X124914717Y-85162847D02*
X124962336Y-85067609D01*
X124962336Y-85067609D02*
X124962336Y-84829514D01*
X124962336Y-84829514D02*
X124914717Y-84734276D01*
X124914717Y-84734276D02*
X124867098Y-84686657D01*
X124867098Y-84686657D02*
X124771860Y-84639038D01*
X124771860Y-84639038D02*
X124676622Y-84639038D01*
X124676622Y-84639038D02*
X124533765Y-84686657D01*
X124533765Y-84686657D02*
X123962336Y-85258085D01*
X123962336Y-85258085D02*
X123962336Y-84639038D01*
X127728570Y-89599775D02*
X127728570Y-88599775D01*
X127728570Y-88599775D02*
X127347618Y-88599775D01*
X127347618Y-88599775D02*
X127252380Y-88647394D01*
X127252380Y-88647394D02*
X127204761Y-88695013D01*
X127204761Y-88695013D02*
X127157142Y-88790251D01*
X127157142Y-88790251D02*
X127157142Y-88933108D01*
X127157142Y-88933108D02*
X127204761Y-89028346D01*
X127204761Y-89028346D02*
X127252380Y-89075965D01*
X127252380Y-89075965D02*
X127347618Y-89123584D01*
X127347618Y-89123584D02*
X127728570Y-89123584D01*
X126728570Y-89599775D02*
X126728570Y-88933108D01*
X126728570Y-88599775D02*
X126776189Y-88647394D01*
X126776189Y-88647394D02*
X126728570Y-88695013D01*
X126728570Y-88695013D02*
X126680951Y-88647394D01*
X126680951Y-88647394D02*
X126728570Y-88599775D01*
X126728570Y-88599775D02*
X126728570Y-88695013D01*
X125823809Y-89552156D02*
X125919047Y-89599775D01*
X125919047Y-89599775D02*
X126109523Y-89599775D01*
X126109523Y-89599775D02*
X126204761Y-89552156D01*
X126204761Y-89552156D02*
X126252380Y-89504536D01*
X126252380Y-89504536D02*
X126299999Y-89409298D01*
X126299999Y-89409298D02*
X126299999Y-89123584D01*
X126299999Y-89123584D02*
X126252380Y-89028346D01*
X126252380Y-89028346D02*
X126204761Y-88980727D01*
X126204761Y-88980727D02*
X126109523Y-88933108D01*
X126109523Y-88933108D02*
X125919047Y-88933108D01*
X125919047Y-88933108D02*
X125823809Y-88980727D01*
X125252380Y-89599775D02*
X125347618Y-89552156D01*
X125347618Y-89552156D02*
X125395237Y-89504536D01*
X125395237Y-89504536D02*
X125442856Y-89409298D01*
X125442856Y-89409298D02*
X125442856Y-89123584D01*
X125442856Y-89123584D02*
X125395237Y-89028346D01*
X125395237Y-89028346D02*
X125347618Y-88980727D01*
X125347618Y-88980727D02*
X125252380Y-88933108D01*
X125252380Y-88933108D02*
X125109523Y-88933108D01*
X125109523Y-88933108D02*
X125014285Y-88980727D01*
X125014285Y-88980727D02*
X124966666Y-89028346D01*
X124966666Y-89028346D02*
X124919047Y-89123584D01*
X124919047Y-89123584D02*
X124919047Y-89409298D01*
X124919047Y-89409298D02*
X124966666Y-89504536D01*
X124966666Y-89504536D02*
X125014285Y-89552156D01*
X125014285Y-89552156D02*
X125109523Y-89599775D01*
X125109523Y-89599775D02*
X125252380Y-89599775D01*
X124490475Y-89599775D02*
X124490475Y-88599775D01*
X124490475Y-88599775D02*
X124157142Y-89314060D01*
X124157142Y-89314060D02*
X123823809Y-88599775D01*
X123823809Y-88599775D02*
X123823809Y-89599775D01*
X123347618Y-89599775D02*
X123347618Y-88933108D01*
X123347618Y-88599775D02*
X123395237Y-88647394D01*
X123395237Y-88647394D02*
X123347618Y-88695013D01*
X123347618Y-88695013D02*
X123299999Y-88647394D01*
X123299999Y-88647394D02*
X123347618Y-88599775D01*
X123347618Y-88599775D02*
X123347618Y-88695013D01*
X122442857Y-89552156D02*
X122538095Y-89599775D01*
X122538095Y-89599775D02*
X122728571Y-89599775D01*
X122728571Y-89599775D02*
X122823809Y-89552156D01*
X122823809Y-89552156D02*
X122871428Y-89504536D01*
X122871428Y-89504536D02*
X122919047Y-89409298D01*
X122919047Y-89409298D02*
X122919047Y-89123584D01*
X122919047Y-89123584D02*
X122871428Y-89028346D01*
X122871428Y-89028346D02*
X122823809Y-88980727D01*
X122823809Y-88980727D02*
X122728571Y-88933108D01*
X122728571Y-88933108D02*
X122538095Y-88933108D01*
X122538095Y-88933108D02*
X122442857Y-88980727D01*
X122014285Y-89599775D02*
X122014285Y-88933108D01*
X122014285Y-89123584D02*
X121966666Y-89028346D01*
X121966666Y-89028346D02*
X121919047Y-88980727D01*
X121919047Y-88980727D02*
X121823809Y-88933108D01*
X121823809Y-88933108D02*
X121728571Y-88933108D01*
X121252380Y-89599775D02*
X121347618Y-89552156D01*
X121347618Y-89552156D02*
X121395237Y-89504536D01*
X121395237Y-89504536D02*
X121442856Y-89409298D01*
X121442856Y-89409298D02*
X121442856Y-89123584D01*
X121442856Y-89123584D02*
X121395237Y-89028346D01*
X121395237Y-89028346D02*
X121347618Y-88980727D01*
X121347618Y-88980727D02*
X121252380Y-88933108D01*
X121252380Y-88933108D02*
X121109523Y-88933108D01*
X121109523Y-88933108D02*
X121014285Y-88980727D01*
X121014285Y-88980727D02*
X120966666Y-89028346D01*
X120966666Y-89028346D02*
X120919047Y-89123584D01*
X120919047Y-89123584D02*
X120919047Y-89409298D01*
X120919047Y-89409298D02*
X120966666Y-89504536D01*
X120966666Y-89504536D02*
X121014285Y-89552156D01*
X121014285Y-89552156D02*
X121109523Y-89599775D01*
X121109523Y-89599775D02*
X121252380Y-89599775D01*
X120490475Y-89599775D02*
X120490475Y-88599775D01*
X120490475Y-88599775D02*
X120157142Y-89314060D01*
X120157142Y-89314060D02*
X119823809Y-88599775D01*
X119823809Y-88599775D02*
X119823809Y-89599775D01*
X119395237Y-89552156D02*
X119252380Y-89599775D01*
X119252380Y-89599775D02*
X119014285Y-89599775D01*
X119014285Y-89599775D02*
X118919047Y-89552156D01*
X118919047Y-89552156D02*
X118871428Y-89504536D01*
X118871428Y-89504536D02*
X118823809Y-89409298D01*
X118823809Y-89409298D02*
X118823809Y-89314060D01*
X118823809Y-89314060D02*
X118871428Y-89218822D01*
X118871428Y-89218822D02*
X118919047Y-89171203D01*
X118919047Y-89171203D02*
X119014285Y-89123584D01*
X119014285Y-89123584D02*
X119204761Y-89075965D01*
X119204761Y-89075965D02*
X119299999Y-89028346D01*
X119299999Y-89028346D02*
X119347618Y-88980727D01*
X119347618Y-88980727D02*
X119395237Y-88885489D01*
X119395237Y-88885489D02*
X119395237Y-88790251D01*
X119395237Y-88790251D02*
X119347618Y-88695013D01*
X119347618Y-88695013D02*
X119299999Y-88647394D01*
X119299999Y-88647394D02*
X119204761Y-88599775D01*
X119204761Y-88599775D02*
X118966666Y-88599775D01*
X118966666Y-88599775D02*
X118823809Y-88647394D01*
X124823808Y-90209719D02*
X124490475Y-91209719D01*
X124490475Y-91209719D02*
X124157142Y-90209719D01*
X123299999Y-91209719D02*
X123871427Y-91209719D01*
X123585713Y-91209719D02*
X123585713Y-90209719D01*
X123585713Y-90209719D02*
X123680951Y-90352576D01*
X123680951Y-90352576D02*
X123776189Y-90447814D01*
X123776189Y-90447814D02*
X123871427Y-90495433D01*
X122871427Y-91114480D02*
X122823808Y-91162100D01*
X122823808Y-91162100D02*
X122871427Y-91209719D01*
X122871427Y-91209719D02*
X122919046Y-91162100D01*
X122919046Y-91162100D02*
X122871427Y-91114480D01*
X122871427Y-91114480D02*
X122871427Y-91209719D01*
X122204761Y-90209719D02*
X122109523Y-90209719D01*
X122109523Y-90209719D02*
X122014285Y-90257338D01*
X122014285Y-90257338D02*
X121966666Y-90304957D01*
X121966666Y-90304957D02*
X121919047Y-90400195D01*
X121919047Y-90400195D02*
X121871428Y-90590671D01*
X121871428Y-90590671D02*
X121871428Y-90828766D01*
X121871428Y-90828766D02*
X121919047Y-91019242D01*
X121919047Y-91019242D02*
X121966666Y-91114480D01*
X121966666Y-91114480D02*
X122014285Y-91162100D01*
X122014285Y-91162100D02*
X122109523Y-91209719D01*
X122109523Y-91209719D02*
X122204761Y-91209719D01*
X122204761Y-91209719D02*
X122299999Y-91162100D01*
X122299999Y-91162100D02*
X122347618Y-91114480D01*
X122347618Y-91114480D02*
X122395237Y-91019242D01*
X122395237Y-91019242D02*
X122442856Y-90828766D01*
X122442856Y-90828766D02*
X122442856Y-90590671D01*
X122442856Y-90590671D02*
X122395237Y-90400195D01*
X122395237Y-90400195D02*
X122347618Y-90304957D01*
X122347618Y-90304957D02*
X122299999Y-90257338D01*
X122299999Y-90257338D02*
X122204761Y-90209719D01*
X125299999Y-91819663D02*
X125204761Y-91819663D01*
X125204761Y-91819663D02*
X125109523Y-91867282D01*
X125109523Y-91867282D02*
X125061904Y-91914901D01*
X125061904Y-91914901D02*
X125014285Y-92010139D01*
X125014285Y-92010139D02*
X124966666Y-92200615D01*
X124966666Y-92200615D02*
X124966666Y-92438710D01*
X124966666Y-92438710D02*
X125014285Y-92629186D01*
X125014285Y-92629186D02*
X125061904Y-92724424D01*
X125061904Y-92724424D02*
X125109523Y-92772044D01*
X125109523Y-92772044D02*
X125204761Y-92819663D01*
X125204761Y-92819663D02*
X125299999Y-92819663D01*
X125299999Y-92819663D02*
X125395237Y-92772044D01*
X125395237Y-92772044D02*
X125442856Y-92724424D01*
X125442856Y-92724424D02*
X125490475Y-92629186D01*
X125490475Y-92629186D02*
X125538094Y-92438710D01*
X125538094Y-92438710D02*
X125538094Y-92200615D01*
X125538094Y-92200615D02*
X125490475Y-92010139D01*
X125490475Y-92010139D02*
X125442856Y-91914901D01*
X125442856Y-91914901D02*
X125395237Y-91867282D01*
X125395237Y-91867282D02*
X125299999Y-91819663D01*
X124395237Y-92248234D02*
X124490475Y-92200615D01*
X124490475Y-92200615D02*
X124538094Y-92152996D01*
X124538094Y-92152996D02*
X124585713Y-92057758D01*
X124585713Y-92057758D02*
X124585713Y-92010139D01*
X124585713Y-92010139D02*
X124538094Y-91914901D01*
X124538094Y-91914901D02*
X124490475Y-91867282D01*
X124490475Y-91867282D02*
X124395237Y-91819663D01*
X124395237Y-91819663D02*
X124204761Y-91819663D01*
X124204761Y-91819663D02*
X124109523Y-91867282D01*
X124109523Y-91867282D02*
X124061904Y-91914901D01*
X124061904Y-91914901D02*
X124014285Y-92010139D01*
X124014285Y-92010139D02*
X124014285Y-92057758D01*
X124014285Y-92057758D02*
X124061904Y-92152996D01*
X124061904Y-92152996D02*
X124109523Y-92200615D01*
X124109523Y-92200615D02*
X124204761Y-92248234D01*
X124204761Y-92248234D02*
X124395237Y-92248234D01*
X124395237Y-92248234D02*
X124490475Y-92295853D01*
X124490475Y-92295853D02*
X124538094Y-92343472D01*
X124538094Y-92343472D02*
X124585713Y-92438710D01*
X124585713Y-92438710D02*
X124585713Y-92629186D01*
X124585713Y-92629186D02*
X124538094Y-92724424D01*
X124538094Y-92724424D02*
X124490475Y-92772044D01*
X124490475Y-92772044D02*
X124395237Y-92819663D01*
X124395237Y-92819663D02*
X124204761Y-92819663D01*
X124204761Y-92819663D02*
X124109523Y-92772044D01*
X124109523Y-92772044D02*
X124061904Y-92724424D01*
X124061904Y-92724424D02*
X124014285Y-92629186D01*
X124014285Y-92629186D02*
X124014285Y-92438710D01*
X124014285Y-92438710D02*
X124061904Y-92343472D01*
X124061904Y-92343472D02*
X124109523Y-92295853D01*
X124109523Y-92295853D02*
X124204761Y-92248234D01*
X122871428Y-91772044D02*
X123728570Y-93057758D01*
X122585713Y-91914901D02*
X122538094Y-91867282D01*
X122538094Y-91867282D02*
X122442856Y-91819663D01*
X122442856Y-91819663D02*
X122204761Y-91819663D01*
X122204761Y-91819663D02*
X122109523Y-91867282D01*
X122109523Y-91867282D02*
X122061904Y-91914901D01*
X122061904Y-91914901D02*
X122014285Y-92010139D01*
X122014285Y-92010139D02*
X122014285Y-92105377D01*
X122014285Y-92105377D02*
X122061904Y-92248234D01*
X122061904Y-92248234D02*
X122633332Y-92819663D01*
X122633332Y-92819663D02*
X122014285Y-92819663D01*
X121109523Y-91819663D02*
X121585713Y-91819663D01*
X121585713Y-91819663D02*
X121633332Y-92295853D01*
X121633332Y-92295853D02*
X121585713Y-92248234D01*
X121585713Y-92248234D02*
X121490475Y-92200615D01*
X121490475Y-92200615D02*
X121252380Y-92200615D01*
X121252380Y-92200615D02*
X121157142Y-92248234D01*
X121157142Y-92248234D02*
X121109523Y-92295853D01*
X121109523Y-92295853D02*
X121061904Y-92391091D01*
X121061904Y-92391091D02*
X121061904Y-92629186D01*
X121061904Y-92629186D02*
X121109523Y-92724424D01*
X121109523Y-92724424D02*
X121157142Y-92772044D01*
X121157142Y-92772044D02*
X121252380Y-92819663D01*
X121252380Y-92819663D02*
X121490475Y-92819663D01*
X121490475Y-92819663D02*
X121585713Y-92772044D01*
X121585713Y-92772044D02*
X121633332Y-92724424D01*
X129283136Y-96107019D02*
X129759327Y-96440352D01*
X129283136Y-96678447D02*
X130283136Y-96678447D01*
X130283136Y-96678447D02*
X130283136Y-96297495D01*
X130283136Y-96297495D02*
X130235517Y-96202257D01*
X130235517Y-96202257D02*
X130187898Y-96154638D01*
X130187898Y-96154638D02*
X130092660Y-96107019D01*
X130092660Y-96107019D02*
X129949803Y-96107019D01*
X129949803Y-96107019D02*
X129854565Y-96154638D01*
X129854565Y-96154638D02*
X129806946Y-96202257D01*
X129806946Y-96202257D02*
X129759327Y-96297495D01*
X129759327Y-96297495D02*
X129759327Y-96678447D01*
X129330756Y-95726066D02*
X129283136Y-95583209D01*
X129283136Y-95583209D02*
X129283136Y-95345114D01*
X129283136Y-95345114D02*
X129330756Y-95249876D01*
X129330756Y-95249876D02*
X129378375Y-95202257D01*
X129378375Y-95202257D02*
X129473613Y-95154638D01*
X129473613Y-95154638D02*
X129568851Y-95154638D01*
X129568851Y-95154638D02*
X129664089Y-95202257D01*
X129664089Y-95202257D02*
X129711708Y-95249876D01*
X129711708Y-95249876D02*
X129759327Y-95345114D01*
X129759327Y-95345114D02*
X129806946Y-95535590D01*
X129806946Y-95535590D02*
X129854565Y-95630828D01*
X129854565Y-95630828D02*
X129902184Y-95678447D01*
X129902184Y-95678447D02*
X129997422Y-95726066D01*
X129997422Y-95726066D02*
X130092660Y-95726066D01*
X130092660Y-95726066D02*
X130187898Y-95678447D01*
X130187898Y-95678447D02*
X130235517Y-95630828D01*
X130235517Y-95630828D02*
X130283136Y-95535590D01*
X130283136Y-95535590D02*
X130283136Y-95297495D01*
X130283136Y-95297495D02*
X130235517Y-95154638D01*
X130283136Y-94868923D02*
X130283136Y-94297495D01*
X129283136Y-94583209D02*
X130283136Y-94583209D01*
X131692336Y-86102847D02*
X132692336Y-86102847D01*
X132692336Y-86102847D02*
X132692336Y-85864752D01*
X132692336Y-85864752D02*
X132644717Y-85721895D01*
X132644717Y-85721895D02*
X132549479Y-85626657D01*
X132549479Y-85626657D02*
X132454241Y-85579038D01*
X132454241Y-85579038D02*
X132263765Y-85531419D01*
X132263765Y-85531419D02*
X132120908Y-85531419D01*
X132120908Y-85531419D02*
X131930432Y-85579038D01*
X131930432Y-85579038D02*
X131835194Y-85626657D01*
X131835194Y-85626657D02*
X131739956Y-85721895D01*
X131739956Y-85721895D02*
X131692336Y-85864752D01*
X131692336Y-85864752D02*
X131692336Y-86102847D01*
X132692336Y-84912371D02*
X132692336Y-84817133D01*
X132692336Y-84817133D02*
X132644717Y-84721895D01*
X132644717Y-84721895D02*
X132597098Y-84674276D01*
X132597098Y-84674276D02*
X132501860Y-84626657D01*
X132501860Y-84626657D02*
X132311384Y-84579038D01*
X132311384Y-84579038D02*
X132073289Y-84579038D01*
X132073289Y-84579038D02*
X131882813Y-84626657D01*
X131882813Y-84626657D02*
X131787575Y-84674276D01*
X131787575Y-84674276D02*
X131739956Y-84721895D01*
X131739956Y-84721895D02*
X131692336Y-84817133D01*
X131692336Y-84817133D02*
X131692336Y-84912371D01*
X131692336Y-84912371D02*
X131739956Y-85007609D01*
X131739956Y-85007609D02*
X131787575Y-85055228D01*
X131787575Y-85055228D02*
X131882813Y-85102847D01*
X131882813Y-85102847D02*
X132073289Y-85150466D01*
X132073289Y-85150466D02*
X132311384Y-85150466D01*
X132311384Y-85150466D02*
X132501860Y-85102847D01*
X132501860Y-85102847D02*
X132597098Y-85055228D01*
X132597098Y-85055228D02*
X132644717Y-85007609D01*
X132644717Y-85007609D02*
X132692336Y-84912371D01*
X134580336Y-96514104D02*
X133580336Y-96180771D01*
X133580336Y-96180771D02*
X134580336Y-95847438D01*
X133580336Y-95514104D02*
X134580336Y-95514104D01*
X133580336Y-95037914D02*
X134580336Y-95037914D01*
X134580336Y-95037914D02*
X133580336Y-94466486D01*
X133580336Y-94466486D02*
X134580336Y-94466486D01*
X121462336Y-86132847D02*
X122462336Y-86132847D01*
X122462336Y-86132847D02*
X122462336Y-85894752D01*
X122462336Y-85894752D02*
X122414717Y-85751895D01*
X122414717Y-85751895D02*
X122319479Y-85656657D01*
X122319479Y-85656657D02*
X122224241Y-85609038D01*
X122224241Y-85609038D02*
X122033765Y-85561419D01*
X122033765Y-85561419D02*
X121890908Y-85561419D01*
X121890908Y-85561419D02*
X121700432Y-85609038D01*
X121700432Y-85609038D02*
X121605194Y-85656657D01*
X121605194Y-85656657D02*
X121509956Y-85751895D01*
X121509956Y-85751895D02*
X121462336Y-85894752D01*
X121462336Y-85894752D02*
X121462336Y-86132847D01*
X122462336Y-85228085D02*
X122462336Y-84609038D01*
X122462336Y-84609038D02*
X122081384Y-84942371D01*
X122081384Y-84942371D02*
X122081384Y-84799514D01*
X122081384Y-84799514D02*
X122033765Y-84704276D01*
X122033765Y-84704276D02*
X121986146Y-84656657D01*
X121986146Y-84656657D02*
X121890908Y-84609038D01*
X121890908Y-84609038D02*
X121652813Y-84609038D01*
X121652813Y-84609038D02*
X121557575Y-84656657D01*
X121557575Y-84656657D02*
X121509956Y-84704276D01*
X121509956Y-84704276D02*
X121462336Y-84799514D01*
X121462336Y-84799514D02*
X121462336Y-85085228D01*
X121462336Y-85085228D02*
X121509956Y-85180466D01*
X121509956Y-85180466D02*
X121557575Y-85228085D01*
X113902336Y-86142847D02*
X114902336Y-86142847D01*
X114902336Y-86142847D02*
X114902336Y-85904752D01*
X114902336Y-85904752D02*
X114854717Y-85761895D01*
X114854717Y-85761895D02*
X114759479Y-85666657D01*
X114759479Y-85666657D02*
X114664241Y-85619038D01*
X114664241Y-85619038D02*
X114473765Y-85571419D01*
X114473765Y-85571419D02*
X114330908Y-85571419D01*
X114330908Y-85571419D02*
X114140432Y-85619038D01*
X114140432Y-85619038D02*
X114045194Y-85666657D01*
X114045194Y-85666657D02*
X113949956Y-85761895D01*
X113949956Y-85761895D02*
X113902336Y-85904752D01*
X113902336Y-85904752D02*
X113902336Y-86142847D01*
X114902336Y-84714276D02*
X114902336Y-84904752D01*
X114902336Y-84904752D02*
X114854717Y-84999990D01*
X114854717Y-84999990D02*
X114807098Y-85047609D01*
X114807098Y-85047609D02*
X114664241Y-85142847D01*
X114664241Y-85142847D02*
X114473765Y-85190466D01*
X114473765Y-85190466D02*
X114092813Y-85190466D01*
X114092813Y-85190466D02*
X113997575Y-85142847D01*
X113997575Y-85142847D02*
X113949956Y-85095228D01*
X113949956Y-85095228D02*
X113902336Y-84999990D01*
X113902336Y-84999990D02*
X113902336Y-84809514D01*
X113902336Y-84809514D02*
X113949956Y-84714276D01*
X113949956Y-84714276D02*
X113997575Y-84666657D01*
X113997575Y-84666657D02*
X114092813Y-84619038D01*
X114092813Y-84619038D02*
X114330908Y-84619038D01*
X114330908Y-84619038D02*
X114426146Y-84666657D01*
X114426146Y-84666657D02*
X114473765Y-84714276D01*
X114473765Y-84714276D02*
X114521384Y-84809514D01*
X114521384Y-84809514D02*
X114521384Y-84999990D01*
X114521384Y-84999990D02*
X114473765Y-85095228D01*
X114473765Y-85095228D02*
X114426146Y-85142847D01*
X114426146Y-85142847D02*
X114330908Y-85190466D01*
X121918851Y-96676066D02*
X121918851Y-96199876D01*
X121633136Y-96771304D02*
X122633136Y-96437971D01*
X122633136Y-96437971D02*
X121633136Y-96104638D01*
X122537898Y-95818923D02*
X122585517Y-95771304D01*
X122585517Y-95771304D02*
X122633136Y-95676066D01*
X122633136Y-95676066D02*
X122633136Y-95437971D01*
X122633136Y-95437971D02*
X122585517Y-95342733D01*
X122585517Y-95342733D02*
X122537898Y-95295114D01*
X122537898Y-95295114D02*
X122442660Y-95247495D01*
X122442660Y-95247495D02*
X122347422Y-95247495D01*
X122347422Y-95247495D02*
X122204565Y-95295114D01*
X122204565Y-95295114D02*
X121633136Y-95866542D01*
X121633136Y-95866542D02*
X121633136Y-95247495D01*
X119002336Y-86122847D02*
X120002336Y-86122847D01*
X120002336Y-86122847D02*
X120002336Y-85884752D01*
X120002336Y-85884752D02*
X119954717Y-85741895D01*
X119954717Y-85741895D02*
X119859479Y-85646657D01*
X119859479Y-85646657D02*
X119764241Y-85599038D01*
X119764241Y-85599038D02*
X119573765Y-85551419D01*
X119573765Y-85551419D02*
X119430908Y-85551419D01*
X119430908Y-85551419D02*
X119240432Y-85599038D01*
X119240432Y-85599038D02*
X119145194Y-85646657D01*
X119145194Y-85646657D02*
X119049956Y-85741895D01*
X119049956Y-85741895D02*
X119002336Y-85884752D01*
X119002336Y-85884752D02*
X119002336Y-86122847D01*
X119669003Y-84694276D02*
X119002336Y-84694276D01*
X120049956Y-84932371D02*
X119335670Y-85170466D01*
X119335670Y-85170466D02*
X119335670Y-84551419D01*
X133540336Y-86021247D02*
X134540336Y-86021247D01*
X134540336Y-86021247D02*
X134540336Y-85783152D01*
X134540336Y-85783152D02*
X134492717Y-85640295D01*
X134492717Y-85640295D02*
X134397479Y-85545057D01*
X134397479Y-85545057D02*
X134302241Y-85497438D01*
X134302241Y-85497438D02*
X134111765Y-85449819D01*
X134111765Y-85449819D02*
X133968908Y-85449819D01*
X133968908Y-85449819D02*
X133778432Y-85497438D01*
X133778432Y-85497438D02*
X133683194Y-85545057D01*
X133683194Y-85545057D02*
X133587956Y-85640295D01*
X133587956Y-85640295D02*
X133540336Y-85783152D01*
X133540336Y-85783152D02*
X133540336Y-86021247D01*
X133540336Y-84497438D02*
X133540336Y-85068866D01*
X133540336Y-84783152D02*
X134540336Y-84783152D01*
X134540336Y-84783152D02*
X134397479Y-84878390D01*
X134397479Y-84878390D02*
X134302241Y-84973628D01*
X134302241Y-84973628D02*
X134254622Y-85068866D01*
X127622336Y-97343285D02*
X127622336Y-96724238D01*
X127622336Y-96724238D02*
X127241384Y-97057571D01*
X127241384Y-97057571D02*
X127241384Y-96914714D01*
X127241384Y-96914714D02*
X127193765Y-96819476D01*
X127193765Y-96819476D02*
X127146146Y-96771857D01*
X127146146Y-96771857D02*
X127050908Y-96724238D01*
X127050908Y-96724238D02*
X126812813Y-96724238D01*
X126812813Y-96724238D02*
X126717575Y-96771857D01*
X126717575Y-96771857D02*
X126669956Y-96819476D01*
X126669956Y-96819476D02*
X126622336Y-96914714D01*
X126622336Y-96914714D02*
X126622336Y-97200428D01*
X126622336Y-97200428D02*
X126669956Y-97295666D01*
X126669956Y-97295666D02*
X126717575Y-97343285D01*
X126717575Y-96295666D02*
X126669956Y-96248047D01*
X126669956Y-96248047D02*
X126622336Y-96295666D01*
X126622336Y-96295666D02*
X126669956Y-96343285D01*
X126669956Y-96343285D02*
X126717575Y-96295666D01*
X126717575Y-96295666D02*
X126622336Y-96295666D01*
X127622336Y-95914714D02*
X127622336Y-95295667D01*
X127622336Y-95295667D02*
X127241384Y-95629000D01*
X127241384Y-95629000D02*
X127241384Y-95486143D01*
X127241384Y-95486143D02*
X127193765Y-95390905D01*
X127193765Y-95390905D02*
X127146146Y-95343286D01*
X127146146Y-95343286D02*
X127050908Y-95295667D01*
X127050908Y-95295667D02*
X126812813Y-95295667D01*
X126812813Y-95295667D02*
X126717575Y-95343286D01*
X126717575Y-95343286D02*
X126669956Y-95390905D01*
X126669956Y-95390905D02*
X126622336Y-95486143D01*
X126622336Y-95486143D02*
X126622336Y-95771857D01*
X126622336Y-95771857D02*
X126669956Y-95867095D01*
X126669956Y-95867095D02*
X126717575Y-95914714D01*
X127622336Y-95009952D02*
X126622336Y-94676619D01*
X126622336Y-94676619D02*
X127622336Y-94343286D01*
%LPC*%
D11*
%TO.C,J7*%
X108900000Y-87175000D03*
D12*
X107400000Y-87175000D03*
%TD*%
D13*
%TO.C,U1*%
X118350000Y-89697500D03*
X117500000Y-89697500D03*
X116650000Y-89697500D03*
X118350000Y-90547500D03*
X117500000Y-90547500D03*
X116650000Y-90547500D03*
X118350000Y-91397500D03*
X117500000Y-91397500D03*
X116650000Y-91397500D03*
%TD*%
D11*
%TO.C,J8*%
X108900000Y-95225000D03*
D12*
X107400000Y-95225000D03*
%TD*%
D14*
%TO.C,U5*%
X134690000Y-83110000D03*
D15*
X132150000Y-83110000D03*
X129610000Y-83110000D03*
X127070000Y-83110000D03*
X124530000Y-83110000D03*
X121990000Y-83110000D03*
X119450000Y-83110000D03*
X116910000Y-83110000D03*
X114370000Y-83110000D03*
X111830000Y-83110000D03*
X109290000Y-83110000D03*
X106750000Y-83110000D03*
X106750000Y-98350000D03*
X109290000Y-98350000D03*
X111830000Y-98350000D03*
X114370000Y-98350000D03*
X116910000Y-98350000D03*
X119450000Y-98350000D03*
X121990000Y-98350000D03*
X124530000Y-98350000D03*
X127070000Y-98350000D03*
X129610000Y-98350000D03*
X132150000Y-98350000D03*
X134690000Y-98350000D03*
%TD*%
D16*
%TO.C,J3*%
X136260000Y-93490000D03*
X136260000Y-87710000D03*
D17*
X135760000Y-94920000D03*
D18*
X139940000Y-94920000D03*
D17*
X135760000Y-86280000D03*
D18*
X139940000Y-86280000D03*
%TD*%
%LPD*%
M02*
