%TF.GenerationSoftware,KiCad,Pcbnew,9.0.3*%
%TF.CreationDate,2025-08-14T10:04:02+02:00*%
%TF.ProjectId,PCB_MF_PicoMicro,5043425f-4d46-45f5-9069-636f4d696372,rev?*%
%TF.SameCoordinates,Original*%
%TF.FileFunction,Copper,L1,Top*%
%TF.FilePolarity,Positive*%
%FSLAX46Y46*%
G04 Gerber Fmt 4.6, Leading zero omitted, Abs format (unit mm)*
G04 Created by KiCad (PCBNEW 9.0.3) date 2025-08-14 10:04:02*
%MOMM*%
%LPD*%
G01*
G04 APERTURE LIST*
G04 Aperture macros list*
%AMRoundRect*
0 Rectangle with rounded corners*
0 $1 Rounding radius*
0 $2 $3 $4 $5 $6 $7 $8 $9 X,Y pos of 4 corners*
0 Add a 4 corners polygon primitive as box body*
4,1,4,$2,$3,$4,$5,$6,$7,$8,$9,$2,$3,0*
0 Add four circle primitives for the rounded corners*
1,1,$1+$1,$2,$3*
1,1,$1+$1,$4,$5*
1,1,$1+$1,$6,$7*
1,1,$1+$1,$8,$9*
0 Add four rect primitives between the rounded corners*
20,1,$1+$1,$2,$3,$4,$5,0*
20,1,$1+$1,$4,$5,$6,$7,0*
20,1,$1+$1,$6,$7,$8,$9,0*
20,1,$1+$1,$8,$9,$2,$3,0*%
%AMFreePoly0*
4,1,9,3.862500,-0.866500,0.737500,-0.866500,0.737500,-0.450000,-0.737500,-0.450000,-0.737500,0.450000,0.737500,0.450000,0.737500,0.866500,3.862500,0.866500,3.862500,-0.866500,3.862500,-0.866500,$1*%
G04 Aperture macros list end*
%TA.AperFunction,SMDPad,CuDef*%
%ADD10RoundRect,0.135000X-0.135000X-0.185000X0.135000X-0.185000X0.135000X0.185000X-0.135000X0.185000X0*%
%TD*%
%TA.AperFunction,SMDPad,CuDef*%
%ADD11RoundRect,0.140000X-0.170000X0.140000X-0.170000X-0.140000X0.170000X-0.140000X0.170000X0.140000X0*%
%TD*%
%TA.AperFunction,SMDPad,CuDef*%
%ADD12RoundRect,0.135000X0.135000X0.185000X-0.135000X0.185000X-0.135000X-0.185000X0.135000X-0.185000X0*%
%TD*%
%TA.AperFunction,SMDPad,CuDef*%
%ADD13RoundRect,0.140000X0.140000X0.170000X-0.140000X0.170000X-0.140000X-0.170000X0.140000X-0.170000X0*%
%TD*%
%TA.AperFunction,SMDPad,CuDef*%
%ADD14RoundRect,0.225000X-0.225000X-0.375000X0.225000X-0.375000X0.225000X0.375000X-0.225000X0.375000X0*%
%TD*%
%TA.AperFunction,SMDPad,CuDef*%
%ADD15RoundRect,0.140000X-0.140000X-0.170000X0.140000X-0.170000X0.140000X0.170000X-0.140000X0.170000X0*%
%TD*%
%TA.AperFunction,SMDPad,CuDef*%
%ADD16RoundRect,0.147500X-0.147500X-0.172500X0.147500X-0.172500X0.147500X0.172500X-0.147500X0.172500X0*%
%TD*%
%TA.AperFunction,ComponentPad*%
%ADD17RoundRect,0.250000X0.265000X0.615000X-0.265000X0.615000X-0.265000X-0.615000X0.265000X-0.615000X0*%
%TD*%
%TA.AperFunction,ComponentPad*%
%ADD18O,1.030000X1.730000*%
%TD*%
%TA.AperFunction,SMDPad,CuDef*%
%ADD19RoundRect,0.140000X0.170000X-0.140000X0.170000X0.140000X-0.170000X0.140000X-0.170000X-0.140000X0*%
%TD*%
%TA.AperFunction,SMDPad,CuDef*%
%ADD20RoundRect,0.250000X-0.450000X-0.350000X0.450000X-0.350000X0.450000X0.350000X-0.450000X0.350000X0*%
%TD*%
%TA.AperFunction,SMDPad,CuDef*%
%ADD21RoundRect,0.225000X0.425000X0.225000X-0.425000X0.225000X-0.425000X-0.225000X0.425000X-0.225000X0*%
%TD*%
%TA.AperFunction,SMDPad,CuDef*%
%ADD22FreePoly0,180.000000*%
%TD*%
%TA.AperFunction,SMDPad,CuDef*%
%ADD23RoundRect,0.135000X0.185000X-0.135000X0.185000X0.135000X-0.185000X0.135000X-0.185000X-0.135000X0*%
%TD*%
%TA.AperFunction,SMDPad,CuDef*%
%ADD24R,0.530000X0.470000*%
%TD*%
%TA.AperFunction,SMDPad,CuDef*%
%ADD25R,0.200000X0.875000*%
%TD*%
%TA.AperFunction,SMDPad,CuDef*%
%ADD26R,0.875000X0.200000*%
%TD*%
%TA.AperFunction,HeatsinkPad*%
%ADD27C,0.425000*%
%TD*%
%TA.AperFunction,SMDPad,CuDef*%
%ADD28R,3.400000X3.400000*%
%TD*%
%TA.AperFunction,ComponentPad*%
%ADD29R,1.574800X1.574800*%
%TD*%
%TA.AperFunction,ComponentPad*%
%ADD30C,1.574800*%
%TD*%
%TA.AperFunction,SMDPad,CuDef*%
%ADD31RoundRect,0.062500X-0.387500X-0.062500X0.387500X-0.062500X0.387500X0.062500X-0.387500X0.062500X0*%
%TD*%
%TA.AperFunction,HeatsinkPad*%
%ADD32R,0.200000X1.600000*%
%TD*%
%TA.AperFunction,SMDPad,CuDef*%
%ADD33R,1.050000X0.650000*%
%TD*%
%TA.AperFunction,SMDPad,CuDef*%
%ADD34R,1.700000X0.700000*%
%TD*%
%TA.AperFunction,SMDPad,CuDef*%
%ADD35RoundRect,0.135000X-0.185000X0.135000X-0.185000X-0.135000X0.185000X-0.135000X0.185000X0.135000X0*%
%TD*%
%TA.AperFunction,SMDPad,CuDef*%
%ADD36RoundRect,0.150000X0.500000X-0.150000X0.500000X0.150000X-0.500000X0.150000X-0.500000X-0.150000X0*%
%TD*%
%TA.AperFunction,SMDPad,CuDef*%
%ADD37RoundRect,0.075000X0.575000X-0.075000X0.575000X0.075000X-0.575000X0.075000X-0.575000X-0.075000X0*%
%TD*%
%TA.AperFunction,HeatsinkPad*%
%ADD38O,2.100000X1.000000*%
%TD*%
%TA.AperFunction,HeatsinkPad*%
%ADD39O,1.600000X1.000000*%
%TD*%
%TA.AperFunction,ViaPad*%
%ADD40C,0.650000*%
%TD*%
%TA.AperFunction,ViaPad*%
%ADD41C,0.450000*%
%TD*%
%TA.AperFunction,ViaPad*%
%ADD42C,0.600000*%
%TD*%
%TA.AperFunction,Conductor*%
%ADD43C,0.150000*%
%TD*%
%TA.AperFunction,Conductor*%
%ADD44C,0.200000*%
%TD*%
%TA.AperFunction,Conductor*%
%ADD45C,0.400000*%
%TD*%
%TA.AperFunction,Conductor*%
%ADD46C,0.500000*%
%TD*%
%TA.AperFunction,Conductor*%
%ADD47C,0.300000*%
%TD*%
G04 APERTURE END LIST*
D10*
%TO.P,R10,1*%
%TO.N,Net-(D2-A)*%
X111380000Y-95570000D03*
%TO.P,R10,2*%
%TO.N,/RP2350A/GPIO19*%
X112400000Y-95570000D03*
%TD*%
%TO.P,R9,1*%
%TO.N,Net-(D3-A)*%
X111370000Y-85260000D03*
%TO.P,R9,2*%
%TO.N,/RP2350A/GPIO11*%
X112390000Y-85260000D03*
%TD*%
D11*
%TO.P,C11,1*%
%TO.N,3.3V*%
X116960000Y-95590000D03*
%TO.P,C11,2*%
%TO.N,GND*%
X116960000Y-96550000D03*
%TD*%
D12*
%TO.P,R2,1*%
%TO.N,/RP2350A/XOUT_R*%
X112380000Y-90170000D03*
%TO.P,R2,2*%
%TO.N,Net-(C5-Pad1)*%
X111360000Y-90170000D03*
%TD*%
D13*
%TO.P,C12,1*%
%TO.N,3.3V*%
X112340000Y-93590000D03*
%TO.P,C12,2*%
%TO.N,GND*%
X111380000Y-93590000D03*
%TD*%
D12*
%TO.P,R4,1*%
%TO.N,/RP2350A/USB_D-*%
X123570000Y-91440000D03*
%TO.P,R4,2*%
%TO.N,/RP2350A/USB_D_R-*%
X122550000Y-91440000D03*
%TD*%
D14*
%TO.P,D1,1,K*%
%TO.N,VIN*%
X128560000Y-87060000D03*
%TO.P,D1,2,A*%
%TO.N,/RP2350A/RAW*%
X131860000Y-87060000D03*
%TD*%
D15*
%TO.P,C14,1*%
%TO.N,3.3V*%
X122560000Y-86270000D03*
%TO.P,C14,2*%
%TO.N,GND*%
X123520000Y-86270000D03*
%TD*%
D16*
%TO.P,D3,1,K*%
%TO.N,GND*%
X111390000Y-86250000D03*
%TO.P,D3,2,A*%
%TO.N,Net-(D3-A)*%
X112360000Y-86250000D03*
%TD*%
D13*
%TO.P,C9,1*%
%TO.N,3.3V*%
X112350000Y-88170000D03*
%TO.P,C9,2*%
%TO.N,GND*%
X111390000Y-88170000D03*
%TD*%
D17*
%TO.P,J7,1,Pin_1*%
%TO.N,RX1*%
X108900000Y-87175000D03*
D18*
%TO.P,J7,2,Pin_2*%
%TO.N,TX1*%
X107400000Y-87175000D03*
%TD*%
D19*
%TO.P,C6,1*%
%TO.N,+1V1*%
X118340000Y-85510000D03*
%TO.P,C6,2*%
%TO.N,GND*%
X118340000Y-84550000D03*
%TD*%
D20*
%TO.P,Y1,1,1*%
%TO.N,Net-(C5-Pad1)*%
X107675000Y-91600000D03*
%TO.P,Y1,2,2*%
%TO.N,GND*%
X109875000Y-91600000D03*
%TO.P,Y1,3,3*%
%TO.N,/RP2350A/XIN*%
X109875000Y-89900000D03*
%TO.P,Y1,4,4*%
%TO.N,GND*%
X107675000Y-89900000D03*
%TD*%
D11*
%TO.P,C10,1*%
%TO.N,3.3V*%
X121060000Y-95560000D03*
%TO.P,C10,2*%
%TO.N,GND*%
X121060000Y-96520000D03*
%TD*%
D19*
%TO.P,C13,1*%
%TO.N,3.3V*%
X116010000Y-85510000D03*
%TO.P,C13,2*%
%TO.N,GND*%
X116010000Y-84550000D03*
%TD*%
D21*
%TO.P,U2,1,GND*%
%TO.N,GND*%
X131650000Y-92410000D03*
D22*
%TO.P,U2,2,VO*%
%TO.N,3.3V*%
X131562500Y-90910000D03*
D21*
%TO.P,U2,3,VI*%
%TO.N,VIN*%
X131650000Y-89410000D03*
%TD*%
D23*
%TO.P,R7,1*%
%TO.N,GND*%
X133340000Y-96390000D03*
%TO.P,R7,2*%
%TO.N,Net-(J3-CC1)*%
X133340000Y-95370000D03*
%TD*%
D19*
%TO.P,C2,1*%
%TO.N,3.3V*%
X126920000Y-86270000D03*
%TO.P,C2,2*%
%TO.N,GND*%
X126920000Y-85310000D03*
%TD*%
D24*
%TO.P,C16,1*%
%TO.N,3.3V*%
X122590000Y-92360000D03*
%TO.P,C16,2*%
%TO.N,GND*%
X122590000Y-93390000D03*
%TD*%
D25*
%TO.P,U1,1,IOVDD*%
%TO.N,3.3V*%
X120300000Y-87110000D03*
%TO.P,U1,2,GPIO0*%
%TO.N,D0*%
X119900000Y-87110000D03*
%TO.P,U1,3,GPIO1*%
%TO.N,D1*%
X119500000Y-87110000D03*
%TO.P,U1,4,GPIO2*%
%TO.N,D2*%
X119100000Y-87110000D03*
%TO.P,U1,5,GPIO3*%
%TO.N,D3*%
X118700000Y-87110000D03*
%TO.P,U1,6,DVDD*%
%TO.N,+1V1*%
X118300000Y-87110000D03*
%TO.P,U1,7,GPIO4*%
%TO.N,D4*%
X117900000Y-87110000D03*
%TO.P,U1,8,GPIO5*%
%TO.N,D5*%
X117500000Y-87110000D03*
%TO.P,U1,9,GPIO6*%
%TO.N,D6*%
X117100000Y-87110000D03*
%TO.P,U1,10,GPIO7*%
%TO.N,D7*%
X116700000Y-87110000D03*
%TO.P,U1,11,IOVDD*%
%TO.N,3.3V*%
X116300000Y-87110000D03*
%TO.P,U1,12,GPIO8*%
%TO.N,D8*%
X115900000Y-87110000D03*
%TO.P,U1,13,GPIO9*%
%TO.N,D9*%
X115500000Y-87110000D03*
%TO.P,U1,14,GPIO10*%
%TO.N,D10*%
X115100000Y-87110000D03*
%TO.P,U1,15,GPIO11*%
%TO.N,/RP2350A/GPIO11*%
X114700000Y-87110000D03*
D26*
%TO.P,U1,16,GPIO12*%
%TO.N,/RP2350A/GPIO12*%
X114062500Y-87747500D03*
%TO.P,U1,17,GPIO13*%
%TO.N,D13*%
X114062500Y-88147500D03*
%TO.P,U1,18,GPIO14*%
%TO.N,D14*%
X114062500Y-88547500D03*
%TO.P,U1,19,GPIO15*%
%TO.N,D15*%
X114062500Y-88947500D03*
%TO.P,U1,20,IOVDD*%
%TO.N,3.3V*%
X114062500Y-89347500D03*
%TO.P,U1,21,XIN*%
%TO.N,/RP2350A/XIN*%
X114062500Y-89747500D03*
%TO.P,U1,22,XOUT*%
%TO.N,/RP2350A/XOUT_R*%
X114062500Y-90147500D03*
%TO.P,U1,23,DVDD*%
%TO.N,+1V1*%
X114062500Y-90547500D03*
%TO.P,U1,24,SWCLK*%
%TO.N,/RP2350A/SWD*%
X114062500Y-90947500D03*
%TO.P,U1,25,SWDIO*%
%TO.N,/RP2350A/SWCLK*%
X114062500Y-91347500D03*
%TO.P,U1,26,RUN*%
%TO.N,RST*%
X114062500Y-91747500D03*
%TO.P,U1,27,GPIO16*%
%TO.N,TX1*%
X114062500Y-92147500D03*
%TO.P,U1,28,GPIO17*%
%TO.N,RX1*%
X114062500Y-92547500D03*
%TO.P,U1,29,GPIO18*%
%TO.N,/RP2350A/GPIO18*%
X114062500Y-92947500D03*
%TO.P,U1,30,IOVDD*%
%TO.N,3.3V*%
X114062500Y-93347500D03*
D25*
%TO.P,U1,31,GPIO19*%
%TO.N,/RP2350A/GPIO19*%
X114700000Y-93985000D03*
%TO.P,U1,32,GPIO20*%
%TO.N,/RP2350A/GPIO20*%
X115100000Y-93985000D03*
%TO.P,U1,33,GPIO21*%
%TO.N,/RP2350A/GPIO21*%
X115500000Y-93985000D03*
%TO.P,U1,34,GPIO22*%
%TO.N,/RP2350A/GPIO22*%
X115900000Y-93985000D03*
%TO.P,U1,35,GPIO23*%
%TO.N,/RP2350A/GPIO23*%
X116300000Y-93985000D03*
%TO.P,U1,36,GPIO24*%
%TO.N,TX2*%
X116700000Y-93985000D03*
%TO.P,U1,37,GPIO25*%
%TO.N,RX2*%
X117100000Y-93985000D03*
%TO.P,U1,38,IOVDD*%
%TO.N,3.3V*%
X117500000Y-93985000D03*
%TO.P,U1,39,DVDD*%
%TO.N,+1V1*%
X117900000Y-93985000D03*
%TO.P,U1,40,GPIO26_ADC0*%
%TO.N,A0*%
X118300000Y-93985000D03*
%TO.P,U1,41,GPIO27_ADC1*%
%TO.N,A1*%
X118700000Y-93985000D03*
%TO.P,U1,42,GPIO28_ADC2*%
%TO.N,A2*%
X119100000Y-93985000D03*
%TO.P,U1,43,GPIO29_ADC3*%
%TO.N,A3*%
X119500000Y-93985000D03*
%TO.P,U1,44,ADC_AVDD*%
%TO.N,3.3V*%
X119900000Y-93985000D03*
%TO.P,U1,45,IOVDD*%
X120300000Y-93985000D03*
D26*
%TO.P,U1,46,VREG_AVDD*%
%TO.N,Net-(U1-VREG_AVDD)*%
X120937500Y-93347500D03*
%TO.P,U1,47,VREG_PGND*%
%TO.N,GND*%
X120937500Y-92947500D03*
%TO.P,U1,48,VREG_LX*%
%TO.N,/RP2350A/VREG_LX*%
X120937500Y-92547500D03*
%TO.P,U1,49,VREG_VIN*%
%TO.N,3.3V*%
X120937500Y-92147500D03*
%TO.P,U1,50,VREG_FB*%
%TO.N,+1V1*%
X120937500Y-91747500D03*
%TO.P,U1,51,USB_DM*%
%TO.N,/RP2350A/USB_D_R-*%
X120937500Y-91347500D03*
%TO.P,U1,52,USB_DP*%
%TO.N,/RP2350A/USB_D_R+*%
X120937500Y-90947500D03*
%TO.P,U1,53,USB_OTP_VDD*%
%TO.N,3.3V*%
X120937500Y-90547500D03*
%TO.P,U1,54,QSPI_IOVDD*%
X120937500Y-90147500D03*
%TO.P,U1,55,QSPI_SD3*%
%TO.N,/RP2350A/QSPI_SD3*%
X120937500Y-89747500D03*
%TO.P,U1,56,QSPI_SCLK*%
%TO.N,/RP2350A/QSPI_SCLK*%
X120937500Y-89347500D03*
%TO.P,U1,57,QSPI_SD0*%
%TO.N,/RP2350A/QSPI_SD0*%
X120937500Y-88947500D03*
%TO.P,U1,58,QSPI_SD2*%
%TO.N,/RP2350A/QSPI_SD2*%
X120937500Y-88547500D03*
%TO.P,U1,59,QSPI_SD1*%
%TO.N,/RP2350A/QSPI_SD1*%
X120937500Y-88147500D03*
%TO.P,U1,60,QSPI_SS*%
%TO.N,/RP2350A/QSPI_SS*%
X120937500Y-87747500D03*
D27*
%TO.P,U1,61,GND*%
%TO.N,GND*%
X118350000Y-89697500D03*
X117500000Y-89697500D03*
X116650000Y-89697500D03*
X118350000Y-90547500D03*
X117500000Y-90547500D03*
D28*
X117500000Y-90547500D03*
D27*
X116650000Y-90547500D03*
X118350000Y-91397500D03*
X117500000Y-91397500D03*
X116650000Y-91397500D03*
%TD*%
D17*
%TO.P,J8,1,Pin_1*%
%TO.N,TX2*%
X108900000Y-95225000D03*
D18*
%TO.P,J8,2,Pin_2*%
%TO.N,RX2*%
X107400000Y-95225000D03*
%TD*%
D19*
%TO.P,C5,1*%
%TO.N,Net-(C5-Pad1)*%
X106150000Y-91510000D03*
%TO.P,C5,2*%
%TO.N,GND*%
X106150000Y-90550000D03*
%TD*%
D11*
%TO.P,C8,1*%
%TO.N,+1V1*%
X117950000Y-95590000D03*
%TO.P,C8,2*%
%TO.N,GND*%
X117950000Y-96550000D03*
%TD*%
D16*
%TO.P,D2,1,K*%
%TO.N,GND*%
X111400000Y-94580000D03*
%TO.P,D2,2,A*%
%TO.N,Net-(D2-A)*%
X112370000Y-94580000D03*
%TD*%
D13*
%TO.P,C4,1*%
%TO.N,/RP2350A/XIN*%
X112350000Y-89140000D03*
%TO.P,C4,2*%
%TO.N,GND*%
X111390000Y-89140000D03*
%TD*%
D12*
%TO.P,R5,1*%
%TO.N,3.3V*%
X125560000Y-94800000D03*
%TO.P,R5,2*%
%TO.N,Net-(U1-VREG_AVDD)*%
X124540000Y-94800000D03*
%TD*%
D13*
%TO.P,C18,1*%
%TO.N,Net-(U1-VREG_AVDD)*%
X123550000Y-94800000D03*
%TO.P,C18,2*%
%TO.N,GND*%
X122590000Y-94800000D03*
%TD*%
D29*
%TO.P,U5,1,1/TX*%
%TO.N,D1*%
X134690000Y-83110000D03*
D30*
%TO.P,U5,2,0/RX*%
%TO.N,D0*%
X132150000Y-83110000D03*
%TO.P,U5,3,GND*%
%TO.N,GND*%
X129610000Y-83110000D03*
%TO.P,U5,4,GND*%
X127070000Y-83110000D03*
%TO.P,U5,5,2/SDA*%
%TO.N,D4*%
X124530000Y-83110000D03*
%TO.P,U5,6,3(PWM)/SCL*%
%TO.N,D5*%
X121990000Y-83110000D03*
%TO.P,U5,7,4/A6*%
%TO.N,D2*%
X119450000Y-83110000D03*
%TO.P,U5,8,5(PWM)*%
%TO.N,D3*%
X116910000Y-83110000D03*
%TO.P,U5,9,6(PWM)/A7*%
%TO.N,D6*%
X114370000Y-83110000D03*
%TO.P,U5,10,7*%
%TO.N,D7*%
X111830000Y-83110000D03*
%TO.P,U5,11,8/A8*%
%TO.N,D8*%
X109290000Y-83110000D03*
%TO.P,U5,12,9(PWM)/A9*%
%TO.N,D9*%
X106750000Y-83110000D03*
%TO.P,U5,13,10(PWM)/A10*%
%TO.N,D10*%
X106750000Y-98350000D03*
%TO.P,U5,14,16*%
%TO.N,D13*%
X109290000Y-98350000D03*
%TO.P,U5,15,14*%
%TO.N,D14*%
X111830000Y-98350000D03*
%TO.P,U5,16,15*%
%TO.N,D15*%
X114370000Y-98350000D03*
%TO.P,U5,17,18/A0*%
%TO.N,A0*%
X116910000Y-98350000D03*
%TO.P,U5,18,19/A1*%
%TO.N,A1*%
X119450000Y-98350000D03*
%TO.P,U5,19,20/A2*%
%TO.N,A2*%
X121990000Y-98350000D03*
%TO.P,U5,20,21/A3*%
%TO.N,A3*%
X124530000Y-98350000D03*
%TO.P,U5,21,+5V*%
%TO.N,3.3V*%
X127070000Y-98350000D03*
%TO.P,U5,22,RESET*%
%TO.N,RST*%
X129610000Y-98350000D03*
%TO.P,U5,23,GND*%
%TO.N,GND*%
X132150000Y-98350000D03*
%TO.P,U5,24,VIN*%
%TO.N,VIN*%
X134690000Y-98350000D03*
%TD*%
D12*
%TO.P,R6,1*%
%TO.N,3.3V*%
X112390000Y-92160000D03*
%TO.P,R6,2*%
%TO.N,RST*%
X111370000Y-92160000D03*
%TD*%
%TO.P,R3,1*%
%TO.N,/RP2350A/USB_D+*%
X123570000Y-90440000D03*
%TO.P,R3,2*%
%TO.N,/RP2350A/USB_D_R+*%
X122550000Y-90440000D03*
%TD*%
D31*
%TO.P,U4,1,~{CS}*%
%TO.N,/RP2350A/QSPI_SS*%
X123560000Y-87340000D03*
%TO.P,U4,2,DO(IO1)*%
%TO.N,/RP2350A/QSPI_SD1*%
X123560000Y-87840000D03*
%TO.P,U4,3,IO2*%
%TO.N,/RP2350A/QSPI_SD2*%
X123560000Y-88340000D03*
%TO.P,U4,4,GND*%
%TO.N,GND*%
X123560000Y-88840000D03*
%TO.P,U4,5,DI(IO0)*%
%TO.N,/RP2350A/QSPI_SD0*%
X126410000Y-88840000D03*
%TO.P,U4,6,CLK*%
%TO.N,/RP2350A/QSPI_SCLK*%
X126410000Y-88340000D03*
%TO.P,U4,7,IO3*%
%TO.N,/RP2350A/QSPI_SD3*%
X126410000Y-87840000D03*
%TO.P,U4,8,VCC*%
%TO.N,3.3V*%
X126410000Y-87340000D03*
D32*
%TO.P,U4,9*%
%TO.N,N/C*%
X124985000Y-88090000D03*
%TD*%
D15*
%TO.P,C15,1*%
%TO.N,3.3V*%
X124480000Y-89850000D03*
%TO.P,C15,2*%
%TO.N,GND*%
X125440000Y-89850000D03*
%TD*%
D23*
%TO.P,R1,1*%
%TO.N,/RP2350A/QSPI_SS*%
X124870000Y-86350000D03*
%TO.P,R1,2*%
%TO.N,/RP2350A/~{USB_BOOT}*%
X124870000Y-85330000D03*
%TD*%
D33*
%TO.P,SW1,1,1*%
%TO.N,GND*%
X131805000Y-96460000D03*
X127655000Y-96460000D03*
%TO.P,SW1,2,2*%
%TO.N,/RP2350A/~{USB_BOOT}*%
X131805000Y-94310000D03*
X127680000Y-94310000D03*
%TD*%
D13*
%TO.P,C7,1*%
%TO.N,+1V1*%
X112340000Y-91160000D03*
%TO.P,C7,2*%
%TO.N,GND*%
X111380000Y-91160000D03*
%TD*%
D34*
%TO.P,L1,1,1*%
%TO.N,+1V1*%
X125170000Y-92250000D03*
%TO.P,L1,2,2*%
%TO.N,/RP2350A/VREG_LX*%
X125170000Y-93650000D03*
%TD*%
D19*
%TO.P,C3,1*%
%TO.N,3.3V*%
X125900000Y-86280000D03*
%TO.P,C3,2*%
%TO.N,GND*%
X125900000Y-85320000D03*
%TD*%
D35*
%TO.P,R8,1*%
%TO.N,GND*%
X133280000Y-85900000D03*
%TO.P,R8,2*%
%TO.N,Net-(J3-CC2)*%
X133280000Y-86920000D03*
%TD*%
D36*
%TO.P,J3,A1,GND*%
%TO.N,GND*%
X135120000Y-93800000D03*
%TO.P,J3,A4,VBUS*%
%TO.N,/RP2350A/RAW*%
X135120000Y-93000000D03*
D37*
%TO.P,J3,A5,CC1*%
%TO.N,Net-(J3-CC1)*%
X135120000Y-91850000D03*
%TO.P,J3,A6,D+*%
%TO.N,/RP2350A/USB_D+*%
X135120000Y-90850000D03*
%TO.P,J3,A7,D-*%
%TO.N,/RP2350A/USB_D-*%
X135120000Y-90350000D03*
%TO.P,J3,A8,SBU1*%
%TO.N,unconnected-(J3-SBU1-PadA8)*%
X135120000Y-89350000D03*
D36*
%TO.P,J3,A9,VBUS*%
%TO.N,/RP2350A/RAW*%
X135120000Y-88200000D03*
%TO.P,J3,A12,GND*%
%TO.N,GND*%
X135120000Y-87400000D03*
%TO.P,J3,B1,GND*%
X135120000Y-87400000D03*
%TO.P,J3,B4,VBUS*%
%TO.N,/RP2350A/RAW*%
X135120000Y-88200000D03*
D37*
%TO.P,J3,B5,CC2*%
%TO.N,Net-(J3-CC2)*%
X135120000Y-88850000D03*
%TO.P,J3,B6,D+*%
%TO.N,/RP2350A/USB_D+*%
X135120000Y-89850000D03*
%TO.P,J3,B7,D-*%
%TO.N,/RP2350A/USB_D-*%
X135120000Y-91350000D03*
%TO.P,J3,B8,SBU2*%
%TO.N,unconnected-(J3-SBU2-PadB8)*%
X135120000Y-92350000D03*
D36*
%TO.P,J3,B9,VBUS*%
%TO.N,/RP2350A/RAW*%
X135120000Y-93000000D03*
%TO.P,J3,B12,GND*%
%TO.N,GND*%
X135120000Y-93800000D03*
D38*
%TO.P,J3,S1,SHIELD*%
X135760000Y-94920000D03*
D39*
X139940000Y-94920000D03*
D38*
X135760000Y-86280000D03*
D39*
X139940000Y-86280000D03*
%TD*%
D15*
%TO.P,C1,1*%
%TO.N,VIN*%
X130060000Y-85300000D03*
%TO.P,C1,2*%
%TO.N,GND*%
X131020000Y-85300000D03*
%TD*%
D24*
%TO.P,C17,1*%
%TO.N,+1V1*%
X123600000Y-92360000D03*
%TO.P,C17,2*%
%TO.N,GND*%
X123600000Y-93390000D03*
%TD*%
D40*
%TO.N,GND*%
X109870000Y-91630000D03*
D41*
%TO.N,Net-(J3-CC1)*%
X133340000Y-95370000D03*
%TO.N,3.3V*%
X112350000Y-88170000D03*
D40*
%TO.N,GND*%
X111390000Y-89140000D03*
X113210000Y-96200000D03*
X123160000Y-85430000D03*
X123040000Y-95620000D03*
X126910000Y-85320000D03*
X124030000Y-95620000D03*
X118340000Y-84550000D03*
X111380000Y-91160000D03*
X127510000Y-92400000D03*
X116010000Y-84550000D03*
X129670000Y-95480000D03*
X121050000Y-97190000D03*
X106250000Y-94030000D03*
X106150000Y-89660000D03*
X126370000Y-89780000D03*
X123648732Y-94046268D03*
X122610000Y-93765000D03*
X115930000Y-97010000D03*
X106020000Y-86280000D03*
X113760000Y-86900000D03*
X139870000Y-97870000D03*
D42*
%TO.N,3.3V*%
X127425000Y-88100000D03*
X119970000Y-92920000D03*
D41*
X116960000Y-95590000D03*
D42*
X122560000Y-86270000D03*
D41*
X112340000Y-93590000D03*
X112390000Y-92160000D03*
D42*
X121880000Y-95600000D03*
D41*
X116010000Y-85510000D03*
D42*
X127425000Y-88800000D03*
X124480000Y-89850000D03*
D41*
%TO.N,+1V1*%
X124660000Y-92250000D03*
X119910000Y-90870000D03*
X125680000Y-92260000D03*
X119910000Y-90310000D03*
%TO.N,/RP2350A/USB_D-*%
X133275000Y-91440000D03*
D42*
X123570000Y-91440000D03*
%TO.N,/RP2350A/USB_D+*%
X123570000Y-90440000D03*
D41*
X133275000Y-90540000D03*
%TO.N,/RP2350A/~{USB_BOOT}*%
X127650000Y-94310000D03*
X124180000Y-85340000D03*
X131805000Y-94310000D03*
%TO.N,D4*%
X117875000Y-86050000D03*
%TO.N,D0*%
X133255685Y-84270001D03*
%TO.N,D10*%
X113040000Y-84890000D03*
%TO.N,D5*%
X117705000Y-85480000D03*
%TO.N,D13*%
X111884777Y-86877899D03*
%TO.N,/RP2350A/QSPI_SD0*%
X122060000Y-88750000D03*
X124500000Y-88850000D03*
%TO.N,D15*%
X111870001Y-87678899D03*
%TO.N,D14*%
X111390000Y-87278899D03*
%TO.N,TX1*%
X107020000Y-92730000D03*
%TO.N,RX1*%
X107450000Y-93140000D03*
%TO.N,RST*%
X111370000Y-92160000D03*
%TO.N,/RP2350A/QSPI_SCLK*%
X122410000Y-89223090D03*
X125570000Y-88460000D03*
%TO.N,/RP2350A/QSPI_SD3*%
X125580000Y-87840000D03*
X122774315Y-88749999D03*
%TO.N,VIN*%
X129510000Y-88170000D03*
X130740000Y-88180000D03*
X130140000Y-88170000D03*
%TO.N,Net-(J3-CC1)*%
X133343678Y-92061216D03*
%TD*%
D43*
%TO.N,RX1*%
X113542500Y-92547500D02*
X114062500Y-92547500D01*
X107599000Y-92991000D02*
X113099000Y-92991000D01*
X113099000Y-92991000D02*
X113542500Y-92547500D01*
X107450000Y-93140000D02*
X107599000Y-92991000D01*
%TO.N,TX1*%
X112980000Y-92740000D02*
X113572500Y-92147500D01*
X113572500Y-92147500D02*
X114062500Y-92147500D01*
X107030000Y-92740000D02*
X112980000Y-92740000D01*
X107020000Y-92730000D02*
X107030000Y-92740000D01*
D44*
%TO.N,+1V1*%
X120277500Y-91747500D02*
X120937500Y-91747500D01*
X119910000Y-91380000D02*
X120277500Y-91747500D01*
X119910000Y-90870000D02*
X119910000Y-91380000D01*
D43*
%TO.N,Net-(D2-A)*%
X112370000Y-94690000D02*
X112370000Y-94580000D01*
X111490000Y-95570000D02*
X112370000Y-94690000D01*
X111430000Y-95620000D02*
X111380000Y-95570000D01*
X111450000Y-95620000D02*
X111430000Y-95620000D01*
X111380000Y-95570000D02*
X111490000Y-95570000D01*
D44*
%TO.N,3.3V*%
X113270000Y-93590000D02*
X113512500Y-93347500D01*
X113512500Y-93347500D02*
X114062500Y-93347500D01*
X112340000Y-93590000D02*
X113270000Y-93590000D01*
D43*
X112490000Y-92140000D02*
X112470000Y-92160000D01*
X112470000Y-92160000D02*
X112390000Y-92160000D01*
%TO.N,RST*%
X113687500Y-91747500D02*
X114062500Y-91747500D01*
X113390000Y-91740000D02*
X113680000Y-91740000D01*
X111450000Y-92160000D02*
X111950000Y-91660000D01*
X113680000Y-91740000D02*
X113687500Y-91747500D01*
X111370000Y-92160000D02*
X111450000Y-92160000D01*
X113310000Y-91660000D02*
X113390000Y-91740000D01*
X111950000Y-91660000D02*
X113310000Y-91660000D01*
D44*
%TO.N,+1V1*%
X113102500Y-90547500D02*
X114062500Y-90547500D01*
X112490000Y-91160000D02*
X113102500Y-90547500D01*
X112340000Y-91160000D02*
X112490000Y-91160000D01*
X112460000Y-91160000D02*
X112340000Y-91160000D01*
D43*
%TO.N,/RP2350A/XIN*%
X109945000Y-89670000D02*
X109900000Y-89625000D01*
X111960000Y-89670000D02*
X109945000Y-89670000D01*
X112350000Y-89140000D02*
X112350000Y-89280000D01*
X112350000Y-89280000D02*
X111960000Y-89670000D01*
X112480000Y-89170000D02*
X112380000Y-89170000D01*
X113057500Y-89747500D02*
X112480000Y-89170000D01*
X112380000Y-89170000D02*
X112350000Y-89140000D01*
X114062500Y-89747500D02*
X113057500Y-89747500D01*
D45*
%TO.N,GND*%
X111390000Y-89040000D02*
X111390000Y-88170000D01*
X111410000Y-89120000D02*
X111410000Y-89060000D01*
X111410000Y-89060000D02*
X111390000Y-89040000D01*
X111390000Y-89140000D02*
X111410000Y-89120000D01*
D43*
%TO.N,/RP2350A/XOUT_R*%
X112402500Y-90147500D02*
X112380000Y-90170000D01*
X114062500Y-90147500D02*
X112402500Y-90147500D01*
X112380000Y-90170000D02*
X112470000Y-90170000D01*
D45*
%TO.N,GND*%
X111390000Y-86250000D02*
X110770000Y-86250000D01*
D43*
%TO.N,/RP2350A/GPIO19*%
X114065000Y-94620000D02*
X114700000Y-93985000D01*
X112470000Y-95620000D02*
X113470000Y-94620000D01*
X113470000Y-94620000D02*
X114065000Y-94620000D01*
%TO.N,Net-(D3-A)*%
X111370000Y-85260000D02*
X112360000Y-86250000D01*
%TO.N,/RP2350A/GPIO11*%
X114700000Y-86380000D02*
X114700000Y-87110000D01*
X114570000Y-86250000D02*
X114700000Y-86380000D01*
X113380000Y-86250000D02*
X114570000Y-86250000D01*
X112390000Y-85260000D02*
X113380000Y-86250000D01*
%TO.N,D10*%
X115100000Y-86300000D02*
X115100000Y-87110000D01*
X113953000Y-85803000D02*
X114603000Y-85803000D01*
X114603000Y-85803000D02*
X115100000Y-86300000D01*
X113040000Y-84890000D02*
X113953000Y-85803000D01*
%TO.N,GND*%
X109900000Y-91325000D02*
X110375000Y-91800000D01*
D46*
X134120000Y-87400000D02*
X135200000Y-87400000D01*
D43*
X126910000Y-85320000D02*
X126920000Y-85310000D01*
X123560000Y-88840000D02*
X124040000Y-89320000D01*
D44*
X123600000Y-93997536D02*
X123648732Y-94046268D01*
D46*
X134110000Y-87410000D02*
X134120000Y-87400000D01*
X135120000Y-93800000D02*
X134210000Y-93800000D01*
X125900000Y-85320000D02*
X126910000Y-85320000D01*
D44*
X122590000Y-93390000D02*
X122020000Y-93390000D01*
X122020000Y-93390000D02*
X121577500Y-92947500D01*
X121577500Y-92947500D02*
X120937500Y-92947500D01*
D47*
X123600000Y-93390000D02*
X123600000Y-93997536D01*
D43*
X124910000Y-89320000D02*
X125440000Y-89850000D01*
X124040000Y-89320000D02*
X124910000Y-89320000D01*
%TO.N,Net-(C5-Pad1)*%
X110600000Y-90775000D02*
X111205000Y-90170000D01*
X106165000Y-91525000D02*
X107500000Y-91525000D01*
X106150000Y-91510000D02*
X106165000Y-91525000D01*
X108250000Y-90775000D02*
X110600000Y-90775000D01*
X107500000Y-91525000D02*
X108250000Y-90775000D01*
X111205000Y-90170000D02*
X111450000Y-90170000D01*
%TO.N,3.3V*%
X119960000Y-92910000D02*
X119970000Y-92920000D01*
D44*
X122172000Y-92212000D02*
X122320000Y-92360000D01*
X119960000Y-92497500D02*
X119960000Y-92910000D01*
D46*
X127190000Y-93350000D02*
X125670000Y-94870000D01*
X127425000Y-88800000D02*
X127425000Y-89635000D01*
D44*
X120300000Y-95270000D02*
X120590000Y-95560000D01*
D46*
X125630000Y-94870000D02*
X125560000Y-94800000D01*
D44*
X120937500Y-92147500D02*
X122103616Y-92147500D01*
X120310000Y-92147500D02*
X119960000Y-92497500D01*
X124414000Y-89916000D02*
X122084000Y-89916000D01*
D46*
X121880000Y-95600000D02*
X121100000Y-95600000D01*
D44*
X113487500Y-89347500D02*
X114062500Y-89347500D01*
X120300000Y-86460000D02*
X120300000Y-87110000D01*
D46*
X127425000Y-87320000D02*
X127425000Y-86395000D01*
D44*
X121100000Y-95600000D02*
X121060000Y-95560000D01*
D46*
X128700000Y-90910000D02*
X129610000Y-90910000D01*
X125560000Y-95540000D02*
X125560000Y-94800000D01*
X129370000Y-92570000D02*
X128590000Y-93350000D01*
D43*
X126420000Y-87350000D02*
X126410000Y-87340000D01*
D46*
X127425000Y-88800000D02*
X127425000Y-87320000D01*
X129370000Y-91150000D02*
X129370000Y-92570000D01*
D44*
X122560000Y-86270000D02*
X122500000Y-86330000D01*
X127405000Y-87340000D02*
X127425000Y-87320000D01*
D46*
X128590000Y-93350000D02*
X127190000Y-93350000D01*
D44*
X117500000Y-95050000D02*
X116960000Y-95590000D01*
D46*
X121880000Y-95600000D02*
X121840000Y-95560000D01*
D44*
X126410000Y-87340000D02*
X127405000Y-87340000D01*
X122168115Y-92212000D02*
X122172000Y-92212000D01*
X120430000Y-86330000D02*
X120300000Y-86460000D01*
X120937500Y-90547500D02*
X121452500Y-90547500D01*
X112350000Y-88210000D02*
X113487500Y-89347500D01*
X117500000Y-93985000D02*
X117500000Y-95050000D01*
X122103616Y-92147500D02*
X122168115Y-92212000D01*
X122500000Y-86330000D02*
X120430000Y-86330000D01*
D46*
X125480000Y-96320000D02*
X125560000Y-96240000D01*
D44*
X116300000Y-87110000D02*
X116300000Y-85800000D01*
X120300000Y-93985000D02*
X120300000Y-95270000D01*
X119900000Y-93985000D02*
X119900000Y-94870000D01*
X122084000Y-89916000D02*
X121852500Y-90147500D01*
D46*
X121880000Y-95600000D02*
X122600000Y-96320000D01*
D44*
X120590000Y-95560000D02*
X121060000Y-95560000D01*
X116300000Y-85800000D02*
X116010000Y-85510000D01*
X121452500Y-90547500D02*
X121852500Y-90147500D01*
D46*
X125670000Y-94870000D02*
X125630000Y-94870000D01*
D44*
X124480000Y-89850000D02*
X124414000Y-89916000D01*
X121852500Y-90147500D02*
X120937500Y-90147500D01*
X119900000Y-94870000D02*
X120300000Y-95270000D01*
D46*
X122600000Y-96320000D02*
X125480000Y-96320000D01*
X127310000Y-86280000D02*
X125900000Y-86280000D01*
D44*
X120937500Y-92147500D02*
X120310000Y-92147500D01*
X122320000Y-92360000D02*
X122590000Y-92360000D01*
D46*
X127070000Y-97750000D02*
X125560000Y-96240000D01*
X127070000Y-98350000D02*
X127070000Y-97750000D01*
X125560000Y-96240000D02*
X125560000Y-95540000D01*
X127425000Y-86395000D02*
X127310000Y-86280000D01*
X127425000Y-89635000D02*
X128700000Y-90910000D01*
X127400000Y-98020000D02*
X127070000Y-98350000D01*
D43*
%TO.N,+1V1*%
X122097500Y-91747500D02*
X122104000Y-91754000D01*
D44*
X117900000Y-93985000D02*
X117900000Y-95540000D01*
X114957500Y-90547500D02*
X114960000Y-90550000D01*
X118300000Y-85550000D02*
X118340000Y-85510000D01*
X117930000Y-93955000D02*
X117930000Y-93070000D01*
X118300000Y-87110000D02*
X118300000Y-85550000D01*
D43*
X122104000Y-91754000D02*
X122104000Y-91757562D01*
D44*
X117900000Y-93985000D02*
X117930000Y-93955000D01*
D43*
X122282438Y-91936000D02*
X123176000Y-91936000D01*
X120937500Y-91747500D02*
X122097500Y-91747500D01*
D44*
X125060000Y-92360000D02*
X123600000Y-92360000D01*
X118300000Y-87110000D02*
X118300000Y-88180000D01*
D43*
X122104000Y-91757562D02*
X122282438Y-91936000D01*
X123176000Y-91936000D02*
X123600000Y-92360000D01*
D44*
X125680000Y-92260000D02*
X125160000Y-92260000D01*
X117900000Y-95540000D02*
X117950000Y-95590000D01*
X125160000Y-92260000D02*
X125060000Y-92360000D01*
X114062500Y-90547500D02*
X114957500Y-90547500D01*
D45*
%TO.N,/RP2350A/RAW*%
X135820000Y-93000000D02*
X136560000Y-92260000D01*
X136560000Y-88940000D02*
X135820000Y-88200000D01*
X136560000Y-92260000D02*
X136560000Y-88940000D01*
X135820000Y-88200000D02*
X135120000Y-88200000D01*
X132750000Y-92210000D02*
X132750000Y-87950000D01*
X132750000Y-87950000D02*
X131860000Y-87060000D01*
X133540000Y-93000000D02*
X132750000Y-92210000D01*
X135730000Y-93000000D02*
X133540000Y-93000000D01*
X135730000Y-93000000D02*
X135820000Y-93000000D01*
D44*
%TO.N,/RP2350A/USB_D-*%
X136120000Y-91150000D02*
X135920000Y-91350000D01*
X133365000Y-91350000D02*
X133275000Y-91440000D01*
X135900000Y-90350000D02*
X136120000Y-90570000D01*
X135920000Y-91350000D02*
X135120000Y-91350000D01*
X136120000Y-90570000D02*
X136120000Y-91150000D01*
X135120000Y-90350000D02*
X135900000Y-90350000D01*
X135120000Y-91350000D02*
X133365000Y-91350000D01*
%TO.N,/RP2350A/USB_D+*%
X133275000Y-90540000D02*
X133275000Y-90225000D01*
X133275000Y-90540000D02*
X133290000Y-90540000D01*
X133275000Y-90225000D02*
X133650000Y-89850000D01*
X123681000Y-90551000D02*
X123570000Y-90440000D01*
X133290000Y-90540000D02*
X133600000Y-90850000D01*
X133650000Y-89850000D02*
X135120000Y-89850000D01*
X133600000Y-90850000D02*
X135120000Y-90850000D01*
D43*
%TO.N,/RP2350A/QSPI_SS*%
X121642500Y-87747500D02*
X122050000Y-87340000D01*
X123220000Y-87330000D02*
X123200000Y-87350000D01*
X122050000Y-87340000D02*
X123560000Y-87340000D01*
X124870000Y-86350000D02*
X124870000Y-86640000D01*
X120937500Y-87747500D02*
X121642500Y-87747500D01*
X124880000Y-86240000D02*
X124840000Y-86280000D01*
X124870000Y-86640000D02*
X124180000Y-87330000D01*
X124180000Y-87330000D02*
X123220000Y-87330000D01*
D44*
%TO.N,/RP2350A/USB_D_R+*%
X121990000Y-90440000D02*
X122550000Y-90440000D01*
X120937500Y-90947500D02*
X121482500Y-90947500D01*
X121482500Y-90947500D02*
X121990000Y-90440000D01*
%TO.N,/RP2350A/USB_D_R-*%
X122360000Y-91440000D02*
X122550000Y-91440000D01*
X121928582Y-91347500D02*
X121931082Y-91350000D01*
X121931082Y-91350000D02*
X122270000Y-91350000D01*
X122270000Y-91350000D02*
X122360000Y-91440000D01*
X120937500Y-91347500D02*
X121928582Y-91347500D01*
D43*
%TO.N,/RP2350A/~{USB_BOOT}*%
X124190000Y-85330000D02*
X124180000Y-85340000D01*
X127650000Y-94310000D02*
X127680000Y-94310000D01*
X124870000Y-85330000D02*
X124190000Y-85330000D01*
%TO.N,D9*%
X113196032Y-84481000D02*
X114267032Y-85552000D01*
X106750000Y-83110000D02*
X108121000Y-84481000D01*
X108121000Y-84481000D02*
X113196032Y-84481000D01*
X114714140Y-85552000D02*
X115500000Y-86337860D01*
X114267032Y-85552000D02*
X114714140Y-85552000D01*
X115500000Y-86337860D02*
X115500000Y-87110000D01*
%TO.N,D4*%
X117875000Y-86050000D02*
X117900000Y-86075000D01*
X117900000Y-86075000D02*
X117900000Y-87110000D01*
%TO.N,D3*%
X117820386Y-83110000D02*
X116910000Y-83110000D01*
X118700000Y-87110000D02*
X118700000Y-86430000D01*
X118890000Y-86240000D02*
X118890000Y-84179614D01*
X118700000Y-86430000D02*
X118890000Y-86240000D01*
X118890000Y-84179614D02*
X117820386Y-83110000D01*
%TO.N,D1*%
X119500000Y-86380000D02*
X121800000Y-84080000D01*
X133850000Y-83110000D02*
X134690000Y-83110000D01*
X132880000Y-84080000D02*
X133850000Y-83110000D01*
X121800000Y-84080000D02*
X132880000Y-84080000D01*
X119500000Y-87110000D02*
X119500000Y-86380000D01*
%TO.N,D7*%
X116700000Y-85300000D02*
X116450000Y-85050000D01*
X111750000Y-83050000D02*
X111760000Y-83060000D01*
X116450000Y-85050000D02*
X114500000Y-85050000D01*
X116700000Y-87110000D02*
X116700000Y-85300000D01*
X114500000Y-85050000D02*
X112560000Y-83110000D01*
X112560000Y-83110000D02*
X111830000Y-83110000D01*
%TO.N,D0*%
X119900000Y-87110000D02*
X119900000Y-86350000D01*
X119900000Y-86350000D02*
X121919000Y-84331000D01*
X132983968Y-84331000D02*
X133044968Y-84270000D01*
X121919000Y-84331000D02*
X132983968Y-84331000D01*
X133044968Y-84270000D02*
X133255685Y-84270001D01*
%TO.N,D2*%
X119165032Y-86360000D02*
X119220000Y-86305032D01*
X119100000Y-87110000D02*
X119100000Y-86420000D01*
X119220000Y-86305032D02*
X119220000Y-83340000D01*
X119220000Y-83340000D02*
X119450000Y-83110000D01*
X119100000Y-86420000D02*
X119160000Y-86360000D01*
X119160000Y-86360000D02*
X119165032Y-86360000D01*
%TO.N,D8*%
X115900000Y-87110000D02*
X115900000Y-86382892D01*
X110410000Y-84230000D02*
X109290000Y-83110000D01*
X115900000Y-86382892D02*
X114818108Y-85301000D01*
X113300000Y-84230000D02*
X110410000Y-84230000D01*
X114818108Y-85301000D02*
X114371000Y-85301000D01*
X114371000Y-85301000D02*
X113300000Y-84230000D01*
%TO.N,D5*%
X117500000Y-86360000D02*
X117500000Y-87110000D01*
X117430000Y-86290000D02*
X117500000Y-86360000D01*
X117705000Y-85480000D02*
X117430000Y-85755000D01*
X121990000Y-83110000D02*
X121696446Y-83110000D01*
X117430000Y-85755000D02*
X117430000Y-86290000D01*
%TO.N,D6*%
X117100000Y-84879228D02*
X115330772Y-83110000D01*
X115330772Y-83110000D02*
X114370000Y-83110000D01*
X117100000Y-87110000D02*
X117100000Y-84879228D01*
%TO.N,D13*%
X111884777Y-86877899D02*
X112528607Y-86877899D01*
X113308000Y-87998000D02*
X113457500Y-88147500D01*
X113457500Y-88147500D02*
X114062500Y-88147500D01*
X113308000Y-87657292D02*
X113308000Y-87998000D01*
X112528607Y-86877899D02*
X113308000Y-87657292D01*
%TO.N,/RP2350A/QSPI_SD0*%
X124500000Y-88850000D02*
X124720000Y-89070000D01*
X121862500Y-88947500D02*
X122060000Y-88750000D01*
X125480000Y-89070000D02*
X125700000Y-88850000D01*
X124720000Y-89070000D02*
X125480000Y-89070000D01*
X125700000Y-88850000D02*
X126050000Y-88850000D01*
X120937500Y-88947500D02*
X121862500Y-88947500D01*
%TO.N,A3*%
X119500000Y-93985000D02*
X119500000Y-95405032D01*
X121634000Y-96064000D02*
X123920000Y-98350000D01*
X119500000Y-95405032D02*
X120158968Y-96064000D01*
X120158968Y-96064000D02*
X121634000Y-96064000D01*
X123920000Y-98350000D02*
X124530000Y-98350000D01*
%TO.N,A1*%
X118700000Y-93985000D02*
X118700000Y-97600000D01*
X118700000Y-97600000D02*
X119450000Y-98350000D01*
%TO.N,A2*%
X119100000Y-96080000D02*
X121370000Y-98350000D01*
X121370000Y-98350000D02*
X121990000Y-98350000D01*
X119100000Y-93985000D02*
X119100000Y-96080000D01*
%TO.N,A0*%
X118449000Y-94749000D02*
X118449000Y-97551000D01*
X118300000Y-94600000D02*
X118449000Y-94749000D01*
X118300000Y-93985000D02*
X118300000Y-94600000D01*
X117650000Y-98350000D02*
X116910000Y-98350000D01*
X118449000Y-97551000D02*
X117650000Y-98350000D01*
%TO.N,D15*%
X112075228Y-87684000D02*
X112624772Y-87684000D01*
X112624772Y-87684000D02*
X112806000Y-87865228D01*
X112806000Y-88276000D02*
X113477500Y-88947500D01*
X111975165Y-87784063D02*
X112075228Y-87684000D01*
X111870001Y-87678899D02*
X111975165Y-87784063D01*
X112806000Y-87865228D02*
X112806000Y-88276000D01*
X113477500Y-88947500D02*
X114062500Y-88947500D01*
%TO.N,D14*%
X113057000Y-87761260D02*
X113057000Y-88172032D01*
X111702901Y-87278899D02*
X111703901Y-87277899D01*
X112573639Y-87277899D02*
X113057000Y-87761260D01*
X113432468Y-88547500D02*
X114062500Y-88547500D01*
X113057000Y-88172032D02*
X113432468Y-88547500D01*
X111703901Y-87277899D02*
X112573639Y-87277899D01*
X111390000Y-87278899D02*
X111702901Y-87278899D01*
%TO.N,RX2*%
X117100000Y-93985000D02*
X117100000Y-94690000D01*
X110640032Y-97320000D02*
X109495000Y-97320000D01*
X117100000Y-94690000D02*
X114469000Y-97321000D01*
X114469000Y-97321000D02*
X110641032Y-97321000D01*
X110641032Y-97321000D02*
X110640032Y-97320000D01*
X109495000Y-97320000D02*
X107425000Y-95250000D01*
X107425000Y-95250000D02*
X107425000Y-94950000D01*
%TO.N,TX2*%
X114365032Y-97070000D02*
X110745000Y-97070000D01*
X116700000Y-94735032D02*
X114365032Y-97070000D01*
X116700000Y-93985000D02*
X116700000Y-94735032D01*
X110745000Y-97070000D02*
X108900000Y-95225000D01*
X108900000Y-95225000D02*
X108900000Y-95050000D01*
X108900000Y-95050000D02*
X108920000Y-95030000D01*
%TO.N,RST*%
X129130000Y-98350000D02*
X129610000Y-98350000D01*
%TO.N,/RP2350A/QSPI_SCLK*%
X122234689Y-89347500D02*
X120937500Y-89347500D01*
X125570000Y-88460000D02*
X125680000Y-88350000D01*
X122410000Y-89223090D02*
X122359099Y-89223090D01*
X125680000Y-88350000D02*
X126050000Y-88350000D01*
X122359099Y-89223090D02*
X122234689Y-89347500D01*
%TO.N,/RP2350A/QSPI_SD3*%
X122774315Y-88749999D02*
X122810000Y-88785684D01*
X126040000Y-87840000D02*
X126050000Y-87850000D01*
X121634228Y-89640000D02*
X121526728Y-89747500D01*
X122810000Y-88785684D02*
X122810000Y-89419678D01*
X125580000Y-87840000D02*
X126040000Y-87840000D01*
X122810000Y-89419678D02*
X122589678Y-89640000D01*
X122589678Y-89640000D02*
X121634228Y-89640000D01*
X121526728Y-89747500D02*
X120937500Y-89747500D01*
D46*
%TO.N,VIN*%
X131650000Y-89090000D02*
X130740000Y-88180000D01*
X130060000Y-85560000D02*
X128560000Y-87060000D01*
X129510000Y-88170000D02*
X129410000Y-88170000D01*
X130140000Y-88170000D02*
X130730000Y-88170000D01*
X129510000Y-88170000D02*
X130140000Y-88170000D01*
X130730000Y-88170000D02*
X130740000Y-88180000D01*
X131650000Y-89410000D02*
X131650000Y-89090000D01*
X128560000Y-87320000D02*
X128560000Y-87060000D01*
X129410000Y-88170000D02*
X128560000Y-87320000D01*
X130060000Y-85300000D02*
X130060000Y-85560000D01*
D43*
%TO.N,/RP2350A/QSPI_SD2*%
X120937500Y-88547500D02*
X121662500Y-88547500D01*
X121662500Y-88547500D02*
X121860000Y-88350000D01*
X121860000Y-88350000D02*
X123200000Y-88350000D01*
%TO.N,Net-(J3-CC2)*%
X133280000Y-86920000D02*
X133280000Y-88570000D01*
X133570000Y-88860000D02*
X135110000Y-88860000D01*
X133280000Y-88570000D02*
X133570000Y-88860000D01*
X135110000Y-88860000D02*
X135120000Y-88850000D01*
%TO.N,Net-(J3-CC1)*%
X133958784Y-92061216D02*
X134170000Y-91850000D01*
X134170000Y-91850000D02*
X135120000Y-91850000D01*
X133343678Y-92061216D02*
X133958784Y-92061216D01*
D44*
%TO.N,Net-(U1-VREG_AVDD)*%
X123550000Y-94800000D02*
X124540000Y-94800000D01*
X122360000Y-94290000D02*
X123150000Y-94290000D01*
X120937500Y-93347500D02*
X121417500Y-93347500D01*
X123550000Y-94690000D02*
X123550000Y-94800000D01*
X121417500Y-93347500D02*
X122360000Y-94290000D01*
X123150000Y-94290000D02*
X123550000Y-94690000D01*
D43*
%TO.N,/RP2350A/QSPI_SD1*%
X120937500Y-88147500D02*
X121707532Y-88147500D01*
X121707532Y-88147500D02*
X122015032Y-87840000D01*
X122015032Y-87840000D02*
X123560000Y-87840000D01*
%TD*%
%TA.AperFunction,Conductor*%
%TO.N,GND*%
G36*
X119544503Y-95839150D02*
G01*
X120002909Y-96297557D01*
X120032563Y-96309839D01*
X120032565Y-96309841D01*
X120032566Y-96309841D01*
X120058632Y-96320638D01*
X120104168Y-96339500D01*
X120451000Y-96339500D01*
X120465912Y-96344345D01*
X120481593Y-96344345D01*
X120494278Y-96353561D01*
X120509191Y-96358407D01*
X120518407Y-96371092D01*
X120531093Y-96380309D01*
X120535938Y-96395221D01*
X120545155Y-96407907D01*
X120546518Y-96416517D01*
X120550001Y-96420000D01*
X121559377Y-96420000D01*
X121566974Y-96422468D01*
X121574864Y-96421219D01*
X121595519Y-96431743D01*
X121617568Y-96438907D01*
X121629381Y-96448996D01*
X121631381Y-96450996D01*
X121659158Y-96505513D01*
X121654572Y-96534468D01*
X121699593Y-96534468D01*
X121739004Y-96558619D01*
X122442267Y-97261882D01*
X122470044Y-97316399D01*
X122460473Y-97376831D01*
X122417208Y-97420096D01*
X122356776Y-97429667D01*
X122334378Y-97423350D01*
X122278160Y-97400064D01*
X122087302Y-97362100D01*
X122087300Y-97362100D01*
X121892700Y-97362100D01*
X121892697Y-97362100D01*
X121701841Y-97400063D01*
X121522055Y-97474533D01*
X121522046Y-97474537D01*
X121360250Y-97582648D01*
X121360246Y-97582651D01*
X121246261Y-97696637D01*
X121191744Y-97724414D01*
X121131312Y-97714843D01*
X121106253Y-97696637D01*
X120029617Y-96620001D01*
X120550000Y-96620001D01*
X120550000Y-96699838D01*
X120556519Y-96749354D01*
X120556521Y-96749361D01*
X120607190Y-96858021D01*
X120691978Y-96942809D01*
X120800638Y-96993478D01*
X120800645Y-96993480D01*
X120850161Y-97000000D01*
X120959999Y-97000000D01*
X120960000Y-96999999D01*
X120960000Y-96620001D01*
X121160000Y-96620001D01*
X121160000Y-96999999D01*
X121160001Y-97000000D01*
X121269838Y-97000000D01*
X121319354Y-96993480D01*
X121319361Y-96993478D01*
X121428021Y-96942809D01*
X121512809Y-96858021D01*
X121563478Y-96749361D01*
X121563480Y-96749354D01*
X121570000Y-96699838D01*
X121570000Y-96628623D01*
X121573768Y-96617025D01*
X121561377Y-96620000D01*
X121160001Y-96620000D01*
X121160000Y-96620001D01*
X120960000Y-96620001D01*
X120959999Y-96620000D01*
X120550001Y-96620000D01*
X120550000Y-96620001D01*
X120029617Y-96620001D01*
X119404496Y-95994880D01*
X119400869Y-95987762D01*
X119394407Y-95983067D01*
X119387243Y-95961018D01*
X119376719Y-95940363D01*
X119375500Y-95924876D01*
X119375500Y-95909155D01*
X119394407Y-95850964D01*
X119443907Y-95815000D01*
X119505093Y-95815000D01*
X119544503Y-95839150D01*
G37*
%TD.AperFunction*%
%TA.AperFunction,Conductor*%
G36*
X121310212Y-93666907D02*
G01*
X121322025Y-93676996D01*
X122090685Y-94445656D01*
X122118462Y-94500173D01*
X122116385Y-94532987D01*
X122117508Y-94533135D01*
X122110000Y-94590161D01*
X122110000Y-94699999D01*
X122110001Y-94700000D01*
X122491000Y-94700000D01*
X122505912Y-94704845D01*
X122521593Y-94704845D01*
X122534278Y-94714061D01*
X122549191Y-94718907D01*
X122558407Y-94731592D01*
X122571093Y-94740809D01*
X122575938Y-94755721D01*
X122585155Y-94768407D01*
X122590000Y-94799000D01*
X122590000Y-94800000D01*
X122591000Y-94800000D01*
X122649191Y-94818907D01*
X122685155Y-94868407D01*
X122690000Y-94899000D01*
X122690000Y-95309999D01*
X122690001Y-95310000D01*
X122769838Y-95310000D01*
X122819354Y-95303480D01*
X122819361Y-95303478D01*
X122928021Y-95252809D01*
X122999642Y-95181189D01*
X123054159Y-95153412D01*
X123114591Y-95162983D01*
X123139646Y-95181186D01*
X123211684Y-95253224D01*
X123320513Y-95303972D01*
X123370099Y-95310500D01*
X123729900Y-95310499D01*
X123779487Y-95303972D01*
X123779488Y-95303972D01*
X123865258Y-95263976D01*
X123888316Y-95253224D01*
X123973224Y-95168316D01*
X123973224Y-95168314D01*
X123974637Y-95166902D01*
X124029153Y-95139124D01*
X124089586Y-95148695D01*
X124119441Y-95174648D01*
X124119811Y-95174279D01*
X124125095Y-95179563D01*
X124125738Y-95180122D01*
X124125934Y-95180402D01*
X124125935Y-95180404D01*
X124209596Y-95264065D01*
X124209597Y-95264065D01*
X124209598Y-95264066D01*
X124316824Y-95314067D01*
X124316825Y-95314067D01*
X124316827Y-95314068D01*
X124365684Y-95320500D01*
X124365685Y-95320500D01*
X124714314Y-95320500D01*
X124714316Y-95320500D01*
X124763173Y-95314068D01*
X124870404Y-95264065D01*
X124940498Y-95193970D01*
X124995013Y-95166195D01*
X125055445Y-95175766D01*
X125098710Y-95219031D01*
X125109500Y-95263976D01*
X125109500Y-95770500D01*
X125090593Y-95828691D01*
X125041093Y-95864655D01*
X125010500Y-95869500D01*
X122827612Y-95869500D01*
X122769421Y-95850593D01*
X122757608Y-95840504D01*
X122396108Y-95479004D01*
X122368331Y-95424487D01*
X122377902Y-95364055D01*
X122421167Y-95320790D01*
X122466112Y-95310000D01*
X122489999Y-95310000D01*
X122490000Y-95309999D01*
X122490000Y-94900000D01*
X122110001Y-94900000D01*
X122110000Y-94900001D01*
X122110000Y-95013081D01*
X122108598Y-95013081D01*
X122094799Y-95067335D01*
X122047743Y-95106442D01*
X121986688Y-95110422D01*
X121985470Y-95110104D01*
X121945894Y-95099500D01*
X121945892Y-95099500D01*
X121814108Y-95099500D01*
X121743460Y-95118430D01*
X121686809Y-95133609D01*
X121685645Y-95134092D01*
X121678877Y-95136609D01*
X121676152Y-95137510D01*
X121666113Y-95140201D01*
X121663546Y-95141682D01*
X121655077Y-95144486D01*
X121649009Y-95144519D01*
X121623971Y-95149500D01*
X121477550Y-95149500D01*
X121435711Y-95140224D01*
X121319489Y-95086028D01*
X121294694Y-95082764D01*
X121269901Y-95079500D01*
X121269899Y-95079500D01*
X120850103Y-95079500D01*
X120850092Y-95079501D01*
X120800515Y-95086027D01*
X120741339Y-95113621D01*
X120680609Y-95121077D01*
X120627096Y-95091413D01*
X120601238Y-95035960D01*
X120600500Y-95023896D01*
X120600500Y-93747000D01*
X120619407Y-93688809D01*
X120668907Y-93652845D01*
X120699500Y-93648000D01*
X120897938Y-93648000D01*
X121252021Y-93648000D01*
X121310212Y-93666907D01*
G37*
%TD.AperFunction*%
%TA.AperFunction,Conductor*%
G36*
X123982370Y-93817399D02*
G01*
X124005852Y-93820179D01*
X124011356Y-93825267D01*
X124018594Y-93827232D01*
X124032330Y-93844655D01*
X124050782Y-93861711D01*
X124056944Y-93874907D01*
X124057306Y-93875860D01*
X124108852Y-94019885D01*
X124123157Y-94049086D01*
X124124782Y-94053361D01*
X124124918Y-94056139D01*
X124129340Y-94069219D01*
X124131133Y-94078230D01*
X124131133Y-94078232D01*
X124165524Y-94129700D01*
X124175448Y-94144552D01*
X124175451Y-94144554D01*
X124212451Y-94169277D01*
X124250330Y-94217327D01*
X124252732Y-94278465D01*
X124227044Y-94322002D01*
X124215941Y-94332976D01*
X124209596Y-94335935D01*
X124125935Y-94419596D01*
X124123907Y-94423944D01*
X124114236Y-94433504D01*
X124094501Y-94443415D01*
X124076867Y-94456702D01*
X124067727Y-94456861D01*
X124059558Y-94460964D01*
X124037769Y-94457382D01*
X124015691Y-94457767D01*
X124006496Y-94452242D01*
X123999183Y-94451040D01*
X123991411Y-94443177D01*
X123974637Y-94433098D01*
X123973224Y-94431685D01*
X123973224Y-94431684D01*
X123888316Y-94346776D01*
X123888314Y-94346775D01*
X123888313Y-94346774D01*
X123779489Y-94296029D01*
X123779488Y-94296028D01*
X123754694Y-94292764D01*
X123729901Y-94289500D01*
X123729900Y-94289500D01*
X123615479Y-94289500D01*
X123557288Y-94270593D01*
X123545476Y-94260504D01*
X123394971Y-94110000D01*
X123870000Y-94110000D01*
X123870000Y-93825000D01*
X123884697Y-93825000D01*
X123884700Y-93824999D01*
X123945091Y-93812987D01*
X123952536Y-93813868D01*
X123959545Y-93811204D01*
X123982370Y-93817399D01*
G37*
%TD.AperFunction*%
%TA.AperFunction,Conductor*%
G36*
X125899147Y-89137210D02*
G01*
X125909203Y-89143104D01*
X125919883Y-89150240D01*
X125978207Y-89161841D01*
X125996588Y-89165498D01*
X125996589Y-89165498D01*
X125996599Y-89165500D01*
X126823400Y-89165499D01*
X126856188Y-89158977D01*
X126916946Y-89166168D01*
X126961877Y-89207701D01*
X126974500Y-89256075D01*
X126974500Y-89694308D01*
X126996693Y-89777136D01*
X126996695Y-89777141D01*
X126998562Y-89784108D01*
X127005201Y-89808887D01*
X127025759Y-89844495D01*
X127028041Y-89849782D01*
X127030378Y-89874783D01*
X127035601Y-89899353D01*
X127033255Y-89905566D01*
X127033736Y-89910702D01*
X127027078Y-89921933D01*
X127017884Y-89946293D01*
X126991817Y-89983030D01*
X126991817Y-89983031D01*
X126979977Y-90011617D01*
X126971330Y-90032495D01*
X126970143Y-90035360D01*
X126954500Y-90113999D01*
X126954500Y-91686000D01*
X126970143Y-91764642D01*
X126991815Y-91816964D01*
X127025831Y-91871102D01*
X127028445Y-91875261D01*
X127103033Y-91928183D01*
X127155359Y-91949857D01*
X127234000Y-91965500D01*
X127616554Y-91965500D01*
X127638583Y-91967982D01*
X127700000Y-91982000D01*
X128820500Y-91982000D01*
X128878691Y-92000907D01*
X128914655Y-92050407D01*
X128919500Y-92081000D01*
X128919500Y-92342388D01*
X128900593Y-92400579D01*
X128890504Y-92412391D01*
X128432393Y-92870503D01*
X128377876Y-92898281D01*
X128362389Y-92899500D01*
X127130691Y-92899500D01*
X127016114Y-92930201D01*
X126924458Y-92983118D01*
X126913383Y-92989512D01*
X126464503Y-93438392D01*
X126409987Y-93466169D01*
X126349555Y-93456598D01*
X126306290Y-93413333D01*
X126295500Y-93368388D01*
X126295500Y-92824501D01*
X126295500Y-92824500D01*
X126279857Y-92745859D01*
X126258183Y-92693533D01*
X126245899Y-92673983D01*
X126235674Y-92657709D01*
X126220500Y-92605039D01*
X126220500Y-91880253D01*
X126220498Y-91880241D01*
X126217598Y-91865663D01*
X126208867Y-91821769D01*
X126164552Y-91755448D01*
X126164548Y-91755445D01*
X126098233Y-91711134D01*
X126098231Y-91711133D01*
X126098228Y-91711132D01*
X126098227Y-91711132D01*
X126039758Y-91699501D01*
X126039748Y-91699500D01*
X124300252Y-91699500D01*
X124300251Y-91699500D01*
X124300241Y-91699501D01*
X124241772Y-91711132D01*
X124241766Y-91711134D01*
X124194502Y-91742716D01*
X124181241Y-91746456D01*
X124170093Y-91754556D01*
X124152523Y-91754556D01*
X124135614Y-91759325D01*
X124122687Y-91754556D01*
X124108907Y-91754556D01*
X124094692Y-91744228D01*
X124078210Y-91738148D01*
X124070555Y-91726691D01*
X124059407Y-91718592D01*
X124053977Y-91701881D01*
X124044217Y-91687274D01*
X124040500Y-91660401D01*
X124040500Y-91630888D01*
X124043873Y-91605265D01*
X124054528Y-91565500D01*
X124070500Y-91505892D01*
X124070500Y-91374108D01*
X124043873Y-91274732D01*
X124040500Y-91249110D01*
X124040500Y-91215685D01*
X124038326Y-91199174D01*
X124034068Y-91166827D01*
X124033356Y-91165301D01*
X123984066Y-91059598D01*
X123984065Y-91059597D01*
X123984065Y-91059596D01*
X123934470Y-91010001D01*
X123906695Y-90955487D01*
X123916266Y-90895055D01*
X123934469Y-90869999D01*
X123984065Y-90820404D01*
X124034068Y-90713173D01*
X124040500Y-90664316D01*
X124040500Y-90630888D01*
X124043873Y-90605265D01*
X124052842Y-90571792D01*
X124070500Y-90505892D01*
X124070500Y-90425429D01*
X124089407Y-90367238D01*
X124138907Y-90331274D01*
X124200093Y-90331274D01*
X124211339Y-90335705D01*
X124250510Y-90353971D01*
X124250511Y-90353971D01*
X124250513Y-90353972D01*
X124300099Y-90360500D01*
X124659900Y-90360499D01*
X124709487Y-90353972D01*
X124709488Y-90353972D01*
X124768137Y-90326622D01*
X124818316Y-90303224D01*
X124890352Y-90231187D01*
X124944867Y-90203412D01*
X125005299Y-90212983D01*
X125030358Y-90231189D01*
X125101978Y-90302809D01*
X125210638Y-90353478D01*
X125210645Y-90353480D01*
X125260161Y-90360000D01*
X125339999Y-90360000D01*
X125340000Y-90359999D01*
X125540000Y-90359999D01*
X125540001Y-90360000D01*
X125619838Y-90360000D01*
X125669354Y-90353480D01*
X125669361Y-90353478D01*
X125778021Y-90302809D01*
X125862809Y-90218021D01*
X125913478Y-90109361D01*
X125913480Y-90109354D01*
X125920000Y-90059838D01*
X125920000Y-89950001D01*
X125919999Y-89950000D01*
X125540000Y-89950000D01*
X125540000Y-90359999D01*
X125340000Y-90359999D01*
X125340000Y-89949000D01*
X125344845Y-89934088D01*
X125344845Y-89918407D01*
X125354061Y-89905721D01*
X125358907Y-89890809D01*
X125371592Y-89881592D01*
X125380809Y-89868907D01*
X125395721Y-89864061D01*
X125408407Y-89854845D01*
X125439000Y-89850000D01*
X125440000Y-89850000D01*
X125440000Y-89849000D01*
X125458907Y-89790809D01*
X125508407Y-89754845D01*
X125539000Y-89750000D01*
X125919999Y-89750000D01*
X125920000Y-89749999D01*
X125920000Y-89640161D01*
X125913480Y-89590645D01*
X125913478Y-89590638D01*
X125862809Y-89481978D01*
X125778021Y-89397190D01*
X125745487Y-89382019D01*
X125744166Y-89380787D01*
X125742382Y-89380505D01*
X125721904Y-89360027D01*
X125700739Y-89340290D01*
X125700394Y-89338517D01*
X125699117Y-89337240D01*
X125694588Y-89308646D01*
X125689065Y-89280229D01*
X125689828Y-89278591D01*
X125689546Y-89276808D01*
X125702691Y-89251007D01*
X125714924Y-89224776D01*
X125717295Y-89222319D01*
X125784200Y-89155414D01*
X125838715Y-89127639D01*
X125899147Y-89137210D01*
G37*
%TD.AperFunction*%
%TA.AperFunction,Conductor*%
G36*
X108938180Y-91069407D02*
G01*
X108974144Y-91118907D01*
X108976136Y-91159185D01*
X108978413Y-91159399D01*
X108975000Y-91195788D01*
X108975000Y-91499999D01*
X108975001Y-91500000D01*
X110774998Y-91500000D01*
X110790363Y-91484635D01*
X110844879Y-91456857D01*
X110905311Y-91466428D01*
X110936476Y-91491325D01*
X111018451Y-91589868D01*
X111028191Y-91614276D01*
X111040123Y-91637694D01*
X111039388Y-91642333D01*
X111041129Y-91646696D01*
X111034663Y-91672167D01*
X111030552Y-91698126D01*
X111026742Y-91703368D01*
X111026075Y-91706000D01*
X111022930Y-91708615D01*
X111012346Y-91723184D01*
X110955933Y-91779597D01*
X110955095Y-91780795D01*
X110953638Y-91781892D01*
X110949811Y-91785720D01*
X110949273Y-91785182D01*
X110906230Y-91817617D01*
X110845054Y-91818684D01*
X110794934Y-91783589D01*
X110775015Y-91725736D01*
X110775000Y-91724010D01*
X110775000Y-91700001D01*
X110774999Y-91700000D01*
X108975002Y-91700000D01*
X108975001Y-91700001D01*
X108975001Y-92004203D01*
X108977850Y-92034600D01*
X108977850Y-92034602D01*
X109022654Y-92162647D01*
X109103207Y-92271790D01*
X109103212Y-92271795D01*
X109122249Y-92285845D01*
X109157842Y-92335613D01*
X109157384Y-92396796D01*
X109121051Y-92446026D01*
X109063461Y-92464500D01*
X108487382Y-92464500D01*
X108429191Y-92445593D01*
X108393227Y-92396093D01*
X108393227Y-92334907D01*
X108428592Y-92285845D01*
X108447150Y-92272150D01*
X108527793Y-92162882D01*
X108572646Y-92034699D01*
X108575499Y-92004273D01*
X108575500Y-92004273D01*
X108575500Y-91195727D01*
X108575499Y-91195725D01*
X108572084Y-91159305D01*
X108574951Y-91159036D01*
X108579885Y-91109692D01*
X108620595Y-91064015D01*
X108670529Y-91050500D01*
X108879989Y-91050500D01*
X108938180Y-91069407D01*
G37*
%TD.AperFunction*%
%TA.AperFunction,Conductor*%
G36*
X123619191Y-88858907D02*
G01*
X123655155Y-88908407D01*
X123660000Y-88939000D01*
X123660000Y-89164999D01*
X123660001Y-89165000D01*
X123973355Y-89165000D01*
X123973356Y-89164999D01*
X124049921Y-89149769D01*
X124071145Y-89135588D01*
X124076274Y-89134141D01*
X124079990Y-89130322D01*
X124105305Y-89125953D01*
X124130033Y-89118979D01*
X124135032Y-89120823D01*
X124140284Y-89119917D01*
X124161835Y-89130711D01*
X124187437Y-89140156D01*
X124195179Y-89146940D01*
X124195656Y-89147404D01*
X124238737Y-89190485D01*
X124241704Y-89192198D01*
X124248604Y-89198910D01*
X124260292Y-89221088D01*
X124274495Y-89241750D01*
X124274338Y-89247739D01*
X124277131Y-89253038D01*
X124273551Y-89277853D01*
X124272896Y-89302915D01*
X124269250Y-89307666D01*
X124268395Y-89313596D01*
X124250912Y-89331567D01*
X124235652Y-89351458D01*
X124226443Y-89356721D01*
X124225731Y-89357454D01*
X124224916Y-89357594D01*
X124221413Y-89359597D01*
X124141686Y-89396774D01*
X124141684Y-89396776D01*
X124056776Y-89481684D01*
X124021030Y-89558341D01*
X123979303Y-89603087D01*
X123931307Y-89615500D01*
X123175251Y-89615500D01*
X123117060Y-89596593D01*
X123081096Y-89547093D01*
X123081096Y-89485907D01*
X123083786Y-89478617D01*
X123085500Y-89474478D01*
X123085500Y-89264000D01*
X123104407Y-89205809D01*
X123153907Y-89169845D01*
X123184500Y-89165000D01*
X123459999Y-89165000D01*
X123460000Y-89164999D01*
X123460000Y-88939000D01*
X123464845Y-88924088D01*
X123464845Y-88908407D01*
X123474061Y-88895721D01*
X123478907Y-88880809D01*
X123491592Y-88871592D01*
X123500809Y-88858907D01*
X123515721Y-88854061D01*
X123528407Y-88844845D01*
X123559000Y-88840000D01*
X123561000Y-88840000D01*
X123619191Y-88858907D01*
G37*
%TD.AperFunction*%
%TA.AperFunction,Conductor*%
G36*
X129848588Y-84625407D02*
G01*
X129884552Y-84674907D01*
X129884552Y-84736093D01*
X129848588Y-84785593D01*
X129832236Y-84795224D01*
X129721686Y-84846774D01*
X129636774Y-84931686D01*
X129586029Y-85040510D01*
X129586028Y-85040511D01*
X129583650Y-85058574D01*
X129579938Y-85086776D01*
X129579500Y-85090100D01*
X129579500Y-85362388D01*
X129560593Y-85420579D01*
X129550504Y-85432392D01*
X128752393Y-86230504D01*
X128697876Y-86258281D01*
X128682389Y-86259500D01*
X128301510Y-86259500D01*
X128201874Y-86275281D01*
X128201867Y-86275283D01*
X128081782Y-86336470D01*
X128081778Y-86336473D01*
X128040506Y-86377745D01*
X128033265Y-86381433D01*
X128028472Y-86387994D01*
X128006526Y-86395057D01*
X127985989Y-86405522D01*
X127977965Y-86404251D01*
X127970230Y-86406741D01*
X127948322Y-86399555D01*
X127925557Y-86395950D01*
X127919812Y-86390205D01*
X127912091Y-86387673D01*
X127900792Y-86371185D01*
X127882293Y-86352685D01*
X127876264Y-86338074D01*
X127875500Y-86335700D01*
X127875500Y-86335691D01*
X127844799Y-86221114D01*
X127836106Y-86206058D01*
X127785490Y-86118387D01*
X127586614Y-85919511D01*
X127586611Y-85919509D01*
X127586609Y-85919507D01*
X127483890Y-85860202D01*
X127483886Y-85860200D01*
X127459672Y-85853712D01*
X127394572Y-85836268D01*
X127343258Y-85802944D01*
X127321332Y-85745823D01*
X127337168Y-85686722D01*
X127350194Y-85670637D01*
X127372808Y-85648023D01*
X127372809Y-85648021D01*
X127423478Y-85539361D01*
X127423480Y-85539354D01*
X127430000Y-85489838D01*
X127430000Y-85410001D01*
X127429999Y-85410000D01*
X126496714Y-85410000D01*
X126479480Y-85418781D01*
X126463993Y-85420000D01*
X125999000Y-85420000D01*
X125984088Y-85415155D01*
X125968407Y-85415155D01*
X125955721Y-85405938D01*
X125940809Y-85401093D01*
X125931592Y-85388407D01*
X125918907Y-85379191D01*
X125914061Y-85364278D01*
X125904845Y-85351593D01*
X125900000Y-85321000D01*
X125900000Y-85320000D01*
X125899000Y-85320000D01*
X125840809Y-85301093D01*
X125804845Y-85251593D01*
X125800000Y-85221000D01*
X125800000Y-84840001D01*
X126000000Y-84840001D01*
X126000000Y-85220000D01*
X126323286Y-85220000D01*
X126340520Y-85211219D01*
X126356007Y-85210000D01*
X126819999Y-85210000D01*
X126820000Y-85209999D01*
X126820000Y-84830001D01*
X127020000Y-84830001D01*
X127020000Y-85209999D01*
X127020001Y-85210000D01*
X127429999Y-85210000D01*
X127430000Y-85209999D01*
X127430000Y-85130161D01*
X127423480Y-85080645D01*
X127423478Y-85080638D01*
X127372809Y-84971978D01*
X127288021Y-84887190D01*
X127179361Y-84836521D01*
X127179354Y-84836519D01*
X127129839Y-84830000D01*
X127020001Y-84830000D01*
X127020000Y-84830001D01*
X126820000Y-84830001D01*
X126819999Y-84830000D01*
X126710161Y-84830000D01*
X126660645Y-84836519D01*
X126660638Y-84836521D01*
X126551978Y-84887190D01*
X126475004Y-84964165D01*
X126420487Y-84991942D01*
X126360055Y-84982371D01*
X126334996Y-84964165D01*
X126268021Y-84897190D01*
X126159361Y-84846521D01*
X126159354Y-84846519D01*
X126109839Y-84840000D01*
X126000001Y-84840000D01*
X126000000Y-84840001D01*
X125800000Y-84840001D01*
X125799999Y-84840000D01*
X125690161Y-84840000D01*
X125640645Y-84846519D01*
X125640638Y-84846521D01*
X125531978Y-84897190D01*
X125531975Y-84897192D01*
X125451821Y-84977346D01*
X125397304Y-85005123D01*
X125336872Y-84995551D01*
X125311817Y-84977348D01*
X125250404Y-84915935D01*
X125250402Y-84915934D01*
X125250401Y-84915933D01*
X125143175Y-84865932D01*
X125110601Y-84861644D01*
X125094316Y-84859500D01*
X124645684Y-84859500D01*
X124629398Y-84861644D01*
X124596825Y-84865932D01*
X124596824Y-84865932D01*
X124489598Y-84915933D01*
X124489595Y-84915935D01*
X124472631Y-84932899D01*
X124418114Y-84960675D01*
X124357682Y-84951103D01*
X124353131Y-84948632D01*
X124349256Y-84946395D01*
X124344237Y-84943497D01*
X124236018Y-84914500D01*
X124123982Y-84914500D01*
X124059850Y-84931684D01*
X124015758Y-84943498D01*
X123918739Y-84999513D01*
X123839513Y-85078739D01*
X123783498Y-85175758D01*
X123774323Y-85210000D01*
X123754500Y-85283982D01*
X123754500Y-85396018D01*
X123765327Y-85436425D01*
X123783498Y-85504241D01*
X123839515Y-85601264D01*
X123843466Y-85606413D01*
X123841721Y-85607751D01*
X123865049Y-85653536D01*
X123855478Y-85713968D01*
X123812213Y-85757233D01*
X123754346Y-85767176D01*
X123699840Y-85760000D01*
X123620001Y-85760000D01*
X123620000Y-85760001D01*
X123620000Y-86169999D01*
X123620001Y-86170000D01*
X123999999Y-86170000D01*
X124000000Y-86169999D01*
X124000000Y-86060161D01*
X123993480Y-86010645D01*
X123993478Y-86010638D01*
X123942810Y-85901979D01*
X123939349Y-85897037D01*
X123921457Y-85838526D01*
X123941374Y-85780673D01*
X123991492Y-85745576D01*
X124046063Y-85744622D01*
X124123982Y-85765500D01*
X124123984Y-85765500D01*
X124236016Y-85765500D01*
X124236018Y-85765500D01*
X124344237Y-85736503D01*
X124365806Y-85724049D01*
X124425651Y-85711326D01*
X124469854Y-85727166D01*
X124478221Y-85732690D01*
X124489596Y-85744065D01*
X124509528Y-85753359D01*
X124515621Y-85757382D01*
X124530365Y-85775874D01*
X124547663Y-85792005D01*
X124549093Y-85799362D01*
X124553765Y-85805222D01*
X124554824Y-85828847D01*
X124559337Y-85852066D01*
X124556169Y-85858858D01*
X124556505Y-85866346D01*
X124543472Y-85886084D01*
X124533478Y-85907518D01*
X124525490Y-85913321D01*
X124522794Y-85917406D01*
X124516744Y-85919675D01*
X124502915Y-85929724D01*
X124489598Y-85935933D01*
X124405933Y-86019598D01*
X124355932Y-86126824D01*
X124355932Y-86126825D01*
X124355932Y-86126827D01*
X124349500Y-86175684D01*
X124349500Y-86524316D01*
X124352145Y-86544407D01*
X124355932Y-86573174D01*
X124355932Y-86573175D01*
X124387465Y-86640796D01*
X124394922Y-86701525D01*
X124367745Y-86752637D01*
X124237988Y-86882396D01*
X124121321Y-86999063D01*
X124066804Y-87026840D01*
X124032003Y-87026157D01*
X123973401Y-87014500D01*
X123973400Y-87014500D01*
X123146602Y-87014500D01*
X123146595Y-87014501D01*
X123069883Y-87029759D01*
X123069881Y-87029760D01*
X123042862Y-87047815D01*
X122987860Y-87064500D01*
X121995200Y-87064500D01*
X121893942Y-87106443D01*
X121893940Y-87106444D01*
X121893938Y-87106446D01*
X121562598Y-87437785D01*
X121508082Y-87465562D01*
X121462857Y-87460211D01*
X121462793Y-87460535D01*
X121458682Y-87459717D01*
X121454716Y-87459248D01*
X121453230Y-87458632D01*
X121394758Y-87447001D01*
X121394748Y-87447000D01*
X121394747Y-87447000D01*
X120699500Y-87447000D01*
X120641309Y-87428093D01*
X120605345Y-87378593D01*
X120600500Y-87348000D01*
X120600500Y-86729500D01*
X120619407Y-86671309D01*
X120668907Y-86635345D01*
X120699500Y-86630500D01*
X122087953Y-86630500D01*
X122146144Y-86649407D01*
X122157950Y-86659490D01*
X122221684Y-86723224D01*
X122330513Y-86773972D01*
X122380099Y-86780500D01*
X122739900Y-86780499D01*
X122789487Y-86773972D01*
X122789488Y-86773972D01*
X122853824Y-86743971D01*
X122898316Y-86723224D01*
X122970352Y-86651187D01*
X123024867Y-86623412D01*
X123085299Y-86632983D01*
X123110358Y-86651189D01*
X123181978Y-86722809D01*
X123290638Y-86773478D01*
X123290645Y-86773480D01*
X123340161Y-86780000D01*
X123419999Y-86780000D01*
X123420000Y-86779999D01*
X123420000Y-86370001D01*
X123620000Y-86370001D01*
X123620000Y-86779999D01*
X123620001Y-86780000D01*
X123699838Y-86780000D01*
X123749354Y-86773480D01*
X123749361Y-86773478D01*
X123858021Y-86722809D01*
X123942809Y-86638021D01*
X123993478Y-86529361D01*
X123993480Y-86529354D01*
X124000000Y-86479838D01*
X124000000Y-86370001D01*
X123999999Y-86370000D01*
X123620001Y-86370000D01*
X123620000Y-86370001D01*
X123420000Y-86370001D01*
X123420000Y-85760001D01*
X123419999Y-85760000D01*
X123340161Y-85760000D01*
X123290645Y-85766519D01*
X123290638Y-85766521D01*
X123181978Y-85817190D01*
X123110358Y-85888811D01*
X123055841Y-85916588D01*
X122995409Y-85907017D01*
X122970353Y-85888813D01*
X122898316Y-85816776D01*
X122898314Y-85816775D01*
X122898313Y-85816774D01*
X122789489Y-85766029D01*
X122789488Y-85766028D01*
X122772958Y-85763852D01*
X122739901Y-85759500D01*
X122739899Y-85759500D01*
X122380104Y-85759500D01*
X122380092Y-85759501D01*
X122330513Y-85766027D01*
X122330511Y-85766027D01*
X122221686Y-85816774D01*
X122221684Y-85816776D01*
X122136776Y-85901684D01*
X122103827Y-85972341D01*
X122062102Y-86017087D01*
X122014105Y-86029500D01*
X120849123Y-86029500D01*
X120790932Y-86010593D01*
X120754968Y-85961093D01*
X120754968Y-85899907D01*
X120779119Y-85860496D01*
X121324116Y-85315500D01*
X122004120Y-84635496D01*
X122058637Y-84607719D01*
X122074124Y-84606500D01*
X129790397Y-84606500D01*
X129848588Y-84625407D01*
G37*
%TD.AperFunction*%
%TA.AperFunction,Conductor*%
G36*
X113024502Y-86284118D02*
G01*
X113223941Y-86483557D01*
X113241631Y-86490884D01*
X113248960Y-86493920D01*
X113262301Y-86499446D01*
X113325200Y-86525500D01*
X114304180Y-86525500D01*
X114362371Y-86544407D01*
X114398335Y-86593907D01*
X114401277Y-86643816D01*
X114399500Y-86652744D01*
X114399500Y-87348000D01*
X114380593Y-87406191D01*
X114331093Y-87442155D01*
X114300500Y-87447000D01*
X113605244Y-87447000D01*
X113558787Y-87456241D01*
X113498026Y-87449048D01*
X113469471Y-87429147D01*
X112801105Y-86760781D01*
X112773328Y-86706264D01*
X112782899Y-86645832D01*
X112790538Y-86633250D01*
X112794632Y-86627514D01*
X112794636Y-86627511D01*
X112845645Y-86523170D01*
X112855500Y-86455528D01*
X112855500Y-86354122D01*
X112874407Y-86295931D01*
X112923907Y-86259967D01*
X112985093Y-86259967D01*
X113024502Y-86284118D01*
G37*
%TD.AperFunction*%
%TA.AperFunction,Conductor*%
G36*
X117916127Y-83595356D02*
G01*
X118221767Y-83900996D01*
X118249544Y-83955513D01*
X118239973Y-84015945D01*
X118196708Y-84059210D01*
X118151763Y-84070000D01*
X118130161Y-84070000D01*
X118080645Y-84076519D01*
X118080638Y-84076521D01*
X117971978Y-84127190D01*
X117887190Y-84211978D01*
X117836521Y-84320638D01*
X117836519Y-84320645D01*
X117830000Y-84370161D01*
X117830000Y-84449999D01*
X117830001Y-84450000D01*
X118241000Y-84450000D01*
X118255912Y-84454845D01*
X118271593Y-84454845D01*
X118284278Y-84464061D01*
X118299191Y-84468907D01*
X118308407Y-84481592D01*
X118321093Y-84490809D01*
X118325938Y-84505721D01*
X118335155Y-84518407D01*
X118340000Y-84549000D01*
X118340000Y-84551000D01*
X118321093Y-84609191D01*
X118271593Y-84645155D01*
X118241000Y-84650000D01*
X117830001Y-84650000D01*
X117830000Y-84650001D01*
X117830000Y-84729838D01*
X117836519Y-84779354D01*
X117836521Y-84779361D01*
X117887190Y-84888021D01*
X117899529Y-84900360D01*
X117927306Y-84954877D01*
X117917735Y-85015309D01*
X117874470Y-85058574D01*
X117814038Y-85068145D01*
X117803908Y-85065992D01*
X117761018Y-85054500D01*
X117648982Y-85054500D01*
X117558528Y-85078737D01*
X117540759Y-85083498D01*
X117523999Y-85093175D01*
X117464151Y-85105896D01*
X117408255Y-85081009D01*
X117377663Y-85028020D01*
X117375500Y-85007438D01*
X117375500Y-84824428D01*
X117345841Y-84752826D01*
X117345841Y-84752825D01*
X117333558Y-84723172D01*
X117333557Y-84723169D01*
X117116109Y-84505721D01*
X116877292Y-84266903D01*
X116849515Y-84212387D01*
X116859086Y-84151955D01*
X116902351Y-84108690D01*
X116947296Y-84097900D01*
X117007299Y-84097900D01*
X117007300Y-84097900D01*
X117198160Y-84059936D01*
X117377946Y-83985466D01*
X117377949Y-83985463D01*
X117377953Y-83985462D01*
X117452586Y-83935593D01*
X117539750Y-83877352D01*
X117677352Y-83739750D01*
X117763809Y-83610356D01*
X117811857Y-83572479D01*
X117872995Y-83570077D01*
X117916127Y-83595356D01*
G37*
%TD.AperFunction*%
%TA.AperFunction,Conductor*%
G36*
X115396309Y-83565152D02*
G01*
X115757762Y-83926605D01*
X115785539Y-83981122D01*
X115775968Y-84041554D01*
X115732703Y-84084819D01*
X115729597Y-84086333D01*
X115641978Y-84127190D01*
X115557190Y-84211978D01*
X115506521Y-84320638D01*
X115506519Y-84320645D01*
X115500000Y-84370161D01*
X115500000Y-84449999D01*
X115500001Y-84450000D01*
X115911000Y-84450000D01*
X115925912Y-84454845D01*
X115941593Y-84454845D01*
X115954278Y-84464061D01*
X115969191Y-84468907D01*
X115978407Y-84481592D01*
X115991093Y-84490809D01*
X115995938Y-84505721D01*
X116005155Y-84518407D01*
X116010000Y-84549000D01*
X116010000Y-84551000D01*
X115991093Y-84609191D01*
X115941593Y-84645155D01*
X115911000Y-84650000D01*
X115500001Y-84650000D01*
X115500000Y-84650001D01*
X115500000Y-84675500D01*
X115481093Y-84733691D01*
X115431593Y-84769655D01*
X115401000Y-84774500D01*
X114655124Y-84774500D01*
X114596933Y-84755593D01*
X114585120Y-84745504D01*
X114085060Y-84245444D01*
X114057283Y-84190927D01*
X114066854Y-84130495D01*
X114110119Y-84087230D01*
X114170551Y-84077659D01*
X114174332Y-84078333D01*
X114272700Y-84097900D01*
X114272701Y-84097900D01*
X114467299Y-84097900D01*
X114467300Y-84097900D01*
X114658160Y-84059936D01*
X114837946Y-83985466D01*
X114837949Y-83985463D01*
X114837953Y-83985462D01*
X114912586Y-83935593D01*
X114999750Y-83877352D01*
X115137352Y-83739750D01*
X115243991Y-83580153D01*
X115292039Y-83542275D01*
X115353178Y-83539873D01*
X115396309Y-83565152D01*
G37*
%TD.AperFunction*%
%TA.AperFunction,Conductor*%
G36*
X141490691Y-81639407D02*
G01*
X141526655Y-81688907D01*
X141531500Y-81719500D01*
X141531500Y-99620500D01*
X141512593Y-99678691D01*
X141463093Y-99714655D01*
X141432500Y-99719500D01*
X105531500Y-99719500D01*
X105473309Y-99700593D01*
X105437345Y-99651093D01*
X105432500Y-99620500D01*
X105432500Y-98252697D01*
X105762100Y-98252697D01*
X105762100Y-98447302D01*
X105800063Y-98638158D01*
X105874533Y-98817944D01*
X105874537Y-98817953D01*
X105951848Y-98933655D01*
X105982648Y-98979750D01*
X106120250Y-99117352D01*
X106189233Y-99163445D01*
X106282046Y-99225462D01*
X106282052Y-99225464D01*
X106282054Y-99225466D01*
X106461840Y-99299936D01*
X106652700Y-99337900D01*
X106652701Y-99337900D01*
X106847299Y-99337900D01*
X106847300Y-99337900D01*
X107038160Y-99299936D01*
X107217946Y-99225466D01*
X107217949Y-99225463D01*
X107217953Y-99225462D01*
X107264672Y-99194244D01*
X107379750Y-99117352D01*
X107517352Y-98979750D01*
X107594244Y-98864672D01*
X107625462Y-98817953D01*
X107625463Y-98817949D01*
X107625466Y-98817946D01*
X107699936Y-98638160D01*
X107737900Y-98447300D01*
X107737900Y-98252700D01*
X107699936Y-98061840D01*
X107625466Y-97882054D01*
X107625463Y-97882049D01*
X107625462Y-97882046D01*
X107554515Y-97775868D01*
X107517352Y-97720250D01*
X107379750Y-97582648D01*
X107333655Y-97551848D01*
X107217953Y-97474537D01*
X107217944Y-97474533D01*
X107038158Y-97400063D01*
X106847302Y-97362100D01*
X106847300Y-97362100D01*
X106652700Y-97362100D01*
X106652697Y-97362100D01*
X106461841Y-97400063D01*
X106282055Y-97474533D01*
X106282046Y-97474537D01*
X106120250Y-97582648D01*
X106120246Y-97582651D01*
X105982651Y-97720246D01*
X105982648Y-97720250D01*
X105874537Y-97882046D01*
X105874533Y-97882055D01*
X105800063Y-98061841D01*
X105762100Y-98252697D01*
X105432500Y-98252697D01*
X105432500Y-93690001D01*
X110900000Y-93690001D01*
X110900000Y-93799838D01*
X110906519Y-93849354D01*
X110906521Y-93849361D01*
X110957190Y-93958021D01*
X111013861Y-94014692D01*
X111041638Y-94069209D01*
X111032067Y-94129641D01*
X111013861Y-94154700D01*
X110963451Y-94205109D01*
X110911661Y-94316172D01*
X110905000Y-94366774D01*
X110905000Y-94479999D01*
X110905001Y-94480000D01*
X111300000Y-94480000D01*
X111300000Y-94196340D01*
X111281219Y-94159480D01*
X111280000Y-94143993D01*
X111280000Y-93690000D01*
X110900001Y-93690000D01*
X110900000Y-93690001D01*
X105432500Y-93690001D01*
X105432500Y-91330100D01*
X105639500Y-91330100D01*
X105639500Y-91689895D01*
X105639501Y-91689907D01*
X105646027Y-91739486D01*
X105646027Y-91739488D01*
X105696774Y-91848313D01*
X105696775Y-91848314D01*
X105696776Y-91848316D01*
X105781684Y-91933224D01*
X105890513Y-91983972D01*
X105940099Y-91990500D01*
X106359900Y-91990499D01*
X106409487Y-91983972D01*
X106409488Y-91983972D01*
X106477766Y-91952133D01*
X106518316Y-91933224D01*
X106603224Y-91848316D01*
X106603224Y-91848314D01*
X106605496Y-91846043D01*
X106660013Y-91818266D01*
X106720445Y-91827837D01*
X106763710Y-91871102D01*
X106774500Y-91916047D01*
X106774500Y-92004274D01*
X106777353Y-92034694D01*
X106777355Y-92034703D01*
X106822207Y-92162883D01*
X106854745Y-92206971D01*
X106874086Y-92265018D01*
X106855614Y-92323349D01*
X106824590Y-92351494D01*
X106758738Y-92389514D01*
X106679513Y-92468739D01*
X106623498Y-92565758D01*
X106617481Y-92588214D01*
X106594500Y-92673982D01*
X106594500Y-92786018D01*
X106610438Y-92845500D01*
X106623498Y-92894241D01*
X106674812Y-92983118D01*
X106679515Y-92991263D01*
X106758737Y-93070485D01*
X106758739Y-93070486D01*
X106855759Y-93126501D01*
X106855763Y-93126503D01*
X106962275Y-93155042D01*
X107013588Y-93188365D01*
X107032277Y-93225043D01*
X107045679Y-93275059D01*
X107053498Y-93304241D01*
X107097333Y-93380164D01*
X107109515Y-93401263D01*
X107188737Y-93480485D01*
X107205235Y-93490010D01*
X107285759Y-93536501D01*
X107285757Y-93536501D01*
X107285761Y-93536502D01*
X107285763Y-93536503D01*
X107393982Y-93565500D01*
X107393984Y-93565500D01*
X107506016Y-93565500D01*
X107506018Y-93565500D01*
X107614237Y-93536503D01*
X107614239Y-93536501D01*
X107614241Y-93536501D01*
X107646652Y-93517788D01*
X107711263Y-93480485D01*
X107790485Y-93401263D01*
X107839712Y-93316000D01*
X107885181Y-93275059D01*
X107925448Y-93266500D01*
X110802076Y-93266500D01*
X110860267Y-93285407D01*
X110896231Y-93334907D01*
X110900090Y-93376919D01*
X110900212Y-93376927D01*
X110900161Y-93377693D01*
X110900229Y-93378426D01*
X110900000Y-93380164D01*
X110900000Y-93489999D01*
X110900001Y-93490000D01*
X111281000Y-93490000D01*
X111295912Y-93494845D01*
X111311593Y-93494845D01*
X111324278Y-93504061D01*
X111339191Y-93508907D01*
X111348407Y-93521592D01*
X111361093Y-93530809D01*
X111365938Y-93545721D01*
X111375155Y-93558407D01*
X111380000Y-93589000D01*
X111380000Y-93590000D01*
X111381000Y-93590000D01*
X111439191Y-93608907D01*
X111475155Y-93658407D01*
X111480000Y-93689000D01*
X111480000Y-93963659D01*
X111498781Y-94000520D01*
X111500000Y-94016007D01*
X111500000Y-94481000D01*
X111495155Y-94495911D01*
X111495155Y-94511593D01*
X111485938Y-94524278D01*
X111481093Y-94539191D01*
X111468407Y-94548407D01*
X111459191Y-94561093D01*
X111444278Y-94565938D01*
X111431593Y-94575155D01*
X111401000Y-94580000D01*
X111400000Y-94580000D01*
X111400000Y-94581000D01*
X111381093Y-94639191D01*
X111331593Y-94675155D01*
X111301000Y-94680000D01*
X110905001Y-94680000D01*
X110905000Y-94680001D01*
X110905000Y-94793225D01*
X110911661Y-94843827D01*
X110963451Y-94954890D01*
X111012042Y-95003481D01*
X111039819Y-95057998D01*
X111030248Y-95118430D01*
X111012042Y-95143488D01*
X110965935Y-95189595D01*
X110965933Y-95189598D01*
X110915932Y-95296824D01*
X110915932Y-95296825D01*
X110909500Y-95345685D01*
X110909500Y-95794314D01*
X110915932Y-95843174D01*
X110915932Y-95843175D01*
X110965933Y-95950401D01*
X110965934Y-95950402D01*
X110965935Y-95950404D01*
X111049596Y-96034065D01*
X111049597Y-96034065D01*
X111049598Y-96034066D01*
X111156824Y-96084067D01*
X111156825Y-96084067D01*
X111156827Y-96084068D01*
X111205684Y-96090500D01*
X111205685Y-96090500D01*
X111554314Y-96090500D01*
X111554316Y-96090500D01*
X111603173Y-96084068D01*
X111710404Y-96034065D01*
X111794065Y-95950404D01*
X111800275Y-95937085D01*
X111842003Y-95892337D01*
X111902064Y-95880662D01*
X111957517Y-95906519D01*
X111979724Y-95937084D01*
X111985935Y-95950404D01*
X112069596Y-96034065D01*
X112069597Y-96034065D01*
X112069598Y-96034066D01*
X112176824Y-96084067D01*
X112176825Y-96084067D01*
X112176827Y-96084068D01*
X112225684Y-96090500D01*
X112225685Y-96090500D01*
X112574314Y-96090500D01*
X112574316Y-96090500D01*
X112623173Y-96084068D01*
X112730404Y-96034065D01*
X112814065Y-95950404D01*
X112864068Y-95843173D01*
X112870500Y-95794316D01*
X112870500Y-95650123D01*
X112889407Y-95591932D01*
X112899496Y-95580119D01*
X113555120Y-94924496D01*
X113609637Y-94896719D01*
X113625124Y-94895500D01*
X114119799Y-94895500D01*
X114119800Y-94895500D01*
X114221058Y-94853557D01*
X114298557Y-94776058D01*
X114298556Y-94776058D01*
X114435539Y-94639075D01*
X114490056Y-94611297D01*
X114524855Y-94611980D01*
X114553638Y-94617706D01*
X114580244Y-94622999D01*
X114580250Y-94622999D01*
X114580252Y-94623000D01*
X114580253Y-94623000D01*
X114819747Y-94623000D01*
X114819748Y-94623000D01*
X114834830Y-94620000D01*
X114880685Y-94610879D01*
X114919315Y-94610879D01*
X114980241Y-94622998D01*
X114980246Y-94622998D01*
X114980252Y-94623000D01*
X114980253Y-94623000D01*
X115219747Y-94623000D01*
X115219748Y-94623000D01*
X115234830Y-94620000D01*
X115280685Y-94610879D01*
X115319315Y-94610879D01*
X115380241Y-94622998D01*
X115380246Y-94622998D01*
X115380252Y-94623000D01*
X115380253Y-94623000D01*
X115619747Y-94623000D01*
X115619748Y-94623000D01*
X115634830Y-94620000D01*
X115680685Y-94610879D01*
X115719315Y-94610879D01*
X115780241Y-94622998D01*
X115780246Y-94622998D01*
X115780252Y-94623000D01*
X115780253Y-94623000D01*
X116019747Y-94623000D01*
X116019748Y-94623000D01*
X116034830Y-94620000D01*
X116080685Y-94610879D01*
X116116415Y-94610346D01*
X116121527Y-94611205D01*
X116121769Y-94611367D01*
X116180252Y-94623000D01*
X116191674Y-94623000D01*
X116199822Y-94624370D01*
X116219977Y-94634882D01*
X116241598Y-94641907D01*
X116246571Y-94648752D01*
X116254073Y-94652665D01*
X116264199Y-94673014D01*
X116277562Y-94691407D01*
X116277562Y-94699868D01*
X116281331Y-94707443D01*
X116277562Y-94729859D01*
X116277562Y-94752593D01*
X116272294Y-94761189D01*
X116271186Y-94767781D01*
X116263834Y-94774993D01*
X116253411Y-94792004D01*
X114279913Y-96765504D01*
X114225396Y-96793281D01*
X114209909Y-96794500D01*
X110900123Y-96794500D01*
X110841932Y-96775593D01*
X110830119Y-96765504D01*
X109644496Y-95579881D01*
X109616719Y-95525364D01*
X109615500Y-95509877D01*
X109615500Y-94555727D01*
X109615499Y-94555725D01*
X109614187Y-94541733D01*
X109612646Y-94525301D01*
X109567793Y-94397118D01*
X109559912Y-94386440D01*
X109487154Y-94287855D01*
X109487152Y-94287853D01*
X109487150Y-94287850D01*
X109487146Y-94287847D01*
X109487144Y-94287845D01*
X109377883Y-94207207D01*
X109249703Y-94162355D01*
X109249694Y-94162353D01*
X109219274Y-94159500D01*
X109219266Y-94159500D01*
X108580734Y-94159500D01*
X108580725Y-94159500D01*
X108550305Y-94162353D01*
X108550296Y-94162355D01*
X108422116Y-94207207D01*
X108312855Y-94287845D01*
X108312845Y-94287855D01*
X108232207Y-94397116D01*
X108197723Y-94495665D01*
X108160657Y-94544346D01*
X108102057Y-94561942D01*
X108044305Y-94541733D01*
X108021964Y-94517969D01*
X107989240Y-94468994D01*
X107955765Y-94418895D01*
X107856105Y-94319235D01*
X107821375Y-94296029D01*
X107738923Y-94240935D01*
X107738914Y-94240931D01*
X107608702Y-94186995D01*
X107470473Y-94159500D01*
X107470471Y-94159500D01*
X107329529Y-94159500D01*
X107329526Y-94159500D01*
X107191297Y-94186995D01*
X107061085Y-94240931D01*
X107061076Y-94240935D01*
X106943896Y-94319234D01*
X106844234Y-94418896D01*
X106765935Y-94536076D01*
X106765931Y-94536085D01*
X106711995Y-94666297D01*
X106684500Y-94804526D01*
X106684500Y-95645473D01*
X106711995Y-95783702D01*
X106765929Y-95913910D01*
X106765935Y-95913923D01*
X106820030Y-95994880D01*
X106844235Y-96031105D01*
X106943895Y-96130765D01*
X106982292Y-96156421D01*
X107061076Y-96209064D01*
X107061082Y-96209066D01*
X107061084Y-96209068D01*
X107191296Y-96263004D01*
X107329529Y-96290500D01*
X107329530Y-96290500D01*
X107470470Y-96290500D01*
X107470471Y-96290500D01*
X107608704Y-96263004D01*
X107738916Y-96209068D01*
X107824546Y-96151851D01*
X107883430Y-96135244D01*
X107940834Y-96156421D01*
X107949549Y-96164164D01*
X109026902Y-97241518D01*
X109054679Y-97296035D01*
X109045108Y-97356467D01*
X109001843Y-97399732D01*
X108994784Y-97402986D01*
X108822055Y-97474533D01*
X108822046Y-97474537D01*
X108660250Y-97582648D01*
X108660246Y-97582651D01*
X108522651Y-97720246D01*
X108522648Y-97720250D01*
X108414537Y-97882046D01*
X108414533Y-97882055D01*
X108340063Y-98061841D01*
X108302100Y-98252697D01*
X108302100Y-98447302D01*
X108340063Y-98638158D01*
X108414533Y-98817944D01*
X108414537Y-98817953D01*
X108491848Y-98933655D01*
X108522648Y-98979750D01*
X108660250Y-99117352D01*
X108729233Y-99163445D01*
X108822046Y-99225462D01*
X108822052Y-99225464D01*
X108822054Y-99225466D01*
X109001840Y-99299936D01*
X109192700Y-99337900D01*
X109192701Y-99337900D01*
X109387299Y-99337900D01*
X109387300Y-99337900D01*
X109578160Y-99299936D01*
X109757946Y-99225466D01*
X109757949Y-99225463D01*
X109757953Y-99225462D01*
X109804672Y-99194244D01*
X109919750Y-99117352D01*
X110057352Y-98979750D01*
X110134244Y-98864672D01*
X110165462Y-98817953D01*
X110165463Y-98817949D01*
X110165466Y-98817946D01*
X110239936Y-98638160D01*
X110277900Y-98447300D01*
X110277900Y-98252700D01*
X110239936Y-98061840D01*
X110165466Y-97882054D01*
X110165463Y-97882049D01*
X110165462Y-97882046D01*
X110094515Y-97775868D01*
X110076896Y-97749500D01*
X110060288Y-97690614D01*
X110081465Y-97633210D01*
X110132339Y-97599217D01*
X110159212Y-97595500D01*
X110571454Y-97595500D01*
X110581604Y-97596500D01*
X110586232Y-97596500D01*
X110960120Y-97596500D01*
X111018311Y-97615407D01*
X111054275Y-97664907D01*
X111054275Y-97726093D01*
X111042436Y-97750497D01*
X111022250Y-97780710D01*
X110954537Y-97882047D01*
X110954533Y-97882055D01*
X110880063Y-98061841D01*
X110842100Y-98252697D01*
X110842100Y-98447302D01*
X110880063Y-98638158D01*
X110954533Y-98817944D01*
X110954537Y-98817953D01*
X111031848Y-98933655D01*
X111062648Y-98979750D01*
X111200250Y-99117352D01*
X111269233Y-99163445D01*
X111362046Y-99225462D01*
X111362052Y-99225464D01*
X111362054Y-99225466D01*
X111541840Y-99299936D01*
X111732700Y-99337900D01*
X111732701Y-99337900D01*
X111927299Y-99337900D01*
X111927300Y-99337900D01*
X112118160Y-99299936D01*
X112297946Y-99225466D01*
X112297949Y-99225463D01*
X112297953Y-99225462D01*
X112344672Y-99194244D01*
X112459750Y-99117352D01*
X112597352Y-98979750D01*
X112674244Y-98864672D01*
X112705462Y-98817953D01*
X112705463Y-98817949D01*
X112705466Y-98817946D01*
X112779936Y-98638160D01*
X112817900Y-98447300D01*
X112817900Y-98252700D01*
X112779936Y-98061840D01*
X112705466Y-97882054D01*
X112705463Y-97882049D01*
X112705462Y-97882047D01*
X112637750Y-97780710D01*
X112617564Y-97750500D01*
X112600956Y-97691614D01*
X112622133Y-97634210D01*
X112673007Y-97600217D01*
X112699880Y-97596500D01*
X113500120Y-97596500D01*
X113558311Y-97615407D01*
X113594275Y-97664907D01*
X113594275Y-97726093D01*
X113582436Y-97750497D01*
X113562250Y-97780710D01*
X113494537Y-97882047D01*
X113494533Y-97882055D01*
X113420063Y-98061841D01*
X113382100Y-98252697D01*
X113382100Y-98447302D01*
X113420063Y-98638158D01*
X113494533Y-98817944D01*
X113494537Y-98817953D01*
X113571848Y-98933655D01*
X113602648Y-98979750D01*
X113740250Y-99117352D01*
X113809233Y-99163445D01*
X113902046Y-99225462D01*
X113902052Y-99225464D01*
X113902054Y-99225466D01*
X114081840Y-99299936D01*
X114272700Y-99337900D01*
X114272701Y-99337900D01*
X114467299Y-99337900D01*
X114467300Y-99337900D01*
X114658160Y-99299936D01*
X114837946Y-99225466D01*
X114837949Y-99225463D01*
X114837953Y-99225462D01*
X114884672Y-99194244D01*
X114999750Y-99117352D01*
X115137352Y-98979750D01*
X115214244Y-98864672D01*
X115245462Y-98817953D01*
X115245463Y-98817949D01*
X115245466Y-98817946D01*
X115319936Y-98638160D01*
X115357900Y-98447300D01*
X115357900Y-98252700D01*
X115319936Y-98061840D01*
X115245466Y-97882054D01*
X115245463Y-97882049D01*
X115245462Y-97882046D01*
X115174515Y-97775868D01*
X115137352Y-97720250D01*
X114999750Y-97582648D01*
X114923245Y-97531529D01*
X114858600Y-97488334D01*
X114820721Y-97440284D01*
X114818319Y-97379146D01*
X114843596Y-97336017D01*
X115529612Y-96650001D01*
X116450000Y-96650001D01*
X116450000Y-96729838D01*
X116456519Y-96779354D01*
X116456521Y-96779361D01*
X116507190Y-96888021D01*
X116591978Y-96972809D01*
X116700638Y-97023478D01*
X116700645Y-97023480D01*
X116750161Y-97030000D01*
X116859999Y-97030000D01*
X116860000Y-97029999D01*
X116860000Y-96650001D01*
X117060000Y-96650001D01*
X117060000Y-97029999D01*
X117060001Y-97030000D01*
X117169838Y-97030000D01*
X117219354Y-97023480D01*
X117219361Y-97023478D01*
X117328021Y-96972809D01*
X117384996Y-96915835D01*
X117439513Y-96888058D01*
X117499945Y-96897629D01*
X117525004Y-96915835D01*
X117581978Y-96972809D01*
X117690638Y-97023478D01*
X117690645Y-97023480D01*
X117740161Y-97030000D01*
X117849999Y-97030000D01*
X117850000Y-97029999D01*
X117850000Y-96650000D01*
X117060001Y-96650000D01*
X117060000Y-96650001D01*
X116860000Y-96650001D01*
X116859999Y-96650000D01*
X116450001Y-96650000D01*
X116450000Y-96650001D01*
X115529612Y-96650001D01*
X116325556Y-95854057D01*
X116380071Y-95826282D01*
X116440503Y-95835853D01*
X116473842Y-95863461D01*
X116480610Y-95872204D01*
X116506776Y-95928316D01*
X116583248Y-96004788D01*
X116587091Y-96009752D01*
X116595408Y-96032925D01*
X116606588Y-96054867D01*
X116605576Y-96061253D01*
X116607761Y-96067340D01*
X116600869Y-96090976D01*
X116597017Y-96115299D01*
X116591605Y-96122747D01*
X116590634Y-96126079D01*
X116587322Y-96128642D01*
X116578811Y-96140358D01*
X116507190Y-96211978D01*
X116456521Y-96320638D01*
X116456519Y-96320645D01*
X116450000Y-96370161D01*
X116450000Y-96449999D01*
X116450001Y-96450000D01*
X117851000Y-96450000D01*
X117865912Y-96454845D01*
X117881593Y-96454845D01*
X117894278Y-96464061D01*
X117909191Y-96468907D01*
X117918407Y-96481592D01*
X117931093Y-96490809D01*
X117935938Y-96505721D01*
X117945155Y-96518407D01*
X117950000Y-96549000D01*
X117950000Y-96550000D01*
X117951000Y-96550000D01*
X118009191Y-96568907D01*
X118045155Y-96618407D01*
X118050000Y-96649000D01*
X118050000Y-97029999D01*
X118050001Y-97030000D01*
X118074500Y-97030000D01*
X118132691Y-97048907D01*
X118168655Y-97098407D01*
X118173500Y-97129000D01*
X118173500Y-97395876D01*
X118154593Y-97454067D01*
X118144503Y-97465880D01*
X117847878Y-97762504D01*
X117793362Y-97790281D01*
X117732930Y-97780710D01*
X117695561Y-97747501D01*
X117677352Y-97720250D01*
X117614173Y-97657071D01*
X117539758Y-97582655D01*
X117539753Y-97582651D01*
X117539750Y-97582648D01*
X117493655Y-97551848D01*
X117377953Y-97474537D01*
X117377944Y-97474533D01*
X117198158Y-97400063D01*
X117007302Y-97362100D01*
X117007300Y-97362100D01*
X116812700Y-97362100D01*
X116812697Y-97362100D01*
X116621841Y-97400063D01*
X116442055Y-97474533D01*
X116442046Y-97474537D01*
X116280250Y-97582648D01*
X116280246Y-97582651D01*
X116142651Y-97720246D01*
X116142648Y-97720250D01*
X116034537Y-97882046D01*
X116034533Y-97882055D01*
X115960063Y-98061841D01*
X115922100Y-98252697D01*
X115922100Y-98447302D01*
X115960063Y-98638158D01*
X116034533Y-98817944D01*
X116034537Y-98817953D01*
X116111848Y-98933655D01*
X116142648Y-98979750D01*
X116280250Y-99117352D01*
X116349233Y-99163445D01*
X116442046Y-99225462D01*
X116442052Y-99225464D01*
X116442054Y-99225466D01*
X116621840Y-99299936D01*
X116812700Y-99337900D01*
X116812701Y-99337900D01*
X117007299Y-99337900D01*
X117007300Y-99337900D01*
X117198160Y-99299936D01*
X117377946Y-99225466D01*
X117377949Y-99225463D01*
X117377953Y-99225462D01*
X117424672Y-99194244D01*
X117539750Y-99117352D01*
X117677352Y-98979750D01*
X117754244Y-98864672D01*
X117785462Y-98817953D01*
X117785463Y-98817949D01*
X117785466Y-98817946D01*
X117859936Y-98638160D01*
X117881012Y-98532197D01*
X117908107Y-98481507D01*
X118312073Y-98077542D01*
X118366589Y-98049765D01*
X118427021Y-98059336D01*
X118470286Y-98102601D01*
X118479857Y-98163033D01*
X118479174Y-98166859D01*
X118462100Y-98252694D01*
X118462100Y-98447302D01*
X118500063Y-98638158D01*
X118574533Y-98817944D01*
X118574537Y-98817953D01*
X118651848Y-98933655D01*
X118682648Y-98979750D01*
X118820250Y-99117352D01*
X118889233Y-99163445D01*
X118982046Y-99225462D01*
X118982052Y-99225464D01*
X118982054Y-99225466D01*
X119161840Y-99299936D01*
X119352700Y-99337900D01*
X119352701Y-99337900D01*
X119547299Y-99337900D01*
X119547300Y-99337900D01*
X119738160Y-99299936D01*
X119917946Y-99225466D01*
X119917949Y-99225463D01*
X119917953Y-99225462D01*
X119964672Y-99194244D01*
X120079750Y-99117352D01*
X120217352Y-98979750D01*
X120294244Y-98864672D01*
X120325462Y-98817953D01*
X120325463Y-98817949D01*
X120325466Y-98817946D01*
X120399936Y-98638160D01*
X120437900Y-98447300D01*
X120437900Y-98252700D01*
X120399936Y-98061840D01*
X120383719Y-98022690D01*
X120378919Y-97961696D01*
X120410888Y-97909527D01*
X120467416Y-97886112D01*
X120526911Y-97900395D01*
X120545188Y-97914803D01*
X120973104Y-98342719D01*
X121000881Y-98397236D01*
X121002100Y-98412723D01*
X121002100Y-98447302D01*
X121040063Y-98638158D01*
X121114533Y-98817944D01*
X121114537Y-98817953D01*
X121191848Y-98933655D01*
X121222648Y-98979750D01*
X121360250Y-99117352D01*
X121429233Y-99163445D01*
X121522046Y-99225462D01*
X121522052Y-99225464D01*
X121522054Y-99225466D01*
X121701840Y-99299936D01*
X121892700Y-99337900D01*
X121892701Y-99337900D01*
X122087299Y-99337900D01*
X122087300Y-99337900D01*
X122278160Y-99299936D01*
X122457946Y-99225466D01*
X122457949Y-99225463D01*
X122457953Y-99225462D01*
X122504672Y-99194244D01*
X122619750Y-99117352D01*
X122757352Y-98979750D01*
X122834244Y-98864672D01*
X122865462Y-98817953D01*
X122865463Y-98817949D01*
X122865466Y-98817946D01*
X122939936Y-98638160D01*
X122977900Y-98447300D01*
X122977900Y-98252700D01*
X122939936Y-98061840D01*
X122916648Y-98005619D01*
X122911848Y-97944625D01*
X122943817Y-97892456D01*
X123000345Y-97869041D01*
X123059840Y-97883324D01*
X123078117Y-97897732D01*
X123513104Y-98332719D01*
X123540881Y-98387236D01*
X123542100Y-98402723D01*
X123542100Y-98447302D01*
X123580063Y-98638158D01*
X123654533Y-98817944D01*
X123654537Y-98817953D01*
X123731848Y-98933655D01*
X123762648Y-98979750D01*
X123900250Y-99117352D01*
X123969233Y-99163445D01*
X124062046Y-99225462D01*
X124062052Y-99225464D01*
X124062054Y-99225466D01*
X124241840Y-99299936D01*
X124432700Y-99337900D01*
X124432701Y-99337900D01*
X124627299Y-99337900D01*
X124627300Y-99337900D01*
X124818160Y-99299936D01*
X124997946Y-99225466D01*
X124997949Y-99225463D01*
X124997953Y-99225462D01*
X125044672Y-99194244D01*
X125159750Y-99117352D01*
X125297352Y-98979750D01*
X125374244Y-98864672D01*
X125405462Y-98817953D01*
X125405463Y-98817949D01*
X125405466Y-98817946D01*
X125479936Y-98638160D01*
X125517900Y-98447300D01*
X125517900Y-98252700D01*
X125479936Y-98061840D01*
X125405466Y-97882054D01*
X125405463Y-97882049D01*
X125405462Y-97882046D01*
X125334515Y-97775868D01*
X125297352Y-97720250D01*
X125159750Y-97582648D01*
X125113655Y-97551848D01*
X124997953Y-97474537D01*
X124997944Y-97474533D01*
X124818158Y-97400063D01*
X124627302Y-97362100D01*
X124627300Y-97362100D01*
X124432700Y-97362100D01*
X124432697Y-97362100D01*
X124241841Y-97400063D01*
X124062055Y-97474533D01*
X124062046Y-97474537D01*
X123900250Y-97582648D01*
X123900240Y-97582656D01*
X123791259Y-97691637D01*
X123736743Y-97719414D01*
X123676311Y-97709842D01*
X123651255Y-97691639D01*
X122899118Y-96939503D01*
X122871342Y-96884987D01*
X122880913Y-96824555D01*
X122924178Y-96781290D01*
X122969123Y-96770500D01*
X125412389Y-96770500D01*
X125470580Y-96789407D01*
X125482393Y-96799496D01*
X126285451Y-97602554D01*
X126313228Y-97657071D01*
X126303657Y-97717503D01*
X126297763Y-97727559D01*
X126194536Y-97882049D01*
X126194533Y-97882055D01*
X126120063Y-98061841D01*
X126082100Y-98252697D01*
X126082100Y-98447302D01*
X126120063Y-98638158D01*
X126194533Y-98817944D01*
X126194537Y-98817953D01*
X126271848Y-98933655D01*
X126302648Y-98979750D01*
X126440250Y-99117352D01*
X126509233Y-99163445D01*
X126602046Y-99225462D01*
X126602052Y-99225464D01*
X126602054Y-99225466D01*
X126781840Y-99299936D01*
X126972700Y-99337900D01*
X126972701Y-99337900D01*
X127167299Y-99337900D01*
X127167300Y-99337900D01*
X127358160Y-99299936D01*
X127537946Y-99225466D01*
X127537949Y-99225463D01*
X127537953Y-99225462D01*
X127584672Y-99194244D01*
X127699750Y-99117352D01*
X127837352Y-98979750D01*
X127914244Y-98864672D01*
X127945462Y-98817953D01*
X127945463Y-98817949D01*
X127945466Y-98817946D01*
X128019936Y-98638160D01*
X128057900Y-98447300D01*
X128057900Y-98252700D01*
X128057899Y-98252697D01*
X128622100Y-98252697D01*
X128622100Y-98447302D01*
X128660063Y-98638158D01*
X128734533Y-98817944D01*
X128734537Y-98817953D01*
X128811848Y-98933655D01*
X128842648Y-98979750D01*
X128980250Y-99117352D01*
X129049233Y-99163445D01*
X129142046Y-99225462D01*
X129142052Y-99225464D01*
X129142054Y-99225466D01*
X129321840Y-99299936D01*
X129512700Y-99337900D01*
X129512701Y-99337900D01*
X129707299Y-99337900D01*
X129707300Y-99337900D01*
X129898160Y-99299936D01*
X130077946Y-99225466D01*
X130077949Y-99225463D01*
X130077953Y-99225462D01*
X130124672Y-99194244D01*
X130239750Y-99117352D01*
X130377352Y-98979750D01*
X130454244Y-98864672D01*
X130485462Y-98817953D01*
X130485463Y-98817949D01*
X130485466Y-98817946D01*
X130559936Y-98638160D01*
X130597900Y-98447300D01*
X130597900Y-98252747D01*
X131162600Y-98252747D01*
X131162600Y-98447252D01*
X131200545Y-98638013D01*
X131200545Y-98638015D01*
X131274975Y-98817706D01*
X131381477Y-98977099D01*
X131763541Y-98595034D01*
X131784149Y-98630727D01*
X131869273Y-98715851D01*
X131904963Y-98736456D01*
X131522899Y-99118521D01*
X131682293Y-99225024D01*
X131861985Y-99299454D01*
X132052747Y-99337399D01*
X132052751Y-99337400D01*
X132247249Y-99337400D01*
X132247252Y-99337399D01*
X132438013Y-99299454D01*
X132438015Y-99299454D01*
X132617705Y-99225024D01*
X132777099Y-99118521D01*
X132395035Y-98736457D01*
X132430727Y-98715851D01*
X132515851Y-98630727D01*
X132536457Y-98595035D01*
X132918521Y-98977099D01*
X133025024Y-98817705D01*
X133099454Y-98638015D01*
X133099454Y-98638013D01*
X133137399Y-98447252D01*
X133137400Y-98447248D01*
X133137400Y-98252750D01*
X133137399Y-98252747D01*
X133137389Y-98252697D01*
X133702100Y-98252697D01*
X133702100Y-98447302D01*
X133740063Y-98638158D01*
X133814533Y-98817944D01*
X133814537Y-98817953D01*
X133891848Y-98933655D01*
X133922648Y-98979750D01*
X134060250Y-99117352D01*
X134129233Y-99163445D01*
X134222046Y-99225462D01*
X134222052Y-99225464D01*
X134222054Y-99225466D01*
X134401840Y-99299936D01*
X134592700Y-99337900D01*
X134592701Y-99337900D01*
X134787299Y-99337900D01*
X134787300Y-99337900D01*
X134978160Y-99299936D01*
X135157946Y-99225466D01*
X135157949Y-99225463D01*
X135157953Y-99225462D01*
X135204672Y-99194244D01*
X135319750Y-99117352D01*
X135457352Y-98979750D01*
X135534244Y-98864672D01*
X135565462Y-98817953D01*
X135565463Y-98817949D01*
X135565466Y-98817946D01*
X135639936Y-98638160D01*
X135677900Y-98447300D01*
X135677900Y-98252700D01*
X135639936Y-98061840D01*
X135565466Y-97882054D01*
X135565463Y-97882049D01*
X135565462Y-97882046D01*
X135494515Y-97775868D01*
X135457352Y-97720250D01*
X135319750Y-97582648D01*
X135273655Y-97551848D01*
X135157953Y-97474537D01*
X135157944Y-97474533D01*
X134978158Y-97400063D01*
X134787302Y-97362100D01*
X134787300Y-97362100D01*
X134592700Y-97362100D01*
X134592697Y-97362100D01*
X134401841Y-97400063D01*
X134222055Y-97474533D01*
X134222046Y-97474537D01*
X134060250Y-97582648D01*
X134060246Y-97582651D01*
X133922651Y-97720246D01*
X133922648Y-97720250D01*
X133814537Y-97882046D01*
X133814533Y-97882055D01*
X133740063Y-98061841D01*
X133702100Y-98252697D01*
X133137389Y-98252697D01*
X133099454Y-98061986D01*
X133099454Y-98061984D01*
X133025024Y-97882293D01*
X132918521Y-97722899D01*
X132536456Y-98104963D01*
X132515851Y-98069273D01*
X132430727Y-97984149D01*
X132395034Y-97963541D01*
X132777099Y-97581477D01*
X132617706Y-97474975D01*
X132438014Y-97400545D01*
X132247252Y-97362600D01*
X132052747Y-97362600D01*
X131861986Y-97400545D01*
X131861984Y-97400545D01*
X131682293Y-97474975D01*
X131522899Y-97581477D01*
X131904964Y-97963542D01*
X131869273Y-97984149D01*
X131784149Y-98069273D01*
X131763542Y-98104964D01*
X131381477Y-97722899D01*
X131274975Y-97882293D01*
X131200545Y-98061984D01*
X131200545Y-98061986D01*
X131162600Y-98252747D01*
X130597900Y-98252747D01*
X130597900Y-98252700D01*
X130559936Y-98061840D01*
X130485466Y-97882054D01*
X130485463Y-97882049D01*
X130485462Y-97882046D01*
X130414515Y-97775868D01*
X130377352Y-97720250D01*
X130239750Y-97582648D01*
X130193655Y-97551848D01*
X130077953Y-97474537D01*
X130077944Y-97474533D01*
X129898158Y-97400063D01*
X129707302Y-97362100D01*
X129707300Y-97362100D01*
X129512700Y-97362100D01*
X129512697Y-97362100D01*
X129321841Y-97400063D01*
X129142055Y-97474533D01*
X129142046Y-97474537D01*
X128980250Y-97582648D01*
X128980246Y-97582651D01*
X128842651Y-97720246D01*
X128842648Y-97720250D01*
X128734537Y-97882046D01*
X128734533Y-97882055D01*
X128660063Y-98061841D01*
X128622100Y-98252697D01*
X128057899Y-98252697D01*
X128019936Y-98061840D01*
X127945466Y-97882054D01*
X127945463Y-97882049D01*
X127945462Y-97882046D01*
X127874515Y-97775868D01*
X127837352Y-97720250D01*
X127699750Y-97582648D01*
X127653655Y-97551848D01*
X127537953Y-97474537D01*
X127537944Y-97474533D01*
X127374658Y-97406897D01*
X127342540Y-97385437D01*
X127111107Y-97154004D01*
X127083330Y-97099487D01*
X127092901Y-97039055D01*
X127136166Y-96995790D01*
X127181111Y-96985000D01*
X127554999Y-96985000D01*
X127555000Y-96984999D01*
X127555000Y-96560001D01*
X127755000Y-96560001D01*
X127755000Y-96984999D01*
X127755001Y-96985000D01*
X128199697Y-96985000D01*
X128199700Y-96984999D01*
X128258036Y-96973396D01*
X128324189Y-96929193D01*
X128324193Y-96929189D01*
X128368396Y-96863036D01*
X128379999Y-96804700D01*
X128380000Y-96804697D01*
X128380000Y-96560001D01*
X131080000Y-96560001D01*
X131080000Y-96804700D01*
X131091603Y-96863036D01*
X131135806Y-96929189D01*
X131135810Y-96929193D01*
X131201963Y-96973396D01*
X131260299Y-96984999D01*
X131260303Y-96985000D01*
X131704999Y-96985000D01*
X131705000Y-96984999D01*
X131705000Y-96560001D01*
X131905000Y-96560001D01*
X131905000Y-96984999D01*
X131905001Y-96985000D01*
X132349697Y-96985000D01*
X132349700Y-96984999D01*
X132408036Y-96973396D01*
X132474189Y-96929193D01*
X132474193Y-96929189D01*
X132518396Y-96863036D01*
X132529999Y-96804700D01*
X132530000Y-96804697D01*
X132530000Y-96560001D01*
X132529999Y-96560000D01*
X131905001Y-96560000D01*
X131905000Y-96560001D01*
X131705000Y-96560001D01*
X131704999Y-96560000D01*
X131080001Y-96560000D01*
X131080000Y-96560001D01*
X128380000Y-96560001D01*
X128379999Y-96560000D01*
X127755001Y-96560000D01*
X127755000Y-96560001D01*
X127555000Y-96560001D01*
X127554999Y-96560000D01*
X126930001Y-96560000D01*
X126930000Y-96560001D01*
X126930000Y-96733889D01*
X126911093Y-96792080D01*
X126861593Y-96828044D01*
X126800407Y-96828044D01*
X126760996Y-96803893D01*
X126447104Y-96490001D01*
X132820001Y-96490001D01*
X132820001Y-96564260D01*
X132826422Y-96613041D01*
X132876349Y-96720109D01*
X132959890Y-96803650D01*
X133066952Y-96853574D01*
X133066959Y-96853576D01*
X133115745Y-96859999D01*
X133240000Y-96859999D01*
X133240000Y-96490001D01*
X133440000Y-96490001D01*
X133440000Y-96859998D01*
X133440001Y-96859999D01*
X133564251Y-96859999D01*
X133564260Y-96859998D01*
X133613041Y-96853577D01*
X133720109Y-96803650D01*
X133803650Y-96720109D01*
X133853574Y-96613047D01*
X133853576Y-96613040D01*
X133860000Y-96564253D01*
X133860000Y-96490001D01*
X133859999Y-96490000D01*
X133440001Y-96490000D01*
X133440000Y-96490001D01*
X133240000Y-96490001D01*
X133239999Y-96490000D01*
X132820002Y-96490000D01*
X132820001Y-96490001D01*
X126447104Y-96490001D01*
X126072402Y-96115299D01*
X126930000Y-96115299D01*
X126930000Y-96359999D01*
X126930001Y-96360000D01*
X127554999Y-96360000D01*
X127555000Y-96359999D01*
X127555000Y-95935001D01*
X127755000Y-95935001D01*
X127755000Y-96359999D01*
X127755001Y-96360000D01*
X128379999Y-96360000D01*
X128380000Y-96359999D01*
X128380000Y-96115299D01*
X131080000Y-96115299D01*
X131080000Y-96359999D01*
X131080001Y-96360000D01*
X131704999Y-96360000D01*
X131705000Y-96359999D01*
X131705000Y-95935001D01*
X131905000Y-95935001D01*
X131905000Y-96359999D01*
X131905001Y-96360000D01*
X132529999Y-96360000D01*
X132530000Y-96359999D01*
X132530000Y-96115299D01*
X132518396Y-96056963D01*
X132474193Y-95990810D01*
X132474189Y-95990806D01*
X132408036Y-95946603D01*
X132349700Y-95935000D01*
X131905001Y-95935000D01*
X131905000Y-95935001D01*
X131705000Y-95935001D01*
X131704999Y-95935000D01*
X131260299Y-95935000D01*
X131201963Y-95946603D01*
X131135810Y-95990806D01*
X131135806Y-95990810D01*
X131091603Y-96056963D01*
X131080000Y-96115299D01*
X128380000Y-96115299D01*
X128368396Y-96056963D01*
X128324193Y-95990810D01*
X128324189Y-95990806D01*
X128258036Y-95946603D01*
X128199700Y-95935000D01*
X127755001Y-95935000D01*
X127755000Y-95935001D01*
X127555000Y-95935001D01*
X127554999Y-95935000D01*
X127110299Y-95935000D01*
X127051963Y-95946603D01*
X126985810Y-95990806D01*
X126985806Y-95990810D01*
X126941603Y-96056963D01*
X126930000Y-96115299D01*
X126072402Y-96115299D01*
X126039496Y-96082393D01*
X126011719Y-96027876D01*
X126010500Y-96012389D01*
X126010500Y-95207611D01*
X126014375Y-95195685D01*
X132819500Y-95195685D01*
X132819500Y-95544314D01*
X132825932Y-95593174D01*
X132825932Y-95593175D01*
X132875933Y-95700401D01*
X132875934Y-95700402D01*
X132875935Y-95700404D01*
X132959596Y-95784065D01*
X132959597Y-95784065D01*
X132959598Y-95784066D01*
X132973507Y-95790552D01*
X133018255Y-95832280D01*
X133029929Y-95892342D01*
X133004071Y-95947794D01*
X132973507Y-95970000D01*
X132959890Y-95976349D01*
X132876349Y-96059890D01*
X132826425Y-96166952D01*
X132826423Y-96166959D01*
X132820000Y-96215746D01*
X132820000Y-96289999D01*
X132820001Y-96290000D01*
X133859998Y-96290000D01*
X133859999Y-96289999D01*
X133859999Y-96215749D01*
X133859998Y-96215739D01*
X133853577Y-96166958D01*
X133803650Y-96059890D01*
X133720111Y-95976351D01*
X133706493Y-95970001D01*
X133661745Y-95928273D01*
X133650070Y-95868212D01*
X133675928Y-95812759D01*
X133706492Y-95790552D01*
X133720404Y-95784065D01*
X133804065Y-95700404D01*
X133854068Y-95593173D01*
X133860500Y-95544316D01*
X133860500Y-95195684D01*
X133854068Y-95146827D01*
X133852976Y-95144486D01*
X133804066Y-95039598D01*
X133804065Y-95039597D01*
X133804065Y-95039596D01*
X133720404Y-94955935D01*
X133720402Y-94955934D01*
X133720401Y-94955933D01*
X133613175Y-94905932D01*
X133580601Y-94901644D01*
X133564316Y-94899500D01*
X133115684Y-94899500D01*
X133099398Y-94901644D01*
X133066825Y-94905932D01*
X133066824Y-94905932D01*
X132959598Y-94955933D01*
X132875933Y-95039598D01*
X132825932Y-95146824D01*
X132825932Y-95146825D01*
X132825580Y-95149500D01*
X132819726Y-95193972D01*
X132819500Y-95195685D01*
X126014375Y-95195685D01*
X126029407Y-95149420D01*
X126039496Y-95137607D01*
X126785496Y-94391607D01*
X126840013Y-94363830D01*
X126900445Y-94373401D01*
X126943710Y-94416666D01*
X126954500Y-94461611D01*
X126954500Y-94654746D01*
X126954501Y-94654758D01*
X126966132Y-94713227D01*
X126966134Y-94713233D01*
X127008113Y-94776058D01*
X127010448Y-94779552D01*
X127076769Y-94823867D01*
X127121231Y-94832711D01*
X127135241Y-94835498D01*
X127135246Y-94835498D01*
X127135252Y-94835500D01*
X127135253Y-94835500D01*
X128224747Y-94835500D01*
X128224748Y-94835500D01*
X128283231Y-94823867D01*
X128349552Y-94779552D01*
X128393867Y-94713231D01*
X128405500Y-94654748D01*
X128405500Y-93965253D01*
X131079500Y-93965253D01*
X131079500Y-94654746D01*
X131079501Y-94654758D01*
X131091132Y-94713227D01*
X131091134Y-94713233D01*
X131133113Y-94776058D01*
X131135448Y-94779552D01*
X131201769Y-94823867D01*
X131246231Y-94832711D01*
X131260241Y-94835498D01*
X131260246Y-94835498D01*
X131260252Y-94835500D01*
X131260253Y-94835500D01*
X132349747Y-94835500D01*
X132349748Y-94835500D01*
X132408231Y-94823867D01*
X132474552Y-94779552D01*
X132518867Y-94713231D01*
X132530500Y-94654748D01*
X132530500Y-93965252D01*
X132518867Y-93906769D01*
X132474552Y-93840448D01*
X132474548Y-93840445D01*
X132408233Y-93796134D01*
X132408231Y-93796133D01*
X132408228Y-93796132D01*
X132408227Y-93796132D01*
X132349758Y-93784501D01*
X132349748Y-93784500D01*
X131260252Y-93784500D01*
X131260251Y-93784500D01*
X131260241Y-93784501D01*
X131201772Y-93796132D01*
X131201766Y-93796134D01*
X131135451Y-93840445D01*
X131135445Y-93840451D01*
X131091134Y-93906766D01*
X131091132Y-93906772D01*
X131079501Y-93965241D01*
X131079500Y-93965253D01*
X128405500Y-93965253D01*
X128405500Y-93965252D01*
X128396100Y-93917998D01*
X128395976Y-93917317D01*
X128399948Y-93887672D01*
X128403453Y-93858055D01*
X128403995Y-93857467D01*
X128404102Y-93856674D01*
X128424720Y-93835048D01*
X128444985Y-93813124D01*
X128445832Y-93812902D01*
X128446322Y-93812389D01*
X128451272Y-93811483D01*
X128493360Y-93800500D01*
X128649307Y-93800500D01*
X128649309Y-93800500D01*
X128746301Y-93774511D01*
X128763887Y-93769799D01*
X128866614Y-93710489D01*
X129730490Y-92846614D01*
X129789799Y-92743886D01*
X129794373Y-92726814D01*
X129810011Y-92668453D01*
X130800000Y-92668453D01*
X130815760Y-92767965D01*
X130815762Y-92767969D01*
X130876881Y-92887921D01*
X130972078Y-92983118D01*
X131092030Y-93044237D01*
X131092029Y-93044237D01*
X131191545Y-93059999D01*
X131549998Y-93059999D01*
X131550000Y-93059998D01*
X131550000Y-92510000D01*
X130800002Y-92510000D01*
X130800001Y-92510001D01*
X130800001Y-92668453D01*
X130800000Y-92668453D01*
X129810011Y-92668453D01*
X129820500Y-92629309D01*
X129820500Y-92081000D01*
X129839407Y-92022809D01*
X129888907Y-91986845D01*
X129919500Y-91982000D01*
X130710940Y-91982000D01*
X130769131Y-92000907D01*
X130805095Y-92050407D01*
X130808721Y-92096488D01*
X130800000Y-92151547D01*
X130800000Y-92309999D01*
X130800001Y-92310000D01*
X131551000Y-92310000D01*
X131565912Y-92314845D01*
X131581593Y-92314845D01*
X131594278Y-92324061D01*
X131609191Y-92328907D01*
X131618407Y-92341592D01*
X131631093Y-92350809D01*
X131635938Y-92365721D01*
X131645155Y-92378407D01*
X131650000Y-92409000D01*
X131650000Y-92410000D01*
X131651000Y-92410000D01*
X131709191Y-92428907D01*
X131745155Y-92478407D01*
X131750000Y-92509000D01*
X131750000Y-93059998D01*
X131750001Y-93059999D01*
X132108453Y-93059999D01*
X132207965Y-93044239D01*
X132207969Y-93044237D01*
X132327921Y-92983118D01*
X132423118Y-92887921D01*
X132484237Y-92767969D01*
X132489028Y-92737724D01*
X132516805Y-92683207D01*
X132571321Y-92655429D01*
X132631753Y-92665000D01*
X132656813Y-92683206D01*
X132942946Y-92969338D01*
X133219518Y-93245910D01*
X133219520Y-93245913D01*
X133294087Y-93320480D01*
X133354245Y-93355212D01*
X133385413Y-93373207D01*
X133487270Y-93400500D01*
X133487272Y-93400501D01*
X133487273Y-93400501D01*
X133598790Y-93400501D01*
X133598806Y-93400500D01*
X134193793Y-93400500D01*
X134251984Y-93419407D01*
X134287948Y-93468907D01*
X134287948Y-93530093D01*
X134282733Y-93542981D01*
X134279912Y-93548750D01*
X134270000Y-93616784D01*
X134270000Y-93699999D01*
X134270001Y-93700000D01*
X135021000Y-93700000D01*
X135035912Y-93704845D01*
X135051593Y-93704845D01*
X135064278Y-93714061D01*
X135079191Y-93718907D01*
X135088407Y-93731592D01*
X135101093Y-93740809D01*
X135105938Y-93755721D01*
X135115155Y-93768407D01*
X135120000Y-93799000D01*
X135120000Y-93800000D01*
X135121000Y-93800000D01*
X135179191Y-93818907D01*
X135215155Y-93868407D01*
X135220000Y-93899000D01*
X135220000Y-94306000D01*
X135201093Y-94364191D01*
X135151593Y-94400155D01*
X135121000Y-94405000D01*
X135119000Y-94405000D01*
X135060809Y-94386093D01*
X135024845Y-94336593D01*
X135020000Y-94306000D01*
X135020000Y-93900000D01*
X134270002Y-93900000D01*
X134270001Y-93900001D01*
X134270001Y-93983216D01*
X134279912Y-94051250D01*
X134331214Y-94156188D01*
X134413812Y-94238786D01*
X134518751Y-94290087D01*
X134586783Y-94299999D01*
X134601036Y-94299999D01*
X134659228Y-94318903D01*
X134695195Y-94368401D01*
X134695198Y-94429586D01*
X134671054Y-94468994D01*
X134666275Y-94473773D01*
X134589666Y-94588428D01*
X134536901Y-94715816D01*
X134536901Y-94715818D01*
X134516177Y-94820000D01*
X134926212Y-94820000D01*
X134910000Y-94880504D01*
X134910000Y-94959496D01*
X134926212Y-95020000D01*
X134516178Y-95020000D01*
X134536901Y-95124181D01*
X134536901Y-95124183D01*
X134589666Y-95251571D01*
X134666271Y-95366220D01*
X134763779Y-95463728D01*
X134878428Y-95540333D01*
X135005816Y-95593098D01*
X135141055Y-95619999D01*
X135141057Y-95620000D01*
X135659999Y-95620000D01*
X135660000Y-95619999D01*
X135660000Y-95220000D01*
X135860000Y-95220000D01*
X135860000Y-95619999D01*
X135860001Y-95620000D01*
X136378943Y-95620000D01*
X136378944Y-95619999D01*
X136514183Y-95593098D01*
X136641571Y-95540333D01*
X136756220Y-95463728D01*
X136853728Y-95366220D01*
X136930333Y-95251571D01*
X136983098Y-95124183D01*
X136983098Y-95124181D01*
X137003822Y-95020000D01*
X136593788Y-95020000D01*
X136610000Y-94959496D01*
X136610000Y-94880504D01*
X136593788Y-94820000D01*
X137003822Y-94820000D01*
X138946177Y-94820000D01*
X139356212Y-94820000D01*
X139340000Y-94880504D01*
X139340000Y-94959496D01*
X139356212Y-95020000D01*
X138946178Y-95020000D01*
X138966901Y-95124181D01*
X138966901Y-95124183D01*
X139019666Y-95251571D01*
X139096271Y-95366220D01*
X139193779Y-95463728D01*
X139308428Y-95540333D01*
X139435816Y-95593098D01*
X139571055Y-95619999D01*
X139571057Y-95620000D01*
X139839999Y-95620000D01*
X139840000Y-95619999D01*
X139840000Y-95220000D01*
X140040000Y-95220000D01*
X140040000Y-95619999D01*
X140040001Y-95620000D01*
X140308943Y-95620000D01*
X140308944Y-95619999D01*
X140444183Y-95593098D01*
X140571571Y-95540333D01*
X140686220Y-95463728D01*
X140783728Y-95366220D01*
X140860333Y-95251571D01*
X140913098Y-95124183D01*
X140913098Y-95124181D01*
X140933822Y-95020000D01*
X140523788Y-95020000D01*
X140540000Y-94959496D01*
X140540000Y-94880504D01*
X140523788Y-94820000D01*
X140933822Y-94820000D01*
X140913098Y-94715818D01*
X140913098Y-94715816D01*
X140860333Y-94588428D01*
X140783728Y-94473779D01*
X140686220Y-94376271D01*
X140571571Y-94299666D01*
X140444183Y-94246901D01*
X140308944Y-94220000D01*
X140040001Y-94220000D01*
X140040000Y-94220001D01*
X140040000Y-94620000D01*
X139840000Y-94620000D01*
X139840000Y-94220001D01*
X139839999Y-94220000D01*
X139571055Y-94220000D01*
X139435816Y-94246901D01*
X139308428Y-94299666D01*
X139193779Y-94376271D01*
X139096271Y-94473779D01*
X139019666Y-94588428D01*
X138966901Y-94715816D01*
X138966901Y-94715818D01*
X138946177Y-94820000D01*
X137003822Y-94820000D01*
X136983098Y-94715818D01*
X136983098Y-94715816D01*
X136930333Y-94588428D01*
X136853728Y-94473779D01*
X136756220Y-94376271D01*
X136641571Y-94299666D01*
X136514183Y-94246901D01*
X136378944Y-94220000D01*
X136036185Y-94220000D01*
X135977994Y-94201093D01*
X135942030Y-94151593D01*
X135939827Y-94098281D01*
X135972641Y-93959105D01*
X135982832Y-93942321D01*
X135988895Y-93923649D01*
X135998337Y-93916786D01*
X136004397Y-93906806D01*
X136022507Y-93899218D01*
X136038387Y-93887676D01*
X136050836Y-93887348D01*
X136060829Y-93883162D01*
X136075801Y-93886691D01*
X136094622Y-93886197D01*
X136095762Y-93886502D01*
X136095763Y-93886503D01*
X136203982Y-93915500D01*
X136203984Y-93915500D01*
X136316016Y-93915500D01*
X136316018Y-93915500D01*
X136424237Y-93886503D01*
X136424239Y-93886501D01*
X136424241Y-93886501D01*
X136473510Y-93858055D01*
X136521263Y-93830485D01*
X136600485Y-93751263D01*
X136649188Y-93666907D01*
X136656501Y-93654241D01*
X136656501Y-93654239D01*
X136656503Y-93654237D01*
X136685500Y-93546018D01*
X136685500Y-93433982D01*
X136656503Y-93325763D01*
X136656501Y-93325760D01*
X136656501Y-93325758D01*
X136600486Y-93228739D01*
X136600485Y-93228737D01*
X136521263Y-93149515D01*
X136510772Y-93143458D01*
X136452703Y-93109931D01*
X136411762Y-93064461D01*
X136405368Y-93003610D01*
X136432201Y-92954191D01*
X136600376Y-92786016D01*
X136880480Y-92505913D01*
X136915306Y-92445593D01*
X136933205Y-92414592D01*
X136933205Y-92414590D01*
X136933207Y-92414588D01*
X136960500Y-92312727D01*
X136960500Y-92207273D01*
X136960500Y-88887273D01*
X136951183Y-88852500D01*
X136933207Y-88785412D01*
X136933205Y-88785409D01*
X136933205Y-88785407D01*
X136880483Y-88694091D01*
X136880479Y-88694086D01*
X136432200Y-88245806D01*
X136404423Y-88191290D01*
X136413994Y-88130858D01*
X136452702Y-88090068D01*
X136521263Y-88050485D01*
X136600485Y-87971263D01*
X136656234Y-87874703D01*
X136656501Y-87874241D01*
X136656501Y-87874239D01*
X136656503Y-87874237D01*
X136685500Y-87766018D01*
X136685500Y-87653982D01*
X136656503Y-87545763D01*
X136656501Y-87545760D01*
X136656501Y-87545758D01*
X136607297Y-87460535D01*
X136600485Y-87448737D01*
X136521263Y-87369515D01*
X136519344Y-87368407D01*
X136424240Y-87313498D01*
X136424242Y-87313498D01*
X136373861Y-87299999D01*
X136316018Y-87284500D01*
X136203982Y-87284500D01*
X136095763Y-87313497D01*
X136095762Y-87313497D01*
X136094622Y-87313803D01*
X136033520Y-87310600D01*
X135985970Y-87272095D01*
X135972641Y-87240894D01*
X135939828Y-87101718D01*
X135941481Y-87081743D01*
X135938674Y-87061899D01*
X135943948Y-87051957D01*
X135944877Y-87040741D01*
X135957956Y-87025553D01*
X135967349Y-87007849D01*
X135977459Y-87002905D01*
X135984804Y-86994378D01*
X136004310Y-86989779D01*
X136022317Y-86980976D01*
X136036186Y-86980000D01*
X136378943Y-86980000D01*
X136378944Y-86979999D01*
X136514183Y-86953098D01*
X136641571Y-86900333D01*
X136756220Y-86823728D01*
X136853728Y-86726220D01*
X136930333Y-86611571D01*
X136983098Y-86484183D01*
X136983098Y-86484181D01*
X137003822Y-86380000D01*
X136593788Y-86380000D01*
X136610000Y-86319496D01*
X136610000Y-86240504D01*
X136593788Y-86180000D01*
X137003822Y-86180000D01*
X138946177Y-86180000D01*
X139356212Y-86180000D01*
X139340000Y-86240504D01*
X139340000Y-86319496D01*
X139356212Y-86380000D01*
X138946178Y-86380000D01*
X138966901Y-86484181D01*
X138966901Y-86484183D01*
X139019666Y-86611571D01*
X139096271Y-86726220D01*
X139193779Y-86823728D01*
X139308428Y-86900333D01*
X139435816Y-86953098D01*
X139571055Y-86979999D01*
X139571057Y-86980000D01*
X139839999Y-86980000D01*
X139840000Y-86979999D01*
X139840000Y-86580000D01*
X140040000Y-86580000D01*
X140040000Y-86979999D01*
X140040001Y-86980000D01*
X140308943Y-86980000D01*
X140308944Y-86979999D01*
X140444183Y-86953098D01*
X140571571Y-86900333D01*
X140686220Y-86823728D01*
X140783728Y-86726220D01*
X140860333Y-86611571D01*
X140913098Y-86484183D01*
X140913098Y-86484181D01*
X140933822Y-86380000D01*
X140523788Y-86380000D01*
X140540000Y-86319496D01*
X140540000Y-86240504D01*
X140523788Y-86180000D01*
X140933822Y-86180000D01*
X140913098Y-86075818D01*
X140913098Y-86075816D01*
X140860333Y-85948428D01*
X140783728Y-85833779D01*
X140686220Y-85736271D01*
X140571571Y-85659666D01*
X140444183Y-85606901D01*
X140308944Y-85580000D01*
X140040001Y-85580000D01*
X140040000Y-85580001D01*
X140040000Y-85980000D01*
X139840000Y-85980000D01*
X139840000Y-85580001D01*
X139839999Y-85580000D01*
X139571055Y-85580000D01*
X139435816Y-85606901D01*
X139308428Y-85659666D01*
X139193779Y-85736271D01*
X139096271Y-85833779D01*
X139019666Y-85948428D01*
X138966901Y-86075816D01*
X138966901Y-86075818D01*
X138946177Y-86180000D01*
X137003822Y-86180000D01*
X136983098Y-86075818D01*
X136983098Y-86075816D01*
X136930333Y-85948428D01*
X136853728Y-85833779D01*
X136756220Y-85736271D01*
X136641571Y-85659666D01*
X136514183Y-85606901D01*
X136378944Y-85580000D01*
X135860001Y-85580000D01*
X135860000Y-85580001D01*
X135860000Y-85980000D01*
X135660000Y-85980000D01*
X135660000Y-85580001D01*
X135659999Y-85580000D01*
X135141055Y-85580000D01*
X135005816Y-85606901D01*
X134878428Y-85659666D01*
X134763779Y-85736271D01*
X134666271Y-85833779D01*
X134589666Y-85948428D01*
X134536901Y-86075816D01*
X134536901Y-86075818D01*
X134516177Y-86180000D01*
X134926212Y-86180000D01*
X134910000Y-86240504D01*
X134910000Y-86319496D01*
X134926212Y-86380000D01*
X134516178Y-86380000D01*
X134536901Y-86484181D01*
X134536901Y-86484183D01*
X134589666Y-86611571D01*
X134666271Y-86726220D01*
X134671047Y-86730996D01*
X134698824Y-86785513D01*
X134689253Y-86845945D01*
X134645988Y-86889210D01*
X134601049Y-86900000D01*
X134586789Y-86900000D01*
X134586783Y-86900001D01*
X134518749Y-86909912D01*
X134413811Y-86961214D01*
X134331213Y-87043812D01*
X134279912Y-87148751D01*
X134270000Y-87216784D01*
X134270000Y-87299999D01*
X134270001Y-87300000D01*
X135021000Y-87300000D01*
X135035912Y-87304845D01*
X135051593Y-87304845D01*
X135064278Y-87314061D01*
X135079191Y-87318907D01*
X135088407Y-87331592D01*
X135101093Y-87340809D01*
X135105938Y-87355721D01*
X135115155Y-87368407D01*
X135120000Y-87399000D01*
X135120000Y-87401000D01*
X135101093Y-87459191D01*
X135051593Y-87495155D01*
X135021000Y-87500000D01*
X134270002Y-87500000D01*
X134270001Y-87500001D01*
X134270001Y-87583216D01*
X134279912Y-87651250D01*
X134279913Y-87651252D01*
X134331097Y-87755951D01*
X134339668Y-87816533D01*
X134331097Y-87842911D01*
X134279427Y-87948604D01*
X134276126Y-87971260D01*
X134269500Y-88016740D01*
X134269500Y-88383260D01*
X134276077Y-88428401D01*
X134279428Y-88451400D01*
X134280935Y-88456276D01*
X134280048Y-88517455D01*
X134243370Y-88566428D01*
X134186347Y-88584500D01*
X133725123Y-88584500D01*
X133717525Y-88582031D01*
X133709636Y-88583281D01*
X133688980Y-88572756D01*
X133666932Y-88565593D01*
X133655119Y-88555504D01*
X133584496Y-88484881D01*
X133556719Y-88430364D01*
X133555500Y-88414877D01*
X133555500Y-87446052D01*
X133574407Y-87387861D01*
X133612659Y-87356328D01*
X133660404Y-87334065D01*
X133744065Y-87250404D01*
X133794068Y-87143173D01*
X133800500Y-87094316D01*
X133800500Y-86745684D01*
X133794068Y-86696827D01*
X133791309Y-86690911D01*
X133744066Y-86589598D01*
X133744065Y-86589597D01*
X133744065Y-86589596D01*
X133660404Y-86505935D01*
X133660402Y-86505934D01*
X133660401Y-86505933D01*
X133646490Y-86499446D01*
X133601743Y-86457717D01*
X133590070Y-86397655D01*
X133615930Y-86342203D01*
X133646497Y-86319997D01*
X133660110Y-86313649D01*
X133743650Y-86230109D01*
X133774115Y-86164778D01*
X133774118Y-86164771D01*
X133793576Y-86123041D01*
X133793576Y-86123040D01*
X133800000Y-86074253D01*
X133800000Y-86000001D01*
X133799999Y-86000000D01*
X132760002Y-86000000D01*
X132760001Y-86000001D01*
X132760001Y-86074260D01*
X132766422Y-86123041D01*
X132816349Y-86230109D01*
X132899888Y-86313648D01*
X132913504Y-86319997D01*
X132958253Y-86361725D01*
X132969929Y-86421785D01*
X132944073Y-86477239D01*
X132913510Y-86499446D01*
X132899597Y-86505934D01*
X132815933Y-86589598D01*
X132765932Y-86696824D01*
X132765932Y-86696825D01*
X132763994Y-86711548D01*
X132759726Y-86743972D01*
X132759500Y-86745685D01*
X132759500Y-87094317D01*
X132766733Y-87149257D01*
X132755583Y-87209418D01*
X132711200Y-87251535D01*
X132650538Y-87259521D01*
X132598576Y-87232183D01*
X132539496Y-87173103D01*
X132511719Y-87118586D01*
X132510500Y-87103099D01*
X132510500Y-86651510D01*
X132506699Y-86627511D01*
X132494719Y-86551874D01*
X132494716Y-86551869D01*
X132494716Y-86551867D01*
X132433529Y-86431782D01*
X132433528Y-86431780D01*
X132338220Y-86336472D01*
X132338217Y-86336470D01*
X132218132Y-86275283D01*
X132218127Y-86275281D01*
X132218126Y-86275281D01*
X132179953Y-86269235D01*
X132118490Y-86259500D01*
X132118488Y-86259500D01*
X131601512Y-86259500D01*
X131601510Y-86259500D01*
X131501874Y-86275281D01*
X131501867Y-86275283D01*
X131381782Y-86336470D01*
X131286470Y-86431782D01*
X131225283Y-86551867D01*
X131225281Y-86551874D01*
X131210400Y-86645832D01*
X131209500Y-86651512D01*
X131209500Y-87468488D01*
X131220851Y-87540159D01*
X131225281Y-87568125D01*
X131225283Y-87568132D01*
X131286470Y-87688217D01*
X131286472Y-87688220D01*
X131381780Y-87783528D01*
X131381782Y-87783529D01*
X131501867Y-87844716D01*
X131501869Y-87844716D01*
X131501874Y-87844719D01*
X131577541Y-87856703D01*
X131601510Y-87860500D01*
X131601512Y-87860500D01*
X132053099Y-87860500D01*
X132111290Y-87879407D01*
X132123103Y-87889496D01*
X132320504Y-88086897D01*
X132348281Y-88141414D01*
X132349500Y-88156901D01*
X132349500Y-88685761D01*
X132330593Y-88743952D01*
X132281093Y-88779916D01*
X132219907Y-88779916D01*
X132210871Y-88776173D01*
X132208127Y-88775281D01*
X132208126Y-88775281D01*
X132174913Y-88770020D01*
X132108490Y-88759500D01*
X132108488Y-88759500D01*
X131997611Y-88759500D01*
X131939420Y-88740593D01*
X131927607Y-88730504D01*
X131016614Y-87819511D01*
X131016614Y-87819510D01*
X131006616Y-87809512D01*
X131006609Y-87809507D01*
X130903890Y-87750202D01*
X130903886Y-87750200D01*
X130879673Y-87743712D01*
X130879673Y-87743713D01*
X130789309Y-87719500D01*
X130789307Y-87719500D01*
X129637611Y-87719500D01*
X129579420Y-87700593D01*
X129567607Y-87690504D01*
X129239496Y-87362393D01*
X129211719Y-87307876D01*
X129210500Y-87292389D01*
X129210500Y-87087610D01*
X129229407Y-87029419D01*
X129239490Y-87017612D01*
X130420489Y-85836614D01*
X130465010Y-85759501D01*
X130479799Y-85733886D01*
X130479799Y-85733885D01*
X130482367Y-85729438D01*
X130527838Y-85688499D01*
X130588689Y-85682105D01*
X130638106Y-85708937D01*
X130681978Y-85752809D01*
X130790638Y-85803478D01*
X130790645Y-85803480D01*
X130840161Y-85810000D01*
X130919999Y-85810000D01*
X130920000Y-85809999D01*
X131120000Y-85809999D01*
X131120001Y-85810000D01*
X131199838Y-85810000D01*
X131249354Y-85803480D01*
X131249361Y-85803478D01*
X131358021Y-85752809D01*
X131385084Y-85725746D01*
X132760000Y-85725746D01*
X132760000Y-85799999D01*
X132760001Y-85800000D01*
X133179999Y-85800000D01*
X133180000Y-85799999D01*
X133180000Y-85430001D01*
X133380000Y-85430001D01*
X133380000Y-85799999D01*
X133380001Y-85800000D01*
X133799998Y-85800000D01*
X133799999Y-85799999D01*
X133799999Y-85725749D01*
X133799998Y-85725739D01*
X133793577Y-85676958D01*
X133743650Y-85569890D01*
X133660109Y-85486349D01*
X133553047Y-85436425D01*
X133553040Y-85436423D01*
X133504254Y-85430000D01*
X133380001Y-85430000D01*
X133380000Y-85430001D01*
X133180000Y-85430001D01*
X133179999Y-85430000D01*
X133055748Y-85430000D01*
X133055738Y-85430001D01*
X133006959Y-85436422D01*
X132899890Y-85486349D01*
X132816349Y-85569890D01*
X132766425Y-85676952D01*
X132766423Y-85676959D01*
X132760000Y-85725746D01*
X131385084Y-85725746D01*
X131442808Y-85668022D01*
X131442810Y-85668019D01*
X131493478Y-85559361D01*
X131493480Y-85559354D01*
X131500000Y-85509838D01*
X131500000Y-85400001D01*
X131499999Y-85400000D01*
X131120000Y-85400000D01*
X131120000Y-85809999D01*
X130920000Y-85809999D01*
X130920000Y-85399000D01*
X130924845Y-85384088D01*
X130924845Y-85368407D01*
X130934061Y-85355721D01*
X130938907Y-85340809D01*
X130951592Y-85331592D01*
X130960809Y-85318907D01*
X130975721Y-85314061D01*
X130988407Y-85304845D01*
X131019000Y-85300000D01*
X131020000Y-85300000D01*
X131020000Y-85299000D01*
X131038907Y-85240809D01*
X131088407Y-85204845D01*
X131119000Y-85200000D01*
X131499999Y-85200000D01*
X131500000Y-85199999D01*
X131500000Y-85090161D01*
X131493480Y-85040645D01*
X131493478Y-85040638D01*
X131442809Y-84931978D01*
X131358023Y-84847192D01*
X131246579Y-84795225D01*
X131201831Y-84753496D01*
X131190156Y-84693435D01*
X131216014Y-84637982D01*
X131269528Y-84608319D01*
X131288418Y-84606500D01*
X132960991Y-84606500D01*
X133010491Y-84619764D01*
X133091444Y-84666502D01*
X133091442Y-84666502D01*
X133091446Y-84666503D01*
X133091448Y-84666504D01*
X133199667Y-84695501D01*
X133199669Y-84695501D01*
X133311701Y-84695501D01*
X133311703Y-84695501D01*
X133419922Y-84666504D01*
X133419924Y-84666502D01*
X133419926Y-84666502D01*
X133448749Y-84649860D01*
X133516948Y-84610486D01*
X133596170Y-84531264D01*
X133643088Y-84450000D01*
X133652186Y-84434242D01*
X133652186Y-84434240D01*
X133652188Y-84434238D01*
X133681185Y-84326019D01*
X133681185Y-84213983D01*
X133676353Y-84195950D01*
X133679554Y-84134851D01*
X133718058Y-84087300D01*
X133777158Y-84071463D01*
X133814768Y-84083956D01*
X133815358Y-84082534D01*
X133824364Y-84086263D01*
X133824369Y-84086267D01*
X133868831Y-84095111D01*
X133882841Y-84097898D01*
X133882846Y-84097898D01*
X133882852Y-84097900D01*
X133882853Y-84097900D01*
X135497147Y-84097900D01*
X135497148Y-84097900D01*
X135555631Y-84086267D01*
X135621952Y-84041952D01*
X135666267Y-83975631D01*
X135677900Y-83917148D01*
X135677900Y-82302852D01*
X135666267Y-82244369D01*
X135621952Y-82178048D01*
X135621948Y-82178045D01*
X135555633Y-82133734D01*
X135555631Y-82133733D01*
X135555628Y-82133732D01*
X135555627Y-82133732D01*
X135497158Y-82122101D01*
X135497148Y-82122100D01*
X133882852Y-82122100D01*
X133882851Y-82122100D01*
X133882841Y-82122101D01*
X133824372Y-82133732D01*
X133824366Y-82133734D01*
X133758051Y-82178045D01*
X133758045Y-82178051D01*
X133713734Y-82244366D01*
X133713732Y-82244372D01*
X133702101Y-82302841D01*
X133702100Y-82302853D01*
X133702100Y-82827275D01*
X133683193Y-82885466D01*
X133673104Y-82897279D01*
X133306904Y-83263479D01*
X133252387Y-83291256D01*
X133191955Y-83281685D01*
X133148690Y-83238420D01*
X133137900Y-83193475D01*
X133137900Y-83012701D01*
X133137899Y-83012697D01*
X133129354Y-82969739D01*
X133099936Y-82821840D01*
X133025466Y-82642054D01*
X133025464Y-82642052D01*
X133025462Y-82642046D01*
X132963445Y-82549233D01*
X132917352Y-82480250D01*
X132779750Y-82342648D01*
X132720175Y-82302841D01*
X132617953Y-82234537D01*
X132617944Y-82234533D01*
X132438158Y-82160063D01*
X132247302Y-82122100D01*
X132247300Y-82122100D01*
X132052700Y-82122100D01*
X132052697Y-82122100D01*
X131861841Y-82160063D01*
X131682055Y-82234533D01*
X131682046Y-82234537D01*
X131520250Y-82342648D01*
X131520246Y-82342651D01*
X131382651Y-82480246D01*
X131382648Y-82480250D01*
X131274537Y-82642046D01*
X131274533Y-82642055D01*
X131200063Y-82821841D01*
X131162100Y-83012697D01*
X131162100Y-83207302D01*
X131200063Y-83398158D01*
X131274533Y-83577944D01*
X131274537Y-83577953D01*
X131323011Y-83650498D01*
X131339620Y-83709387D01*
X131318442Y-83766790D01*
X131267569Y-83800783D01*
X131240696Y-83804500D01*
X130518702Y-83804500D01*
X130460511Y-83785593D01*
X130424547Y-83736093D01*
X130424547Y-83674907D01*
X130436387Y-83650498D01*
X130485023Y-83577708D01*
X130559454Y-83398015D01*
X130559454Y-83398013D01*
X130597399Y-83207252D01*
X130597400Y-83207248D01*
X130597400Y-83012751D01*
X130597399Y-83012747D01*
X130559454Y-82821986D01*
X130559454Y-82821984D01*
X130485024Y-82642293D01*
X130378521Y-82482899D01*
X129996457Y-82864964D01*
X129975851Y-82829273D01*
X129890727Y-82744149D01*
X129855033Y-82723541D01*
X130237099Y-82341477D01*
X130077706Y-82234975D01*
X129898014Y-82160545D01*
X129707252Y-82122600D01*
X129512747Y-82122600D01*
X129321986Y-82160545D01*
X129321984Y-82160545D01*
X129142293Y-82234975D01*
X128982899Y-82341477D01*
X129364964Y-82723542D01*
X129329273Y-82744149D01*
X129244149Y-82829273D01*
X129223542Y-82864964D01*
X128841477Y-82482899D01*
X128734975Y-82642293D01*
X128660545Y-82821984D01*
X128660545Y-82821986D01*
X128622600Y-83012747D01*
X128622600Y-83207252D01*
X128660545Y-83398013D01*
X128660545Y-83398015D01*
X128734976Y-83577708D01*
X128783613Y-83650498D01*
X128800222Y-83709387D01*
X128779044Y-83766790D01*
X128728171Y-83800783D01*
X128701298Y-83804500D01*
X127978702Y-83804500D01*
X127920511Y-83785593D01*
X127884547Y-83736093D01*
X127884547Y-83674907D01*
X127896387Y-83650498D01*
X127945023Y-83577708D01*
X128019454Y-83398015D01*
X128019454Y-83398013D01*
X128057399Y-83207252D01*
X128057400Y-83207248D01*
X128057400Y-83012751D01*
X128057399Y-83012747D01*
X128019454Y-82821986D01*
X128019454Y-82821984D01*
X127945024Y-82642293D01*
X127838521Y-82482899D01*
X127456457Y-82864964D01*
X127435851Y-82829273D01*
X127350727Y-82744149D01*
X127315033Y-82723541D01*
X127697099Y-82341477D01*
X127537706Y-82234975D01*
X127358014Y-82160545D01*
X127167252Y-82122600D01*
X126972747Y-82122600D01*
X126781986Y-82160545D01*
X126781984Y-82160545D01*
X126602293Y-82234975D01*
X126442899Y-82341477D01*
X126824964Y-82723542D01*
X126789273Y-82744149D01*
X126704149Y-82829273D01*
X126683542Y-82864964D01*
X126301477Y-82482899D01*
X126194975Y-82642293D01*
X126120545Y-82821984D01*
X126120545Y-82821986D01*
X126082600Y-83012747D01*
X126082600Y-83207252D01*
X126120545Y-83398013D01*
X126120545Y-83398015D01*
X126194976Y-83577708D01*
X126243613Y-83650498D01*
X126260222Y-83709387D01*
X126239044Y-83766790D01*
X126188171Y-83800783D01*
X126161298Y-83804500D01*
X125439304Y-83804500D01*
X125381113Y-83785593D01*
X125345149Y-83736093D01*
X125345149Y-83674907D01*
X125356989Y-83650498D01*
X125405462Y-83577953D01*
X125405463Y-83577949D01*
X125405466Y-83577946D01*
X125479936Y-83398160D01*
X125517900Y-83207300D01*
X125517900Y-83012700D01*
X125479936Y-82821840D01*
X125405466Y-82642054D01*
X125405464Y-82642052D01*
X125405462Y-82642046D01*
X125343445Y-82549233D01*
X125297352Y-82480250D01*
X125159750Y-82342648D01*
X125100175Y-82302841D01*
X124997953Y-82234537D01*
X124997944Y-82234533D01*
X124818158Y-82160063D01*
X124627302Y-82122100D01*
X124627300Y-82122100D01*
X124432700Y-82122100D01*
X124432697Y-82122100D01*
X124241841Y-82160063D01*
X124062055Y-82234533D01*
X124062046Y-82234537D01*
X123900250Y-82342648D01*
X123900246Y-82342651D01*
X123762651Y-82480246D01*
X123762648Y-82480250D01*
X123654537Y-82642046D01*
X123654533Y-82642055D01*
X123580063Y-82821841D01*
X123542100Y-83012697D01*
X123542100Y-83207302D01*
X123580063Y-83398158D01*
X123654533Y-83577944D01*
X123654537Y-83577953D01*
X123703011Y-83650498D01*
X123719620Y-83709387D01*
X123698442Y-83766790D01*
X123647569Y-83800783D01*
X123620696Y-83804500D01*
X122899304Y-83804500D01*
X122841113Y-83785593D01*
X122805149Y-83736093D01*
X122805149Y-83674907D01*
X122816989Y-83650498D01*
X122865462Y-83577953D01*
X122865463Y-83577949D01*
X122865466Y-83577946D01*
X122939936Y-83398160D01*
X122977900Y-83207300D01*
X122977900Y-83012700D01*
X122939936Y-82821840D01*
X122865466Y-82642054D01*
X122865464Y-82642052D01*
X122865462Y-82642046D01*
X122803445Y-82549233D01*
X122757352Y-82480250D01*
X122619750Y-82342648D01*
X122560175Y-82302841D01*
X122457953Y-82234537D01*
X122457944Y-82234533D01*
X122278158Y-82160063D01*
X122087302Y-82122100D01*
X122087300Y-82122100D01*
X121892700Y-82122100D01*
X121892697Y-82122100D01*
X121701841Y-82160063D01*
X121522055Y-82234533D01*
X121522046Y-82234537D01*
X121360250Y-82342648D01*
X121360246Y-82342651D01*
X121222651Y-82480246D01*
X121222648Y-82480250D01*
X121114537Y-82642046D01*
X121114533Y-82642055D01*
X121040063Y-82821841D01*
X121002100Y-83012697D01*
X121002100Y-83207302D01*
X121040063Y-83398158D01*
X121114533Y-83577944D01*
X121114537Y-83577953D01*
X121179321Y-83674907D01*
X121222648Y-83739750D01*
X121360250Y-83877352D01*
X121395636Y-83900996D01*
X121411479Y-83911582D01*
X121449358Y-83959632D01*
X121451760Y-84020770D01*
X121426481Y-84063901D01*
X119664504Y-85825879D01*
X119609987Y-85853656D01*
X119549555Y-85844085D01*
X119506290Y-85800820D01*
X119495500Y-85755875D01*
X119495500Y-84189451D01*
X119514407Y-84131260D01*
X119563907Y-84095296D01*
X119575182Y-84092353D01*
X119738160Y-84059936D01*
X119917946Y-83985466D01*
X119917949Y-83985463D01*
X119917953Y-83985462D01*
X119992586Y-83935593D01*
X120079750Y-83877352D01*
X120217352Y-83739750D01*
X120298576Y-83618190D01*
X120325462Y-83577953D01*
X120325463Y-83577949D01*
X120325466Y-83577946D01*
X120399936Y-83398160D01*
X120437900Y-83207300D01*
X120437900Y-83012700D01*
X120399936Y-82821840D01*
X120325466Y-82642054D01*
X120325464Y-82642052D01*
X120325462Y-82642046D01*
X120263445Y-82549233D01*
X120217352Y-82480250D01*
X120079750Y-82342648D01*
X120020175Y-82302841D01*
X119917953Y-82234537D01*
X119917944Y-82234533D01*
X119738158Y-82160063D01*
X119547302Y-82122100D01*
X119547300Y-82122100D01*
X119352700Y-82122100D01*
X119352697Y-82122100D01*
X119161841Y-82160063D01*
X118982055Y-82234533D01*
X118982046Y-82234537D01*
X118820250Y-82342648D01*
X118820246Y-82342651D01*
X118682651Y-82480246D01*
X118682648Y-82480250D01*
X118574537Y-82642046D01*
X118574533Y-82642055D01*
X118500063Y-82821841D01*
X118462100Y-83012697D01*
X118462100Y-83123090D01*
X118443193Y-83181281D01*
X118393693Y-83217245D01*
X118332507Y-83217245D01*
X118293097Y-83193094D01*
X117976447Y-82876446D01*
X117976444Y-82876443D01*
X117900990Y-82845188D01*
X117854466Y-82805453D01*
X117847417Y-82791618D01*
X117785466Y-82642054D01*
X117785462Y-82642046D01*
X117723445Y-82549233D01*
X117677352Y-82480250D01*
X117539750Y-82342648D01*
X117480175Y-82302841D01*
X117377953Y-82234537D01*
X117377944Y-82234533D01*
X117198158Y-82160063D01*
X117007302Y-82122100D01*
X117007300Y-82122100D01*
X116812700Y-82122100D01*
X116812697Y-82122100D01*
X116621841Y-82160063D01*
X116442055Y-82234533D01*
X116442046Y-82234537D01*
X116280250Y-82342648D01*
X116280246Y-82342651D01*
X116142651Y-82480246D01*
X116142648Y-82480250D01*
X116034537Y-82642046D01*
X116034533Y-82642055D01*
X115960063Y-82821841D01*
X115922100Y-83012697D01*
X115922100Y-83072705D01*
X115903193Y-83130896D01*
X115853693Y-83166860D01*
X115792507Y-83166860D01*
X115753097Y-83142709D01*
X115486833Y-82876446D01*
X115486830Y-82876443D01*
X115385572Y-82834500D01*
X115385571Y-82834500D01*
X115385569Y-82834499D01*
X115376007Y-82832597D01*
X115376581Y-82829708D01*
X115333138Y-82815593D01*
X115299865Y-82773385D01*
X115245468Y-82642058D01*
X115245462Y-82642046D01*
X115183445Y-82549233D01*
X115137352Y-82480250D01*
X114999750Y-82342648D01*
X114940175Y-82302841D01*
X114837953Y-82234537D01*
X114837944Y-82234533D01*
X114658158Y-82160063D01*
X114467302Y-82122100D01*
X114467300Y-82122100D01*
X114272700Y-82122100D01*
X114272697Y-82122100D01*
X114081841Y-82160063D01*
X113902055Y-82234533D01*
X113902046Y-82234537D01*
X113740250Y-82342648D01*
X113740246Y-82342651D01*
X113602651Y-82480246D01*
X113602648Y-82480250D01*
X113494537Y-82642046D01*
X113494533Y-82642055D01*
X113420063Y-82821841D01*
X113382100Y-83012697D01*
X113382100Y-83207303D01*
X113401657Y-83305622D01*
X113394465Y-83366384D01*
X113352932Y-83411313D01*
X113292923Y-83423250D01*
X113237358Y-83397634D01*
X113234555Y-83394940D01*
X112830589Y-82990974D01*
X112803495Y-82940283D01*
X112794941Y-82897279D01*
X112779936Y-82821840D01*
X112705466Y-82642054D01*
X112705464Y-82642052D01*
X112705462Y-82642046D01*
X112643445Y-82549233D01*
X112597352Y-82480250D01*
X112459750Y-82342648D01*
X112400175Y-82302841D01*
X112297953Y-82234537D01*
X112297944Y-82234533D01*
X112118158Y-82160063D01*
X111927302Y-82122100D01*
X111927300Y-82122100D01*
X111732700Y-82122100D01*
X111732697Y-82122100D01*
X111541841Y-82160063D01*
X111362055Y-82234533D01*
X111362046Y-82234537D01*
X111200250Y-82342648D01*
X111200246Y-82342651D01*
X111062651Y-82480246D01*
X111062648Y-82480250D01*
X110954537Y-82642046D01*
X110954533Y-82642055D01*
X110880063Y-82821841D01*
X110842100Y-83012697D01*
X110842100Y-83207302D01*
X110880063Y-83398158D01*
X110954533Y-83577944D01*
X110954537Y-83577953D01*
X111019321Y-83674907D01*
X111062648Y-83739750D01*
X111062649Y-83739751D01*
X111062651Y-83739753D01*
X111108394Y-83785496D01*
X111136171Y-83840013D01*
X111126600Y-83900445D01*
X111083335Y-83943710D01*
X111038390Y-83954500D01*
X110565124Y-83954500D01*
X110506933Y-83935593D01*
X110495120Y-83925504D01*
X110206996Y-83637380D01*
X110179219Y-83582863D01*
X110185535Y-83529494D01*
X110239936Y-83398160D01*
X110277900Y-83207300D01*
X110277900Y-83012700D01*
X110239936Y-82821840D01*
X110165466Y-82642054D01*
X110165464Y-82642052D01*
X110165462Y-82642046D01*
X110103445Y-82549233D01*
X110057352Y-82480250D01*
X109919750Y-82342648D01*
X109860175Y-82302841D01*
X109757953Y-82234537D01*
X109757944Y-82234533D01*
X109578158Y-82160063D01*
X109387302Y-82122100D01*
X109387300Y-82122100D01*
X109192700Y-82122100D01*
X109192697Y-82122100D01*
X109001841Y-82160063D01*
X108822055Y-82234533D01*
X108822046Y-82234537D01*
X108660250Y-82342648D01*
X108660246Y-82342651D01*
X108522651Y-82480246D01*
X108522648Y-82480250D01*
X108414537Y-82642046D01*
X108414533Y-82642055D01*
X108340063Y-82821841D01*
X108302100Y-83012697D01*
X108302100Y-83207302D01*
X108340063Y-83398158D01*
X108414533Y-83577944D01*
X108414537Y-83577953D01*
X108479321Y-83674907D01*
X108522648Y-83739750D01*
X108660250Y-83877352D01*
X108695636Y-83900996D01*
X108822046Y-83985462D01*
X108822052Y-83985464D01*
X108822054Y-83985466D01*
X108886783Y-84012278D01*
X108893442Y-84015036D01*
X108939967Y-84054773D01*
X108954251Y-84114268D01*
X108930836Y-84170795D01*
X108878667Y-84202765D01*
X108855556Y-84205500D01*
X108276124Y-84205500D01*
X108217933Y-84186593D01*
X108206120Y-84176504D01*
X107666996Y-83637380D01*
X107639219Y-83582863D01*
X107645535Y-83529494D01*
X107699936Y-83398160D01*
X107737900Y-83207300D01*
X107737900Y-83012700D01*
X107699936Y-82821840D01*
X107625466Y-82642054D01*
X107625464Y-82642052D01*
X107625462Y-82642046D01*
X107563445Y-82549233D01*
X107517352Y-82480250D01*
X107379750Y-82342648D01*
X107320175Y-82302841D01*
X107217953Y-82234537D01*
X107217944Y-82234533D01*
X107038158Y-82160063D01*
X106847302Y-82122100D01*
X106847300Y-82122100D01*
X106652700Y-82122100D01*
X106652697Y-82122100D01*
X106461841Y-82160063D01*
X106282055Y-82234533D01*
X106282046Y-82234537D01*
X106120250Y-82342648D01*
X106120246Y-82342651D01*
X105982651Y-82480246D01*
X105982648Y-82480250D01*
X105874537Y-82642046D01*
X105874533Y-82642055D01*
X105800063Y-82821841D01*
X105762100Y-83012697D01*
X105762100Y-83207302D01*
X105800063Y-83398158D01*
X105874533Y-83577944D01*
X105874537Y-83577953D01*
X105939321Y-83674907D01*
X105982648Y-83739750D01*
X106120250Y-83877352D01*
X106155636Y-83900996D01*
X106282046Y-83985462D01*
X106282052Y-83985464D01*
X106282054Y-83985466D01*
X106461840Y-84059936D01*
X106652700Y-84097900D01*
X106652701Y-84097900D01*
X106847299Y-84097900D01*
X106847300Y-84097900D01*
X107038160Y-84059936D01*
X107169493Y-84005535D01*
X107230487Y-84000735D01*
X107277380Y-84026996D01*
X107964942Y-84714558D01*
X107964943Y-84714558D01*
X107964944Y-84714559D01*
X108066198Y-84756500D01*
X108066200Y-84756500D01*
X110857937Y-84756500D01*
X110916128Y-84775407D01*
X110952092Y-84824907D01*
X110952092Y-84886093D01*
X110947661Y-84897339D01*
X110905932Y-84986824D01*
X110905932Y-84986825D01*
X110899500Y-85035685D01*
X110899500Y-85484314D01*
X110905932Y-85533174D01*
X110905932Y-85533175D01*
X110955933Y-85640401D01*
X110955934Y-85640402D01*
X110955935Y-85640404D01*
X111002043Y-85686512D01*
X111029819Y-85741027D01*
X111020248Y-85801459D01*
X111002042Y-85826517D01*
X110953452Y-85875107D01*
X110901661Y-85986172D01*
X110895000Y-86036774D01*
X110895000Y-86149999D01*
X110895001Y-86150000D01*
X111291000Y-86150000D01*
X111305912Y-86154845D01*
X111321593Y-86154845D01*
X111334278Y-86164061D01*
X111349191Y-86168907D01*
X111358407Y-86181592D01*
X111371093Y-86190809D01*
X111375938Y-86205721D01*
X111385155Y-86218407D01*
X111390000Y-86249000D01*
X111390000Y-86251000D01*
X111371093Y-86309191D01*
X111321593Y-86345155D01*
X111291000Y-86350000D01*
X110895001Y-86350000D01*
X110895000Y-86350001D01*
X110895000Y-86463225D01*
X110901661Y-86513827D01*
X110953451Y-86624890D01*
X111040109Y-86711548D01*
X111134155Y-86755403D01*
X111178903Y-86797131D01*
X111190577Y-86857193D01*
X111164719Y-86912645D01*
X111141816Y-86930863D01*
X111128738Y-86938413D01*
X111049513Y-87017638D01*
X110993498Y-87114657D01*
X110985857Y-87143174D01*
X110964500Y-87222881D01*
X110964500Y-87334917D01*
X110975711Y-87376758D01*
X110993498Y-87443140D01*
X111049513Y-87540159D01*
X111049515Y-87540162D01*
X111071225Y-87561872D01*
X111099001Y-87616387D01*
X111089430Y-87676819D01*
X111058009Y-87712967D01*
X111051979Y-87717189D01*
X110967190Y-87801978D01*
X110916521Y-87910638D01*
X110916519Y-87910645D01*
X110910000Y-87960161D01*
X110910000Y-88069999D01*
X110910001Y-88070000D01*
X111291000Y-88070000D01*
X111305912Y-88074845D01*
X111321593Y-88074845D01*
X111334278Y-88084061D01*
X111349191Y-88088907D01*
X111358407Y-88101592D01*
X111371093Y-88110809D01*
X111375938Y-88125721D01*
X111385155Y-88138407D01*
X111390000Y-88169000D01*
X111390000Y-88170000D01*
X111391000Y-88170000D01*
X111449191Y-88188907D01*
X111485155Y-88238407D01*
X111490000Y-88269000D01*
X111490000Y-89041000D01*
X111471093Y-89099191D01*
X111421593Y-89135155D01*
X111391000Y-89140000D01*
X111390000Y-89140000D01*
X111390000Y-89141000D01*
X111371093Y-89199191D01*
X111321593Y-89235155D01*
X111291000Y-89240000D01*
X110910001Y-89240000D01*
X110910000Y-89240001D01*
X110910000Y-89283141D01*
X110891093Y-89341332D01*
X110841593Y-89377296D01*
X110780407Y-89377296D01*
X110731345Y-89341929D01*
X110647154Y-89227855D01*
X110647152Y-89227853D01*
X110647150Y-89227850D01*
X110647146Y-89227847D01*
X110647144Y-89227845D01*
X110537883Y-89147207D01*
X110409703Y-89102355D01*
X110409694Y-89102353D01*
X110379274Y-89099500D01*
X110379266Y-89099500D01*
X109370734Y-89099500D01*
X109370725Y-89099500D01*
X109340305Y-89102353D01*
X109340296Y-89102355D01*
X109212116Y-89147207D01*
X109102855Y-89227845D01*
X109102845Y-89227855D01*
X109022207Y-89337116D01*
X108977355Y-89465296D01*
X108977353Y-89465305D01*
X108974500Y-89495725D01*
X108974500Y-90304274D01*
X108977353Y-90334694D01*
X108977355Y-90334703D01*
X108988937Y-90367802D01*
X108990310Y-90428972D01*
X108955466Y-90479267D01*
X108897715Y-90499475D01*
X108895493Y-90499500D01*
X108653977Y-90499500D01*
X108595786Y-90480593D01*
X108559822Y-90431093D01*
X108559822Y-90369907D01*
X108560532Y-90367803D01*
X108572149Y-90334601D01*
X108574999Y-90304211D01*
X108575000Y-90304210D01*
X108575000Y-90000001D01*
X108574999Y-90000000D01*
X106775002Y-90000000D01*
X106775001Y-90000001D01*
X106775001Y-90145162D01*
X106756094Y-90203353D01*
X106706594Y-90239317D01*
X106645408Y-90239317D01*
X106605997Y-90215166D01*
X106518021Y-90127190D01*
X106409361Y-90076521D01*
X106409354Y-90076519D01*
X106359839Y-90070000D01*
X106250001Y-90070000D01*
X106250000Y-90070001D01*
X106250000Y-90449999D01*
X106250001Y-90450000D01*
X106659998Y-90450000D01*
X106667187Y-90442811D01*
X106721704Y-90415033D01*
X106782136Y-90424604D01*
X106816214Y-90458176D01*
X106818248Y-90456676D01*
X106903207Y-90571790D01*
X106903209Y-90571792D01*
X107012352Y-90652345D01*
X107023627Y-90656290D01*
X107072308Y-90693356D01*
X107089905Y-90751956D01*
X107069697Y-90809708D01*
X107023629Y-90843179D01*
X107012115Y-90847207D01*
X106902855Y-90927845D01*
X106902845Y-90927855D01*
X106822207Y-91037116D01*
X106781620Y-91153106D01*
X106744554Y-91201787D01*
X106685954Y-91219383D01*
X106628202Y-91199174D01*
X106616700Y-91188908D01*
X106606096Y-91177843D01*
X106603224Y-91171684D01*
X106530430Y-91098890D01*
X106529717Y-91098146D01*
X106516849Y-91071506D01*
X106503412Y-91045133D01*
X106503584Y-91044043D01*
X106503105Y-91043051D01*
X106508351Y-91013946D01*
X106512983Y-90984701D01*
X106513833Y-90983529D01*
X106513959Y-90982836D01*
X106515206Y-90981640D01*
X106531189Y-90959642D01*
X106602809Y-90888021D01*
X106653478Y-90779361D01*
X106653480Y-90779354D01*
X106660000Y-90729838D01*
X106660000Y-90650001D01*
X106659999Y-90650000D01*
X105640001Y-90650000D01*
X105640000Y-90650001D01*
X105640000Y-90729838D01*
X105646519Y-90779354D01*
X105646521Y-90779361D01*
X105697190Y-90888021D01*
X105768811Y-90959642D01*
X105796588Y-91014159D01*
X105787017Y-91074591D01*
X105768813Y-91099646D01*
X105720960Y-91147500D01*
X105696774Y-91171686D01*
X105646029Y-91280510D01*
X105646028Y-91280511D01*
X105639500Y-91330100D01*
X105432500Y-91330100D01*
X105432500Y-90370161D01*
X105640000Y-90370161D01*
X105640000Y-90449999D01*
X105640001Y-90450000D01*
X106049999Y-90450000D01*
X106050000Y-90449999D01*
X106050000Y-90070001D01*
X106049999Y-90070000D01*
X105940161Y-90070000D01*
X105890645Y-90076519D01*
X105890638Y-90076521D01*
X105781978Y-90127190D01*
X105697190Y-90211978D01*
X105646521Y-90320638D01*
X105646519Y-90320645D01*
X105640000Y-90370161D01*
X105432500Y-90370161D01*
X105432500Y-89495788D01*
X106775000Y-89495788D01*
X106775000Y-89799999D01*
X106775001Y-89800000D01*
X107574999Y-89800000D01*
X107575000Y-89799999D01*
X107575000Y-89100001D01*
X107775000Y-89100001D01*
X107775000Y-89799999D01*
X107775001Y-89800000D01*
X108574998Y-89800000D01*
X108574999Y-89799999D01*
X108574999Y-89495796D01*
X108572149Y-89465399D01*
X108572149Y-89465397D01*
X108527345Y-89337352D01*
X108446792Y-89228209D01*
X108446790Y-89228207D01*
X108337647Y-89147654D01*
X108209601Y-89102850D01*
X108179211Y-89100000D01*
X107775001Y-89100000D01*
X107775000Y-89100001D01*
X107575000Y-89100001D01*
X107574999Y-89100000D01*
X107170796Y-89100000D01*
X107140399Y-89102850D01*
X107140397Y-89102850D01*
X107012352Y-89147654D01*
X106903209Y-89228207D01*
X106903207Y-89228209D01*
X106822654Y-89337352D01*
X106777850Y-89465398D01*
X106775000Y-89495788D01*
X105432500Y-89495788D01*
X105432500Y-88270001D01*
X110910000Y-88270001D01*
X110910000Y-88379838D01*
X110916519Y-88429354D01*
X110916521Y-88429361D01*
X110967190Y-88538021D01*
X111014165Y-88584996D01*
X111041942Y-88639513D01*
X111032371Y-88699945D01*
X111014165Y-88725004D01*
X110967190Y-88771978D01*
X110916521Y-88880638D01*
X110916519Y-88880645D01*
X110910000Y-88930161D01*
X110910000Y-89039999D01*
X110910001Y-89040000D01*
X111290000Y-89040000D01*
X111290000Y-88270000D01*
X110910001Y-88270000D01*
X110910000Y-88270001D01*
X105432500Y-88270001D01*
X105432500Y-86754526D01*
X106684500Y-86754526D01*
X106684500Y-87595473D01*
X106711995Y-87733702D01*
X106765931Y-87863914D01*
X106765935Y-87863923D01*
X106830241Y-87960161D01*
X106844235Y-87981105D01*
X106943895Y-88080765D01*
X106975065Y-88101592D01*
X107061076Y-88159064D01*
X107061082Y-88159066D01*
X107061084Y-88159068D01*
X107191296Y-88213004D01*
X107329529Y-88240500D01*
X107329530Y-88240500D01*
X107470470Y-88240500D01*
X107470471Y-88240500D01*
X107608704Y-88213004D01*
X107738916Y-88159068D01*
X107738919Y-88159065D01*
X107738923Y-88159064D01*
X107788823Y-88125721D01*
X107856105Y-88080765D01*
X107955765Y-87981105D01*
X108021965Y-87882029D01*
X108070013Y-87844151D01*
X108131151Y-87841749D01*
X108182025Y-87875742D01*
X108197723Y-87904334D01*
X108232207Y-88002883D01*
X108312845Y-88112144D01*
X108312847Y-88112146D01*
X108312850Y-88112150D01*
X108312853Y-88112152D01*
X108312855Y-88112154D01*
X108422116Y-88192792D01*
X108422117Y-88192792D01*
X108422118Y-88192793D01*
X108550301Y-88237646D01*
X108580725Y-88240499D01*
X108580727Y-88240500D01*
X108580734Y-88240500D01*
X109219273Y-88240500D01*
X109219273Y-88240499D01*
X109249699Y-88237646D01*
X109377882Y-88192793D01*
X109487150Y-88112150D01*
X109567793Y-88002882D01*
X109612646Y-87874699D01*
X109615499Y-87844273D01*
X109615500Y-87844273D01*
X109615500Y-86505727D01*
X109615499Y-86505725D01*
X109613479Y-86484183D01*
X109612646Y-86475301D01*
X109567793Y-86347118D01*
X109566344Y-86345155D01*
X109487154Y-86237855D01*
X109487152Y-86237853D01*
X109487150Y-86237850D01*
X109487146Y-86237847D01*
X109487144Y-86237845D01*
X109377883Y-86157207D01*
X109249703Y-86112355D01*
X109249694Y-86112353D01*
X109219274Y-86109500D01*
X109219266Y-86109500D01*
X108580734Y-86109500D01*
X108580725Y-86109500D01*
X108550305Y-86112353D01*
X108550296Y-86112355D01*
X108422116Y-86157207D01*
X108312855Y-86237845D01*
X108312845Y-86237855D01*
X108232207Y-86347116D01*
X108197723Y-86445665D01*
X108160657Y-86494346D01*
X108102057Y-86511942D01*
X108044305Y-86491733D01*
X108021964Y-86467969D01*
X108013651Y-86455528D01*
X107955765Y-86368895D01*
X107856105Y-86269235D01*
X107836529Y-86256154D01*
X107738923Y-86190935D01*
X107738914Y-86190931D01*
X107608702Y-86136995D01*
X107470473Y-86109500D01*
X107470471Y-86109500D01*
X107329529Y-86109500D01*
X107329526Y-86109500D01*
X107191297Y-86136995D01*
X107061085Y-86190931D01*
X107061076Y-86190935D01*
X106943896Y-86269234D01*
X106844234Y-86368896D01*
X106765935Y-86486076D01*
X106765931Y-86486085D01*
X106711995Y-86616297D01*
X106684500Y-86754526D01*
X105432500Y-86754526D01*
X105432500Y-81719500D01*
X105451407Y-81661309D01*
X105500907Y-81625345D01*
X105531500Y-81620500D01*
X141432500Y-81620500D01*
X141490691Y-81639407D01*
G37*
%TD.AperFunction*%
%TD*%
%TA.AperFunction,Conductor*%
%TO.N,+1V1*%
G36*
X120178563Y-87769747D02*
G01*
X120208914Y-87778718D01*
X120239701Y-87785993D01*
X120242163Y-87788545D01*
X120245567Y-87789551D01*
X120266246Y-87813502D01*
X120288217Y-87836272D01*
X120289814Y-87840801D01*
X120291227Y-87842437D01*
X120299958Y-87869556D01*
X120310650Y-87923309D01*
X120310651Y-87971690D01*
X120299500Y-88027752D01*
X120299500Y-88267247D01*
X120310651Y-88323310D01*
X120310651Y-88371690D01*
X120299500Y-88427752D01*
X120299500Y-88667247D01*
X120310651Y-88723310D01*
X120310651Y-88771690D01*
X120299500Y-88827752D01*
X120299500Y-89067247D01*
X120310651Y-89123310D01*
X120310651Y-89171690D01*
X120299500Y-89227752D01*
X120299500Y-89467247D01*
X120310651Y-89523310D01*
X120310651Y-89571690D01*
X120299500Y-89627752D01*
X120299500Y-89867247D01*
X120310651Y-89923310D01*
X120310651Y-89971690D01*
X120299500Y-90027752D01*
X120299500Y-90267247D01*
X120310651Y-90323310D01*
X120310651Y-90371690D01*
X120299500Y-90427752D01*
X120299500Y-90667247D01*
X120310651Y-90723310D01*
X120310651Y-90771690D01*
X120299500Y-90827752D01*
X120299500Y-91067247D01*
X120310651Y-91123310D01*
X120310651Y-91171690D01*
X120299500Y-91227752D01*
X120299500Y-91467252D01*
X120311132Y-91525730D01*
X120315806Y-91537014D01*
X120313020Y-91538167D01*
X120321753Y-91551703D01*
X120326310Y-91583001D01*
X120326819Y-91584624D01*
X120326839Y-91586629D01*
X120327107Y-91736445D01*
X120307542Y-91803520D01*
X120254820Y-91849369D01*
X120235205Y-91856440D01*
X120194012Y-91867478D01*
X120194010Y-91867478D01*
X120194010Y-91867479D01*
X120125489Y-91907040D01*
X120125486Y-91907042D01*
X119719541Y-92312987D01*
X119719535Y-92312995D01*
X119679982Y-92381504D01*
X119679979Y-92381509D01*
X119659500Y-92457939D01*
X119659500Y-92471324D01*
X119639815Y-92538363D01*
X119623181Y-92559005D01*
X119569502Y-92612683D01*
X119569500Y-92612686D01*
X119503608Y-92726812D01*
X119469500Y-92854108D01*
X119469500Y-92985891D01*
X119503609Y-93113188D01*
X119503609Y-93113189D01*
X119530137Y-93159137D01*
X119546610Y-93227038D01*
X119523757Y-93293064D01*
X119468836Y-93336255D01*
X119422086Y-93345135D01*
X114853498Y-93320659D01*
X114786565Y-93300616D01*
X114741093Y-93247567D01*
X114730162Y-93196897D01*
X114721995Y-88827747D01*
X115599500Y-88827747D01*
X115599500Y-92267252D01*
X115611131Y-92325729D01*
X115611132Y-92325730D01*
X115655447Y-92392052D01*
X115721769Y-92436367D01*
X115721770Y-92436368D01*
X115780247Y-92447999D01*
X115780250Y-92448000D01*
X115780252Y-92448000D01*
X119219750Y-92448000D01*
X119219751Y-92447999D01*
X119234568Y-92445052D01*
X119278229Y-92436368D01*
X119278229Y-92436367D01*
X119278231Y-92436367D01*
X119344552Y-92392052D01*
X119388867Y-92325731D01*
X119388867Y-92325729D01*
X119388868Y-92325729D01*
X119400499Y-92267252D01*
X119400500Y-92267250D01*
X119400500Y-88827749D01*
X119400499Y-88827747D01*
X119388868Y-88769270D01*
X119388867Y-88769269D01*
X119344552Y-88702947D01*
X119278230Y-88658632D01*
X119278229Y-88658631D01*
X119219752Y-88647000D01*
X119219748Y-88647000D01*
X115780252Y-88647000D01*
X115780247Y-88647000D01*
X115721770Y-88658631D01*
X115721769Y-88658632D01*
X115655447Y-88702947D01*
X115611132Y-88769269D01*
X115611131Y-88769270D01*
X115599500Y-88827747D01*
X114721995Y-88827747D01*
X114720232Y-87884451D01*
X114739791Y-87817378D01*
X114792510Y-87771524D01*
X114844451Y-87760222D01*
X120178563Y-87769747D01*
G37*
%TD.AperFunction*%
%TD*%
%TA.AperFunction,Conductor*%
%TO.N,/RP2350A/VREG_LX*%
G36*
X122077412Y-92471672D02*
G01*
X122107635Y-92501895D01*
X122107636Y-92501897D01*
X122152827Y-92547088D01*
X122174500Y-92599413D01*
X122174500Y-92609820D01*
X122183233Y-92653722D01*
X122216496Y-92703504D01*
X122266278Y-92736767D01*
X122310180Y-92745500D01*
X122310181Y-92745500D01*
X122869819Y-92745500D01*
X122869820Y-92745500D01*
X122913722Y-92736767D01*
X122920150Y-92732472D01*
X122961263Y-92720000D01*
X123228737Y-92720000D01*
X123269850Y-92732472D01*
X123276278Y-92736767D01*
X123320180Y-92745500D01*
X123320181Y-92745500D01*
X123879819Y-92745500D01*
X123879820Y-92745500D01*
X123923722Y-92736767D01*
X123930150Y-92732472D01*
X123971263Y-92720000D01*
X124206253Y-92720000D01*
X124247363Y-92732469D01*
X124261278Y-92741767D01*
X124305180Y-92750500D01*
X124305181Y-92750500D01*
X126016000Y-92750500D01*
X126068326Y-92772174D01*
X126090000Y-92824500D01*
X126090000Y-93852954D01*
X126068326Y-93905280D01*
X126068325Y-93905280D01*
X126004502Y-93969102D01*
X125952595Y-93990775D01*
X124372424Y-93999703D01*
X124319977Y-93978325D01*
X124302334Y-93950639D01*
X124029828Y-93189224D01*
X124025500Y-93164289D01*
X124025500Y-93149998D01*
X124025499Y-93149997D01*
X124004667Y-93072250D01*
X123947749Y-93015332D01*
X123870002Y-92994500D01*
X123870000Y-92994500D01*
X122090872Y-92994500D01*
X122038546Y-92972826D01*
X122036598Y-92970803D01*
X121730000Y-92640000D01*
X121084000Y-92640000D01*
X121031674Y-92618326D01*
X121010000Y-92566000D01*
X121010000Y-92524000D01*
X121031674Y-92471674D01*
X121084000Y-92450000D01*
X122025088Y-92450000D01*
X122077412Y-92471672D01*
G37*
%TD.AperFunction*%
%TD*%
%TA.AperFunction,Conductor*%
%TO.N,GND*%
G36*
X121962267Y-93150000D02*
G01*
X123870000Y-93150000D01*
X123870000Y-94110000D01*
X123324261Y-94110000D01*
X123291897Y-94077636D01*
X123291896Y-94077635D01*
X123291894Y-94077634D01*
X123199828Y-94039500D01*
X122494413Y-94039500D01*
X122442087Y-94017826D01*
X121559398Y-93135137D01*
X121559394Y-93135134D01*
X121467328Y-93097000D01*
X121460151Y-93097000D01*
X121430000Y-93050000D01*
X121050000Y-93050000D01*
X121050000Y-92840000D01*
X121640000Y-92840000D01*
X121962267Y-93150000D01*
G37*
%TD.AperFunction*%
%TD*%
%TA.AperFunction,Conductor*%
%TO.N,3.3V*%
G36*
X130759181Y-90061674D02*
G01*
X130780850Y-90113140D01*
X130799130Y-91685140D01*
X130778066Y-91737714D01*
X130725995Y-91759995D01*
X130725135Y-91760000D01*
X127234000Y-91760000D01*
X127181674Y-91738326D01*
X127160000Y-91686000D01*
X127160000Y-90114000D01*
X127181674Y-90061674D01*
X127234000Y-90040000D01*
X130706855Y-90040000D01*
X130759181Y-90061674D01*
G37*
%TD.AperFunction*%
%TD*%
M02*
