%TF.GenerationSoftware,KiCad,Pcbnew,9.0.4*%
%TF.CreationDate,2025-09-05T06:37:09+02:00*%
%TF.ProjectId,PCB_MF_PicoMicro,5043425f-4d46-45f5-9069-636f4d696372,rev?*%
%TF.SameCoordinates,Original*%
%TF.FileFunction,Copper,L2,Bot*%
%TF.FilePolarity,Positive*%
%FSLAX46Y46*%
G04 Gerber Fmt 4.6, Leading zero omitted, Abs format (unit mm)*
G04 Created by KiCad (PCBNEW 9.0.4) date 2025-09-05 06:37:09*
%MOMM*%
%LPD*%
G01*
G04 APERTURE LIST*
G04 Aperture macros list*
%AMRoundRect*
0 Rectangle with rounded corners*
0 $1 Rounding radius*
0 $2 $3 $4 $5 $6 $7 $8 $9 X,Y pos of 4 corners*
0 Add a 4 corners polygon primitive as box body*
4,1,4,$2,$3,$4,$5,$6,$7,$8,$9,$2,$3,0*
0 Add four circle primitives for the rounded corners*
1,1,$1+$1,$2,$3*
1,1,$1+$1,$4,$5*
1,1,$1+$1,$6,$7*
1,1,$1+$1,$8,$9*
0 Add four rect primitives between the rounded corners*
20,1,$1+$1,$2,$3,$4,$5,0*
20,1,$1+$1,$4,$5,$6,$7,0*
20,1,$1+$1,$6,$7,$8,$9,0*
20,1,$1+$1,$8,$9,$2,$3,0*%
G04 Aperture macros list end*
%TA.AperFunction,ComponentPad*%
%ADD10RoundRect,0.250000X0.265000X0.615000X-0.265000X0.615000X-0.265000X-0.615000X0.265000X-0.615000X0*%
%TD*%
%TA.AperFunction,ComponentPad*%
%ADD11O,1.030000X1.730000*%
%TD*%
%TA.AperFunction,HeatsinkPad*%
%ADD12C,0.425000*%
%TD*%
%TA.AperFunction,HeatsinkPad*%
%ADD13O,2.100000X1.000000*%
%TD*%
%TA.AperFunction,HeatsinkPad*%
%ADD14O,1.600000X1.000000*%
%TD*%
%TA.AperFunction,ComponentPad*%
%ADD15R,1.700000X1.700000*%
%TD*%
%TA.AperFunction,ComponentPad*%
%ADD16C,1.700000*%
%TD*%
%TA.AperFunction,ViaPad*%
%ADD17C,0.650000*%
%TD*%
%TA.AperFunction,ViaPad*%
%ADD18C,0.450000*%
%TD*%
%TA.AperFunction,ViaPad*%
%ADD19C,0.600000*%
%TD*%
%TA.AperFunction,Conductor*%
%ADD20C,0.150000*%
%TD*%
%TA.AperFunction,Conductor*%
%ADD21C,0.500000*%
%TD*%
%TA.AperFunction,Conductor*%
%ADD22C,0.200000*%
%TD*%
%TA.AperFunction,Conductor*%
%ADD23C,0.600000*%
%TD*%
G04 APERTURE END LIST*
D10*
%TO.P,J7,1,Pin_1*%
%TO.N,RX1*%
X108900000Y-87175000D03*
D11*
%TO.P,J7,2,Pin_2*%
%TO.N,Net-(J7-Pin_2)*%
X107400000Y-87175000D03*
%TD*%
D12*
%TO.P,U1,61,GND*%
%TO.N,GND*%
X118350000Y-89697500D03*
X117500000Y-89697500D03*
X116650000Y-89697500D03*
X118350000Y-90547500D03*
X117500000Y-90547500D03*
X116650000Y-90547500D03*
X118350000Y-91397500D03*
X117500000Y-91397500D03*
X116650000Y-91397500D03*
%TD*%
D10*
%TO.P,J8,1,Pin_1*%
%TO.N,RX2*%
X108900000Y-95225000D03*
D11*
%TO.P,J8,2,Pin_2*%
%TO.N,Net-(J8-Pin_2)*%
X107400000Y-95225000D03*
%TD*%
D13*
%TO.P,J3,S1,SHIELD*%
%TO.N,GND*%
X135760000Y-94920000D03*
D14*
X139940000Y-94920000D03*
D13*
X135760000Y-86280000D03*
D14*
X139940000Y-86280000D03*
%TD*%
D15*
%TO.P,J2,1,Pin_1*%
%TO.N,VIN*%
X134690000Y-98340000D03*
D16*
%TO.P,J2,2,Pin_2*%
%TO.N,GND*%
X132150000Y-98340000D03*
%TO.P,J2,3,Pin_3*%
%TO.N,RST*%
X129610000Y-98340000D03*
%TO.P,J2,4,Pin_4*%
%TO.N,3.3V*%
X127070000Y-98340000D03*
%TO.P,J2,5,Pin_5*%
%TO.N,A3*%
X124530000Y-98340000D03*
%TO.P,J2,6,Pin_6*%
%TO.N,A2*%
X121990000Y-98340000D03*
%TO.P,J2,7,Pin_7*%
%TO.N,A1*%
X119450000Y-98340000D03*
%TO.P,J2,8,Pin_8*%
%TO.N,A0*%
X116910000Y-98340000D03*
%TO.P,J2,9,Pin_9*%
%TO.N,D15*%
X114370000Y-98340000D03*
%TO.P,J2,10,Pin_10*%
%TO.N,D14*%
X111830000Y-98340000D03*
%TO.P,J2,11,Pin_11*%
%TO.N,D13*%
X109290000Y-98340000D03*
%TO.P,J2,12,Pin_12*%
%TO.N,D10*%
X106750000Y-98340000D03*
%TD*%
D15*
%TO.P,J1,1,Pin_1*%
%TO.N,D1*%
X134690000Y-83110000D03*
D16*
%TO.P,J1,2,Pin_2*%
%TO.N,D0*%
X132150000Y-83110000D03*
%TO.P,J1,3,Pin_3*%
%TO.N,GND*%
X129610000Y-83110000D03*
%TO.P,J1,4,Pin_4*%
X127070000Y-83110000D03*
%TO.P,J1,5,Pin_5*%
%TO.N,D4*%
X124530000Y-83110000D03*
%TO.P,J1,6,Pin_6*%
%TO.N,D5*%
X121990000Y-83110000D03*
%TO.P,J1,7,Pin_7*%
%TO.N,D2*%
X119450000Y-83110000D03*
%TO.P,J1,8,Pin_8*%
%TO.N,D3*%
X116910000Y-83110000D03*
%TO.P,J1,9,Pin_9*%
%TO.N,D6*%
X114370000Y-83110000D03*
%TO.P,J1,10,Pin_10*%
%TO.N,D7*%
X111830000Y-83110000D03*
%TO.P,J1,11,Pin_11*%
%TO.N,D8*%
X109290000Y-83110000D03*
%TO.P,J1,12,Pin_12*%
%TO.N,D9*%
X106750000Y-83110000D03*
%TD*%
D17*
%TO.N,GND*%
X106000000Y-96370000D03*
D18*
X111380000Y-89500000D03*
D17*
X123160000Y-85430000D03*
X121360000Y-94480000D03*
X126910000Y-85320000D03*
D18*
X111380000Y-91470000D03*
D17*
X115420000Y-85370000D03*
X126760000Y-92470000D03*
X122290000Y-96590000D03*
D18*
X111400000Y-94040000D03*
D17*
X129730000Y-92760000D03*
X129670000Y-95480000D03*
D18*
X117950000Y-96550000D03*
D17*
X111710000Y-95780000D03*
X106100000Y-92990000D03*
X106040000Y-88670000D03*
X126430000Y-89630000D03*
D18*
X111380000Y-93050000D03*
D17*
X123648732Y-94046268D03*
X113720000Y-94200000D03*
X106060000Y-85130000D03*
X107450000Y-88650000D03*
X129530000Y-89260000D03*
D19*
%TO.N,3.3V*%
X120180000Y-95580000D03*
X126920000Y-86270000D03*
X127570000Y-86290000D03*
X121160000Y-95580000D03*
X119970000Y-92920000D03*
D18*
X116960000Y-95590000D03*
D19*
X122560000Y-86270000D03*
D18*
X112340000Y-93050000D03*
X113860000Y-95580000D03*
X112340000Y-88510000D03*
X116380000Y-85370000D03*
D19*
X127460000Y-88910000D03*
D18*
X124480000Y-89850000D03*
%TO.N,+1V1*%
X119910000Y-90640000D03*
X124590000Y-92240000D03*
X119910000Y-90060000D03*
X125730000Y-92260000D03*
X119910000Y-89500000D03*
X125170000Y-92250000D03*
%TO.N,/RP2350A/USB_D-*%
X133275000Y-91440000D03*
D19*
X123570000Y-91440000D03*
%TO.N,/RP2350A/USB_D+*%
X123570000Y-90440000D03*
D18*
X133275000Y-90540000D03*
%TO.N,/RP2350A/~{USB_BOOT}*%
X128540000Y-94310000D03*
X130790000Y-94310000D03*
%TO.N,D4*%
X117760000Y-84880000D03*
%TO.N,D0*%
X133518451Y-84007236D03*
%TO.N,D10*%
X112979017Y-84789999D03*
%TO.N,D5*%
X117350000Y-84480000D03*
%TO.N,D13*%
X113847657Y-85893343D03*
%TO.N,/RP2350A/GPIO11*%
X112370000Y-86510000D03*
X114160000Y-86360000D03*
%TO.N,/RP2350A/QSPI_SD0*%
X122115907Y-88918407D03*
X124559998Y-88840000D03*
%TO.N,D15*%
X112995000Y-85998019D03*
%TO.N,D14*%
X113377275Y-85600000D03*
%TO.N,TX1*%
X109442000Y-93530000D03*
X109430000Y-88860000D03*
%TO.N,RX1*%
X109000000Y-93900000D03*
%TO.N,RX2*%
X107502157Y-97032157D03*
%TO.N,RST*%
X113830000Y-96590000D03*
%TO.N,/RP2350A/QSPI_SCLK*%
X122670000Y-88750000D03*
X125570000Y-88460000D03*
%TO.N,/RP2350A/QSPI_SD3*%
X125580000Y-87840000D03*
X123438000Y-89410000D03*
%TO.N,VIN*%
X129510000Y-88170000D03*
X130740000Y-88180000D03*
X130140000Y-88170000D03*
%TO.N,Net-(J3-CC2)*%
X133460000Y-88180000D03*
X133050000Y-85320000D03*
%TO.N,Net-(J3-CC1)*%
X133820000Y-92475000D03*
X133340000Y-95370000D03*
%TD*%
D20*
%TO.N,GND*%
X130395686Y-83110000D02*
X129610000Y-83110000D01*
D21*
%TO.N,3.3V*%
X112350000Y-88520000D02*
X112340000Y-88510000D01*
D22*
X125370000Y-89850000D02*
X124480000Y-89850000D01*
D21*
X116970000Y-95600000D02*
X120180000Y-95600000D01*
D22*
X126310000Y-88910000D02*
X125370000Y-89850000D01*
D21*
X120180000Y-95600000D02*
X120180000Y-93140000D01*
X112340000Y-94530000D02*
X113400000Y-95590000D01*
X126990000Y-86270000D02*
X122560000Y-86270000D01*
X112340000Y-93050000D02*
X112340000Y-94530000D01*
X112340000Y-92210000D02*
X112340000Y-93050000D01*
X120180000Y-95580000D02*
X121160000Y-95580000D01*
X116770000Y-86270000D02*
X122560000Y-86270000D01*
X113400000Y-95590000D02*
X116960000Y-95590000D01*
X127570000Y-86290000D02*
X127010000Y-86290000D01*
X116380000Y-85880000D02*
X116770000Y-86270000D01*
X127010000Y-86290000D02*
X126990000Y-86270000D01*
D22*
X127460000Y-88910000D02*
X126310000Y-88910000D01*
D21*
X116380000Y-85370000D02*
X116380000Y-85880000D01*
X116960000Y-95590000D02*
X116970000Y-95600000D01*
X112350000Y-92120000D02*
X112350000Y-88520000D01*
X119970000Y-92930000D02*
X119970000Y-92920000D01*
X120180000Y-93140000D02*
X119970000Y-92930000D01*
%TO.N,+1V1*%
X125680000Y-92260000D02*
X125670000Y-92250000D01*
X119910000Y-90060000D02*
X119960000Y-90110000D01*
X121130000Y-90110000D02*
X123279346Y-92259346D01*
X119910000Y-90060000D02*
X119910000Y-90640000D01*
X125670000Y-92250000D02*
X124660000Y-92250000D01*
X123279346Y-92259346D02*
X123469346Y-92259346D01*
X119960000Y-90110000D02*
X121130000Y-90110000D01*
X124650000Y-92260000D02*
X124660000Y-92250000D01*
X123469346Y-92250000D02*
X124650000Y-92250000D01*
X119910000Y-89500000D02*
X119910000Y-90060000D01*
D23*
%TO.N,/RP2350A/USB_D-*%
X133275000Y-91440000D02*
X123570000Y-91440000D01*
%TO.N,/RP2350A/USB_D+*%
X123670000Y-90540000D02*
X123570000Y-90440000D01*
X124770364Y-90551000D02*
X124189636Y-90551000D01*
X124781364Y-90540000D02*
X124770364Y-90551000D01*
X133275000Y-90540000D02*
X124781364Y-90540000D01*
X124178636Y-90540000D02*
X123670000Y-90540000D01*
X124189636Y-90551000D02*
X124178636Y-90540000D01*
D20*
%TO.N,/RP2350A/~{USB_BOOT}*%
X128540000Y-94330000D02*
X128540000Y-94310000D01*
X128540000Y-94310000D02*
X130790000Y-94310000D01*
%TO.N,D4*%
X117760000Y-84880000D02*
X120610000Y-84880000D01*
X120610000Y-84880000D02*
X120930000Y-84560000D01*
X124430000Y-83050000D02*
X124440000Y-83060000D01*
X120930000Y-84560000D02*
X123080000Y-84560000D01*
X123080000Y-84560000D02*
X124530000Y-83110000D01*
X123875000Y-83050000D02*
X124430000Y-83050000D01*
%TO.N,D0*%
X133047236Y-84007236D02*
X132150000Y-83110000D01*
X133518451Y-84007236D02*
X133047236Y-84007236D01*
X131960000Y-83160000D02*
X132070000Y-83050000D01*
%TO.N,D10*%
X112979017Y-84789999D02*
X111720000Y-84790000D01*
X109842000Y-86668002D02*
X109842000Y-96788000D01*
X109842000Y-96788000D02*
X109316000Y-97314000D01*
X107786000Y-97314000D02*
X106750000Y-98350000D01*
X111720000Y-84790000D02*
X109842000Y-86668002D01*
X109316000Y-97314000D02*
X107786000Y-97314000D01*
%TO.N,D5*%
X120620000Y-84480000D02*
X121990000Y-83110000D01*
X117350000Y-84480000D02*
X120620000Y-84480000D01*
%TO.N,D13*%
X113891000Y-85850000D02*
X113891000Y-85509349D01*
X110093000Y-97547000D02*
X109290000Y-98350000D01*
X113581651Y-85200000D02*
X111664970Y-85200000D01*
X111664970Y-85200000D02*
X110093000Y-86771970D01*
X113847657Y-85893343D02*
X113891000Y-85850000D01*
X110093000Y-86771970D02*
X110093000Y-97547000D01*
X113891000Y-85509349D02*
X113581651Y-85200000D01*
%TO.N,/RP2350A/GPIO11*%
X114010000Y-86510000D02*
X114160000Y-86360000D01*
X112370000Y-86510000D02*
X114010000Y-86510000D01*
%TO.N,/RP2350A/QSPI_SD0*%
X122370000Y-89160000D02*
X122135907Y-88925907D01*
X124549998Y-88850000D02*
X123390000Y-88850000D01*
X124559998Y-88840000D02*
X124549998Y-88850000D01*
X122115907Y-88925907D02*
X122115907Y-88918407D01*
X123390000Y-88850000D02*
X123080000Y-89160000D01*
X123080000Y-89160000D02*
X122370000Y-89160000D01*
X122135907Y-88925907D02*
X122115907Y-88925907D01*
%TO.N,A1*%
X119340000Y-98290000D02*
X119370000Y-98290000D01*
%TO.N,D15*%
X112986981Y-85990000D02*
X111584906Y-85990000D01*
X112995000Y-85998019D02*
X112986981Y-85990000D01*
X110595000Y-86979906D02*
X110595000Y-96770032D01*
X110595000Y-96770032D02*
X111138968Y-97314000D01*
X111138968Y-97314000D02*
X113334000Y-97314000D01*
X113334000Y-97314000D02*
X114370000Y-98350000D01*
X111584906Y-85990000D02*
X110595000Y-86979906D01*
%TO.N,D14*%
X113341001Y-85526450D02*
X111693488Y-85526450D01*
X110344000Y-86875938D02*
X110344000Y-96874000D01*
X111840000Y-98340000D02*
X111830000Y-98350000D01*
X111693488Y-85526450D02*
X110344000Y-86875938D01*
X111810000Y-98340000D02*
X111840000Y-98340000D01*
X110344000Y-96874000D02*
X111810000Y-98340000D01*
X113377275Y-85600000D02*
X113377275Y-85562724D01*
X111750000Y-98290000D02*
X111758000Y-98298000D01*
X112025000Y-98015000D02*
X111750000Y-98290000D01*
X113377275Y-85562724D02*
X113341001Y-85526450D01*
%TO.N,TX1*%
X109430000Y-88860000D02*
X109591000Y-89021000D01*
X109591000Y-89021000D02*
X109591000Y-93381000D01*
X109591000Y-93381000D02*
X109442000Y-93530000D01*
%TO.N,RX1*%
X109281000Y-93129000D02*
X109340000Y-93070000D01*
X109275900Y-93129000D02*
X109281000Y-93129000D01*
X109340000Y-89337100D02*
X109029000Y-89026100D01*
X109340000Y-93070000D02*
X109340000Y-89337100D01*
X109041000Y-93369000D02*
X109041000Y-93363900D01*
X109000000Y-93900000D02*
X109020000Y-93880000D01*
X109041000Y-93363900D02*
X109275900Y-93129000D01*
X108727222Y-87175000D02*
X108900000Y-87175000D01*
X109029000Y-89026100D02*
X109029000Y-87304000D01*
X109020000Y-93880000D02*
X109020000Y-93390000D01*
X109029000Y-87304000D02*
X108900000Y-87175000D01*
X109020000Y-93390000D02*
X109041000Y-93369000D01*
%TO.N,RX2*%
X108920000Y-96650000D02*
X108920000Y-95245000D01*
X107502157Y-97032157D02*
X108537843Y-97032157D01*
X108537843Y-97032157D02*
X108920000Y-96650000D01*
X108920000Y-95245000D02*
X108900000Y-95225000D01*
%TO.N,RST*%
X113830000Y-96590000D02*
X113860000Y-96620000D01*
X113830000Y-96590000D02*
X113830000Y-96630000D01*
X113860000Y-96620000D02*
X113860000Y-96630000D01*
X114544000Y-97314000D02*
X128584000Y-97314000D01*
X128584000Y-97314000D02*
X129610000Y-98340000D01*
X113860000Y-96630000D02*
X114544000Y-97314000D01*
%TO.N,/RP2350A/QSPI_SCLK*%
X125510000Y-88400000D02*
X125570000Y-88460000D01*
X123020000Y-88400000D02*
X125510000Y-88400000D01*
X122670000Y-88750000D02*
X123020000Y-88400000D01*
%TO.N,/RP2350A/QSPI_SD3*%
X125380000Y-89370000D02*
X125971000Y-88779000D01*
X125971000Y-88231000D02*
X125580000Y-87840000D01*
X123438000Y-89410000D02*
X123478000Y-89370000D01*
X123478000Y-89370000D02*
X125380000Y-89370000D01*
X125971000Y-88779000D02*
X125971000Y-88231000D01*
D21*
%TO.N,VIN*%
X130740000Y-88180000D02*
X130740000Y-88200000D01*
X130140000Y-88170000D02*
X130730000Y-88170000D01*
X138120000Y-95830000D02*
X135600000Y-98350000D01*
X129510000Y-88170000D02*
X130140000Y-88170000D01*
X130740000Y-88200000D02*
X132180000Y-89640000D01*
X135600000Y-98350000D02*
X134690000Y-98350000D01*
X130730000Y-88170000D02*
X130740000Y-88180000D01*
X138120000Y-92140000D02*
X138120000Y-95830000D01*
X132180000Y-89640000D02*
X135620000Y-89640000D01*
X135620000Y-89640000D02*
X138120000Y-92140000D01*
D20*
%TO.N,Net-(J3-CC2)*%
X133460000Y-88200000D02*
X133760000Y-88500000D01*
X137330000Y-88500000D02*
X137880000Y-87950000D01*
X133210000Y-85160000D02*
X133050000Y-85320000D01*
X137080000Y-85060000D02*
X133270000Y-85060000D01*
X133460000Y-88180000D02*
X133460000Y-88200000D01*
X133760000Y-88500000D02*
X137330000Y-88500000D01*
X137880000Y-87950000D02*
X137880000Y-85860000D01*
X133270000Y-85060000D02*
X133210000Y-85120000D01*
X137880000Y-85860000D02*
X137080000Y-85060000D01*
%TO.N,Net-(J3-CC1)*%
X134240000Y-96270000D02*
X133340000Y-95370000D01*
X133820000Y-92475000D02*
X136875000Y-92475000D01*
X137694000Y-93294000D02*
X137694000Y-95446000D01*
X136870000Y-96270000D02*
X134240000Y-96270000D01*
X136875000Y-92475000D02*
X137694000Y-93294000D01*
X137694000Y-95446000D02*
X136870000Y-96270000D01*
%TO.N,Net-(J7-Pin_2)*%
X107385000Y-87175000D02*
X107400000Y-87175000D01*
%TD*%
%TA.AperFunction,Conductor*%
%TO.N,GND*%
G36*
X141490691Y-81639407D02*
G01*
X141526655Y-81688907D01*
X141531500Y-81719500D01*
X141531500Y-99620500D01*
X141512593Y-99678691D01*
X141463093Y-99714655D01*
X141432500Y-99719500D01*
X105531500Y-99719500D01*
X105473309Y-99700593D01*
X105437345Y-99651093D01*
X105432500Y-99620500D01*
X105432500Y-98236532D01*
X105699500Y-98236532D01*
X105699500Y-98443467D01*
X105739869Y-98646418D01*
X105819058Y-98837597D01*
X105819059Y-98837598D01*
X105934023Y-99009655D01*
X106080345Y-99155977D01*
X106252402Y-99270941D01*
X106443580Y-99350130D01*
X106646535Y-99390500D01*
X106646536Y-99390500D01*
X106853464Y-99390500D01*
X106853465Y-99390500D01*
X107056420Y-99350130D01*
X107247598Y-99270941D01*
X107419655Y-99155977D01*
X107565977Y-99009655D01*
X107680941Y-98837598D01*
X107760130Y-98646420D01*
X107800500Y-98443465D01*
X107800500Y-98236535D01*
X107760130Y-98033580D01*
X107696375Y-97879664D01*
X107691575Y-97818669D01*
X107717836Y-97771778D01*
X107871120Y-97618496D01*
X107925637Y-97590719D01*
X107941123Y-97589500D01*
X108342826Y-97589500D01*
X108401017Y-97608407D01*
X108436981Y-97657907D01*
X108436981Y-97719093D01*
X108425142Y-97743501D01*
X108359058Y-97842402D01*
X108279869Y-98033581D01*
X108239500Y-98236532D01*
X108239500Y-98443467D01*
X108279869Y-98646418D01*
X108359058Y-98837597D01*
X108359059Y-98837598D01*
X108474023Y-99009655D01*
X108620345Y-99155977D01*
X108792402Y-99270941D01*
X108983580Y-99350130D01*
X109186535Y-99390500D01*
X109186536Y-99390500D01*
X109393464Y-99390500D01*
X109393465Y-99390500D01*
X109596420Y-99350130D01*
X109787598Y-99270941D01*
X109959655Y-99155977D01*
X110105977Y-99009655D01*
X110220941Y-98837598D01*
X110300130Y-98646420D01*
X110340500Y-98443465D01*
X110340500Y-98236535D01*
X110300130Y-98033580D01*
X110239306Y-97886738D01*
X110236377Y-97879666D01*
X110234755Y-97859064D01*
X110228873Y-97839249D01*
X110232525Y-97830739D01*
X110231576Y-97818670D01*
X110249263Y-97781561D01*
X110253227Y-97776388D01*
X110326557Y-97703059D01*
X110341733Y-97666420D01*
X110368500Y-97601800D01*
X110368500Y-97527123D01*
X110387407Y-97468932D01*
X110436907Y-97432968D01*
X110498093Y-97432968D01*
X110537504Y-97457120D01*
X110859233Y-97778850D01*
X110887010Y-97833366D01*
X110880693Y-97886738D01*
X110819870Y-98033578D01*
X110819870Y-98033580D01*
X110779500Y-98236532D01*
X110779500Y-98443467D01*
X110819869Y-98646418D01*
X110899058Y-98837597D01*
X110899059Y-98837598D01*
X111014023Y-99009655D01*
X111160345Y-99155977D01*
X111332402Y-99270941D01*
X111523580Y-99350130D01*
X111726535Y-99390500D01*
X111726536Y-99390500D01*
X111933464Y-99390500D01*
X111933465Y-99390500D01*
X112136420Y-99350130D01*
X112327598Y-99270941D01*
X112499655Y-99155977D01*
X112645977Y-99009655D01*
X112760941Y-98837598D01*
X112840130Y-98646420D01*
X112880500Y-98443465D01*
X112880500Y-98236535D01*
X112840130Y-98033580D01*
X112760941Y-97842402D01*
X112694858Y-97743501D01*
X112678250Y-97684613D01*
X112699428Y-97627209D01*
X112750302Y-97593217D01*
X112777174Y-97589500D01*
X113178877Y-97589500D01*
X113237068Y-97608407D01*
X113248881Y-97618496D01*
X113402163Y-97771778D01*
X113429940Y-97826295D01*
X113423623Y-97879668D01*
X113359869Y-98033581D01*
X113319500Y-98236532D01*
X113319500Y-98443467D01*
X113359869Y-98646418D01*
X113439058Y-98837597D01*
X113439059Y-98837598D01*
X113554023Y-99009655D01*
X113700345Y-99155977D01*
X113872402Y-99270941D01*
X114063580Y-99350130D01*
X114266535Y-99390500D01*
X114266536Y-99390500D01*
X114473464Y-99390500D01*
X114473465Y-99390500D01*
X114676420Y-99350130D01*
X114867598Y-99270941D01*
X115039655Y-99155977D01*
X115185977Y-99009655D01*
X115300941Y-98837598D01*
X115380130Y-98646420D01*
X115420500Y-98443465D01*
X115420500Y-98236535D01*
X115380130Y-98033580D01*
X115300941Y-97842402D01*
X115234858Y-97743501D01*
X115218250Y-97684613D01*
X115239428Y-97627209D01*
X115290302Y-97593217D01*
X115317174Y-97589500D01*
X115962826Y-97589500D01*
X116021017Y-97608407D01*
X116056981Y-97657907D01*
X116056981Y-97719093D01*
X116045142Y-97743501D01*
X115979058Y-97842402D01*
X115899869Y-98033581D01*
X115859500Y-98236532D01*
X115859500Y-98443467D01*
X115899869Y-98646418D01*
X115979058Y-98837597D01*
X115979059Y-98837598D01*
X116094023Y-99009655D01*
X116240345Y-99155977D01*
X116412402Y-99270941D01*
X116603580Y-99350130D01*
X116806535Y-99390500D01*
X116806536Y-99390500D01*
X117013464Y-99390500D01*
X117013465Y-99390500D01*
X117216420Y-99350130D01*
X117407598Y-99270941D01*
X117579655Y-99155977D01*
X117725977Y-99009655D01*
X117840941Y-98837598D01*
X117920130Y-98646420D01*
X117960500Y-98443465D01*
X117960500Y-98236535D01*
X117920130Y-98033580D01*
X117840941Y-97842402D01*
X117774858Y-97743501D01*
X117758250Y-97684613D01*
X117779428Y-97627209D01*
X117830302Y-97593217D01*
X117857174Y-97589500D01*
X118502826Y-97589500D01*
X118561017Y-97608407D01*
X118596981Y-97657907D01*
X118596981Y-97719093D01*
X118585142Y-97743501D01*
X118519058Y-97842402D01*
X118439869Y-98033581D01*
X118399500Y-98236532D01*
X118399500Y-98443467D01*
X118439869Y-98646418D01*
X118519058Y-98837597D01*
X118519059Y-98837598D01*
X118634023Y-99009655D01*
X118780345Y-99155977D01*
X118952402Y-99270941D01*
X119143580Y-99350130D01*
X119346535Y-99390500D01*
X119346536Y-99390500D01*
X119553464Y-99390500D01*
X119553465Y-99390500D01*
X119756420Y-99350130D01*
X119947598Y-99270941D01*
X120119655Y-99155977D01*
X120265977Y-99009655D01*
X120380941Y-98837598D01*
X120460130Y-98646420D01*
X120500500Y-98443465D01*
X120500500Y-98236535D01*
X120460130Y-98033580D01*
X120380941Y-97842402D01*
X120314858Y-97743501D01*
X120298250Y-97684613D01*
X120319428Y-97627209D01*
X120370302Y-97593217D01*
X120397174Y-97589500D01*
X121042826Y-97589500D01*
X121101017Y-97608407D01*
X121136981Y-97657907D01*
X121136981Y-97719093D01*
X121125142Y-97743501D01*
X121059058Y-97842402D01*
X120979869Y-98033581D01*
X120939500Y-98236532D01*
X120939500Y-98443467D01*
X120979869Y-98646418D01*
X121059058Y-98837597D01*
X121059059Y-98837598D01*
X121174023Y-99009655D01*
X121320345Y-99155977D01*
X121492402Y-99270941D01*
X121683580Y-99350130D01*
X121886535Y-99390500D01*
X121886536Y-99390500D01*
X122093464Y-99390500D01*
X122093465Y-99390500D01*
X122296420Y-99350130D01*
X122487598Y-99270941D01*
X122659655Y-99155977D01*
X122805977Y-99009655D01*
X122920941Y-98837598D01*
X123000130Y-98646420D01*
X123040500Y-98443465D01*
X123040500Y-98236535D01*
X123000130Y-98033580D01*
X122920941Y-97842402D01*
X122854858Y-97743501D01*
X122838250Y-97684613D01*
X122859428Y-97627209D01*
X122910302Y-97593217D01*
X122937174Y-97589500D01*
X123582826Y-97589500D01*
X123641017Y-97608407D01*
X123676981Y-97657907D01*
X123676981Y-97719093D01*
X123665142Y-97743501D01*
X123599058Y-97842402D01*
X123519869Y-98033581D01*
X123479500Y-98236532D01*
X123479500Y-98443467D01*
X123519869Y-98646418D01*
X123599058Y-98837597D01*
X123599059Y-98837598D01*
X123714023Y-99009655D01*
X123860345Y-99155977D01*
X124032402Y-99270941D01*
X124223580Y-99350130D01*
X124426535Y-99390500D01*
X124426536Y-99390500D01*
X124633464Y-99390500D01*
X124633465Y-99390500D01*
X124836420Y-99350130D01*
X125027598Y-99270941D01*
X125199655Y-99155977D01*
X125345977Y-99009655D01*
X125460941Y-98837598D01*
X125540130Y-98646420D01*
X125580500Y-98443465D01*
X125580500Y-98236535D01*
X125540130Y-98033580D01*
X125460941Y-97842402D01*
X125394858Y-97743501D01*
X125378250Y-97684613D01*
X125399428Y-97627209D01*
X125450302Y-97593217D01*
X125477174Y-97589500D01*
X126122826Y-97589500D01*
X126181017Y-97608407D01*
X126216981Y-97657907D01*
X126216981Y-97719093D01*
X126205142Y-97743501D01*
X126139058Y-97842402D01*
X126059869Y-98033581D01*
X126019500Y-98236532D01*
X126019500Y-98443467D01*
X126059869Y-98646418D01*
X126139058Y-98837597D01*
X126139059Y-98837598D01*
X126254023Y-99009655D01*
X126400345Y-99155977D01*
X126572402Y-99270941D01*
X126763580Y-99350130D01*
X126966535Y-99390500D01*
X126966536Y-99390500D01*
X127173464Y-99390500D01*
X127173465Y-99390500D01*
X127376420Y-99350130D01*
X127567598Y-99270941D01*
X127739655Y-99155977D01*
X127885977Y-99009655D01*
X128000941Y-98837598D01*
X128080130Y-98646420D01*
X128120500Y-98443465D01*
X128120500Y-98236535D01*
X128080130Y-98033580D01*
X128000941Y-97842402D01*
X127934858Y-97743501D01*
X127918250Y-97684613D01*
X127939428Y-97627209D01*
X127990302Y-97593217D01*
X128017174Y-97589500D01*
X128428878Y-97589500D01*
X128487069Y-97608407D01*
X128498882Y-97618497D01*
X128645091Y-97764707D01*
X128672868Y-97819223D01*
X128666551Y-97872595D01*
X128599870Y-98033578D01*
X128599870Y-98033580D01*
X128559500Y-98236532D01*
X128559500Y-98443467D01*
X128599869Y-98646418D01*
X128679058Y-98837597D01*
X128679059Y-98837598D01*
X128794023Y-99009655D01*
X128940345Y-99155977D01*
X129112402Y-99270941D01*
X129303580Y-99350130D01*
X129506535Y-99390500D01*
X129506536Y-99390500D01*
X129713464Y-99390500D01*
X129713465Y-99390500D01*
X129916420Y-99350130D01*
X130107598Y-99270941D01*
X130279655Y-99155977D01*
X130425977Y-99009655D01*
X130540941Y-98837598D01*
X130620130Y-98646420D01*
X130660500Y-98443465D01*
X130660500Y-98236581D01*
X131100000Y-98236581D01*
X131100000Y-98443418D01*
X131140349Y-98646272D01*
X131219501Y-98837360D01*
X131219508Y-98837374D01*
X131334405Y-99009329D01*
X131336826Y-99011750D01*
X131732210Y-98616365D01*
X131749901Y-98647007D01*
X131842993Y-98740099D01*
X131873632Y-98757788D01*
X131478249Y-99153173D01*
X131480670Y-99155594D01*
X131652625Y-99270491D01*
X131652639Y-99270498D01*
X131843727Y-99349650D01*
X132046581Y-99389999D01*
X132046586Y-99390000D01*
X132253414Y-99390000D01*
X132253418Y-99389999D01*
X132456272Y-99349650D01*
X132647360Y-99270498D01*
X132647366Y-99270495D01*
X132819333Y-99155591D01*
X132821750Y-99153173D01*
X132426366Y-98757789D01*
X132457007Y-98740099D01*
X132550099Y-98647007D01*
X132567789Y-98616366D01*
X132963173Y-99011750D01*
X132965591Y-99009333D01*
X133080495Y-98837366D01*
X133080498Y-98837360D01*
X133159650Y-98646272D01*
X133199999Y-98443418D01*
X133200000Y-98443413D01*
X133200000Y-98236586D01*
X133199999Y-98236581D01*
X133159650Y-98033727D01*
X133080498Y-97842639D01*
X133080491Y-97842625D01*
X132965594Y-97670670D01*
X132963173Y-97668249D01*
X132567788Y-98063632D01*
X132550099Y-98032993D01*
X132457007Y-97939901D01*
X132426365Y-97922210D01*
X132821750Y-97526826D01*
X132819329Y-97524405D01*
X132647374Y-97409508D01*
X132647360Y-97409501D01*
X132456272Y-97330349D01*
X132253418Y-97290000D01*
X132046581Y-97290000D01*
X131843727Y-97330349D01*
X131652639Y-97409501D01*
X131652630Y-97409505D01*
X131480665Y-97524410D01*
X131478248Y-97526825D01*
X131873633Y-97922210D01*
X131842993Y-97939901D01*
X131749901Y-98032993D01*
X131732210Y-98063633D01*
X131336825Y-97668248D01*
X131334410Y-97670665D01*
X131219505Y-97842630D01*
X131219501Y-97842639D01*
X131140349Y-98033727D01*
X131100000Y-98236581D01*
X130660500Y-98236581D01*
X130660500Y-98236535D01*
X130620130Y-98033580D01*
X130540941Y-97842402D01*
X130425977Y-97670345D01*
X130279655Y-97524023D01*
X130199182Y-97470253D01*
X130107597Y-97409058D01*
X129916418Y-97329869D01*
X129713467Y-97289500D01*
X129713465Y-97289500D01*
X129506535Y-97289500D01*
X129506532Y-97289500D01*
X129303580Y-97329870D01*
X129303578Y-97329870D01*
X129142595Y-97396551D01*
X129081598Y-97401351D01*
X129034707Y-97375091D01*
X128740058Y-97080443D01*
X128740055Y-97080441D01*
X128734888Y-97078300D01*
X128734888Y-97078301D01*
X128670544Y-97051649D01*
X128638800Y-97038500D01*
X128638799Y-97038500D01*
X114699124Y-97038500D01*
X114640933Y-97019593D01*
X114629120Y-97009504D01*
X114284496Y-96664880D01*
X114256719Y-96610363D01*
X114255500Y-96594876D01*
X114255500Y-96533983D01*
X114249744Y-96512501D01*
X114226503Y-96425763D01*
X114226501Y-96425760D01*
X114226501Y-96425758D01*
X114170486Y-96328739D01*
X114170485Y-96328737D01*
X114091263Y-96249515D01*
X114079620Y-96242793D01*
X114049211Y-96225236D01*
X114008270Y-96179767D01*
X114001874Y-96118917D01*
X114032467Y-96065929D01*
X114088363Y-96041042D01*
X114098711Y-96040500D01*
X116860336Y-96040500D01*
X116885959Y-96043873D01*
X116910691Y-96050500D01*
X119989111Y-96050500D01*
X120014732Y-96053872D01*
X120114108Y-96080500D01*
X120114110Y-96080500D01*
X120245890Y-96080500D01*
X120245892Y-96080500D01*
X120373186Y-96046392D01*
X120377741Y-96043761D01*
X120427239Y-96030500D01*
X120912761Y-96030500D01*
X120962258Y-96043761D01*
X120966814Y-96046392D01*
X121094108Y-96080500D01*
X121094110Y-96080500D01*
X121225890Y-96080500D01*
X121225892Y-96080500D01*
X121353186Y-96046392D01*
X121353188Y-96046390D01*
X121353190Y-96046390D01*
X121467309Y-95980503D01*
X121467309Y-95980502D01*
X121467314Y-95980500D01*
X121560500Y-95887314D01*
X121613509Y-95795500D01*
X121626390Y-95773190D01*
X121626390Y-95773188D01*
X121626392Y-95773186D01*
X121660500Y-95645892D01*
X121660500Y-95514108D01*
X121626392Y-95386814D01*
X121626390Y-95386811D01*
X121626390Y-95386809D01*
X121560503Y-95272690D01*
X121560501Y-95272688D01*
X121560500Y-95272686D01*
X121467314Y-95179500D01*
X121467311Y-95179498D01*
X121467309Y-95179496D01*
X121353189Y-95113609D01*
X121353191Y-95113609D01*
X121303799Y-95100375D01*
X121225892Y-95079500D01*
X121094108Y-95079500D01*
X121009245Y-95102238D01*
X120966813Y-95113608D01*
X120962259Y-95116238D01*
X120912761Y-95129500D01*
X120729500Y-95129500D01*
X120671309Y-95110593D01*
X120635345Y-95061093D01*
X120630500Y-95030500D01*
X120630500Y-94820000D01*
X134516177Y-94820000D01*
X134926212Y-94820000D01*
X134910000Y-94880504D01*
X134910000Y-94959496D01*
X134926212Y-95020000D01*
X134516178Y-95020000D01*
X134536901Y-95124181D01*
X134536901Y-95124183D01*
X134589666Y-95251571D01*
X134666271Y-95366220D01*
X134763779Y-95463728D01*
X134878428Y-95540333D01*
X135005816Y-95593098D01*
X135141055Y-95619999D01*
X135141057Y-95620000D01*
X135659999Y-95620000D01*
X135660000Y-95619999D01*
X135660000Y-95220000D01*
X135860000Y-95220000D01*
X135860000Y-95619999D01*
X135860001Y-95620000D01*
X136378943Y-95620000D01*
X136378944Y-95619999D01*
X136514183Y-95593098D01*
X136641571Y-95540333D01*
X136756220Y-95463728D01*
X136853728Y-95366220D01*
X136930333Y-95251571D01*
X136983098Y-95124183D01*
X136983098Y-95124181D01*
X137003822Y-95020000D01*
X136593788Y-95020000D01*
X136610000Y-94959496D01*
X136610000Y-94880504D01*
X136593788Y-94820000D01*
X137003822Y-94820000D01*
X136983098Y-94715818D01*
X136983098Y-94715816D01*
X136930333Y-94588428D01*
X136853728Y-94473779D01*
X136756220Y-94376271D01*
X136641571Y-94299666D01*
X136514183Y-94246901D01*
X136378944Y-94220000D01*
X135860001Y-94220000D01*
X135860000Y-94220001D01*
X135860000Y-94620000D01*
X135660000Y-94620000D01*
X135660000Y-94220001D01*
X135659999Y-94220000D01*
X135141055Y-94220000D01*
X135005816Y-94246901D01*
X134878428Y-94299666D01*
X134763779Y-94376271D01*
X134666271Y-94473779D01*
X134589666Y-94588428D01*
X134536901Y-94715816D01*
X134536901Y-94715818D01*
X134516177Y-94820000D01*
X120630500Y-94820000D01*
X120630500Y-94253982D01*
X128114500Y-94253982D01*
X128114500Y-94366018D01*
X128128668Y-94418895D01*
X128143498Y-94474241D01*
X128199513Y-94571260D01*
X128199515Y-94571263D01*
X128278737Y-94650485D01*
X128278739Y-94650486D01*
X128375759Y-94706501D01*
X128375757Y-94706501D01*
X128375761Y-94706502D01*
X128375763Y-94706503D01*
X128483982Y-94735500D01*
X128483984Y-94735500D01*
X128596016Y-94735500D01*
X128596018Y-94735500D01*
X128704237Y-94706503D01*
X128704239Y-94706501D01*
X128704241Y-94706501D01*
X128750245Y-94679940D01*
X128801263Y-94650485D01*
X128819257Y-94632490D01*
X128837253Y-94614496D01*
X128891770Y-94586719D01*
X128907256Y-94585500D01*
X130422744Y-94585500D01*
X130480935Y-94604407D01*
X130492747Y-94614496D01*
X130528737Y-94650485D01*
X130625759Y-94706501D01*
X130625757Y-94706501D01*
X130625761Y-94706502D01*
X130625763Y-94706503D01*
X130733982Y-94735500D01*
X130733984Y-94735500D01*
X130846016Y-94735500D01*
X130846018Y-94735500D01*
X130954237Y-94706503D01*
X130954239Y-94706501D01*
X130954241Y-94706501D01*
X131000245Y-94679940D01*
X131051263Y-94650485D01*
X131130485Y-94571263D01*
X131186503Y-94474237D01*
X131215500Y-94366018D01*
X131215500Y-94253982D01*
X131186503Y-94145763D01*
X131186501Y-94145760D01*
X131186501Y-94145758D01*
X131130486Y-94048739D01*
X131130485Y-94048737D01*
X131051263Y-93969515D01*
X131027886Y-93956018D01*
X130954240Y-93913498D01*
X130954242Y-93913498D01*
X130912251Y-93902247D01*
X130846018Y-93884500D01*
X130733982Y-93884500D01*
X130667748Y-93902247D01*
X130625758Y-93913498D01*
X130528737Y-93969514D01*
X130492747Y-94005504D01*
X130438230Y-94033281D01*
X130422744Y-94034500D01*
X128907256Y-94034500D01*
X128849065Y-94015593D01*
X128837253Y-94005504D01*
X128801262Y-93969514D01*
X128704240Y-93913498D01*
X128704242Y-93913498D01*
X128662251Y-93902247D01*
X128596018Y-93884500D01*
X128483982Y-93884500D01*
X128417748Y-93902247D01*
X128375758Y-93913498D01*
X128278739Y-93969513D01*
X128199513Y-94048739D01*
X128143498Y-94145758D01*
X128143497Y-94145763D01*
X128114500Y-94253982D01*
X120630500Y-94253982D01*
X120630500Y-93433982D01*
X135834500Y-93433982D01*
X135834500Y-93546018D01*
X135841177Y-93570936D01*
X135863498Y-93654241D01*
X135910563Y-93735758D01*
X135919515Y-93751263D01*
X135998737Y-93830485D01*
X136022116Y-93843983D01*
X136095759Y-93886501D01*
X136095757Y-93886501D01*
X136095761Y-93886502D01*
X136095763Y-93886503D01*
X136203982Y-93915500D01*
X136203984Y-93915500D01*
X136316016Y-93915500D01*
X136316018Y-93915500D01*
X136424237Y-93886503D01*
X136424239Y-93886501D01*
X136424241Y-93886501D01*
X136453064Y-93869859D01*
X136521263Y-93830485D01*
X136600485Y-93751263D01*
X136656503Y-93654237D01*
X136685500Y-93546018D01*
X136685500Y-93433982D01*
X136656503Y-93325763D01*
X136656501Y-93325760D01*
X136656501Y-93325758D01*
X136603488Y-93233938D01*
X136600485Y-93228737D01*
X136521263Y-93149515D01*
X136521260Y-93149513D01*
X136424240Y-93093498D01*
X136424242Y-93093498D01*
X136376444Y-93080691D01*
X136316018Y-93064500D01*
X136203982Y-93064500D01*
X136143556Y-93080691D01*
X136095758Y-93093498D01*
X135998739Y-93149513D01*
X135919513Y-93228739D01*
X135863498Y-93325758D01*
X135863497Y-93325763D01*
X135834500Y-93433982D01*
X120630500Y-93433982D01*
X120630500Y-93080692D01*
X120626161Y-93064500D01*
X120599799Y-92966114D01*
X120599799Y-92966113D01*
X120540490Y-92863386D01*
X120531212Y-92854108D01*
X120467034Y-92789929D01*
X120441412Y-92745550D01*
X120436392Y-92726814D01*
X120436390Y-92726811D01*
X120436390Y-92726809D01*
X120370503Y-92612690D01*
X120370501Y-92612688D01*
X120370500Y-92612686D01*
X120277314Y-92519500D01*
X120277311Y-92519498D01*
X120277309Y-92519496D01*
X120163189Y-92453609D01*
X120163191Y-92453609D01*
X120113799Y-92440375D01*
X120035892Y-92419500D01*
X119904108Y-92419500D01*
X119826200Y-92440375D01*
X119776809Y-92453609D01*
X119662690Y-92519496D01*
X119569496Y-92612690D01*
X119503609Y-92726809D01*
X119503608Y-92726814D01*
X119469500Y-92854108D01*
X119469500Y-92985892D01*
X119470786Y-92990691D01*
X119503609Y-93113190D01*
X119569496Y-93227309D01*
X119569498Y-93227311D01*
X119569500Y-93227314D01*
X119662686Y-93320500D01*
X119680000Y-93330496D01*
X119720941Y-93375964D01*
X119729500Y-93416232D01*
X119729500Y-95050500D01*
X119710593Y-95108691D01*
X119661093Y-95144655D01*
X119630500Y-95149500D01*
X117069664Y-95149500D01*
X117044041Y-95146127D01*
X117038547Y-95144655D01*
X117019309Y-95139500D01*
X117019308Y-95139500D01*
X113627611Y-95139500D01*
X113569420Y-95120593D01*
X113557607Y-95110504D01*
X112819496Y-94372393D01*
X112791719Y-94317876D01*
X112790500Y-94302389D01*
X112790500Y-92229663D01*
X112793873Y-92204040D01*
X112800500Y-92179309D01*
X112800500Y-91751233D01*
X116437686Y-91751233D01*
X116490783Y-91781888D01*
X116490784Y-91781889D01*
X116595690Y-91809999D01*
X116595692Y-91810000D01*
X116704308Y-91810000D01*
X116704309Y-91809999D01*
X116809218Y-91781888D01*
X116809222Y-91781886D01*
X116862312Y-91751234D01*
X116862311Y-91751233D01*
X117287686Y-91751233D01*
X117340783Y-91781888D01*
X117340784Y-91781889D01*
X117445690Y-91809999D01*
X117445692Y-91810000D01*
X117554308Y-91810000D01*
X117554309Y-91809999D01*
X117659218Y-91781888D01*
X117659222Y-91781886D01*
X117712312Y-91751234D01*
X117712311Y-91751233D01*
X118137686Y-91751233D01*
X118190783Y-91781888D01*
X118190784Y-91781889D01*
X118295690Y-91809999D01*
X118295692Y-91810000D01*
X118404308Y-91810000D01*
X118404309Y-91809999D01*
X118509218Y-91781888D01*
X118509222Y-91781886D01*
X118562312Y-91751234D01*
X118349999Y-91538921D01*
X118137686Y-91751233D01*
X117712311Y-91751233D01*
X117499999Y-91538921D01*
X117287686Y-91751233D01*
X116862311Y-91751233D01*
X116649999Y-91538921D01*
X116437686Y-91751233D01*
X112800500Y-91751233D01*
X112800500Y-91343190D01*
X116237500Y-91343190D01*
X116237500Y-91451809D01*
X116265610Y-91556715D01*
X116265612Y-91556720D01*
X116296264Y-91609812D01*
X116508578Y-91397499D01*
X116487444Y-91376365D01*
X116543750Y-91376365D01*
X116543750Y-91418635D01*
X116559925Y-91457686D01*
X116589814Y-91487575D01*
X116628865Y-91503750D01*
X116671135Y-91503750D01*
X116710186Y-91487575D01*
X116740075Y-91457686D01*
X116756250Y-91418635D01*
X116756250Y-91397499D01*
X116791421Y-91397499D01*
X116997654Y-91603732D01*
X117047419Y-91589297D01*
X117071560Y-91590065D01*
X117095579Y-91587541D01*
X117101610Y-91591023D01*
X117108574Y-91591245D01*
X117127656Y-91606059D01*
X117130581Y-91607748D01*
X117146264Y-91609812D01*
X117358578Y-91397499D01*
X117337444Y-91376365D01*
X117393750Y-91376365D01*
X117393750Y-91418635D01*
X117409925Y-91457686D01*
X117439814Y-91487575D01*
X117478865Y-91503750D01*
X117521135Y-91503750D01*
X117560186Y-91487575D01*
X117590075Y-91457686D01*
X117606250Y-91418635D01*
X117606250Y-91397499D01*
X117641421Y-91397499D01*
X117847654Y-91603732D01*
X117897419Y-91589297D01*
X117921560Y-91590065D01*
X117945579Y-91587541D01*
X117951610Y-91591023D01*
X117958574Y-91591245D01*
X117977656Y-91606059D01*
X117980581Y-91607748D01*
X117996264Y-91609812D01*
X118208578Y-91397499D01*
X118187444Y-91376365D01*
X118243750Y-91376365D01*
X118243750Y-91418635D01*
X118259925Y-91457686D01*
X118289814Y-91487575D01*
X118328865Y-91503750D01*
X118371135Y-91503750D01*
X118410186Y-91487575D01*
X118440075Y-91457686D01*
X118456250Y-91418635D01*
X118456250Y-91397499D01*
X118491421Y-91397499D01*
X118703734Y-91609812D01*
X118734386Y-91556722D01*
X118734388Y-91556718D01*
X118762499Y-91451809D01*
X118762500Y-91451807D01*
X118762500Y-91343192D01*
X118762499Y-91343190D01*
X118734389Y-91238284D01*
X118734388Y-91238283D01*
X118703733Y-91185186D01*
X118491421Y-91397499D01*
X118456250Y-91397499D01*
X118456250Y-91376365D01*
X118440075Y-91337314D01*
X118410186Y-91307425D01*
X118371135Y-91291250D01*
X118328865Y-91291250D01*
X118289814Y-91307425D01*
X118259925Y-91337314D01*
X118243750Y-91376365D01*
X118187444Y-91376365D01*
X117996264Y-91185186D01*
X117980608Y-91187247D01*
X117965266Y-91201062D01*
X117904416Y-91207458D01*
X117866490Y-91186865D01*
X117853733Y-91185186D01*
X117641421Y-91397499D01*
X117606250Y-91397499D01*
X117606250Y-91376365D01*
X117590075Y-91337314D01*
X117560186Y-91307425D01*
X117521135Y-91291250D01*
X117478865Y-91291250D01*
X117439814Y-91307425D01*
X117409925Y-91337314D01*
X117393750Y-91376365D01*
X117337444Y-91376365D01*
X117146264Y-91185186D01*
X117130608Y-91187247D01*
X117115266Y-91201062D01*
X117054416Y-91207458D01*
X117016490Y-91186865D01*
X117003733Y-91185186D01*
X116791421Y-91397499D01*
X116756250Y-91397499D01*
X116756250Y-91376365D01*
X116740075Y-91337314D01*
X116710186Y-91307425D01*
X116671135Y-91291250D01*
X116628865Y-91291250D01*
X116589814Y-91307425D01*
X116559925Y-91337314D01*
X116543750Y-91376365D01*
X116487444Y-91376365D01*
X116296265Y-91185186D01*
X116265610Y-91238285D01*
X116237500Y-91343190D01*
X112800500Y-91343190D01*
X112800500Y-91043764D01*
X116437686Y-91043764D01*
X116649999Y-91256077D01*
X116862312Y-91043764D01*
X117287686Y-91043764D01*
X117499999Y-91256077D01*
X117712312Y-91043764D01*
X118137686Y-91043764D01*
X118349999Y-91256077D01*
X118562312Y-91043764D01*
X118560251Y-91028108D01*
X118546437Y-91012766D01*
X118540041Y-90951916D01*
X118560248Y-90916915D01*
X118562313Y-90901235D01*
X118349999Y-90688921D01*
X118144134Y-90894784D01*
X118158438Y-90945746D01*
X118157476Y-90969469D01*
X118159958Y-90993082D01*
X118156258Y-90999489D01*
X118155959Y-91006881D01*
X118141236Y-91025508D01*
X118139750Y-91028081D01*
X118137686Y-91043764D01*
X117712312Y-91043764D01*
X117710499Y-91029991D01*
X117708613Y-91026289D01*
X117696437Y-91012766D01*
X117695063Y-90999695D01*
X117689097Y-90987986D01*
X117691943Y-90970015D01*
X117690041Y-90951916D01*
X117696613Y-90940532D01*
X117698669Y-90927554D01*
X117710391Y-90915831D01*
X117712313Y-90901235D01*
X117499999Y-90688921D01*
X117294134Y-90894784D01*
X117308438Y-90945746D01*
X117307476Y-90969469D01*
X117309958Y-90993082D01*
X117306258Y-90999489D01*
X117305959Y-91006881D01*
X117291236Y-91025508D01*
X117289750Y-91028081D01*
X117287686Y-91043764D01*
X116862312Y-91043764D01*
X116860499Y-91029991D01*
X116858613Y-91026289D01*
X116846437Y-91012766D01*
X116845063Y-90999695D01*
X116839097Y-90987986D01*
X116841943Y-90970015D01*
X116840041Y-90951916D01*
X116846613Y-90940532D01*
X116848669Y-90927554D01*
X116860391Y-90915831D01*
X116862313Y-90901235D01*
X116649999Y-90688921D01*
X116444134Y-90894784D01*
X116458438Y-90945746D01*
X116457476Y-90969469D01*
X116459958Y-90993082D01*
X116456258Y-90999489D01*
X116455959Y-91006881D01*
X116441236Y-91025508D01*
X116439750Y-91028081D01*
X116437686Y-91043764D01*
X112800500Y-91043764D01*
X112800500Y-90493190D01*
X116237500Y-90493190D01*
X116237500Y-90601809D01*
X116265610Y-90706715D01*
X116265612Y-90706720D01*
X116296264Y-90759812D01*
X116508578Y-90547499D01*
X116487444Y-90526365D01*
X116543750Y-90526365D01*
X116543750Y-90568635D01*
X116559925Y-90607686D01*
X116589814Y-90637575D01*
X116628865Y-90653750D01*
X116671135Y-90653750D01*
X116710186Y-90637575D01*
X116740075Y-90607686D01*
X116756250Y-90568635D01*
X116756250Y-90547499D01*
X116791421Y-90547499D01*
X117003735Y-90759813D01*
X117019387Y-90757752D01*
X117034729Y-90743938D01*
X117095579Y-90737541D01*
X117130581Y-90757748D01*
X117146264Y-90759812D01*
X117358578Y-90547499D01*
X117337444Y-90526365D01*
X117393750Y-90526365D01*
X117393750Y-90568635D01*
X117409925Y-90607686D01*
X117439814Y-90637575D01*
X117478865Y-90653750D01*
X117521135Y-90653750D01*
X117560186Y-90637575D01*
X117590075Y-90607686D01*
X117606250Y-90568635D01*
X117606250Y-90547499D01*
X117641421Y-90547499D01*
X117853735Y-90759813D01*
X117869387Y-90757752D01*
X117884729Y-90743938D01*
X117945579Y-90737541D01*
X117980581Y-90757748D01*
X117996264Y-90759812D01*
X118208578Y-90547499D01*
X118187444Y-90526365D01*
X118243750Y-90526365D01*
X118243750Y-90568635D01*
X118259925Y-90607686D01*
X118289814Y-90637575D01*
X118328865Y-90653750D01*
X118371135Y-90653750D01*
X118410186Y-90637575D01*
X118440075Y-90607686D01*
X118456250Y-90568635D01*
X118456250Y-90547499D01*
X118491421Y-90547499D01*
X118703734Y-90759812D01*
X118734386Y-90706722D01*
X118734388Y-90706718D01*
X118762499Y-90601809D01*
X118762500Y-90601807D01*
X118762500Y-90493192D01*
X118762499Y-90493190D01*
X118734389Y-90388284D01*
X118734388Y-90388283D01*
X118703733Y-90335186D01*
X118491421Y-90547499D01*
X118456250Y-90547499D01*
X118456250Y-90526365D01*
X118440075Y-90487314D01*
X118410186Y-90457425D01*
X118371135Y-90441250D01*
X118328865Y-90441250D01*
X118289814Y-90457425D01*
X118259925Y-90487314D01*
X118243750Y-90526365D01*
X118187444Y-90526365D01*
X117996264Y-90335186D01*
X117980608Y-90337247D01*
X117965266Y-90351062D01*
X117904416Y-90357458D01*
X117866490Y-90336865D01*
X117853733Y-90335186D01*
X117641421Y-90547499D01*
X117606250Y-90547499D01*
X117606250Y-90526365D01*
X117590075Y-90487314D01*
X117560186Y-90457425D01*
X117521135Y-90441250D01*
X117478865Y-90441250D01*
X117439814Y-90457425D01*
X117409925Y-90487314D01*
X117393750Y-90526365D01*
X117337444Y-90526365D01*
X117146264Y-90335186D01*
X117130608Y-90337247D01*
X117115266Y-90351062D01*
X117054416Y-90357458D01*
X117016490Y-90336865D01*
X117003733Y-90335186D01*
X116791421Y-90547499D01*
X116756250Y-90547499D01*
X116756250Y-90526365D01*
X116740075Y-90487314D01*
X116710186Y-90457425D01*
X116671135Y-90441250D01*
X116628865Y-90441250D01*
X116589814Y-90457425D01*
X116559925Y-90487314D01*
X116543750Y-90526365D01*
X116487444Y-90526365D01*
X116296265Y-90335186D01*
X116265610Y-90388285D01*
X116237500Y-90493190D01*
X112800500Y-90493190D01*
X112800500Y-90193764D01*
X116437686Y-90193764D01*
X116649999Y-90406077D01*
X116862312Y-90193764D01*
X117287686Y-90193764D01*
X117499999Y-90406077D01*
X117712312Y-90193764D01*
X118137686Y-90193764D01*
X118349999Y-90406077D01*
X118562312Y-90193764D01*
X118560251Y-90178108D01*
X118546437Y-90162766D01*
X118540041Y-90101916D01*
X118560248Y-90066915D01*
X118562313Y-90051235D01*
X118349999Y-89838921D01*
X118144134Y-90044784D01*
X118158438Y-90095746D01*
X118157476Y-90119469D01*
X118159958Y-90143082D01*
X118156258Y-90149489D01*
X118155959Y-90156881D01*
X118141236Y-90175508D01*
X118139750Y-90178081D01*
X118137686Y-90193764D01*
X117712312Y-90193764D01*
X117710499Y-90179991D01*
X117708613Y-90176289D01*
X117696437Y-90162766D01*
X117695063Y-90149695D01*
X117689097Y-90137986D01*
X117691943Y-90120015D01*
X117690041Y-90101916D01*
X117696613Y-90090532D01*
X117698669Y-90077554D01*
X117710391Y-90065831D01*
X117712313Y-90051235D01*
X117499999Y-89838921D01*
X117294134Y-90044784D01*
X117308438Y-90095746D01*
X117307476Y-90119469D01*
X117309958Y-90143082D01*
X117306258Y-90149489D01*
X117305959Y-90156881D01*
X117291236Y-90175508D01*
X117289750Y-90178081D01*
X117287686Y-90193764D01*
X116862312Y-90193764D01*
X116860499Y-90179991D01*
X116858613Y-90176289D01*
X116846437Y-90162766D01*
X116845063Y-90149695D01*
X116839097Y-90137986D01*
X116841943Y-90120015D01*
X116840041Y-90101916D01*
X116846613Y-90090532D01*
X116848669Y-90077554D01*
X116860391Y-90065831D01*
X116862313Y-90051235D01*
X116649999Y-89838921D01*
X116444134Y-90044784D01*
X116458438Y-90095746D01*
X116457476Y-90119469D01*
X116459958Y-90143082D01*
X116456258Y-90149489D01*
X116455959Y-90156881D01*
X116441236Y-90175508D01*
X116439750Y-90178081D01*
X116437686Y-90193764D01*
X112800500Y-90193764D01*
X112800500Y-89643190D01*
X116237500Y-89643190D01*
X116237500Y-89751809D01*
X116265610Y-89856715D01*
X116265612Y-89856720D01*
X116296264Y-89909812D01*
X116508578Y-89697499D01*
X116487444Y-89676365D01*
X116543750Y-89676365D01*
X116543750Y-89718635D01*
X116559925Y-89757686D01*
X116589814Y-89787575D01*
X116628865Y-89803750D01*
X116671135Y-89803750D01*
X116710186Y-89787575D01*
X116740075Y-89757686D01*
X116756250Y-89718635D01*
X116756250Y-89697499D01*
X116791421Y-89697499D01*
X117003735Y-89909813D01*
X117019387Y-89907752D01*
X117034729Y-89893938D01*
X117095579Y-89887541D01*
X117130581Y-89907748D01*
X117146264Y-89909812D01*
X117358578Y-89697499D01*
X117337444Y-89676365D01*
X117393750Y-89676365D01*
X117393750Y-89718635D01*
X117409925Y-89757686D01*
X117439814Y-89787575D01*
X117478865Y-89803750D01*
X117521135Y-89803750D01*
X117560186Y-89787575D01*
X117590075Y-89757686D01*
X117606250Y-89718635D01*
X117606250Y-89697499D01*
X117641421Y-89697499D01*
X117853735Y-89909813D01*
X117869387Y-89907752D01*
X117884729Y-89893938D01*
X117945579Y-89887541D01*
X117980581Y-89907748D01*
X117996264Y-89909812D01*
X118208578Y-89697499D01*
X118187444Y-89676365D01*
X118243750Y-89676365D01*
X118243750Y-89718635D01*
X118259925Y-89757686D01*
X118289814Y-89787575D01*
X118328865Y-89803750D01*
X118371135Y-89803750D01*
X118410186Y-89787575D01*
X118440075Y-89757686D01*
X118456250Y-89718635D01*
X118456250Y-89697499D01*
X118491421Y-89697499D01*
X118703734Y-89909812D01*
X118734386Y-89856722D01*
X118734388Y-89856718D01*
X118762499Y-89751809D01*
X118762500Y-89751807D01*
X118762500Y-89643192D01*
X118762499Y-89643190D01*
X118734389Y-89538284D01*
X118734386Y-89538277D01*
X118703733Y-89485186D01*
X118491421Y-89697499D01*
X118456250Y-89697499D01*
X118456250Y-89676365D01*
X118440075Y-89637314D01*
X118410186Y-89607425D01*
X118371135Y-89591250D01*
X118328865Y-89591250D01*
X118289814Y-89607425D01*
X118259925Y-89637314D01*
X118243750Y-89676365D01*
X118187444Y-89676365D01*
X117996264Y-89485186D01*
X117980608Y-89487247D01*
X117965266Y-89501062D01*
X117904416Y-89507458D01*
X117897418Y-89505701D01*
X117847653Y-89491265D01*
X117641421Y-89697499D01*
X117606250Y-89697499D01*
X117606250Y-89676365D01*
X117590075Y-89637314D01*
X117560186Y-89607425D01*
X117521135Y-89591250D01*
X117478865Y-89591250D01*
X117439814Y-89607425D01*
X117409925Y-89637314D01*
X117393750Y-89676365D01*
X117337444Y-89676365D01*
X117146264Y-89485186D01*
X117130608Y-89487247D01*
X117115266Y-89501062D01*
X117054416Y-89507458D01*
X117047418Y-89505701D01*
X116997653Y-89491265D01*
X116791421Y-89697499D01*
X116756250Y-89697499D01*
X116756250Y-89676365D01*
X116740075Y-89637314D01*
X116710186Y-89607425D01*
X116671135Y-89591250D01*
X116628865Y-89591250D01*
X116589814Y-89607425D01*
X116559925Y-89637314D01*
X116543750Y-89676365D01*
X116487444Y-89676365D01*
X116296265Y-89485186D01*
X116265610Y-89538285D01*
X116237500Y-89643190D01*
X112800500Y-89643190D01*
X112800500Y-89343765D01*
X116437686Y-89343765D01*
X116649999Y-89556077D01*
X116862311Y-89343765D01*
X117287686Y-89343765D01*
X117499999Y-89556077D01*
X117712311Y-89343765D01*
X118137686Y-89343765D01*
X118349999Y-89556077D01*
X118465385Y-89440691D01*
X119459500Y-89440691D01*
X119459500Y-90000691D01*
X119459500Y-90699309D01*
X119472362Y-90747309D01*
X119490202Y-90813890D01*
X119549507Y-90916608D01*
X119549509Y-90916610D01*
X119549511Y-90916613D01*
X119633387Y-91000489D01*
X119633389Y-91000490D01*
X119633391Y-91000492D01*
X119736110Y-91059797D01*
X119736111Y-91059797D01*
X119736114Y-91059799D01*
X119850691Y-91090500D01*
X119850693Y-91090500D01*
X119969307Y-91090500D01*
X119969309Y-91090500D01*
X120083886Y-91059799D01*
X120083888Y-91059797D01*
X120083890Y-91059797D01*
X120186608Y-91000492D01*
X120186608Y-91000491D01*
X120186613Y-91000489D01*
X120270489Y-90916613D01*
X120270492Y-90916608D01*
X120329797Y-90813890D01*
X120329797Y-90813888D01*
X120329799Y-90813886D01*
X120360500Y-90699309D01*
X120360500Y-90659500D01*
X120379407Y-90601309D01*
X120428907Y-90565345D01*
X120459500Y-90560500D01*
X120902389Y-90560500D01*
X120960580Y-90579407D01*
X120972393Y-90589496D01*
X123002732Y-92619835D01*
X123002734Y-92619836D01*
X123002735Y-92619837D01*
X123002736Y-92619838D01*
X123105454Y-92679143D01*
X123105456Y-92679143D01*
X123105459Y-92679145D01*
X123129177Y-92685500D01*
X123220037Y-92709846D01*
X123220039Y-92709846D01*
X123528654Y-92709846D01*
X123528655Y-92709846D01*
X123550947Y-92703873D01*
X123576569Y-92700500D01*
X124540340Y-92700500D01*
X124565961Y-92703872D01*
X124590691Y-92710499D01*
X124590692Y-92710499D01*
X124709308Y-92710499D01*
X124709309Y-92710499D01*
X124734038Y-92703872D01*
X124759660Y-92700500D01*
X125570340Y-92700500D01*
X125595961Y-92703872D01*
X125620691Y-92710499D01*
X125620692Y-92710499D01*
X125739307Y-92710499D01*
X125739309Y-92710499D01*
X125853887Y-92679799D01*
X125888500Y-92659815D01*
X125888501Y-92659815D01*
X125894237Y-92656503D01*
X125991263Y-92600485D01*
X126070485Y-92521263D01*
X126126503Y-92424237D01*
X126155500Y-92316018D01*
X126155500Y-92203982D01*
X126126503Y-92095763D01*
X126122599Y-92089001D01*
X126109877Y-92029153D01*
X126134763Y-91973257D01*
X126187750Y-91942664D01*
X126208335Y-91940500D01*
X133340890Y-91940500D01*
X133340892Y-91940500D01*
X133468186Y-91906392D01*
X133468188Y-91906390D01*
X133468190Y-91906390D01*
X133582309Y-91840503D01*
X133582309Y-91840502D01*
X133582314Y-91840500D01*
X133675500Y-91747314D01*
X133741392Y-91633186D01*
X133775500Y-91505892D01*
X133775500Y-91374108D01*
X133741392Y-91246814D01*
X133741390Y-91246811D01*
X133741390Y-91246809D01*
X133675503Y-91132690D01*
X133675501Y-91132688D01*
X133675500Y-91132686D01*
X133602815Y-91060001D01*
X133575040Y-91005487D01*
X133584611Y-90945055D01*
X133602814Y-90919999D01*
X133675500Y-90847314D01*
X133675503Y-90847309D01*
X133741390Y-90733190D01*
X133741390Y-90733188D01*
X133741392Y-90733186D01*
X133775500Y-90605892D01*
X133775500Y-90474108D01*
X133741392Y-90346814D01*
X133741390Y-90346811D01*
X133741390Y-90346809D01*
X133679146Y-90239000D01*
X133666424Y-90179152D01*
X133691310Y-90123256D01*
X133744298Y-90092663D01*
X133764882Y-90090500D01*
X135392389Y-90090500D01*
X135450580Y-90109407D01*
X135462393Y-90119496D01*
X137640504Y-92297607D01*
X137668281Y-92352124D01*
X137669500Y-92367611D01*
X137669500Y-92640877D01*
X137650593Y-92699068D01*
X137601093Y-92735032D01*
X137539907Y-92735032D01*
X137500497Y-92710881D01*
X137031061Y-92241446D01*
X137031058Y-92241443D01*
X136929800Y-92199500D01*
X136929799Y-92199500D01*
X134187256Y-92199500D01*
X134129065Y-92180593D01*
X134117253Y-92170504D01*
X134081262Y-92134514D01*
X133984240Y-92078498D01*
X133984242Y-92078498D01*
X133942251Y-92067247D01*
X133876018Y-92049500D01*
X133763982Y-92049500D01*
X133697748Y-92067247D01*
X133655758Y-92078498D01*
X133558739Y-92134513D01*
X133479513Y-92213739D01*
X133423498Y-92310758D01*
X133412414Y-92352124D01*
X133394500Y-92418982D01*
X133394500Y-92531018D01*
X133413114Y-92600485D01*
X133423498Y-92639241D01*
X133478804Y-92735032D01*
X133479515Y-92736263D01*
X133558737Y-92815485D01*
X133558739Y-92815486D01*
X133655759Y-92871501D01*
X133655757Y-92871501D01*
X133655761Y-92871502D01*
X133655763Y-92871503D01*
X133763982Y-92900500D01*
X133763984Y-92900500D01*
X133876016Y-92900500D01*
X133876018Y-92900500D01*
X133984237Y-92871503D01*
X133984239Y-92871501D01*
X133984241Y-92871501D01*
X134018093Y-92851956D01*
X134081263Y-92815485D01*
X134106819Y-92789929D01*
X134117253Y-92779496D01*
X134171770Y-92751719D01*
X134187256Y-92750500D01*
X136719877Y-92750500D01*
X136778068Y-92769407D01*
X136789881Y-92779496D01*
X137389504Y-93379119D01*
X137417281Y-93433636D01*
X137418500Y-93449123D01*
X137418500Y-95290877D01*
X137399593Y-95349068D01*
X137389504Y-95360881D01*
X136784881Y-95965504D01*
X136730364Y-95993281D01*
X136714877Y-95994500D01*
X134395124Y-95994500D01*
X134336933Y-95975593D01*
X134325120Y-95965504D01*
X133794496Y-95434880D01*
X133766719Y-95380363D01*
X133765500Y-95364876D01*
X133765500Y-95313983D01*
X133759309Y-95290877D01*
X133736503Y-95205763D01*
X133736501Y-95205760D01*
X133736501Y-95205758D01*
X133683297Y-95113608D01*
X133680485Y-95108737D01*
X133601263Y-95029515D01*
X133601260Y-95029513D01*
X133504240Y-94973498D01*
X133504242Y-94973498D01*
X133451984Y-94959496D01*
X133396018Y-94944500D01*
X133283982Y-94944500D01*
X133228016Y-94959496D01*
X133175758Y-94973498D01*
X133078739Y-95029513D01*
X132999513Y-95108739D01*
X132943498Y-95205758D01*
X132943497Y-95205763D01*
X132914500Y-95313982D01*
X132914500Y-95426018D01*
X132938104Y-95514109D01*
X132943498Y-95534241D01*
X132993012Y-95620000D01*
X132999515Y-95631263D01*
X133078737Y-95710485D01*
X133078739Y-95710486D01*
X133175759Y-95766501D01*
X133175757Y-95766501D01*
X133175761Y-95766502D01*
X133175763Y-95766503D01*
X133283982Y-95795500D01*
X133334877Y-95795500D01*
X133393068Y-95814407D01*
X133404880Y-95824495D01*
X134083941Y-96503557D01*
X134105530Y-96512499D01*
X134105532Y-96512501D01*
X134105533Y-96512501D01*
X134128867Y-96522165D01*
X134185200Y-96545500D01*
X136528389Y-96545500D01*
X136586580Y-96564407D01*
X136622544Y-96613907D01*
X136622544Y-96675093D01*
X136598393Y-96714504D01*
X135883164Y-97429732D01*
X135828647Y-97457509D01*
X135768215Y-97447938D01*
X135730845Y-97414730D01*
X135728867Y-97411770D01*
X135728867Y-97411769D01*
X135684552Y-97345448D01*
X135684548Y-97345445D01*
X135618233Y-97301134D01*
X135618231Y-97301133D01*
X135618228Y-97301132D01*
X135618227Y-97301132D01*
X135559758Y-97289501D01*
X135559748Y-97289500D01*
X133820252Y-97289500D01*
X133820251Y-97289500D01*
X133820241Y-97289501D01*
X133761772Y-97301132D01*
X133761766Y-97301134D01*
X133695451Y-97345445D01*
X133695445Y-97345451D01*
X133651134Y-97411766D01*
X133651132Y-97411772D01*
X133639501Y-97470241D01*
X133639500Y-97470253D01*
X133639500Y-99209746D01*
X133639501Y-99209758D01*
X133651132Y-99268227D01*
X133651134Y-99268233D01*
X133695445Y-99334548D01*
X133695448Y-99334552D01*
X133761769Y-99378867D01*
X133806231Y-99387711D01*
X133820241Y-99390498D01*
X133820246Y-99390498D01*
X133820252Y-99390500D01*
X133820253Y-99390500D01*
X135559747Y-99390500D01*
X135559748Y-99390500D01*
X135618231Y-99378867D01*
X135684552Y-99334552D01*
X135728867Y-99268231D01*
X135740500Y-99209748D01*
X135740500Y-98846232D01*
X135759407Y-98788041D01*
X135789996Y-98760497D01*
X135876614Y-98710489D01*
X138480489Y-96106614D01*
X138510501Y-96054633D01*
X138539797Y-96003891D01*
X138539797Y-96003889D01*
X138539799Y-96003887D01*
X138552764Y-95955500D01*
X138570500Y-95889309D01*
X138570500Y-94820000D01*
X138946177Y-94820000D01*
X139356212Y-94820000D01*
X139340000Y-94880504D01*
X139340000Y-94959496D01*
X139356212Y-95020000D01*
X138946178Y-95020000D01*
X138966901Y-95124181D01*
X138966901Y-95124183D01*
X139019666Y-95251571D01*
X139096271Y-95366220D01*
X139193779Y-95463728D01*
X139308428Y-95540333D01*
X139435816Y-95593098D01*
X139571055Y-95619999D01*
X139571057Y-95620000D01*
X139839999Y-95620000D01*
X139840000Y-95619999D01*
X139840000Y-95220000D01*
X140040000Y-95220000D01*
X140040000Y-95619999D01*
X140040001Y-95620000D01*
X140308943Y-95620000D01*
X140308944Y-95619999D01*
X140444183Y-95593098D01*
X140571571Y-95540333D01*
X140686220Y-95463728D01*
X140783728Y-95366220D01*
X140860333Y-95251571D01*
X140913098Y-95124183D01*
X140913098Y-95124181D01*
X140933822Y-95020000D01*
X140523788Y-95020000D01*
X140540000Y-94959496D01*
X140540000Y-94880504D01*
X140523788Y-94820000D01*
X140933822Y-94820000D01*
X140913098Y-94715818D01*
X140913098Y-94715816D01*
X140860333Y-94588428D01*
X140783728Y-94473779D01*
X140686220Y-94376271D01*
X140571571Y-94299666D01*
X140444183Y-94246901D01*
X140308944Y-94220000D01*
X140040001Y-94220000D01*
X140040000Y-94220001D01*
X140040000Y-94620000D01*
X139840000Y-94620000D01*
X139840000Y-94220001D01*
X139839999Y-94220000D01*
X139571055Y-94220000D01*
X139435816Y-94246901D01*
X139308428Y-94299666D01*
X139193779Y-94376271D01*
X139096271Y-94473779D01*
X139019666Y-94588428D01*
X138966901Y-94715816D01*
X138966901Y-94715818D01*
X138946177Y-94820000D01*
X138570500Y-94820000D01*
X138570500Y-92080691D01*
X138539799Y-91966114D01*
X138539799Y-91966113D01*
X138539799Y-91966112D01*
X138480492Y-91863390D01*
X138480490Y-91863388D01*
X138480489Y-91863386D01*
X135896614Y-89279511D01*
X135896611Y-89279509D01*
X135896609Y-89279507D01*
X135793890Y-89220202D01*
X135793886Y-89220200D01*
X135769673Y-89213712D01*
X135769673Y-89213713D01*
X135679309Y-89189500D01*
X135679307Y-89189500D01*
X132407611Y-89189500D01*
X132349420Y-89170593D01*
X132337607Y-89160504D01*
X131137023Y-87959920D01*
X131121292Y-87939417D01*
X131100489Y-87903386D01*
X131006614Y-87809511D01*
X131006611Y-87809509D01*
X131006609Y-87809507D01*
X130903890Y-87750202D01*
X130903886Y-87750200D01*
X130879673Y-87743712D01*
X130879673Y-87743713D01*
X130789309Y-87719500D01*
X130199309Y-87719500D01*
X129450691Y-87719500D01*
X129380567Y-87738289D01*
X129336109Y-87750202D01*
X129233391Y-87809507D01*
X129149507Y-87893391D01*
X129090202Y-87996109D01*
X129084937Y-88015758D01*
X129059500Y-88110691D01*
X129059500Y-88229309D01*
X129062499Y-88240500D01*
X129090202Y-88343890D01*
X129149507Y-88446608D01*
X129149509Y-88446610D01*
X129149511Y-88446613D01*
X129233387Y-88530489D01*
X129233389Y-88530490D01*
X129233391Y-88530492D01*
X129336110Y-88589797D01*
X129336111Y-88589797D01*
X129336114Y-88589799D01*
X129450691Y-88620500D01*
X130080691Y-88620500D01*
X130482389Y-88620500D01*
X130540580Y-88639407D01*
X130552393Y-88649496D01*
X131773395Y-89870498D01*
X131801171Y-89925013D01*
X131791600Y-89985445D01*
X131748335Y-90028710D01*
X131703390Y-90039500D01*
X125844479Y-90039500D01*
X125786288Y-90020593D01*
X125750324Y-89971093D01*
X125750324Y-89909907D01*
X125774475Y-89870496D01*
X126405475Y-89239496D01*
X126459992Y-89211719D01*
X126475479Y-89210500D01*
X127011679Y-89210500D01*
X127069870Y-89229407D01*
X127081676Y-89239490D01*
X127152686Y-89310500D01*
X127152688Y-89310501D01*
X127152690Y-89310503D01*
X127266810Y-89376390D01*
X127266808Y-89376390D01*
X127266812Y-89376391D01*
X127266814Y-89376392D01*
X127394108Y-89410500D01*
X127394110Y-89410500D01*
X127525890Y-89410500D01*
X127525892Y-89410500D01*
X127653186Y-89376392D01*
X127653188Y-89376390D01*
X127653190Y-89376390D01*
X127767309Y-89310503D01*
X127767309Y-89310502D01*
X127767314Y-89310500D01*
X127860500Y-89217314D01*
X127864434Y-89210500D01*
X127926390Y-89103190D01*
X127926390Y-89103188D01*
X127926392Y-89103186D01*
X127960500Y-88975892D01*
X127960500Y-88844108D01*
X127926392Y-88716814D01*
X127926390Y-88716811D01*
X127926390Y-88716809D01*
X127860503Y-88602690D01*
X127860501Y-88602688D01*
X127860500Y-88602686D01*
X127767314Y-88509500D01*
X127767311Y-88509498D01*
X127767309Y-88509496D01*
X127653189Y-88443609D01*
X127653191Y-88443609D01*
X127603799Y-88430375D01*
X127525892Y-88409500D01*
X127394108Y-88409500D01*
X127316200Y-88430375D01*
X127266809Y-88443609D01*
X127152690Y-88509496D01*
X127152689Y-88509497D01*
X127152686Y-88509499D01*
X127152686Y-88509500D01*
X127081680Y-88580505D01*
X127027166Y-88608281D01*
X127011679Y-88609500D01*
X126345500Y-88609500D01*
X126287309Y-88590593D01*
X126251345Y-88541093D01*
X126246500Y-88510500D01*
X126246500Y-88176202D01*
X126246500Y-88176200D01*
X126242529Y-88166614D01*
X126204558Y-88074942D01*
X126125725Y-87996109D01*
X126034496Y-87904879D01*
X126006719Y-87850363D01*
X126005500Y-87834876D01*
X126005500Y-87783983D01*
X126005370Y-87783497D01*
X125976503Y-87675763D01*
X125976501Y-87675760D01*
X125976501Y-87675758D01*
X125920486Y-87578739D01*
X125920485Y-87578737D01*
X125841263Y-87499515D01*
X125841260Y-87499513D01*
X125744240Y-87443498D01*
X125744242Y-87443498D01*
X125702251Y-87432247D01*
X125636018Y-87414500D01*
X125523982Y-87414500D01*
X125457748Y-87432247D01*
X125415758Y-87443498D01*
X125318739Y-87499513D01*
X125239513Y-87578739D01*
X125183498Y-87675758D01*
X125183497Y-87675763D01*
X125154500Y-87783982D01*
X125154500Y-87896018D01*
X125182329Y-87999877D01*
X125179126Y-88060979D01*
X125140621Y-88108529D01*
X125086702Y-88124500D01*
X122965198Y-88124500D01*
X122863942Y-88166440D01*
X122734879Y-88295504D01*
X122680363Y-88323281D01*
X122664876Y-88324500D01*
X122613982Y-88324500D01*
X122558001Y-88339500D01*
X122505758Y-88353498D01*
X122408737Y-88409514D01*
X122333338Y-88484912D01*
X122278821Y-88512689D01*
X122237714Y-88510535D01*
X122171925Y-88492907D01*
X122059889Y-88492907D01*
X121997978Y-88509496D01*
X121951665Y-88521905D01*
X121854646Y-88577920D01*
X121775420Y-88657146D01*
X121719405Y-88754165D01*
X121711416Y-88783982D01*
X121690407Y-88862389D01*
X121690407Y-88974425D01*
X121710523Y-89049500D01*
X121719405Y-89082648D01*
X121775420Y-89179667D01*
X121775422Y-89179670D01*
X121854644Y-89258892D01*
X121854646Y-89258893D01*
X121951666Y-89314908D01*
X121951664Y-89314908D01*
X121951668Y-89314909D01*
X121951670Y-89314910D01*
X122059889Y-89343907D01*
X122123284Y-89343907D01*
X122177814Y-89360278D01*
X122186188Y-89365804D01*
X122213941Y-89393557D01*
X122243599Y-89405841D01*
X122252345Y-89409464D01*
X122252347Y-89409465D01*
X122254846Y-89410500D01*
X122315200Y-89435500D01*
X122928357Y-89435500D01*
X122986548Y-89454407D01*
X123022512Y-89503907D01*
X123023980Y-89508865D01*
X123041497Y-89574237D01*
X123041498Y-89574239D01*
X123041499Y-89574242D01*
X123097513Y-89671260D01*
X123097515Y-89671263D01*
X123176737Y-89750485D01*
X123209079Y-89769157D01*
X123273759Y-89806501D01*
X123273760Y-89806501D01*
X123273763Y-89806503D01*
X123310973Y-89816473D01*
X123362286Y-89849795D01*
X123384213Y-89906916D01*
X123368378Y-89966017D01*
X123334850Y-89997835D01*
X123262688Y-90039498D01*
X123169496Y-90132690D01*
X123103609Y-90246809D01*
X123103608Y-90246814D01*
X123069500Y-90374108D01*
X123069500Y-90505892D01*
X123095067Y-90601309D01*
X123103609Y-90633190D01*
X123169496Y-90747309D01*
X123169500Y-90747314D01*
X123269499Y-90847314D01*
X123269500Y-90847314D01*
X123297616Y-90875430D01*
X123325393Y-90929947D01*
X123315822Y-90990379D01*
X123277113Y-91031170D01*
X123262688Y-91039498D01*
X123169496Y-91132690D01*
X123103606Y-91246814D01*
X123101817Y-91251135D01*
X123062078Y-91297659D01*
X123002582Y-91311939D01*
X122946056Y-91288522D01*
X122940364Y-91283261D01*
X121406614Y-89749511D01*
X121406611Y-89749509D01*
X121406609Y-89749507D01*
X121303890Y-89690202D01*
X121303886Y-89690200D01*
X121279673Y-89683712D01*
X121279673Y-89683713D01*
X121189309Y-89659500D01*
X121189307Y-89659500D01*
X120459500Y-89659500D01*
X120401309Y-89640593D01*
X120365345Y-89591093D01*
X120360500Y-89560500D01*
X120360500Y-89440692D01*
X120338953Y-89360278D01*
X120329799Y-89326114D01*
X120329797Y-89326111D01*
X120329797Y-89326109D01*
X120270492Y-89223391D01*
X120270490Y-89223389D01*
X120270489Y-89223387D01*
X120186613Y-89139511D01*
X120186610Y-89139509D01*
X120186608Y-89139507D01*
X120083889Y-89080202D01*
X120083890Y-89080202D01*
X120066689Y-89075593D01*
X119969309Y-89049500D01*
X119850691Y-89049500D01*
X119780567Y-89068289D01*
X119736109Y-89080202D01*
X119633391Y-89139507D01*
X119549507Y-89223391D01*
X119490202Y-89326109D01*
X119476729Y-89376392D01*
X119459500Y-89440691D01*
X118465385Y-89440691D01*
X118562312Y-89343764D01*
X118509220Y-89313112D01*
X118509215Y-89313110D01*
X118404309Y-89285000D01*
X118295690Y-89285000D01*
X118190785Y-89313110D01*
X118137686Y-89343765D01*
X117712311Y-89343765D01*
X117712312Y-89343764D01*
X117659220Y-89313112D01*
X117659215Y-89313110D01*
X117554309Y-89285000D01*
X117445690Y-89285000D01*
X117340785Y-89313110D01*
X117287686Y-89343765D01*
X116862311Y-89343765D01*
X116862312Y-89343764D01*
X116809220Y-89313112D01*
X116809215Y-89313110D01*
X116704309Y-89285000D01*
X116595690Y-89285000D01*
X116490785Y-89313110D01*
X116437686Y-89343765D01*
X112800500Y-89343765D01*
X112800500Y-88460691D01*
X112769799Y-88346114D01*
X112769799Y-88346113D01*
X112769799Y-88346112D01*
X112710492Y-88243390D01*
X112710490Y-88243388D01*
X112710489Y-88243386D01*
X112616614Y-88149511D01*
X112616611Y-88149509D01*
X112616609Y-88149507D01*
X112513892Y-88090203D01*
X112513889Y-88090202D01*
X112513887Y-88090201D01*
X112399309Y-88059501D01*
X112280691Y-88059501D01*
X112166113Y-88090201D01*
X112166111Y-88090201D01*
X112166107Y-88090203D01*
X112063390Y-88149507D01*
X111979507Y-88233390D01*
X111920203Y-88336107D01*
X111920201Y-88336111D01*
X111920201Y-88336113D01*
X111915543Y-88353498D01*
X111889501Y-88450692D01*
X111889501Y-88569308D01*
X111896127Y-88594038D01*
X111899500Y-88619660D01*
X111899500Y-92100335D01*
X111896127Y-92125956D01*
X111889500Y-92150688D01*
X111889500Y-92150691D01*
X111889500Y-92990691D01*
X111889500Y-94589309D01*
X111893891Y-94605700D01*
X111905891Y-94650484D01*
X111920200Y-94703886D01*
X111920202Y-94703890D01*
X111979507Y-94806609D01*
X111979509Y-94806611D01*
X111979511Y-94806614D01*
X113123386Y-95950489D01*
X113140707Y-95960489D01*
X113226114Y-96009799D01*
X113340691Y-96040500D01*
X113561289Y-96040500D01*
X113619480Y-96059407D01*
X113655444Y-96108907D01*
X113655444Y-96170093D01*
X113619480Y-96219593D01*
X113610789Y-96225236D01*
X113568739Y-96249513D01*
X113489513Y-96328739D01*
X113433498Y-96425758D01*
X113433497Y-96425763D01*
X113404500Y-96533982D01*
X113404500Y-96646018D01*
X113420251Y-96704801D01*
X113433498Y-96754241D01*
X113489513Y-96851260D01*
X113489515Y-96851263D01*
X113528434Y-96890182D01*
X113556210Y-96944697D01*
X113546639Y-97005129D01*
X113503374Y-97048394D01*
X113442942Y-97057965D01*
X113420545Y-97051649D01*
X113403275Y-97044496D01*
X113388800Y-97038500D01*
X113388799Y-97038500D01*
X111294091Y-97038500D01*
X111235900Y-97019593D01*
X111224087Y-97009504D01*
X110899496Y-96684913D01*
X110871719Y-96630396D01*
X110870500Y-96614909D01*
X110870500Y-87135029D01*
X110889407Y-87076838D01*
X110899496Y-87065025D01*
X111670026Y-86294496D01*
X111677143Y-86290869D01*
X111681839Y-86284407D01*
X111703887Y-86277243D01*
X111724543Y-86266719D01*
X111740030Y-86265500D01*
X111865984Y-86265500D01*
X111924175Y-86284407D01*
X111960139Y-86333907D01*
X111961611Y-86390122D01*
X111944500Y-86453982D01*
X111944500Y-86566018D01*
X111952886Y-86597314D01*
X111973498Y-86674241D01*
X112020929Y-86756392D01*
X112029515Y-86771263D01*
X112108737Y-86850485D01*
X112108739Y-86850486D01*
X112205759Y-86906501D01*
X112205757Y-86906501D01*
X112205761Y-86906502D01*
X112205763Y-86906503D01*
X112313982Y-86935500D01*
X112313984Y-86935500D01*
X112426016Y-86935500D01*
X112426018Y-86935500D01*
X112534237Y-86906503D01*
X112534239Y-86906501D01*
X112534241Y-86906501D01*
X112568093Y-86886956D01*
X112631263Y-86850485D01*
X112658020Y-86823728D01*
X112667253Y-86814496D01*
X112721770Y-86786719D01*
X112737256Y-86785500D01*
X114074551Y-86785500D01*
X114074551Y-86785860D01*
X114097291Y-86786617D01*
X114097550Y-86784653D01*
X114103981Y-86785499D01*
X114103982Y-86785500D01*
X114103983Y-86785500D01*
X114216016Y-86785500D01*
X114216018Y-86785500D01*
X114324237Y-86756503D01*
X114324239Y-86756501D01*
X114324241Y-86756501D01*
X114359072Y-86736391D01*
X114421263Y-86700485D01*
X114500485Y-86621263D01*
X114556503Y-86524237D01*
X114585500Y-86416018D01*
X114585500Y-86303982D01*
X114556503Y-86195763D01*
X114556501Y-86195760D01*
X114556501Y-86195758D01*
X114500486Y-86098739D01*
X114500485Y-86098737D01*
X114421263Y-86019515D01*
X114397950Y-86006055D01*
X114322657Y-85962584D01*
X114281716Y-85917114D01*
X114273157Y-85876848D01*
X114273157Y-85837326D01*
X114269482Y-85823609D01*
X114244160Y-85729106D01*
X114244158Y-85729103D01*
X114244158Y-85729101D01*
X114204542Y-85660486D01*
X114188142Y-85632080D01*
X114188140Y-85632078D01*
X114188139Y-85632076D01*
X114186953Y-85630529D01*
X114186487Y-85629213D01*
X114184898Y-85626461D01*
X114185408Y-85626166D01*
X114166534Y-85572852D01*
X114166500Y-85570269D01*
X114166500Y-85454547D01*
X114124559Y-85353293D01*
X114124558Y-85353291D01*
X114081958Y-85310691D01*
X115929500Y-85310691D01*
X115929500Y-85939309D01*
X115932306Y-85949780D01*
X115947384Y-86006055D01*
X115947385Y-86006057D01*
X115947386Y-86006059D01*
X115960201Y-86053887D01*
X115960202Y-86053889D01*
X115960203Y-86053892D01*
X116019507Y-86156609D01*
X116019509Y-86156611D01*
X116019511Y-86156614D01*
X116493386Y-86630489D01*
X116552696Y-86664731D01*
X116596114Y-86689799D01*
X116710691Y-86720500D01*
X122312761Y-86720500D01*
X122362258Y-86733761D01*
X122366814Y-86736392D01*
X122494108Y-86770500D01*
X122494110Y-86770500D01*
X122625890Y-86770500D01*
X122625892Y-86770500D01*
X122753186Y-86736392D01*
X122757741Y-86733761D01*
X122807239Y-86720500D01*
X126672761Y-86720500D01*
X126722258Y-86733761D01*
X126726814Y-86736392D01*
X126854108Y-86770500D01*
X126854110Y-86770500D01*
X126985890Y-86770500D01*
X126985892Y-86770500D01*
X127085267Y-86743872D01*
X127110889Y-86740500D01*
X127322761Y-86740500D01*
X127372258Y-86753761D01*
X127376814Y-86756392D01*
X127504108Y-86790500D01*
X127504110Y-86790500D01*
X127635890Y-86790500D01*
X127635892Y-86790500D01*
X127763186Y-86756392D01*
X127763188Y-86756390D01*
X127763190Y-86756390D01*
X127877309Y-86690503D01*
X127877309Y-86690502D01*
X127877314Y-86690500D01*
X127970500Y-86597314D01*
X128023374Y-86505734D01*
X128036390Y-86483190D01*
X128036390Y-86483188D01*
X128036392Y-86483186D01*
X128070500Y-86355892D01*
X128070500Y-86224108D01*
X128058681Y-86180000D01*
X134516177Y-86180000D01*
X134926212Y-86180000D01*
X134910000Y-86240504D01*
X134910000Y-86319496D01*
X134926212Y-86380000D01*
X134516178Y-86380000D01*
X134536901Y-86484181D01*
X134536901Y-86484183D01*
X134589666Y-86611571D01*
X134666271Y-86726220D01*
X134763779Y-86823728D01*
X134878428Y-86900333D01*
X135005816Y-86953098D01*
X135141055Y-86979999D01*
X135141057Y-86980000D01*
X135659999Y-86980000D01*
X135660000Y-86979999D01*
X135660000Y-86580000D01*
X135860000Y-86580000D01*
X135860000Y-86979999D01*
X135860001Y-86980000D01*
X136378943Y-86980000D01*
X136378944Y-86979999D01*
X136514183Y-86953098D01*
X136641571Y-86900333D01*
X136756220Y-86823728D01*
X136853728Y-86726220D01*
X136930333Y-86611571D01*
X136983098Y-86484183D01*
X136983098Y-86484181D01*
X137003822Y-86380000D01*
X136593788Y-86380000D01*
X136610000Y-86319496D01*
X136610000Y-86240504D01*
X136593788Y-86180000D01*
X137003822Y-86180000D01*
X136983098Y-86075818D01*
X136983098Y-86075816D01*
X136930333Y-85948428D01*
X136853728Y-85833779D01*
X136756220Y-85736271D01*
X136641571Y-85659666D01*
X136514183Y-85606901D01*
X136378944Y-85580000D01*
X135860001Y-85580000D01*
X135860000Y-85580001D01*
X135860000Y-85980000D01*
X135660000Y-85980000D01*
X135660000Y-85580001D01*
X135659999Y-85580000D01*
X135141055Y-85580000D01*
X135005816Y-85606901D01*
X134878428Y-85659666D01*
X134763779Y-85736271D01*
X134666271Y-85833779D01*
X134589666Y-85948428D01*
X134536901Y-86075816D01*
X134536901Y-86075818D01*
X134516177Y-86180000D01*
X128058681Y-86180000D01*
X128036392Y-86096814D01*
X128036390Y-86096811D01*
X128036390Y-86096809D01*
X127970503Y-85982690D01*
X127970501Y-85982688D01*
X127970500Y-85982686D01*
X127877314Y-85889500D01*
X127877311Y-85889498D01*
X127877309Y-85889496D01*
X127763189Y-85823609D01*
X127763191Y-85823609D01*
X127704025Y-85807756D01*
X127635892Y-85789500D01*
X127504108Y-85789500D01*
X127435975Y-85807756D01*
X127376813Y-85823608D01*
X127373401Y-85825578D01*
X127372261Y-85826237D01*
X127372259Y-85826238D01*
X127322761Y-85839500D01*
X127201880Y-85839500D01*
X127152381Y-85826237D01*
X127113187Y-85803608D01*
X127064281Y-85790504D01*
X126985892Y-85769500D01*
X126854108Y-85769500D01*
X126775719Y-85790504D01*
X126726813Y-85803608D01*
X126722259Y-85806238D01*
X126672761Y-85819500D01*
X122807239Y-85819500D01*
X122757741Y-85806238D01*
X122753186Y-85803608D01*
X122741934Y-85800593D01*
X122625892Y-85769500D01*
X122494108Y-85769500D01*
X122415719Y-85790504D01*
X122366813Y-85803608D01*
X122362259Y-85806238D01*
X122312761Y-85819500D01*
X116997611Y-85819500D01*
X116990013Y-85817031D01*
X116982124Y-85818281D01*
X116961468Y-85807756D01*
X116939420Y-85800593D01*
X116927607Y-85790504D01*
X116859496Y-85722393D01*
X116831719Y-85667876D01*
X116830500Y-85652389D01*
X116830500Y-85310692D01*
X116821339Y-85276503D01*
X116799799Y-85196114D01*
X116799797Y-85196111D01*
X116799797Y-85196109D01*
X116740492Y-85093391D01*
X116740490Y-85093389D01*
X116740489Y-85093387D01*
X116656613Y-85009511D01*
X116656610Y-85009509D01*
X116656608Y-85009507D01*
X116553889Y-84950202D01*
X116553890Y-84950202D01*
X116540351Y-84946574D01*
X116439309Y-84919500D01*
X116320691Y-84919500D01*
X116250567Y-84938289D01*
X116206109Y-84950202D01*
X116103391Y-85009507D01*
X116019507Y-85093391D01*
X115960202Y-85196109D01*
X115943037Y-85260169D01*
X115929500Y-85310691D01*
X114081958Y-85310691D01*
X113737709Y-84966443D01*
X113731672Y-84963942D01*
X113731671Y-84963941D01*
X113731671Y-84963942D01*
X113636451Y-84924500D01*
X113636450Y-84924500D01*
X113503517Y-84924500D01*
X113445326Y-84905593D01*
X113409362Y-84856093D01*
X113404517Y-84825500D01*
X113404517Y-84733982D01*
X113404517Y-84733981D01*
X113375520Y-84625762D01*
X113375518Y-84625759D01*
X113375518Y-84625757D01*
X113319503Y-84528738D01*
X113319502Y-84528736D01*
X113240280Y-84449514D01*
X113211220Y-84432736D01*
X113143257Y-84393497D01*
X113143259Y-84393497D01*
X113101268Y-84382246D01*
X113035035Y-84364499D01*
X112922999Y-84364499D01*
X112856765Y-84382246D01*
X112814775Y-84393497D01*
X112717754Y-84449513D01*
X112681764Y-84485503D01*
X112627247Y-84513280D01*
X112611761Y-84514499D01*
X111665200Y-84514499D01*
X111616192Y-84534800D01*
X111616191Y-84534800D01*
X111563943Y-84556441D01*
X109732465Y-86387921D01*
X109677948Y-86415698D01*
X109617516Y-86406127D01*
X109574251Y-86362862D01*
X109569017Y-86350617D01*
X109567793Y-86347118D01*
X109535958Y-86303983D01*
X109487154Y-86237855D01*
X109487152Y-86237853D01*
X109487150Y-86237850D01*
X109487146Y-86237847D01*
X109487144Y-86237845D01*
X109377883Y-86157207D01*
X109249703Y-86112355D01*
X109249694Y-86112353D01*
X109219274Y-86109500D01*
X109219266Y-86109500D01*
X108580734Y-86109500D01*
X108580725Y-86109500D01*
X108550305Y-86112353D01*
X108550296Y-86112355D01*
X108422116Y-86157207D01*
X108312855Y-86237845D01*
X108312845Y-86237855D01*
X108232207Y-86347116D01*
X108197723Y-86445665D01*
X108160657Y-86494346D01*
X108102057Y-86511942D01*
X108044305Y-86491733D01*
X108021964Y-86467969D01*
X107999564Y-86434445D01*
X107955765Y-86368895D01*
X107856105Y-86269235D01*
X107836529Y-86256154D01*
X107738923Y-86190935D01*
X107738914Y-86190931D01*
X107608702Y-86136995D01*
X107470473Y-86109500D01*
X107470471Y-86109500D01*
X107329529Y-86109500D01*
X107329526Y-86109500D01*
X107191297Y-86136995D01*
X107061085Y-86190931D01*
X107061076Y-86190935D01*
X106943896Y-86269234D01*
X106844234Y-86368896D01*
X106765935Y-86486076D01*
X106765931Y-86486085D01*
X106711995Y-86616297D01*
X106684500Y-86754526D01*
X106684500Y-87595473D01*
X106711995Y-87733702D01*
X106765931Y-87863914D01*
X106765935Y-87863923D01*
X106823924Y-87950707D01*
X106844235Y-87981105D01*
X106943895Y-88080765D01*
X106981747Y-88106057D01*
X107061076Y-88159064D01*
X107061082Y-88159066D01*
X107061084Y-88159068D01*
X107191296Y-88213004D01*
X107329529Y-88240500D01*
X107329530Y-88240500D01*
X107470470Y-88240500D01*
X107470471Y-88240500D01*
X107608704Y-88213004D01*
X107738916Y-88159068D01*
X107738919Y-88159065D01*
X107738923Y-88159064D01*
X107789154Y-88125500D01*
X107856105Y-88080765D01*
X107955765Y-87981105D01*
X108021965Y-87882029D01*
X108070013Y-87844151D01*
X108131151Y-87841749D01*
X108182025Y-87875742D01*
X108197723Y-87904334D01*
X108232207Y-88002883D01*
X108312845Y-88112144D01*
X108312847Y-88112146D01*
X108312850Y-88112150D01*
X108312853Y-88112152D01*
X108312855Y-88112154D01*
X108422116Y-88192792D01*
X108422117Y-88192792D01*
X108422118Y-88192793D01*
X108550301Y-88237646D01*
X108580725Y-88240499D01*
X108580727Y-88240500D01*
X108580734Y-88240500D01*
X108654500Y-88240500D01*
X108712691Y-88259407D01*
X108748655Y-88308907D01*
X108753500Y-88339500D01*
X108753500Y-89080900D01*
X108762731Y-89103186D01*
X108794409Y-89179664D01*
X108794410Y-89179664D01*
X108794412Y-89179670D01*
X108795443Y-89182158D01*
X109035505Y-89422220D01*
X109063281Y-89476735D01*
X109064500Y-89492222D01*
X109064500Y-92909777D01*
X109045593Y-92967968D01*
X109035508Y-92979775D01*
X108884942Y-93130343D01*
X108884941Y-93130342D01*
X108807442Y-93207842D01*
X108802581Y-93215116D01*
X108790282Y-93230101D01*
X108786445Y-93233938D01*
X108786442Y-93233942D01*
X108744500Y-93335200D01*
X108744500Y-93512745D01*
X108725593Y-93570936D01*
X108715509Y-93582742D01*
X108659515Y-93638737D01*
X108659513Y-93638739D01*
X108603498Y-93735758D01*
X108599344Y-93751263D01*
X108574500Y-93843982D01*
X108574500Y-93956018D01*
X108595529Y-94034500D01*
X108599199Y-94048196D01*
X108595996Y-94109298D01*
X108557491Y-94156848D01*
X108536270Y-94167263D01*
X108422116Y-94207207D01*
X108312855Y-94287845D01*
X108312845Y-94287855D01*
X108232207Y-94397116D01*
X108197723Y-94495665D01*
X108160657Y-94544346D01*
X108102057Y-94561942D01*
X108044305Y-94541733D01*
X108021964Y-94517969D01*
X107992437Y-94473779D01*
X107955765Y-94418895D01*
X107856105Y-94319235D01*
X107826818Y-94299666D01*
X107738923Y-94240935D01*
X107738914Y-94240931D01*
X107608702Y-94186995D01*
X107470473Y-94159500D01*
X107470471Y-94159500D01*
X107329529Y-94159500D01*
X107329526Y-94159500D01*
X107191297Y-94186995D01*
X107061085Y-94240931D01*
X107061076Y-94240935D01*
X106943896Y-94319234D01*
X106844234Y-94418896D01*
X106765935Y-94536076D01*
X106765931Y-94536085D01*
X106711995Y-94666297D01*
X106684500Y-94804526D01*
X106684500Y-95645473D01*
X106711995Y-95783702D01*
X106765931Y-95913914D01*
X106765935Y-95913923D01*
X106826051Y-96003891D01*
X106844235Y-96031105D01*
X106943895Y-96130765D01*
X106982780Y-96156747D01*
X107061076Y-96209064D01*
X107061082Y-96209066D01*
X107061084Y-96209068D01*
X107191296Y-96263004D01*
X107329529Y-96290500D01*
X107329530Y-96290500D01*
X107470470Y-96290500D01*
X107470471Y-96290500D01*
X107608704Y-96263004D01*
X107738916Y-96209068D01*
X107738919Y-96209065D01*
X107738923Y-96209064D01*
X107797246Y-96170093D01*
X107856105Y-96130765D01*
X107955765Y-96031105D01*
X108021965Y-95932029D01*
X108070013Y-95894151D01*
X108131151Y-95891749D01*
X108182025Y-95925742D01*
X108197723Y-95954334D01*
X108232207Y-96052883D01*
X108312845Y-96162144D01*
X108312847Y-96162146D01*
X108312850Y-96162150D01*
X108312853Y-96162152D01*
X108312855Y-96162154D01*
X108422116Y-96242792D01*
X108422117Y-96242792D01*
X108422118Y-96242793D01*
X108550301Y-96287646D01*
X108554744Y-96288062D01*
X108564962Y-96292475D01*
X108576093Y-96292475D01*
X108592406Y-96304327D01*
X108610914Y-96312320D01*
X108616586Y-96321895D01*
X108625593Y-96328439D01*
X108631823Y-96347615D01*
X108642100Y-96364962D01*
X108644500Y-96386630D01*
X108644500Y-96494877D01*
X108625593Y-96553068D01*
X108615504Y-96564880D01*
X108452725Y-96727660D01*
X108398208Y-96755438D01*
X108382721Y-96756657D01*
X107869413Y-96756657D01*
X107811222Y-96737750D01*
X107799410Y-96727661D01*
X107763419Y-96691671D01*
X107666397Y-96635655D01*
X107666399Y-96635655D01*
X107624408Y-96624404D01*
X107558175Y-96606657D01*
X107446139Y-96606657D01*
X107379905Y-96624404D01*
X107337915Y-96635655D01*
X107240896Y-96691670D01*
X107161670Y-96770896D01*
X107105655Y-96867915D01*
X107099689Y-96890180D01*
X107076657Y-96976139D01*
X107076657Y-97088175D01*
X107092625Y-97147767D01*
X107104999Y-97193949D01*
X107101796Y-97255051D01*
X107063291Y-97302601D01*
X107004190Y-97318436D01*
X106990059Y-97316670D01*
X106954942Y-97309685D01*
X106853467Y-97289500D01*
X106853465Y-97289500D01*
X106646535Y-97289500D01*
X106646532Y-97289500D01*
X106443581Y-97329869D01*
X106252402Y-97409058D01*
X106080348Y-97524020D01*
X105934020Y-97670348D01*
X105819058Y-97842402D01*
X105739869Y-98033581D01*
X105699500Y-98236532D01*
X105432500Y-98236532D01*
X105432500Y-83006532D01*
X105699500Y-83006532D01*
X105699500Y-83213467D01*
X105739869Y-83416418D01*
X105819058Y-83607597D01*
X105933805Y-83779329D01*
X105934023Y-83779655D01*
X106080345Y-83925977D01*
X106252402Y-84040941D01*
X106443580Y-84120130D01*
X106646535Y-84160500D01*
X106646536Y-84160500D01*
X106853464Y-84160500D01*
X106853465Y-84160500D01*
X107056420Y-84120130D01*
X107247598Y-84040941D01*
X107419655Y-83925977D01*
X107565977Y-83779655D01*
X107680941Y-83607598D01*
X107760130Y-83416420D01*
X107800500Y-83213465D01*
X107800500Y-83006535D01*
X107800499Y-83006532D01*
X108239500Y-83006532D01*
X108239500Y-83213467D01*
X108279869Y-83416418D01*
X108359058Y-83607597D01*
X108473805Y-83779329D01*
X108474023Y-83779655D01*
X108620345Y-83925977D01*
X108792402Y-84040941D01*
X108983580Y-84120130D01*
X109186535Y-84160500D01*
X109186536Y-84160500D01*
X109393464Y-84160500D01*
X109393465Y-84160500D01*
X109596420Y-84120130D01*
X109787598Y-84040941D01*
X109959655Y-83925977D01*
X110105977Y-83779655D01*
X110220941Y-83607598D01*
X110300130Y-83416420D01*
X110340500Y-83213465D01*
X110340500Y-83006535D01*
X110340499Y-83006532D01*
X110779500Y-83006532D01*
X110779500Y-83213467D01*
X110819869Y-83416418D01*
X110899058Y-83607597D01*
X111013805Y-83779329D01*
X111014023Y-83779655D01*
X111160345Y-83925977D01*
X111332402Y-84040941D01*
X111523580Y-84120130D01*
X111726535Y-84160500D01*
X111726536Y-84160500D01*
X111933464Y-84160500D01*
X111933465Y-84160500D01*
X112136420Y-84120130D01*
X112327598Y-84040941D01*
X112499655Y-83925977D01*
X112645977Y-83779655D01*
X112760941Y-83607598D01*
X112840130Y-83416420D01*
X112880500Y-83213465D01*
X112880500Y-83006535D01*
X112880499Y-83006532D01*
X113319500Y-83006532D01*
X113319500Y-83213467D01*
X113359869Y-83416418D01*
X113439058Y-83607597D01*
X113553805Y-83779329D01*
X113554023Y-83779655D01*
X113700345Y-83925977D01*
X113872402Y-84040941D01*
X114063580Y-84120130D01*
X114266535Y-84160500D01*
X114266536Y-84160500D01*
X114473464Y-84160500D01*
X114473465Y-84160500D01*
X114676420Y-84120130D01*
X114867598Y-84040941D01*
X115039655Y-83925977D01*
X115185977Y-83779655D01*
X115300941Y-83607598D01*
X115380130Y-83416420D01*
X115420500Y-83213465D01*
X115420500Y-83006535D01*
X115420499Y-83006532D01*
X115859500Y-83006532D01*
X115859500Y-83213467D01*
X115899869Y-83416418D01*
X115979058Y-83607597D01*
X116093805Y-83779329D01*
X116094023Y-83779655D01*
X116240345Y-83925977D01*
X116412402Y-84040941D01*
X116603580Y-84120130D01*
X116806535Y-84160500D01*
X116806536Y-84160500D01*
X116871665Y-84160500D01*
X116929856Y-84179407D01*
X116965820Y-84228907D01*
X116965820Y-84290093D01*
X116957401Y-84309001D01*
X116953498Y-84315760D01*
X116953497Y-84315762D01*
X116953497Y-84315763D01*
X116924500Y-84423982D01*
X116924500Y-84536018D01*
X116929973Y-84556443D01*
X116953498Y-84644241D01*
X117005311Y-84733982D01*
X117009515Y-84741263D01*
X117088737Y-84820485D01*
X117088739Y-84820486D01*
X117185759Y-84876501D01*
X117185757Y-84876501D01*
X117185761Y-84876502D01*
X117185763Y-84876503D01*
X117273615Y-84900042D01*
X117324928Y-84933366D01*
X117343617Y-84970044D01*
X117346155Y-84979515D01*
X117363498Y-85044241D01*
X117419513Y-85141260D01*
X117419515Y-85141263D01*
X117498737Y-85220485D01*
X117498739Y-85220486D01*
X117595759Y-85276501D01*
X117595757Y-85276501D01*
X117595761Y-85276502D01*
X117595763Y-85276503D01*
X117703982Y-85305500D01*
X117703984Y-85305500D01*
X117816016Y-85305500D01*
X117816018Y-85305500D01*
X117924237Y-85276503D01*
X117924239Y-85276501D01*
X117924241Y-85276501D01*
X117945923Y-85263982D01*
X132624500Y-85263982D01*
X132624500Y-85376018D01*
X132645542Y-85454547D01*
X132653498Y-85484241D01*
X132704659Y-85572852D01*
X132709515Y-85581263D01*
X132788737Y-85660485D01*
X132788739Y-85660486D01*
X132885759Y-85716501D01*
X132885757Y-85716501D01*
X132885761Y-85716502D01*
X132885763Y-85716503D01*
X132993982Y-85745500D01*
X132993984Y-85745500D01*
X133106016Y-85745500D01*
X133106018Y-85745500D01*
X133214237Y-85716503D01*
X133214239Y-85716501D01*
X133214241Y-85716501D01*
X133254258Y-85693397D01*
X133311263Y-85660485D01*
X133390485Y-85581263D01*
X133446503Y-85484237D01*
X133466695Y-85408875D01*
X133500019Y-85357563D01*
X133557141Y-85335636D01*
X133562322Y-85335500D01*
X136924877Y-85335500D01*
X136983068Y-85354407D01*
X136994881Y-85364496D01*
X137575504Y-85945119D01*
X137603281Y-85999636D01*
X137604500Y-86015123D01*
X137604500Y-87794877D01*
X137585593Y-87853068D01*
X137575504Y-87864880D01*
X137244882Y-88195503D01*
X137190365Y-88223281D01*
X137174878Y-88224500D01*
X136586127Y-88224500D01*
X136527936Y-88205593D01*
X136491972Y-88156093D01*
X136491972Y-88094907D01*
X136518691Y-88057090D01*
X136516674Y-88055073D01*
X136521260Y-88050486D01*
X136521263Y-88050485D01*
X136600485Y-87971263D01*
X136643929Y-87896016D01*
X136656501Y-87874241D01*
X136656501Y-87874239D01*
X136656503Y-87874237D01*
X136685500Y-87766018D01*
X136685500Y-87653982D01*
X136656503Y-87545763D01*
X136656501Y-87545760D01*
X136656501Y-87545758D01*
X136600486Y-87448739D01*
X136600485Y-87448737D01*
X136521263Y-87369515D01*
X136521260Y-87369513D01*
X136424240Y-87313498D01*
X136424242Y-87313498D01*
X136382251Y-87302247D01*
X136316018Y-87284500D01*
X136203982Y-87284500D01*
X136137748Y-87302247D01*
X136095758Y-87313498D01*
X135998739Y-87369513D01*
X135919513Y-87448739D01*
X135863498Y-87545758D01*
X135863497Y-87545763D01*
X135834500Y-87653982D01*
X135834500Y-87766018D01*
X135854193Y-87839513D01*
X135863498Y-87874241D01*
X135912966Y-87959920D01*
X135919515Y-87971263D01*
X135998737Y-88050485D01*
X135998739Y-88050486D01*
X136003326Y-88055073D01*
X136001190Y-88057208D01*
X136028803Y-88097404D01*
X136027187Y-88158568D01*
X135989928Y-88207101D01*
X135933873Y-88224500D01*
X133984500Y-88224500D01*
X133926309Y-88205593D01*
X133890345Y-88156093D01*
X133885500Y-88125500D01*
X133885500Y-88123983D01*
X133885500Y-88123982D01*
X133856503Y-88015763D01*
X133856501Y-88015760D01*
X133856501Y-88015758D01*
X133800486Y-87918739D01*
X133800485Y-87918737D01*
X133721263Y-87839515D01*
X133714974Y-87835884D01*
X133624240Y-87783498D01*
X133624242Y-87783498D01*
X133582251Y-87772247D01*
X133516018Y-87754500D01*
X133403982Y-87754500D01*
X133337748Y-87772247D01*
X133295758Y-87783498D01*
X133198739Y-87839513D01*
X133119513Y-87918739D01*
X133063498Y-88015758D01*
X133051381Y-88060979D01*
X133034500Y-88123982D01*
X133034500Y-88236018D01*
X133057882Y-88323281D01*
X133063498Y-88344241D01*
X133101185Y-88409515D01*
X133119515Y-88441263D01*
X133198737Y-88520485D01*
X133216070Y-88530492D01*
X133295759Y-88576501D01*
X133295757Y-88576501D01*
X133295761Y-88576502D01*
X133295763Y-88576503D01*
X133403982Y-88605500D01*
X133434876Y-88605500D01*
X133493067Y-88624407D01*
X133504880Y-88634496D01*
X133603941Y-88733557D01*
X133632776Y-88745501D01*
X133632777Y-88745501D01*
X133705200Y-88775500D01*
X133705201Y-88775500D01*
X137384799Y-88775500D01*
X137384800Y-88775500D01*
X137486058Y-88733557D01*
X137563557Y-88656058D01*
X137563556Y-88656058D01*
X138113557Y-88106059D01*
X138126446Y-88074942D01*
X138128700Y-88069501D01*
X138128700Y-88069500D01*
X138155500Y-88004799D01*
X138155500Y-86180000D01*
X138946177Y-86180000D01*
X139356212Y-86180000D01*
X139340000Y-86240504D01*
X139340000Y-86319496D01*
X139356212Y-86380000D01*
X138946178Y-86380000D01*
X138966901Y-86484181D01*
X138966901Y-86484183D01*
X139019666Y-86611571D01*
X139096271Y-86726220D01*
X139193779Y-86823728D01*
X139308428Y-86900333D01*
X139435816Y-86953098D01*
X139571055Y-86979999D01*
X139571057Y-86980000D01*
X139839999Y-86980000D01*
X139840000Y-86979999D01*
X139840000Y-86580000D01*
X140040000Y-86580000D01*
X140040000Y-86979999D01*
X140040001Y-86980000D01*
X140308943Y-86980000D01*
X140308944Y-86979999D01*
X140444183Y-86953098D01*
X140571571Y-86900333D01*
X140686220Y-86823728D01*
X140783728Y-86726220D01*
X140860333Y-86611571D01*
X140913098Y-86484183D01*
X140913098Y-86484181D01*
X140933822Y-86380000D01*
X140523788Y-86380000D01*
X140540000Y-86319496D01*
X140540000Y-86240504D01*
X140523788Y-86180000D01*
X140933822Y-86180000D01*
X140913098Y-86075818D01*
X140913098Y-86075816D01*
X140860333Y-85948428D01*
X140783728Y-85833779D01*
X140686220Y-85736271D01*
X140571571Y-85659666D01*
X140444183Y-85606901D01*
X140308944Y-85580000D01*
X140040001Y-85580000D01*
X140040000Y-85580001D01*
X140040000Y-85980000D01*
X139840000Y-85980000D01*
X139840000Y-85580001D01*
X139839999Y-85580000D01*
X139571055Y-85580000D01*
X139435816Y-85606901D01*
X139308428Y-85659666D01*
X139193779Y-85736271D01*
X139096271Y-85833779D01*
X139019666Y-85948428D01*
X138966901Y-86075816D01*
X138966901Y-86075818D01*
X138946177Y-86180000D01*
X138155500Y-86180000D01*
X138155500Y-85805200D01*
X138153592Y-85800593D01*
X138113557Y-85703942D01*
X138077491Y-85667876D01*
X138036058Y-85626442D01*
X138036058Y-85626443D01*
X137236058Y-84826443D01*
X137236056Y-84826442D01*
X137236055Y-84826441D01*
X137221676Y-84820486D01*
X137221674Y-84820484D01*
X137221674Y-84820485D01*
X137134800Y-84784500D01*
X133324800Y-84784500D01*
X133215200Y-84784500D01*
X133215198Y-84784500D01*
X133113942Y-84826441D01*
X133074879Y-84865504D01*
X133020362Y-84893281D01*
X133004876Y-84894500D01*
X132993982Y-84894500D01*
X132927748Y-84912247D01*
X132885758Y-84923498D01*
X132788739Y-84979513D01*
X132709513Y-85058739D01*
X132653498Y-85155758D01*
X132653497Y-85155763D01*
X132624500Y-85263982D01*
X117945923Y-85263982D01*
X117953064Y-85259859D01*
X118021263Y-85220485D01*
X118057252Y-85184496D01*
X118111769Y-85156719D01*
X118127256Y-85155500D01*
X120664799Y-85155500D01*
X120664800Y-85155500D01*
X120766058Y-85113557D01*
X120843557Y-85036058D01*
X120843556Y-85036058D01*
X121015120Y-84864496D01*
X121069637Y-84836719D01*
X121085123Y-84835500D01*
X123134799Y-84835500D01*
X123134800Y-84835500D01*
X123236058Y-84793557D01*
X123313557Y-84716058D01*
X123313556Y-84716058D01*
X123954707Y-84074907D01*
X124009223Y-84047131D01*
X124062596Y-84053448D01*
X124223580Y-84120130D01*
X124426535Y-84160500D01*
X124426536Y-84160500D01*
X124633464Y-84160500D01*
X124633465Y-84160500D01*
X124836420Y-84120130D01*
X125027598Y-84040941D01*
X125199655Y-83925977D01*
X125345977Y-83779655D01*
X125460941Y-83607598D01*
X125540130Y-83416420D01*
X125580500Y-83213465D01*
X125580500Y-83006581D01*
X126020000Y-83006581D01*
X126020000Y-83213418D01*
X126060349Y-83416272D01*
X126139501Y-83607360D01*
X126139508Y-83607374D01*
X126254405Y-83779329D01*
X126256826Y-83781750D01*
X126652210Y-83386365D01*
X126669901Y-83417007D01*
X126762993Y-83510099D01*
X126793632Y-83527788D01*
X126398249Y-83923173D01*
X126400670Y-83925594D01*
X126572625Y-84040491D01*
X126572639Y-84040498D01*
X126763727Y-84119650D01*
X126966581Y-84159999D01*
X126966586Y-84160000D01*
X127173414Y-84160000D01*
X127173418Y-84159999D01*
X127376272Y-84119650D01*
X127567360Y-84040498D01*
X127567366Y-84040495D01*
X127739333Y-83925591D01*
X127741750Y-83923173D01*
X127346366Y-83527789D01*
X127377007Y-83510099D01*
X127470099Y-83417007D01*
X127487789Y-83386366D01*
X127883173Y-83781750D01*
X127885591Y-83779333D01*
X128000495Y-83607366D01*
X128000498Y-83607360D01*
X128079650Y-83416272D01*
X128119999Y-83213418D01*
X128120000Y-83213413D01*
X128120000Y-83006586D01*
X128119999Y-83006581D01*
X128560000Y-83006581D01*
X128560000Y-83213418D01*
X128600349Y-83416272D01*
X128679501Y-83607360D01*
X128679508Y-83607374D01*
X128794405Y-83779329D01*
X128796826Y-83781750D01*
X129192210Y-83386365D01*
X129209901Y-83417007D01*
X129302993Y-83510099D01*
X129333632Y-83527788D01*
X128938249Y-83923173D01*
X128940670Y-83925594D01*
X129112625Y-84040491D01*
X129112639Y-84040498D01*
X129303727Y-84119650D01*
X129506581Y-84159999D01*
X129506586Y-84160000D01*
X129713414Y-84160000D01*
X129713418Y-84159999D01*
X129916272Y-84119650D01*
X130107360Y-84040498D01*
X130107366Y-84040495D01*
X130279333Y-83925591D01*
X130281750Y-83923173D01*
X129886366Y-83527789D01*
X129917007Y-83510099D01*
X130010099Y-83417007D01*
X130027789Y-83386366D01*
X130423173Y-83781750D01*
X130425591Y-83779333D01*
X130540495Y-83607366D01*
X130540498Y-83607360D01*
X130619650Y-83416272D01*
X130659999Y-83213418D01*
X130660000Y-83213413D01*
X130660000Y-83006585D01*
X130659999Y-83006582D01*
X130659989Y-83006532D01*
X131099500Y-83006532D01*
X131099500Y-83213467D01*
X131139869Y-83416418D01*
X131219058Y-83607597D01*
X131333805Y-83779329D01*
X131334023Y-83779655D01*
X131480345Y-83925977D01*
X131652402Y-84040941D01*
X131843580Y-84120130D01*
X132046535Y-84160500D01*
X132046536Y-84160500D01*
X132253464Y-84160500D01*
X132253465Y-84160500D01*
X132456420Y-84120130D01*
X132617403Y-84053447D01*
X132678399Y-84048647D01*
X132725292Y-84074908D01*
X132891177Y-84240793D01*
X132901728Y-84245163D01*
X132904820Y-84246444D01*
X132930481Y-84257073D01*
X132992436Y-84282736D01*
X133151195Y-84282736D01*
X133209386Y-84301643D01*
X133221198Y-84311732D01*
X133257188Y-84347721D01*
X133354210Y-84403737D01*
X133354208Y-84403737D01*
X133354212Y-84403738D01*
X133354214Y-84403739D01*
X133462433Y-84432736D01*
X133462435Y-84432736D01*
X133574467Y-84432736D01*
X133574469Y-84432736D01*
X133682688Y-84403739D01*
X133682690Y-84403737D01*
X133682692Y-84403737D01*
X133711515Y-84387095D01*
X133779714Y-84347721D01*
X133858936Y-84268499D01*
X133877796Y-84235831D01*
X133892711Y-84210000D01*
X133938181Y-84169059D01*
X133978447Y-84160500D01*
X135559747Y-84160500D01*
X135559748Y-84160500D01*
X135618231Y-84148867D01*
X135684552Y-84104552D01*
X135728867Y-84038231D01*
X135740500Y-83979748D01*
X135740500Y-82240252D01*
X135728867Y-82181769D01*
X135684552Y-82115448D01*
X135684548Y-82115445D01*
X135618233Y-82071134D01*
X135618231Y-82071133D01*
X135618228Y-82071132D01*
X135618227Y-82071132D01*
X135559758Y-82059501D01*
X135559748Y-82059500D01*
X133820252Y-82059500D01*
X133820251Y-82059500D01*
X133820241Y-82059501D01*
X133761772Y-82071132D01*
X133761766Y-82071134D01*
X133695451Y-82115445D01*
X133695445Y-82115451D01*
X133651134Y-82181766D01*
X133651132Y-82181772D01*
X133639501Y-82240241D01*
X133639500Y-82240253D01*
X133639500Y-83482736D01*
X133620593Y-83540927D01*
X133571093Y-83576891D01*
X133540500Y-83581736D01*
X133462433Y-83581736D01*
X133397405Y-83599160D01*
X133354209Y-83610734D01*
X133257184Y-83666752D01*
X133256019Y-83667647D01*
X133255028Y-83667997D01*
X133251569Y-83669995D01*
X133251198Y-83669353D01*
X133198341Y-83688065D01*
X133139677Y-83670682D01*
X133102435Y-83622136D01*
X133100840Y-83560971D01*
X133104292Y-83551222D01*
X133160130Y-83416420D01*
X133200500Y-83213465D01*
X133200500Y-83006535D01*
X133160130Y-82803580D01*
X133080941Y-82612402D01*
X132965977Y-82440345D01*
X132819655Y-82294023D01*
X132739182Y-82240253D01*
X132647597Y-82179058D01*
X132456418Y-82099869D01*
X132253467Y-82059500D01*
X132253465Y-82059500D01*
X132046535Y-82059500D01*
X132046532Y-82059500D01*
X131843581Y-82099869D01*
X131652402Y-82179058D01*
X131480348Y-82294020D01*
X131334020Y-82440348D01*
X131219058Y-82612402D01*
X131139869Y-82803581D01*
X131099500Y-83006532D01*
X130659989Y-83006532D01*
X130619650Y-82803727D01*
X130540498Y-82612639D01*
X130540491Y-82612625D01*
X130425594Y-82440670D01*
X130423173Y-82438249D01*
X130027788Y-82833632D01*
X130010099Y-82802993D01*
X129917007Y-82709901D01*
X129886365Y-82692210D01*
X130281750Y-82296826D01*
X130279329Y-82294405D01*
X130107374Y-82179508D01*
X130107360Y-82179501D01*
X129916272Y-82100349D01*
X129713418Y-82060000D01*
X129506581Y-82060000D01*
X129303727Y-82100349D01*
X129112639Y-82179501D01*
X129112630Y-82179505D01*
X128940665Y-82294410D01*
X128938248Y-82296825D01*
X129333633Y-82692210D01*
X129302993Y-82709901D01*
X129209901Y-82802993D01*
X129192210Y-82833633D01*
X128796825Y-82438248D01*
X128794410Y-82440665D01*
X128679505Y-82612630D01*
X128679501Y-82612639D01*
X128600349Y-82803727D01*
X128560000Y-83006581D01*
X128119999Y-83006581D01*
X128079650Y-82803727D01*
X128000498Y-82612639D01*
X128000491Y-82612625D01*
X127885594Y-82440670D01*
X127883173Y-82438249D01*
X127487788Y-82833632D01*
X127470099Y-82802993D01*
X127377007Y-82709901D01*
X127346365Y-82692210D01*
X127741750Y-82296826D01*
X127739329Y-82294405D01*
X127567374Y-82179508D01*
X127567360Y-82179501D01*
X127376272Y-82100349D01*
X127173418Y-82060000D01*
X126966581Y-82060000D01*
X126763727Y-82100349D01*
X126572639Y-82179501D01*
X126572630Y-82179505D01*
X126400665Y-82294410D01*
X126398248Y-82296825D01*
X126793633Y-82692210D01*
X126762993Y-82709901D01*
X126669901Y-82802993D01*
X126652210Y-82833633D01*
X126256825Y-82438248D01*
X126254410Y-82440665D01*
X126139505Y-82612630D01*
X126139501Y-82612639D01*
X126060349Y-82803727D01*
X126020000Y-83006581D01*
X125580500Y-83006581D01*
X125580500Y-83006535D01*
X125540130Y-82803580D01*
X125460941Y-82612402D01*
X125345977Y-82440345D01*
X125199655Y-82294023D01*
X125119182Y-82240253D01*
X125027597Y-82179058D01*
X124836418Y-82099869D01*
X124633467Y-82059500D01*
X124633465Y-82059500D01*
X124426535Y-82059500D01*
X124426532Y-82059500D01*
X124223581Y-82099869D01*
X124032402Y-82179058D01*
X123860348Y-82294020D01*
X123714020Y-82440348D01*
X123599058Y-82612402D01*
X123519869Y-82803581D01*
X123479500Y-83006532D01*
X123479500Y-83213467D01*
X123519870Y-83416419D01*
X123519870Y-83416421D01*
X123586551Y-83577403D01*
X123591352Y-83638399D01*
X123565091Y-83685291D01*
X122994882Y-84255503D01*
X122940365Y-84283281D01*
X122924878Y-84284500D01*
X122397301Y-84284500D01*
X122339110Y-84265593D01*
X122303146Y-84216093D01*
X122303146Y-84154907D01*
X122339110Y-84105407D01*
X122359411Y-84094037D01*
X122487598Y-84040941D01*
X122659655Y-83925977D01*
X122805977Y-83779655D01*
X122920941Y-83607598D01*
X123000130Y-83416420D01*
X123040500Y-83213465D01*
X123040500Y-83006535D01*
X123000130Y-82803580D01*
X122920941Y-82612402D01*
X122805977Y-82440345D01*
X122659655Y-82294023D01*
X122579182Y-82240253D01*
X122487597Y-82179058D01*
X122296418Y-82099869D01*
X122093467Y-82059500D01*
X122093465Y-82059500D01*
X121886535Y-82059500D01*
X121886532Y-82059500D01*
X121683581Y-82099869D01*
X121492402Y-82179058D01*
X121320348Y-82294020D01*
X121174020Y-82440348D01*
X121059058Y-82612402D01*
X120979869Y-82803581D01*
X120939500Y-83006532D01*
X120939500Y-83213467D01*
X120979870Y-83416419D01*
X120979870Y-83416421D01*
X121046551Y-83577403D01*
X121051352Y-83638399D01*
X121025091Y-83685291D01*
X120534882Y-84175503D01*
X120480365Y-84203281D01*
X120464878Y-84204500D01*
X120029174Y-84204500D01*
X119970983Y-84185593D01*
X119935019Y-84136093D01*
X119935019Y-84074907D01*
X119970983Y-84025407D01*
X119974173Y-84023184D01*
X120119655Y-83925977D01*
X120265977Y-83779655D01*
X120380941Y-83607598D01*
X120460130Y-83416420D01*
X120500500Y-83213465D01*
X120500500Y-83006535D01*
X120460130Y-82803580D01*
X120380941Y-82612402D01*
X120265977Y-82440345D01*
X120119655Y-82294023D01*
X120039182Y-82240253D01*
X119947597Y-82179058D01*
X119756418Y-82099869D01*
X119553467Y-82059500D01*
X119553465Y-82059500D01*
X119346535Y-82059500D01*
X119346532Y-82059500D01*
X119143581Y-82099869D01*
X118952402Y-82179058D01*
X118780348Y-82294020D01*
X118634020Y-82440348D01*
X118519058Y-82612402D01*
X118439869Y-82803581D01*
X118399500Y-83006532D01*
X118399500Y-83213467D01*
X118439869Y-83416418D01*
X118519058Y-83607597D01*
X118633805Y-83779329D01*
X118634023Y-83779655D01*
X118780345Y-83925977D01*
X118897151Y-84004024D01*
X118925827Y-84023184D01*
X118963707Y-84071234D01*
X118966109Y-84132372D01*
X118932117Y-84183246D01*
X118874713Y-84204424D01*
X118870826Y-84204500D01*
X117717256Y-84204500D01*
X117716321Y-84204196D01*
X117715382Y-84204482D01*
X117709498Y-84201979D01*
X117659065Y-84185593D01*
X117657560Y-84184477D01*
X117652091Y-84180343D01*
X117611263Y-84139515D01*
X117555430Y-84107280D01*
X117550542Y-84103585D01*
X117536367Y-84083277D01*
X117519797Y-84064875D01*
X117519136Y-84058592D01*
X117515521Y-84053413D01*
X117515989Y-84028652D01*
X117513401Y-84004024D01*
X117516559Y-83998553D01*
X117516679Y-83992239D01*
X117531609Y-83972486D01*
X117543994Y-83951036D01*
X117553284Y-83943811D01*
X117553574Y-83943428D01*
X117553907Y-83943326D01*
X117555238Y-83942292D01*
X117579649Y-83925981D01*
X117579648Y-83925981D01*
X117579655Y-83925977D01*
X117725977Y-83779655D01*
X117840941Y-83607598D01*
X117920130Y-83416420D01*
X117960500Y-83213465D01*
X117960500Y-83006535D01*
X117920130Y-82803580D01*
X117840941Y-82612402D01*
X117725977Y-82440345D01*
X117579655Y-82294023D01*
X117499182Y-82240253D01*
X117407597Y-82179058D01*
X117216418Y-82099869D01*
X117013467Y-82059500D01*
X117013465Y-82059500D01*
X116806535Y-82059500D01*
X116806532Y-82059500D01*
X116603581Y-82099869D01*
X116412402Y-82179058D01*
X116240348Y-82294020D01*
X116094020Y-82440348D01*
X115979058Y-82612402D01*
X115899869Y-82803581D01*
X115859500Y-83006532D01*
X115420499Y-83006532D01*
X115380130Y-82803580D01*
X115300941Y-82612402D01*
X115185977Y-82440345D01*
X115039655Y-82294023D01*
X114959182Y-82240253D01*
X114867597Y-82179058D01*
X114676418Y-82099869D01*
X114473467Y-82059500D01*
X114473465Y-82059500D01*
X114266535Y-82059500D01*
X114266532Y-82059500D01*
X114063581Y-82099869D01*
X113872402Y-82179058D01*
X113700348Y-82294020D01*
X113554020Y-82440348D01*
X113439058Y-82612402D01*
X113359869Y-82803581D01*
X113319500Y-83006532D01*
X112880499Y-83006532D01*
X112840130Y-82803580D01*
X112760941Y-82612402D01*
X112645977Y-82440345D01*
X112499655Y-82294023D01*
X112419182Y-82240253D01*
X112327597Y-82179058D01*
X112136418Y-82099869D01*
X111933467Y-82059500D01*
X111933465Y-82059500D01*
X111726535Y-82059500D01*
X111726532Y-82059500D01*
X111523581Y-82099869D01*
X111332402Y-82179058D01*
X111160348Y-82294020D01*
X111014020Y-82440348D01*
X110899058Y-82612402D01*
X110819869Y-82803581D01*
X110779500Y-83006532D01*
X110340499Y-83006532D01*
X110300130Y-82803580D01*
X110220941Y-82612402D01*
X110105977Y-82440345D01*
X109959655Y-82294023D01*
X109879182Y-82240253D01*
X109787597Y-82179058D01*
X109596418Y-82099869D01*
X109393467Y-82059500D01*
X109393465Y-82059500D01*
X109186535Y-82059500D01*
X109186532Y-82059500D01*
X108983581Y-82099869D01*
X108792402Y-82179058D01*
X108620348Y-82294020D01*
X108474020Y-82440348D01*
X108359058Y-82612402D01*
X108279869Y-82803581D01*
X108239500Y-83006532D01*
X107800499Y-83006532D01*
X107760130Y-82803580D01*
X107680941Y-82612402D01*
X107565977Y-82440345D01*
X107419655Y-82294023D01*
X107339182Y-82240253D01*
X107247597Y-82179058D01*
X107056418Y-82099869D01*
X106853467Y-82059500D01*
X106853465Y-82059500D01*
X106646535Y-82059500D01*
X106646532Y-82059500D01*
X106443581Y-82099869D01*
X106252402Y-82179058D01*
X106080348Y-82294020D01*
X105934020Y-82440348D01*
X105819058Y-82612402D01*
X105739869Y-82803581D01*
X105699500Y-83006532D01*
X105432500Y-83006532D01*
X105432500Y-81719500D01*
X105451407Y-81661309D01*
X105500907Y-81625345D01*
X105531500Y-81620500D01*
X141432500Y-81620500D01*
X141490691Y-81639407D01*
G37*
%TD.AperFunction*%
%TD*%
M02*
