%TF.GenerationSoftware,KiCad,Pcbnew,9.0.3*%
%TF.CreationDate,2025-08-22T06:12:51+02:00*%
%TF.ProjectId,PCB_MF_PicoMicro,5043425f-4d46-45f5-9069-636f4d696372,rev?*%
%TF.SameCoordinates,Original*%
%TF.FileFunction,Soldermask,Top*%
%TF.FilePolarity,Negative*%
%FSLAX46Y46*%
G04 Gerber Fmt 4.6, Leading zero omitted, Abs format (unit mm)*
G04 Created by KiCad (PCBNEW 9.0.3) date 2025-08-22 06:12:51*
%MOMM*%
%LPD*%
G01*
G04 APERTURE LIST*
G04 Aperture macros list*
%AMRoundRect*
0 Rectangle with rounded corners*
0 $1 Rounding radius*
0 $2 $3 $4 $5 $6 $7 $8 $9 X,Y pos of 4 corners*
0 Add a 4 corners polygon primitive as box body*
4,1,4,$2,$3,$4,$5,$6,$7,$8,$9,$2,$3,0*
0 Add four circle primitives for the rounded corners*
1,1,$1+$1,$2,$3*
1,1,$1+$1,$4,$5*
1,1,$1+$1,$6,$7*
1,1,$1+$1,$8,$9*
0 Add four rect primitives between the rounded corners*
20,1,$1+$1,$2,$3,$4,$5,0*
20,1,$1+$1,$4,$5,$6,$7,0*
20,1,$1+$1,$6,$7,$8,$9,0*
20,1,$1+$1,$8,$9,$2,$3,0*%
%AMFreePoly0*
4,1,9,3.862500,-0.866500,0.737500,-0.866500,0.737500,-0.450000,-0.737500,-0.450000,-0.737500,0.450000,0.737500,0.450000,0.737500,0.866500,3.862500,0.866500,3.862500,-0.866500,3.862500,-0.866500,$1*%
G04 Aperture macros list end*
%ADD10RoundRect,0.140000X-0.170000X0.140000X-0.170000X-0.140000X0.170000X-0.140000X0.170000X0.140000X0*%
%ADD11RoundRect,0.135000X0.135000X0.185000X-0.135000X0.185000X-0.135000X-0.185000X0.135000X-0.185000X0*%
%ADD12RoundRect,0.140000X0.140000X0.170000X-0.140000X0.170000X-0.140000X-0.170000X0.140000X-0.170000X0*%
%ADD13RoundRect,0.225000X-0.225000X-0.375000X0.225000X-0.375000X0.225000X0.375000X-0.225000X0.375000X0*%
%ADD14RoundRect,0.140000X-0.140000X-0.170000X0.140000X-0.170000X0.140000X0.170000X-0.140000X0.170000X0*%
%ADD15RoundRect,0.147500X-0.147500X-0.172500X0.147500X-0.172500X0.147500X0.172500X-0.147500X0.172500X0*%
%ADD16RoundRect,0.135000X-0.135000X-0.185000X0.135000X-0.185000X0.135000X0.185000X-0.135000X0.185000X0*%
%ADD17RoundRect,0.250000X0.265000X0.615000X-0.265000X0.615000X-0.265000X-0.615000X0.265000X-0.615000X0*%
%ADD18O,1.030000X1.730000*%
%ADD19RoundRect,0.140000X0.170000X-0.140000X0.170000X0.140000X-0.170000X0.140000X-0.170000X-0.140000X0*%
%ADD20RoundRect,0.250000X-0.450000X-0.350000X0.450000X-0.350000X0.450000X0.350000X-0.450000X0.350000X0*%
%ADD21RoundRect,0.225000X0.425000X0.225000X-0.425000X0.225000X-0.425000X-0.225000X0.425000X-0.225000X0*%
%ADD22FreePoly0,180.000000*%
%ADD23RoundRect,0.135000X0.185000X-0.135000X0.185000X0.135000X-0.185000X0.135000X-0.185000X-0.135000X0*%
%ADD24R,0.530000X0.470000*%
%ADD25R,0.200000X0.875000*%
%ADD26R,0.875000X0.200000*%
%ADD27C,0.425000*%
%ADD28R,3.400000X3.400000*%
%ADD29RoundRect,0.062500X-0.387500X-0.062500X0.387500X-0.062500X0.387500X0.062500X-0.387500X0.062500X0*%
%ADD30R,0.200000X1.600000*%
%ADD31R,1.050000X0.650000*%
%ADD32R,1.700000X0.700000*%
%ADD33RoundRect,0.135000X-0.185000X0.135000X-0.185000X-0.135000X0.185000X-0.135000X0.185000X0.135000X0*%
%ADD34RoundRect,0.150000X0.500000X-0.150000X0.500000X0.150000X-0.500000X0.150000X-0.500000X-0.150000X0*%
%ADD35RoundRect,0.075000X0.575000X-0.075000X0.575000X0.075000X-0.575000X0.075000X-0.575000X-0.075000X0*%
%ADD36O,2.100000X1.000000*%
%ADD37O,1.600000X1.000000*%
%ADD38R,1.700000X1.700000*%
%ADD39C,1.700000*%
G04 APERTURE END LIST*
D10*
%TO.C,C19*%
X120180000Y-95580000D03*
X120180000Y-96540000D03*
%TD*%
%TO.C,C11*%
X116960000Y-95590000D03*
X116960000Y-96550000D03*
%TD*%
D11*
%TO.C,R2*%
X112380000Y-90170000D03*
X111360000Y-90170000D03*
%TD*%
D12*
%TO.C,C12*%
X112340000Y-93590000D03*
X111380000Y-93590000D03*
%TD*%
D11*
%TO.C,R4*%
X123570000Y-91440000D03*
X122550000Y-91440000D03*
%TD*%
D13*
%TO.C,D1*%
X128560000Y-87060000D03*
X131860000Y-87060000D03*
%TD*%
D14*
%TO.C,C14*%
X122560000Y-86270000D03*
X123520000Y-86270000D03*
%TD*%
D15*
%TO.C,D3*%
X111405000Y-87180000D03*
X112375000Y-87180000D03*
%TD*%
D16*
%TO.C,R9*%
X111380000Y-86190000D03*
X112400000Y-86190000D03*
%TD*%
D12*
%TO.C,C9*%
X112350000Y-88170000D03*
X111390000Y-88170000D03*
%TD*%
D16*
%TO.C,R10*%
X111380000Y-95570000D03*
X112400000Y-95570000D03*
%TD*%
D17*
%TO.C,J7*%
X108900000Y-87175000D03*
D18*
X107400000Y-87175000D03*
%TD*%
D19*
%TO.C,C6*%
X118340000Y-85510000D03*
X118340000Y-84550000D03*
%TD*%
D20*
%TO.C,Y1*%
X107675000Y-91600000D03*
X109875000Y-91600000D03*
X109875000Y-89900000D03*
X107675000Y-89900000D03*
%TD*%
D19*
%TO.C,C13*%
X116010000Y-85510000D03*
X116010000Y-84550000D03*
%TD*%
D21*
%TO.C,U2*%
X131650000Y-92410000D03*
D22*
X131562500Y-90910000D03*
D21*
X131650000Y-89410000D03*
%TD*%
D23*
%TO.C,R7*%
X133340000Y-96390000D03*
X133340000Y-95370000D03*
%TD*%
D19*
%TO.C,C2*%
X126920000Y-86270000D03*
X126920000Y-85310000D03*
%TD*%
D24*
%TO.C,C16*%
X122590000Y-92360000D03*
X122590000Y-93390000D03*
%TD*%
D25*
%TO.C,U1*%
X120300000Y-87110000D03*
X119900000Y-87110000D03*
X119500000Y-87110000D03*
X119100000Y-87110000D03*
X118700000Y-87110000D03*
X118300000Y-87110000D03*
X117900000Y-87110000D03*
X117500000Y-87110000D03*
X117100000Y-87110000D03*
X116700000Y-87110000D03*
X116300000Y-87110000D03*
X115900000Y-87110000D03*
X115500000Y-87110000D03*
X115100000Y-87110000D03*
X114700000Y-87110000D03*
D26*
X114062500Y-87747500D03*
X114062500Y-88147500D03*
X114062500Y-88547500D03*
X114062500Y-88947500D03*
X114062500Y-89347500D03*
X114062500Y-89747500D03*
X114062500Y-90147500D03*
X114062500Y-90547500D03*
X114062500Y-90947500D03*
X114062500Y-91347500D03*
X114062500Y-91747500D03*
X114062500Y-92147500D03*
X114062500Y-92547500D03*
X114062500Y-92947500D03*
X114062500Y-93347500D03*
D25*
X114700000Y-93985000D03*
X115100000Y-93985000D03*
X115500000Y-93985000D03*
X115900000Y-93985000D03*
X116300000Y-93985000D03*
X116700000Y-93985000D03*
X117100000Y-93985000D03*
X117500000Y-93985000D03*
X117900000Y-93985000D03*
X118300000Y-93985000D03*
X118700000Y-93985000D03*
X119100000Y-93985000D03*
X119500000Y-93985000D03*
X119900000Y-93985000D03*
X120300000Y-93985000D03*
D26*
X120937500Y-93347500D03*
X120937500Y-92947500D03*
X120937500Y-92547500D03*
X120937500Y-92147500D03*
X120937500Y-91747500D03*
X120937500Y-91347500D03*
X120937500Y-90947500D03*
X120937500Y-90547500D03*
X120937500Y-90147500D03*
X120937500Y-89747500D03*
X120937500Y-89347500D03*
X120937500Y-88947500D03*
X120937500Y-88547500D03*
X120937500Y-88147500D03*
X120937500Y-87747500D03*
D27*
X118350000Y-89697500D03*
X117500000Y-89697500D03*
X116650000Y-89697500D03*
X118350000Y-90547500D03*
X117500000Y-90547500D03*
D28*
X117500000Y-90547500D03*
D27*
X116650000Y-90547500D03*
X118350000Y-91397500D03*
X117500000Y-91397500D03*
X116650000Y-91397500D03*
%TD*%
D17*
%TO.C,J8*%
X108900000Y-95225000D03*
D18*
X107400000Y-95225000D03*
%TD*%
D19*
%TO.C,C5*%
X106150000Y-91510000D03*
X106150000Y-90550000D03*
%TD*%
D10*
%TO.C,C8*%
X117950000Y-95590000D03*
X117950000Y-96550000D03*
%TD*%
D15*
%TO.C,D2*%
X111400000Y-94580000D03*
X112370000Y-94580000D03*
%TD*%
D12*
%TO.C,C4*%
X112350000Y-89140000D03*
X111390000Y-89140000D03*
%TD*%
D11*
%TO.C,R5*%
X125560000Y-94800000D03*
X124540000Y-94800000D03*
%TD*%
D12*
%TO.C,C18*%
X123550000Y-94800000D03*
X122590000Y-94800000D03*
%TD*%
D11*
%TO.C,R6*%
X112390000Y-92160000D03*
X111370000Y-92160000D03*
%TD*%
%TO.C,R3*%
X123570000Y-90440000D03*
X122550000Y-90440000D03*
%TD*%
D29*
%TO.C,U4*%
X123560000Y-87340000D03*
X123560000Y-87840000D03*
X123560000Y-88340000D03*
X123560000Y-88840000D03*
X126410000Y-88840000D03*
X126410000Y-88340000D03*
X126410000Y-87840000D03*
X126410000Y-87340000D03*
D30*
X124985000Y-88090000D03*
%TD*%
D14*
%TO.C,C15*%
X124480000Y-89850000D03*
X125440000Y-89850000D03*
%TD*%
D23*
%TO.C,R1*%
X124870000Y-86350000D03*
X124870000Y-85330000D03*
%TD*%
D31*
%TO.C,SW1*%
X131805000Y-96460000D03*
X127655000Y-96460000D03*
X131805000Y-94310000D03*
X127680000Y-94310000D03*
%TD*%
D12*
%TO.C,C7*%
X112340000Y-91160000D03*
X111380000Y-91160000D03*
%TD*%
D32*
%TO.C,L1*%
X125170000Y-92250000D03*
X125170000Y-93650000D03*
%TD*%
D19*
%TO.C,C3*%
X125900000Y-86280000D03*
X125900000Y-85320000D03*
%TD*%
D33*
%TO.C,R8*%
X133280000Y-85900000D03*
X133280000Y-86920000D03*
%TD*%
D34*
%TO.C,J3*%
X135120000Y-93800000D03*
X135120000Y-93000000D03*
D35*
X135120000Y-91850000D03*
X135120000Y-90850000D03*
X135120000Y-90350000D03*
X135120000Y-89350000D03*
D34*
X135120000Y-88200000D03*
X135120000Y-87400000D03*
X135120000Y-87400000D03*
X135120000Y-88200000D03*
D35*
X135120000Y-88850000D03*
X135120000Y-89850000D03*
X135120000Y-91350000D03*
X135120000Y-92350000D03*
D34*
X135120000Y-93000000D03*
X135120000Y-93800000D03*
D36*
X135760000Y-94920000D03*
D37*
X139940000Y-94920000D03*
D36*
X135760000Y-86280000D03*
D37*
X139940000Y-86280000D03*
%TD*%
D14*
%TO.C,C1*%
X130060000Y-85300000D03*
X131020000Y-85300000D03*
%TD*%
D24*
%TO.C,C17*%
X123600000Y-92360000D03*
X123600000Y-93390000D03*
%TD*%
D38*
%TO.C,J2*%
X134690000Y-98340000D03*
D39*
X132150000Y-98340000D03*
X129610000Y-98340000D03*
X127070000Y-98340000D03*
X124530000Y-98340000D03*
X121990000Y-98340000D03*
X119450000Y-98340000D03*
X116910000Y-98340000D03*
X114370000Y-98340000D03*
X111830000Y-98340000D03*
X109290000Y-98340000D03*
X106750000Y-98340000D03*
%TD*%
D38*
%TO.C,J1*%
X134690000Y-83110000D03*
D39*
X132150000Y-83110000D03*
X129610000Y-83110000D03*
X127070000Y-83110000D03*
X124530000Y-83110000D03*
X121990000Y-83110000D03*
X119450000Y-83110000D03*
X116910000Y-83110000D03*
X114370000Y-83110000D03*
X111830000Y-83110000D03*
X109290000Y-83110000D03*
X106750000Y-83110000D03*
%TD*%
D10*
%TO.C,C10*%
X121160000Y-95580000D03*
X121160000Y-96540000D03*
%TD*%
M02*
