%TF.GenerationSoftware,KiCad,Pcbnew,9.0.3*%
%TF.CreationDate,2025-08-14T10:04:02+02:00*%
%TF.ProjectId,PCB_MF_PicoMicro,5043425f-4d46-45f5-9069-636f4d696372,rev?*%
%TF.SameCoordinates,Original*%
%TF.FileFunction,Legend,Top*%
%TF.FilePolarity,Positive*%
%FSLAX46Y46*%
G04 Gerber Fmt 4.6, Leading zero omitted, Abs format (unit mm)*
G04 Created by KiCad (PCBNEW 9.0.3) date 2025-08-14 10:04:02*
%MOMM*%
%LPD*%
G01*
G04 APERTURE LIST*
G04 Aperture macros list*
%AMRoundRect*
0 Rectangle with rounded corners*
0 $1 Rounding radius*
0 $2 $3 $4 $5 $6 $7 $8 $9 X,Y pos of 4 corners*
0 Add a 4 corners polygon primitive as box body*
4,1,4,$2,$3,$4,$5,$6,$7,$8,$9,$2,$3,0*
0 Add four circle primitives for the rounded corners*
1,1,$1+$1,$2,$3*
1,1,$1+$1,$4,$5*
1,1,$1+$1,$6,$7*
1,1,$1+$1,$8,$9*
0 Add four rect primitives between the rounded corners*
20,1,$1+$1,$2,$3,$4,$5,0*
20,1,$1+$1,$4,$5,$6,$7,0*
20,1,$1+$1,$6,$7,$8,$9,0*
20,1,$1+$1,$8,$9,$2,$3,0*%
%AMFreePoly0*
4,1,9,3.862500,-0.866500,0.737500,-0.866500,0.737500,-0.450000,-0.737500,-0.450000,-0.737500,0.450000,0.737500,0.450000,0.737500,0.866500,3.862500,0.866500,3.862500,-0.866500,3.862500,-0.866500,$1*%
G04 Aperture macros list end*
%ADD10C,0.153000*%
%ADD11C,0.120000*%
%ADD12C,0.100000*%
%ADD13C,0.528353*%
%ADD14C,0.191421*%
%ADD15RoundRect,0.135000X-0.135000X-0.185000X0.135000X-0.185000X0.135000X0.185000X-0.135000X0.185000X0*%
%ADD16RoundRect,0.140000X-0.170000X0.140000X-0.170000X-0.140000X0.170000X-0.140000X0.170000X0.140000X0*%
%ADD17RoundRect,0.135000X0.135000X0.185000X-0.135000X0.185000X-0.135000X-0.185000X0.135000X-0.185000X0*%
%ADD18RoundRect,0.140000X0.140000X0.170000X-0.140000X0.170000X-0.140000X-0.170000X0.140000X-0.170000X0*%
%ADD19RoundRect,0.225000X-0.225000X-0.375000X0.225000X-0.375000X0.225000X0.375000X-0.225000X0.375000X0*%
%ADD20RoundRect,0.140000X-0.140000X-0.170000X0.140000X-0.170000X0.140000X0.170000X-0.140000X0.170000X0*%
%ADD21RoundRect,0.147500X-0.147500X-0.172500X0.147500X-0.172500X0.147500X0.172500X-0.147500X0.172500X0*%
%ADD22RoundRect,0.250000X0.265000X0.615000X-0.265000X0.615000X-0.265000X-0.615000X0.265000X-0.615000X0*%
%ADD23O,1.030000X1.730000*%
%ADD24RoundRect,0.140000X0.170000X-0.140000X0.170000X0.140000X-0.170000X0.140000X-0.170000X-0.140000X0*%
%ADD25RoundRect,0.250000X-0.450000X-0.350000X0.450000X-0.350000X0.450000X0.350000X-0.450000X0.350000X0*%
%ADD26RoundRect,0.225000X0.425000X0.225000X-0.425000X0.225000X-0.425000X-0.225000X0.425000X-0.225000X0*%
%ADD27FreePoly0,180.000000*%
%ADD28RoundRect,0.135000X0.185000X-0.135000X0.185000X0.135000X-0.185000X0.135000X-0.185000X-0.135000X0*%
%ADD29R,0.530000X0.470000*%
%ADD30R,0.200000X0.875000*%
%ADD31R,0.875000X0.200000*%
%ADD32C,0.425000*%
%ADD33R,3.400000X3.400000*%
%ADD34RoundRect,0.102000X-0.787400X0.787400X-0.787400X-0.787400X0.787400X-0.787400X0.787400X0.787400X0*%
%ADD35C,1.778800*%
%ADD36RoundRect,0.062500X-0.387500X-0.062500X0.387500X-0.062500X0.387500X0.062500X-0.387500X0.062500X0*%
%ADD37R,0.200000X1.600000*%
%ADD38R,1.050000X0.650000*%
%ADD39R,1.700000X0.700000*%
%ADD40RoundRect,0.135000X-0.185000X0.135000X-0.185000X-0.135000X0.185000X-0.135000X0.185000X0.135000X0*%
%ADD41C,0.650000*%
%ADD42RoundRect,0.150000X0.500000X-0.150000X0.500000X0.150000X-0.500000X0.150000X-0.500000X-0.150000X0*%
%ADD43RoundRect,0.075000X0.575000X-0.075000X0.575000X0.075000X-0.575000X0.075000X-0.575000X-0.075000X0*%
%ADD44O,2.100000X1.000000*%
%ADD45O,1.600000X1.000000*%
G04 APERTURE END LIST*
D10*
X111359228Y-96249663D02*
X111549704Y-96249663D01*
X111549704Y-96249663D02*
X111644942Y-96297282D01*
X111644942Y-96297282D02*
X111740180Y-96392520D01*
X111740180Y-96392520D02*
X111787799Y-96582996D01*
X111787799Y-96582996D02*
X111787799Y-96916329D01*
X111787799Y-96916329D02*
X111740180Y-97106805D01*
X111740180Y-97106805D02*
X111644942Y-97202044D01*
X111644942Y-97202044D02*
X111549704Y-97249663D01*
X111549704Y-97249663D02*
X111359228Y-97249663D01*
X111359228Y-97249663D02*
X111263990Y-97202044D01*
X111263990Y-97202044D02*
X111168752Y-97106805D01*
X111168752Y-97106805D02*
X111121133Y-96916329D01*
X111121133Y-96916329D02*
X111121133Y-96582996D01*
X111121133Y-96582996D02*
X111168752Y-96392520D01*
X111168752Y-96392520D02*
X111263990Y-96297282D01*
X111263990Y-96297282D02*
X111359228Y-96249663D01*
X112216371Y-96249663D02*
X112216371Y-97059186D01*
X112216371Y-97059186D02*
X112263990Y-97154424D01*
X112263990Y-97154424D02*
X112311609Y-97202044D01*
X112311609Y-97202044D02*
X112406847Y-97249663D01*
X112406847Y-97249663D02*
X112597323Y-97249663D01*
X112597323Y-97249663D02*
X112692561Y-97202044D01*
X112692561Y-97202044D02*
X112740180Y-97154424D01*
X112740180Y-97154424D02*
X112787799Y-97059186D01*
X112787799Y-97059186D02*
X112787799Y-96249663D01*
X113121133Y-96249663D02*
X113692561Y-96249663D01*
X113406847Y-97249663D02*
X113406847Y-96249663D01*
X110088752Y-84839663D02*
X110088752Y-83839663D01*
X110564942Y-84839663D02*
X110564942Y-83839663D01*
X110564942Y-83839663D02*
X111136370Y-84839663D01*
X111136370Y-84839663D02*
X111136370Y-83839663D01*
D11*
%TO.C,R10*%
X111736359Y-95190000D02*
X112043641Y-95190000D01*
X111736359Y-95950000D02*
X112043641Y-95950000D01*
%TO.C,R9*%
X111726359Y-84880000D02*
X112033641Y-84880000D01*
X111726359Y-85640000D02*
X112033641Y-85640000D01*
%TO.C,C11*%
X116600000Y-95962164D02*
X116600000Y-96177836D01*
X117320000Y-95962164D02*
X117320000Y-96177836D01*
%TO.C,R2*%
X112023641Y-89790000D02*
X111716359Y-89790000D01*
X112023641Y-90550000D02*
X111716359Y-90550000D01*
%TO.C,C12*%
X111967836Y-93230000D02*
X111752164Y-93230000D01*
X111967836Y-93950000D02*
X111752164Y-93950000D01*
%TO.C,R4*%
X123213641Y-91060000D02*
X122906359Y-91060000D01*
X123213641Y-91820000D02*
X122906359Y-91820000D01*
%TO.C,D1*%
X127850000Y-86060000D02*
X127850000Y-88060000D01*
X127850000Y-86060000D02*
X131860000Y-86060000D01*
X127850000Y-88060000D02*
X131860000Y-88060000D01*
%TO.C,C14*%
X122932164Y-85910000D02*
X123147836Y-85910000D01*
X122932164Y-86630000D02*
X123147836Y-86630000D01*
D12*
%TO.C,D3*%
X110835000Y-86250000D02*
G75*
G02*
X110735000Y-86250000I-50000J0D01*
G01*
X110735000Y-86250000D02*
G75*
G02*
X110835000Y-86250000I50000J0D01*
G01*
D11*
%TO.C,C9*%
X111977836Y-87810000D02*
X111762164Y-87810000D01*
X111977836Y-88530000D02*
X111762164Y-88530000D01*
%TO.C,J7*%
X105790000Y-84865000D02*
X105790000Y-88585000D01*
X105790000Y-86675000D02*
X106190000Y-86675000D01*
X105790000Y-87675000D02*
X106190000Y-87675000D01*
X105790000Y-88585000D02*
X110510000Y-88585000D01*
X106190000Y-85265000D02*
X106190000Y-88185000D01*
X106190000Y-88185000D02*
X110110000Y-88185000D01*
X108050000Y-85665000D02*
X108050000Y-85265000D01*
X108150000Y-85265000D02*
X108150000Y-85665000D01*
X108250000Y-85265000D02*
X108250000Y-85665000D01*
X108250000Y-85665000D02*
X108050000Y-85665000D01*
X109200000Y-88585000D02*
X109200000Y-88785000D01*
X109200000Y-88685000D02*
X109500000Y-88685000D01*
X109200000Y-88785000D02*
X109500000Y-88785000D01*
X109500000Y-88785000D02*
X109500000Y-88585000D01*
X109910000Y-88785000D02*
X110710000Y-88785000D01*
X110110000Y-85265000D02*
X106190000Y-85265000D01*
X110110000Y-88185000D02*
X110110000Y-85265000D01*
X110510000Y-84865000D02*
X105790000Y-84865000D01*
X110510000Y-86675000D02*
X110110000Y-86675000D01*
X110510000Y-87675000D02*
X110110000Y-87675000D01*
X110510000Y-88585000D02*
X110510000Y-84865000D01*
X110710000Y-88785000D02*
X110710000Y-87985000D01*
%TO.C,C6*%
X117980000Y-85137836D02*
X117980000Y-84922164D01*
X118700000Y-85137836D02*
X118700000Y-84922164D01*
%TO.C,Y1*%
X106715000Y-89040000D02*
X106715000Y-92460000D01*
X106715000Y-92460000D02*
X110835000Y-92460000D01*
%TO.C,C10*%
X120700000Y-95932164D02*
X120700000Y-96147836D01*
X121420000Y-95932164D02*
X121420000Y-96147836D01*
%TO.C,C13*%
X115650000Y-85137836D02*
X115650000Y-84922164D01*
X116370000Y-85137836D02*
X116370000Y-84922164D01*
%TO.C,U2*%
X128340000Y-88550000D02*
X131060000Y-88550000D01*
X128340000Y-89530000D02*
X128340000Y-88550000D01*
X128340000Y-92290000D02*
X128340000Y-93270000D01*
X130920000Y-93270000D02*
X128340000Y-93270000D01*
X131710000Y-93450000D02*
X131230000Y-93450000D01*
X131470000Y-93120000D01*
X131710000Y-93450000D01*
G36*
X131710000Y-93450000D02*
G01*
X131230000Y-93450000D01*
X131470000Y-93120000D01*
X131710000Y-93450000D01*
G37*
%TO.C,R7*%
X133720000Y-96033641D02*
X133720000Y-95726359D01*
X132960000Y-96033641D02*
X132960000Y-95726359D01*
%TO.C,C2*%
X126560000Y-85897836D02*
X126560000Y-85682164D01*
X127280000Y-85897836D02*
X127280000Y-85682164D01*
%TO.C,U1*%
X113475000Y-86522500D02*
X114300000Y-86522500D01*
X113475000Y-87347500D02*
X113475000Y-86522500D01*
X113475000Y-93747500D02*
X113475000Y-94572500D01*
X113475000Y-94572500D02*
X114300000Y-94572500D01*
X121525000Y-93747500D02*
X121525000Y-94572500D01*
X121525000Y-94572500D02*
X120700000Y-94572500D01*
D13*
X121726576Y-86624748D02*
G75*
G02*
X121198224Y-86624748I-264176J0D01*
G01*
X121198224Y-86624748D02*
G75*
G02*
X121726576Y-86624748I264176J0D01*
G01*
D11*
%TO.C,J8*%
X105790000Y-92915000D02*
X105790000Y-96635000D01*
X105790000Y-94725000D02*
X106190000Y-94725000D01*
X105790000Y-95725000D02*
X106190000Y-95725000D01*
X105790000Y-96635000D02*
X110510000Y-96635000D01*
X106190000Y-93315000D02*
X106190000Y-96235000D01*
X106190000Y-96235000D02*
X110110000Y-96235000D01*
X108050000Y-93715000D02*
X108050000Y-93315000D01*
X108150000Y-93315000D02*
X108150000Y-93715000D01*
X108250000Y-93315000D02*
X108250000Y-93715000D01*
X108250000Y-93715000D02*
X108050000Y-93715000D01*
X109200000Y-96635000D02*
X109200000Y-96835000D01*
X109200000Y-96735000D02*
X109500000Y-96735000D01*
X109200000Y-96835000D02*
X109500000Y-96835000D01*
X109500000Y-96835000D02*
X109500000Y-96635000D01*
X109910000Y-96835000D02*
X110710000Y-96835000D01*
X110110000Y-93315000D02*
X106190000Y-93315000D01*
X110110000Y-96235000D02*
X110110000Y-93315000D01*
X110510000Y-92915000D02*
X105790000Y-92915000D01*
X110510000Y-94725000D02*
X110110000Y-94725000D01*
X110510000Y-95725000D02*
X110110000Y-95725000D01*
X110510000Y-96635000D02*
X110510000Y-92915000D01*
X110710000Y-96835000D02*
X110710000Y-96035000D01*
%TO.C,C5*%
X105790000Y-91137836D02*
X105790000Y-90922164D01*
X106510000Y-91137836D02*
X106510000Y-90922164D01*
%TO.C,C8*%
X117590000Y-95962164D02*
X117590000Y-96177836D01*
X118310000Y-95962164D02*
X118310000Y-96177836D01*
D12*
%TO.C,D2*%
X110845000Y-94580000D02*
G75*
G02*
X110745000Y-94580000I-50000J0D01*
G01*
X110745000Y-94580000D02*
G75*
G02*
X110845000Y-94580000I50000J0D01*
G01*
D11*
%TO.C,C4*%
X111977836Y-88780000D02*
X111762164Y-88780000D01*
X111977836Y-89500000D02*
X111762164Y-89500000D01*
%TO.C,R5*%
X125203641Y-94420000D02*
X124896359Y-94420000D01*
X125203641Y-95180000D02*
X124896359Y-95180000D01*
%TO.C,C18*%
X123177836Y-94440000D02*
X122962164Y-94440000D01*
X123177836Y-95160000D02*
X122962164Y-95160000D01*
%TO.C,R6*%
X112033641Y-91780000D02*
X111726359Y-91780000D01*
X112033641Y-92540000D02*
X111726359Y-92540000D01*
%TO.C,R3*%
X123213641Y-90060000D02*
X122906359Y-90060000D01*
X123213641Y-90820000D02*
X122906359Y-90820000D01*
%TO.C,U4*%
X123485000Y-86955000D02*
X126485000Y-86955000D01*
X123485000Y-89225000D02*
X126485000Y-89225000D01*
X122935000Y-87040000D02*
X122655000Y-87040000D01*
X122935000Y-86760000D01*
X122935000Y-87040000D01*
G36*
X122935000Y-87040000D02*
G01*
X122655000Y-87040000D01*
X122935000Y-86760000D01*
X122935000Y-87040000D01*
G37*
%TO.C,C15*%
X124852164Y-89490000D02*
X125067836Y-89490000D01*
X124852164Y-90210000D02*
X125067836Y-90210000D01*
%TO.C,R1*%
X124490000Y-85993641D02*
X124490000Y-85686359D01*
X125250000Y-85993641D02*
X125250000Y-85686359D01*
%TO.C,SW1*%
X127530000Y-95335000D02*
X127530000Y-95435000D01*
X127530000Y-97135000D02*
X131930000Y-97135000D01*
X131930000Y-93635000D02*
X127530000Y-93635000D01*
X131930000Y-95335000D02*
X131930000Y-95435000D01*
%TO.C,C7*%
X111967836Y-90800000D02*
X111752164Y-90800000D01*
X111967836Y-91520000D02*
X111752164Y-91520000D01*
%TO.C,L1*%
D14*
X126565710Y-92050000D02*
G75*
G02*
X126374290Y-92050000I-95710J0D01*
G01*
X126374290Y-92050000D02*
G75*
G02*
X126565710Y-92050000I95710J0D01*
G01*
D11*
%TO.C,C3*%
X125540000Y-85907836D02*
X125540000Y-85692164D01*
X126260000Y-85907836D02*
X126260000Y-85692164D01*
%TO.C,R8*%
X132900000Y-86256359D02*
X132900000Y-86563641D01*
X133660000Y-86256359D02*
X133660000Y-86563641D01*
%TO.C,J3*%
X134165000Y-93400000D02*
X134165000Y-94200000D01*
X137085000Y-85900000D02*
X138865000Y-85900000D01*
X137085000Y-95300000D02*
X138865000Y-95300000D01*
%TO.C,C1*%
X130432164Y-84940000D02*
X130647836Y-84940000D01*
X130432164Y-85660000D02*
X130647836Y-85660000D01*
%TD*%
%LPC*%
D15*
%TO.C,R10*%
X111380000Y-95570000D03*
X112400000Y-95570000D03*
%TD*%
%TO.C,R9*%
X111370000Y-85260000D03*
X112390000Y-85260000D03*
%TD*%
D16*
%TO.C,C11*%
X116960000Y-95590000D03*
X116960000Y-96550000D03*
%TD*%
D17*
%TO.C,R2*%
X112380000Y-90170000D03*
X111360000Y-90170000D03*
%TD*%
D18*
%TO.C,C12*%
X112340000Y-93590000D03*
X111380000Y-93590000D03*
%TD*%
D17*
%TO.C,R4*%
X123570000Y-91440000D03*
X122550000Y-91440000D03*
%TD*%
D19*
%TO.C,D1*%
X128560000Y-87060000D03*
X131860000Y-87060000D03*
%TD*%
D20*
%TO.C,C14*%
X122560000Y-86270000D03*
X123520000Y-86270000D03*
%TD*%
D21*
%TO.C,D3*%
X111390000Y-86250000D03*
X112360000Y-86250000D03*
%TD*%
D18*
%TO.C,C9*%
X112350000Y-88170000D03*
X111390000Y-88170000D03*
%TD*%
D22*
%TO.C,J7*%
X108900000Y-87175000D03*
D23*
X107400000Y-87175000D03*
%TD*%
D24*
%TO.C,C6*%
X118340000Y-85510000D03*
X118340000Y-84550000D03*
%TD*%
D25*
%TO.C,Y1*%
X107675000Y-91600000D03*
X109875000Y-91600000D03*
X109875000Y-89900000D03*
X107675000Y-89900000D03*
%TD*%
D16*
%TO.C,C10*%
X121060000Y-95560000D03*
X121060000Y-96520000D03*
%TD*%
D24*
%TO.C,C13*%
X116010000Y-85510000D03*
X116010000Y-84550000D03*
%TD*%
D26*
%TO.C,U2*%
X131650000Y-92410000D03*
D27*
X131562500Y-90910000D03*
D26*
X131650000Y-89410000D03*
%TD*%
D28*
%TO.C,R7*%
X133340000Y-96390000D03*
X133340000Y-95370000D03*
%TD*%
D24*
%TO.C,C2*%
X126920000Y-86270000D03*
X126920000Y-85310000D03*
%TD*%
D29*
%TO.C,C16*%
X122590000Y-92360000D03*
X122590000Y-93390000D03*
%TD*%
D30*
%TO.C,U1*%
X120300000Y-87110000D03*
X119900000Y-87110000D03*
X119500000Y-87110000D03*
X119100000Y-87110000D03*
X118700000Y-87110000D03*
X118300000Y-87110000D03*
X117900000Y-87110000D03*
X117500000Y-87110000D03*
X117100000Y-87110000D03*
X116700000Y-87110000D03*
X116300000Y-87110000D03*
X115900000Y-87110000D03*
X115500000Y-87110000D03*
X115100000Y-87110000D03*
X114700000Y-87110000D03*
D31*
X114062500Y-87747500D03*
X114062500Y-88147500D03*
X114062500Y-88547500D03*
X114062500Y-88947500D03*
X114062500Y-89347500D03*
X114062500Y-89747500D03*
X114062500Y-90147500D03*
X114062500Y-90547500D03*
X114062500Y-90947500D03*
X114062500Y-91347500D03*
X114062500Y-91747500D03*
X114062500Y-92147500D03*
X114062500Y-92547500D03*
X114062500Y-92947500D03*
X114062500Y-93347500D03*
D30*
X114700000Y-93985000D03*
X115100000Y-93985000D03*
X115500000Y-93985000D03*
X115900000Y-93985000D03*
X116300000Y-93985000D03*
X116700000Y-93985000D03*
X117100000Y-93985000D03*
X117500000Y-93985000D03*
X117900000Y-93985000D03*
X118300000Y-93985000D03*
X118700000Y-93985000D03*
X119100000Y-93985000D03*
X119500000Y-93985000D03*
X119900000Y-93985000D03*
X120300000Y-93985000D03*
D31*
X120937500Y-93347500D03*
X120937500Y-92947500D03*
X120937500Y-92547500D03*
X120937500Y-92147500D03*
X120937500Y-91747500D03*
X120937500Y-91347500D03*
X120937500Y-90947500D03*
X120937500Y-90547500D03*
X120937500Y-90147500D03*
X120937500Y-89747500D03*
X120937500Y-89347500D03*
X120937500Y-88947500D03*
X120937500Y-88547500D03*
X120937500Y-88147500D03*
X120937500Y-87747500D03*
D32*
X118350000Y-89697500D03*
X117500000Y-89697500D03*
X116650000Y-89697500D03*
X118350000Y-90547500D03*
X117500000Y-90547500D03*
D33*
X117500000Y-90547500D03*
D32*
X116650000Y-90547500D03*
X118350000Y-91397500D03*
X117500000Y-91397500D03*
X116650000Y-91397500D03*
%TD*%
D22*
%TO.C,J8*%
X108900000Y-95225000D03*
D23*
X107400000Y-95225000D03*
%TD*%
D24*
%TO.C,C5*%
X106150000Y-91510000D03*
X106150000Y-90550000D03*
%TD*%
D16*
%TO.C,C8*%
X117950000Y-95590000D03*
X117950000Y-96550000D03*
%TD*%
D21*
%TO.C,D2*%
X111400000Y-94580000D03*
X112370000Y-94580000D03*
%TD*%
D18*
%TO.C,C4*%
X112350000Y-89140000D03*
X111390000Y-89140000D03*
%TD*%
D17*
%TO.C,R5*%
X125560000Y-94800000D03*
X124540000Y-94800000D03*
%TD*%
D18*
%TO.C,C18*%
X123550000Y-94800000D03*
X122590000Y-94800000D03*
%TD*%
D34*
%TO.C,U5*%
X134690000Y-83110000D03*
D35*
X132150000Y-83110000D03*
X129610000Y-83110000D03*
X127070000Y-83110000D03*
X124530000Y-83110000D03*
X121990000Y-83110000D03*
X119450000Y-83110000D03*
X116910000Y-83110000D03*
X114370000Y-83110000D03*
X111830000Y-83110000D03*
X109290000Y-83110000D03*
X106750000Y-83110000D03*
X106750000Y-98350000D03*
X109290000Y-98350000D03*
X111830000Y-98350000D03*
X114370000Y-98350000D03*
X116910000Y-98350000D03*
X119450000Y-98350000D03*
X121990000Y-98350000D03*
X124530000Y-98350000D03*
X127070000Y-98350000D03*
X129610000Y-98350000D03*
X132150000Y-98350000D03*
X134690000Y-98350000D03*
%TD*%
D17*
%TO.C,R6*%
X112390000Y-92160000D03*
X111370000Y-92160000D03*
%TD*%
%TO.C,R3*%
X123570000Y-90440000D03*
X122550000Y-90440000D03*
%TD*%
D36*
%TO.C,U4*%
X123560000Y-87340000D03*
X123560000Y-87840000D03*
X123560000Y-88340000D03*
X123560000Y-88840000D03*
X126410000Y-88840000D03*
X126410000Y-88340000D03*
X126410000Y-87840000D03*
X126410000Y-87340000D03*
D37*
X124985000Y-88090000D03*
%TD*%
D20*
%TO.C,C15*%
X124480000Y-89850000D03*
X125440000Y-89850000D03*
%TD*%
D28*
%TO.C,R1*%
X124870000Y-86350000D03*
X124870000Y-85330000D03*
%TD*%
D38*
%TO.C,SW1*%
X131805000Y-96460000D03*
X127655000Y-96460000D03*
X131805000Y-94310000D03*
X127680000Y-94310000D03*
%TD*%
D18*
%TO.C,C7*%
X112340000Y-91160000D03*
X111380000Y-91160000D03*
%TD*%
D39*
%TO.C,L1*%
X125170000Y-92250000D03*
X125170000Y-93650000D03*
%TD*%
D24*
%TO.C,C3*%
X125900000Y-86280000D03*
X125900000Y-85320000D03*
%TD*%
D40*
%TO.C,R8*%
X133280000Y-85900000D03*
X133280000Y-86920000D03*
%TD*%
D41*
%TO.C,J3*%
X136260000Y-93490000D03*
X136260000Y-87710000D03*
D42*
X135120000Y-93800000D03*
X135120000Y-93000000D03*
D43*
X135120000Y-91850000D03*
X135120000Y-90850000D03*
X135120000Y-90350000D03*
X135120000Y-89350000D03*
D42*
X135120000Y-88200000D03*
X135120000Y-87400000D03*
X135120000Y-87400000D03*
X135120000Y-88200000D03*
D43*
X135120000Y-88850000D03*
X135120000Y-89850000D03*
X135120000Y-91350000D03*
X135120000Y-92350000D03*
D42*
X135120000Y-93000000D03*
X135120000Y-93800000D03*
D44*
X135760000Y-94920000D03*
D45*
X139940000Y-94920000D03*
D44*
X135760000Y-86280000D03*
D45*
X139940000Y-86280000D03*
%TD*%
D20*
%TO.C,C1*%
X130060000Y-85300000D03*
X131020000Y-85300000D03*
%TD*%
D29*
%TO.C,C17*%
X123600000Y-92360000D03*
X123600000Y-93390000D03*
%TD*%
%LPD*%
M02*
