M48
; DRILL file {KiCad 9.0.4} date 2025-09-05T06:37:09+0200
; FORMAT={-:-/ absolute / inch / decimal}
; #@! TF.CreationDate,2025-09-05T06:37:09+02:00
; #@! TF.GenerationSoftware,Kicad,Pcbnew,9.0.4
; #@! TF.FileFunction,Plated,1,2,PTH
FMAT,2
INCH
; #@! TA.AperFunction,Plated,PTH,ComponentDrill
T1C0.0084
; #@! TA.AperFunction,Plated,PTH,ViaDrill
T2C0.0118
; #@! TA.AperFunction,Plated,PTH,ViaDrill
T3C0.0138
; #@! TA.AperFunction,Plated,PTH,ComponentDrill
T4C0.0236
; #@! TA.AperFunction,Plated,PTH,ComponentDrill
T5C0.0287
; #@! TA.AperFunction,Plated,PTH,ComponentDrill
T6C0.0394
%
G90
G05
T1
X4.5925Y-3.5314
X4.5925Y-3.5649
X4.5925Y-3.5983
X4.626Y-3.5314
X4.626Y-3.5649
X4.626Y-3.5983
X4.6594Y-3.5314
X4.6594Y-3.5649
X4.6594Y-3.5983
T2
X4.1732Y-3.7941
X4.1748Y-3.4909
X4.1756Y-3.3516
X4.1772Y-3.661
X4.2303Y-3.4902
X4.2324Y-3.8202
X4.2913Y-3.6969
X4.3083Y-3.4984
X4.3087Y-3.6823
X4.385Y-3.5236
X4.385Y-3.6012
X4.385Y-3.6634
X4.3858Y-3.7024
X4.398Y-3.7709
X4.4228Y-3.4846
X4.4228Y-3.6634
X4.424Y-3.4059
X4.448Y-3.3382
X4.4486Y-3.3857
X4.4637Y-3.3701
X4.4772Y-3.7087
X4.4815Y-3.8028
X4.4822Y-3.3816
X4.4827Y-3.763
X4.4945Y-3.4
X4.5441Y-3.361
X4.5819Y-3.361
X4.6047Y-3.7634
X4.6201Y-3.326
X4.6362Y-3.3417
X4.6437Y-3.8012
X4.7209Y-3.5236
X4.7209Y-3.5457
X4.7209Y-3.5685
X4.778Y-3.7197
X4.8077Y-3.5007
X4.8146Y-3.8028
X4.8295Y-3.4941
X4.8488Y-3.3634
X4.8598Y-3.5201
X4.8681Y-3.7026
X4.9039Y-3.4976
X4.9051Y-3.6315
X4.928Y-3.6319
X4.9437Y-3.4827
X4.9441Y-3.4583
X4.95Y-3.6323
X4.9776Y-3.5287
X4.9906Y-3.6406
X4.9965Y-3.3591
X5.0606Y-3.713
X5.0988Y-3.4713
X5.0996Y-3.5142
X5.1051Y-3.7591
X5.1075Y-3.652
X5.1236Y-3.4713
X5.1472Y-3.4717
X5.1492Y-3.713
X5.2382Y-3.3591
X5.247Y-3.5646
X5.247Y-3.6
X5.2496Y-3.7547
X5.2543Y-3.4717
X5.2566Y-3.3074
X5.2685Y-3.6407
T3
X4.7232Y-3.6583
X4.7315Y-3.763
X4.7701Y-3.763
X4.8252Y-3.3965
X4.865Y-3.5606
X4.865Y-3.6
X4.9008Y-3.5374
X4.9969Y-3.3965
X5.0181Y-3.5004
X5.0224Y-3.3972
T5
X4.2283Y-3.4321
X4.2283Y-3.749
X4.2874Y-3.4321
X4.2874Y-3.749
T6
X4.2028Y-3.272
X4.2028Y-3.8717
X4.3028Y-3.272
X4.3028Y-3.8717
X4.4028Y-3.272
X4.4028Y-3.8717
X4.5028Y-3.272
X4.5028Y-3.8717
X4.6028Y-3.272
X4.6028Y-3.8717
X4.7028Y-3.272
X4.7028Y-3.8717
X4.8028Y-3.272
X4.8028Y-3.8717
X4.9028Y-3.272
X4.9028Y-3.8717
X5.0028Y-3.272
X5.0028Y-3.8717
X5.1028Y-3.272
X5.1028Y-3.8717
X5.2028Y-3.272
X5.2028Y-3.8717
X5.3028Y-3.272
X5.3028Y-3.8717
T4
G00X5.3232Y-3.3969
M15
G01X5.3665Y-3.3969
M16
G05
G00X5.3232Y-3.737
M15
G01X5.3665Y-3.737
M16
G05
G00X5.4976Y-3.3969
M15
G01X5.5213Y-3.3969
M16
G05
G00X5.4976Y-3.737
M15
G01X5.5213Y-3.737
M16
G05
M30
